<svg width="283" height="283" viewBox="0 0 283 283" fill="none" xmlns="http://www.w3.org/2000/svg">
<path d="M182.308 55.0945C181.721 55.5661 181.037 55.9024 180.305 56.0793C178.295 56.5265 172.947 56.3001 172.041 58.7565C171.751 59.4936 171.301 60.1567 170.722 60.6972C170.143 61.2378 169.451 61.6422 168.696 61.8808C168.696 61.8808 164.457 62.1072 164.23 63.0128C164.004 63.9184 162.447 65.4693 162.447 65.4693H235.456C235.456 65.4693 237.912 61.6771 233.893 58.1113C230.379 54.9869 223.955 59.7187 223.139 55.8473" stroke="#263238" stroke-linecap="round" stroke-linejoin="round"/>
<path d="M222.478 50.1647C221.663 47.2271 219.948 43.2651 216.467 41.7935C210.66 39.3371 205.753 42.6878 204.411 46.0329C203.07 49.3779 202.181 51.6136 197.053 48.71C191.925 45.8065 187.431 46.0329 185.892 49.842C185.448 50.9448 184.892 51.9993 184.233 52.989" stroke="#263238" stroke-linecap="round" stroke-linejoin="round"/>
<path d="M58.3262 94.0126H83.6773C83.6773 94.0126 85.1602 91.7486 82.7321 89.5581C80.304 87.3677 75.5722 91.4486 76.2514 86.8583C76.2514 86.8583 75.6854 81.1983 72.1988 79.7041C71.3015 79.2931 70.3123 79.1238 69.3293 79.2132C68.3464 79.3025 67.4039 79.6474 66.5954 80.2135" stroke="#263238" stroke-linecap="round" stroke-linejoin="round"/>
<path d="M64.9087 82.2683C64.0993 84.2946 63.556 85.6643 60.4543 83.8871C57.3526 82.1098 54.6471 82.2683 53.7019 84.5663C52.7567 86.8642 51.5398 88.0755 50.3059 88.3415C49.072 88.6075 45.8515 88.4773 45.3081 89.9659C45.1317 90.4115 44.8584 90.8124 44.5079 91.1393C44.1574 91.4663 43.7386 91.7112 43.2819 91.8563C43.2819 91.8563 40.7179 91.9865 40.582 92.5299C40.312 93.0841 39.946 93.5862 39.501 94.0128H54.3358" stroke="#263238" stroke-linecap="round" stroke-linejoin="round"/>
<path d="M185.223 94.0125H197.194C197.194 94.0125 198.677 91.7485 196.249 89.5581C193.821 87.3677 189.095 91.4485 189.768 86.8583C189.768 86.8583 189.231 81.1983 185.716 79.704C182.201 78.2098 179.241 80.27 178.426 82.268C177.611 84.266 177.079 85.664 173.971 83.8868C170.864 82.1095 168.164 82.268 167.225 84.566C166.285 86.8639 165.062 88.0752 163.829 88.3412C162.595 88.6072 159.374 88.477 158.836 89.9656C158.659 90.4108 158.386 90.8113 158.035 91.1381C157.685 91.465 157.267 91.7102 156.81 91.856C156.81 91.856 154.246 91.9862 154.11 92.5296C153.84 93.0838 153.474 93.5859 153.029 94.0125H181.227" stroke="#263238" stroke-linecap="round" stroke-linejoin="round"/>
<g opacity="0.1">
<path opacity="0.1" d="M13.1485 131.408C15.3785 131.85 20.331 130.655 20.331 130.655C20.331 130.655 18.5538 127.627 18.418 127.452C16.8275 125.403 12.5486 122.358 9.82609 123.376C9.37818 123.555 8.97267 123.825 8.63585 124.17C8.29902 124.514 8.03839 124.926 7.87084 125.378C7.70329 125.83 7.63256 126.312 7.66322 126.793C7.69389 127.274 7.82527 127.743 8.04885 128.171C8.93747 130.016 11.2524 131.029 13.1485 131.408Z" fill="black"/>
<path opacity="0.1" d="M18.0103 145.462C20.1837 145.309 24.3438 143.056 24.6777 142.875C25.9635 145.257 27.4062 147.551 28.9963 149.741C29.9132 151.02 30.8811 152.282 31.8659 153.533C31.3282 153.029 30.8471 152.582 30.7736 152.526C28.702 150.975 23.7778 149.192 21.4119 150.867C21.0269 151.157 20.7071 151.525 20.4733 151.947C20.2395 152.368 20.0969 152.834 20.0547 153.315C20.0126 153.795 20.0718 154.279 20.2286 154.735C20.3854 155.191 20.6362 155.608 20.9648 155.961C22.3119 157.501 24.8079 157.869 26.738 157.733C28.668 157.597 32.2848 155.74 33.2243 155.242C33.6092 155.718 33.9828 156.199 34.3563 156.674C36.2015 158.938 38.0523 161.202 39.8013 163.5C40.4182 164.304 40.9899 165.119 41.5728 165.928C41.0974 165.481 40.6955 165.108 40.6276 165.057C38.5504 163.5 33.6319 161.717 31.266 163.398C30.8795 163.687 30.5583 164.055 30.3234 164.476C30.0886 164.898 29.9454 165.365 29.9032 165.845C29.861 166.326 29.9207 166.811 30.0785 167.267C30.2363 167.723 30.4886 168.14 30.8188 168.492C32.1659 170.038 34.662 170.4 36.592 170.264C38.5221 170.128 41.7879 168.453 42.9086 167.864C43.4746 168.713 44.0406 169.562 44.5613 170.411C44.9009 170.977 45.2632 171.543 45.5688 172.149L46.5084 173.92C47.0744 175.052 47.6404 176.252 48.1554 177.384C48.5177 178.171 48.8516 178.924 49.1855 179.688C48.5799 178.879 47.3687 177.322 47.2498 177.203C45.4386 175.358 40.8427 172.851 38.2448 174.147C37.8203 174.375 37.4485 174.69 37.1537 175.071C36.8588 175.452 36.6473 175.891 36.5331 176.359C36.4189 176.827 36.4044 177.314 36.4906 177.788C36.5768 178.262 36.7618 178.713 37.0335 179.111C38.1316 180.843 40.5427 181.578 42.4728 181.737C44.5953 181.912 48.8856 180.395 49.4176 180.203C49.9836 181.465 50.493 182.693 50.9684 183.865C51.3269 184.725 51.6609 185.557 51.9703 186.361L53.7362 185.976C53.3589 185.089 52.9645 184.161 52.5532 183.191C51.9872 181.912 51.3816 180.554 50.7307 179.167C51.9437 178.347 53.1061 177.455 54.2116 176.496C56.0058 177.752 60.1263 178.76 60.6584 178.912C60.4206 180.265 60.1829 181.578 59.9339 182.818C59.8037 183.474 59.6735 184.091 59.5433 184.708L61.4111 184.301C61.4847 183.916 61.5526 183.537 61.6206 183.135C61.8696 181.759 62.1017 180.305 62.3281 178.771C62.8941 178.771 67.4221 178.697 69.3748 177.797C71.1294 176.977 73.133 175.449 73.5632 173.445C73.6797 172.977 73.6964 172.49 73.6123 172.015C73.5282 171.541 73.3452 171.089 73.0751 170.69C72.8049 170.29 72.4538 169.952 72.0445 169.698C71.6351 169.443 71.1768 169.277 70.6992 169.211C67.8183 168.894 64.377 172.839 63.3412 175.205C63.2789 175.347 62.7752 176.937 62.4696 177.945C62.5545 177.322 62.6507 176.722 62.7299 176.082C62.9054 174.82 63.0412 173.558 63.194 172.194C63.245 171.538 63.2959 170.87 63.3469 170.196C63.3978 169.523 63.3978 168.821 63.4261 168.125C63.4261 166.506 63.4261 164.87 63.3242 163.223C64.4562 163.37 68.3673 163.846 70.2294 163.302C72.0916 162.759 74.3046 161.548 75.0291 159.635C75.2161 159.19 75.3074 158.711 75.2969 158.229C75.2864 157.747 75.1745 157.273 74.9683 156.837C74.7622 156.401 74.4664 156.014 74.1005 155.7C73.7345 155.386 73.3065 155.153 72.8443 155.016C70.0143 154.263 66.0523 157.642 64.6373 159.821C64.5524 159.957 63.7204 161.633 63.2789 162.561C63.2223 161.57 63.1657 160.585 63.0752 159.584C62.8092 156.697 62.4526 153.782 62.113 150.873C62.0054 149.979 61.9092 149.09 61.813 148.201C62.2035 148.258 66.873 148.926 68.9616 148.315C70.8181 147.749 73.0311 146.56 73.7613 144.647C73.9473 144.202 74.0376 143.723 74.0263 143.241C74.015 142.759 73.9024 142.285 73.6958 141.849C73.4892 141.414 73.1932 141.026 72.8271 140.713C72.461 140.399 72.033 140.166 71.5708 140.028C68.7408 139.276 64.7788 142.66 63.3695 144.834C63.262 144.998 62.0677 147.415 61.796 148.043C61.5809 146.079 61.3828 144.126 61.2696 142.19C61.0998 139.578 61.0998 136.958 61.2696 134.346C61.4508 134.374 66.3184 135.093 68.4578 134.465C70.3143 133.899 72.533 132.716 73.2575 130.797C73.4436 130.352 73.5342 129.874 73.5232 129.392C73.5123 128.91 73.4002 128.436 73.1942 128.001C72.9881 127.565 72.6928 127.178 72.3273 126.864C71.9618 126.55 71.5344 126.316 71.0728 126.178C68.2428 125.431 64.2808 128.81 62.8658 130.989C62.7582 131.159 61.4734 133.751 61.2753 134.244C61.2753 134.091 61.2753 133.932 61.2753 133.78C61.518 131.165 61.9935 128.578 62.696 126.048C63.0639 124.644 63.4997 123.326 63.9468 122.052C64.8411 122.279 68.9333 123.269 70.9199 122.918C72.9066 122.567 75.1593 121.622 76.0932 119.799C76.3264 119.378 76.4683 118.912 76.5098 118.432C76.5512 117.952 76.4913 117.469 76.3338 117.014C76.1764 116.558 75.9249 116.141 75.5958 115.789C75.2667 115.438 74.8673 115.159 74.4235 114.971C71.718 113.913 67.3768 116.839 65.741 118.849C65.6561 118.956 64.8751 120.167 64.3147 121.056C64.5298 120.49 64.7336 119.89 64.9486 119.358C65.7467 117.315 66.6014 115.492 67.3711 113.879C67.8183 112.968 68.2371 112.181 68.639 111.394C69.6295 111.162 73.6198 110.166 75.1932 108.961C76.7667 107.755 78.3572 105.859 78.3459 103.81C78.3593 103.328 78.2711 102.848 78.087 102.403C77.9029 101.957 77.6271 101.555 77.2774 101.223C76.9277 100.891 76.512 100.636 76.0573 100.475C75.6027 100.314 75.1193 100.251 74.6386 100.289C71.752 100.601 69.2446 105.191 68.7239 107.732C68.6786 107.947 68.3616 111.462 68.4126 111.451H68.4692C68.0673 112.175 67.6485 112.951 67.2013 113.811C66.3976 115.407 65.5033 117.207 64.6543 119.25C63.728 121.417 62.9286 123.636 62.2601 125.895C61.4925 128.442 60.9546 131.052 60.6527 133.695C60.65 133.727 60.65 133.759 60.6527 133.791C60.4829 132.959 59.9395 130.644 59.8773 130.469C59.0056 128.029 55.887 123.829 52.9834 123.92C52.5032 123.95 52.0346 124.08 51.6079 124.303C51.1813 124.525 50.8062 124.835 50.5068 125.212C50.2075 125.588 49.9906 126.024 49.8703 126.49C49.7499 126.955 49.7287 127.441 49.8081 127.916C50.0798 129.942 51.9589 131.623 53.6456 132.58C55.5474 133.649 60.2622 134.063 60.6357 134.097C60.3939 136.793 60.3315 139.503 60.4489 142.207C60.5112 143.781 60.6187 145.366 60.7489 146.956C60.5848 146.237 60.4263 145.598 60.398 145.513C59.5264 143.073 56.402 138.874 53.5041 138.964C53.0231 138.992 52.5534 139.122 52.1256 139.344C51.6979 139.566 51.3217 139.875 51.0216 140.252C50.7215 140.629 50.5042 141.065 50.3839 141.532C50.2635 141.998 50.2429 142.485 50.3232 142.96C50.5949 144.992 52.474 146.673 54.1607 147.624C55.8474 148.575 59.8829 149.028 60.9527 149.13C61.0093 149.735 61.0546 150.346 61.1168 150.952C61.3942 153.873 61.6828 156.782 61.8866 159.652C61.9602 160.659 61.9885 161.655 62.0281 162.651C61.8753 162.017 61.7451 161.485 61.7168 161.406C60.8451 158.961 57.7548 154.761 54.8229 154.852C54.3416 154.881 53.8718 155.011 53.4441 155.233C53.0163 155.456 52.6402 155.766 52.3402 156.143C52.0402 156.521 51.8229 156.957 51.7026 157.424C51.5823 157.891 51.5617 158.378 51.642 158.853C51.9137 160.885 53.7984 162.566 55.4795 163.517C57.1605 164.468 60.8112 164.876 62.0734 165C62.0734 166.019 62.0734 167.043 62.0734 168.034C62.0281 168.713 62.0337 169.364 61.9545 170.043C61.8753 170.722 61.8243 171.379 61.7621 172.036C61.5866 173.303 61.4225 174.605 61.1961 175.833C61.0659 176.688 60.9244 177.503 60.7829 178.324C60.7263 177.316 60.5678 175.347 60.5395 175.188C60.0151 172.966 58.9297 170.916 57.3869 169.234C57.3423 168.984 57.2721 168.739 57.1775 168.504C57.0174 168.049 56.7633 167.633 56.4318 167.283C56.1002 166.934 55.6987 166.658 55.2533 166.473C54.8079 166.289 54.3287 166.201 53.8469 166.214C53.3651 166.228 52.8915 166.342 52.457 166.551C49.8761 167.875 49.1855 173.066 49.627 175.607C49.627 175.754 50.1081 177.362 50.4081 178.369C50.1421 177.803 49.8874 177.237 49.6044 176.671C49.0384 175.539 48.4724 174.407 47.8441 173.173L46.8706 171.424C46.5536 170.858 46.1518 170.247 45.7895 169.653C44.9236 168.289 43.9783 166.947 42.9992 165.623C44.0066 165.136 47.5272 163.359 48.8063 161.876C50.0855 160.393 51.2345 158.169 50.7873 156.171C50.6948 155.698 50.5044 155.251 50.2282 154.857C49.9521 154.463 49.5964 154.131 49.1841 153.883C48.7718 153.635 48.3121 153.476 47.8347 153.417C47.3572 153.358 46.8726 153.399 46.4121 153.539C43.6614 154.461 42.1954 159.487 42.2237 162.074C42.2237 162.238 42.4558 164.095 42.5973 165.113C42.0313 164.321 41.4144 163.523 40.7861 162.736C38.9749 160.472 37.0675 158.242 35.177 156.006C34.611 155.322 34.045 154.631 33.479 153.946C33.8356 153.776 38.0976 151.756 39.5013 150.092C40.7521 148.615 41.9294 146.384 41.4823 144.386C41.3928 143.912 41.2043 143.463 40.9292 143.066C40.654 142.67 40.2984 142.336 39.8855 142.087C39.4726 141.838 39.0117 141.678 38.533 141.619C38.0542 141.56 37.5683 141.602 37.1071 141.743C34.3563 142.66 32.8904 147.686 32.9187 150.279C32.9187 150.471 33.2583 153.143 33.3715 153.816C32.115 152.305 30.8698 150.782 29.7095 149.231C28.1292 147.145 26.6848 144.96 25.3852 142.688C25.5494 142.609 30.0038 140.521 31.4414 138.817C32.6923 137.34 33.8752 135.11 33.4224 133.112C33.3328 132.638 33.1445 132.189 32.8697 131.793C32.5949 131.398 32.2399 131.064 31.8276 130.815C31.4154 130.566 30.9553 130.406 30.4772 130.346C29.9991 130.286 29.5138 130.328 29.0529 130.469C26.2965 131.385 24.8306 136.412 24.8589 139.004C24.8589 139.208 25.2268 142.083 25.3286 142.598C25.2551 142.462 25.1588 142.338 25.0853 142.202C23.8492 139.885 22.8189 137.465 22.0062 134.968C21.5421 133.599 21.1742 132.257 20.8742 130.944C21.7459 130.644 25.7022 129.212 27.1681 127.82C28.6341 126.427 29.9981 124.424 29.7604 122.369C29.7241 121.888 29.5868 121.42 29.3575 120.996C29.1282 120.572 28.8121 120.201 28.4296 119.907C28.0472 119.613 27.6072 119.404 27.1382 119.291C26.6692 119.179 26.1818 119.167 25.7079 119.256C22.8779 119.867 20.8629 124.701 20.6139 127.282C20.6139 127.423 20.6139 128.861 20.6478 129.914C20.5063 129.32 20.3535 128.708 20.229 128.137C19.7649 125.991 19.4705 123.999 19.2272 122.233C19.097 121.226 19.0008 120.315 18.9159 119.46C19.612 118.718 22.3854 115.685 23.0363 113.8C23.6872 111.915 23.9646 109.464 22.8269 107.766C22.5719 107.357 22.2336 107.005 21.834 106.735C21.4344 106.465 20.9824 106.282 20.5074 106.197C20.0324 106.113 19.5449 106.129 19.0767 106.246C18.6085 106.362 18.1699 106.575 17.7895 106.872C15.5595 108.723 16.001 113.941 16.9632 116.347C17.0424 116.556 18.7178 119.658 18.7517 119.618L18.797 119.573C18.8593 120.399 18.9385 121.271 19.0404 122.245C19.2498 124.016 19.4988 126.02 19.9177 128.188C20.3492 130.524 20.9162 132.833 21.6157 135.104C22.3804 137.649 23.3711 140.121 24.5759 142.49C24.5759 142.49 24.6098 142.547 24.6211 142.575C24.0551 141.97 22.2949 140.34 22.1477 140.232C20.0705 138.676 15.152 136.893 12.7861 138.574C12.3996 138.863 12.0784 139.23 11.8435 139.652C11.6087 140.073 11.4655 140.54 11.4233 141.021C11.3811 141.501 11.4408 141.986 11.5986 142.442C11.7564 142.898 12.0087 143.316 12.3389 143.668C13.5841 145.219 16.0802 145.581 18.0103 145.462Z" fill="black"/>
<path opacity="0.1" d="M63.7201 121.526C63.7711 121.526 63.9069 118.022 63.8899 117.801C63.6918 115.215 61.7901 110.342 58.9714 109.662C58.4997 109.563 58.0123 109.564 57.541 109.665C57.0696 109.767 56.6249 109.966 56.2358 110.251C55.8466 110.535 55.5217 110.899 55.2821 111.317C55.0425 111.735 54.8937 112.199 54.8453 112.679C54.5736 114.711 55.9433 116.828 57.313 118.192C58.9261 119.794 63.7201 121.526 63.7201 121.526Z" fill="black"/>
</g>
<g opacity="0.1">
<path opacity="0.1" d="M265.49 180.152C263.576 180.22 259.62 178.567 259.62 178.567C259.62 178.567 261.499 176.303 261.641 176.162C263.231 174.673 267.188 172.737 269.321 173.898C269.67 174.106 269.971 174.384 270.205 174.716C270.439 175.048 270.6 175.425 270.679 175.823C270.758 176.221 270.753 176.631 270.663 177.027C270.574 177.422 270.402 177.795 270.159 178.12C269.169 179.558 267.114 180.09 265.49 180.152Z" fill="black"/>
<path opacity="0.1" d="M259.574 191.166C257.786 190.753 254.633 188.336 254.378 188.127C252.986 189.937 251.474 191.65 249.85 193.255C248.916 194.2 247.948 195.117 246.964 196.028C247.473 195.677 247.932 195.372 248.005 195.338C249.935 194.319 254.259 193.498 256.003 195.208C256.284 195.5 256.501 195.848 256.64 196.229C256.778 196.61 256.835 197.016 256.806 197.421C256.777 197.826 256.663 198.22 256.472 198.577C256.281 198.935 256.017 199.249 255.697 199.498C254.373 200.602 252.25 200.568 250.665 200.2C249.08 199.832 246.318 197.806 245.605 197.262C245.22 197.608 244.847 197.958 244.473 198.298C242.639 199.951 240.8 201.587 239.04 203.251C238.423 203.817 237.834 204.434 237.245 205.028C237.698 204.722 238.083 204.462 238.145 204.428C240.075 203.415 244.405 202.594 246.149 204.303C246.43 204.595 246.647 204.942 246.785 205.323C246.924 205.704 246.98 206.11 246.951 206.514C246.922 206.918 246.809 207.312 246.618 207.669C246.427 208.026 246.163 208.339 245.843 208.588C244.519 209.72 242.396 209.663 240.806 209.295C239.215 208.928 236.73 207.094 235.876 206.465C235.31 207.094 234.704 207.728 234.178 208.362C233.815 208.803 233.442 209.205 233.108 209.675L232.089 211.022C231.478 211.899 230.838 212.805 230.261 213.676C229.853 214.282 229.48 214.865 229.095 215.454C229.706 214.859 230.923 213.756 231.036 213.648C232.791 212.352 236.94 210.886 238.926 212.307C239.249 212.553 239.515 212.865 239.709 213.221C239.903 213.577 240.021 213.97 240.053 214.375C240.086 214.779 240.033 215.186 239.898 215.569C239.764 215.952 239.55 216.302 239.272 216.597C238.14 217.887 236.023 218.182 234.398 218.051C232.616 217.916 229.253 216.082 228.835 215.85C228.206 216.823 227.606 217.774 227.057 218.68C226.65 219.348 226.259 219.999 225.891 220.621L224.476 220.055C224.901 219.365 225.354 218.651 225.829 217.899C226.463 216.908 227.159 215.867 227.884 214.797C226.985 213.955 226.138 213.059 225.348 212.114C223.69 212.918 220.13 213.246 219.688 213.246C219.688 214.378 219.728 215.51 219.773 216.586C219.773 217.152 219.818 217.684 219.841 218.21L218.347 217.644C218.347 217.31 218.347 216.987 218.347 216.642C218.347 215.465 218.347 214.208 218.347 212.924C217.883 212.844 214.102 212.182 212.619 211.175C211.272 210.258 209.789 208.718 209.721 206.997C209.686 206.593 209.736 206.186 209.869 205.803C210.002 205.419 210.214 205.068 210.492 204.772C210.77 204.476 211.107 204.242 211.481 204.085C211.855 203.929 212.258 203.852 212.664 203.862C215.098 203.986 217.43 207.722 217.996 209.827C218.03 209.952 218.239 211.339 218.358 212.222C218.358 211.69 218.358 211.18 218.386 210.637C218.386 209.567 218.466 208.497 218.516 207.348C218.567 206.782 218.613 206.216 218.658 205.65C218.703 205.084 218.799 204.518 218.873 203.918C219.06 202.571 219.32 201.219 219.609 199.86C218.669 199.86 215.336 199.707 213.858 199.006C212.381 198.304 210.711 197.008 210.36 195.315C210.266 194.921 210.255 194.512 210.329 194.113C210.402 193.715 210.559 193.336 210.789 193.002C211.018 192.668 211.315 192.386 211.661 192.174C212.006 191.962 212.392 191.825 212.794 191.772C215.222 191.523 218.092 194.862 218.969 196.866C219.026 196.991 219.496 198.496 219.733 199.323C219.914 198.507 220.09 197.692 220.299 196.877C220.905 194.512 221.59 192.14 222.263 189.768C222.473 189.038 222.665 188.314 222.869 187.589C222.535 187.589 218.567 187.516 216.915 186.729C215.443 186.027 213.762 184.725 213.417 183.039C213.32 182.645 213.308 182.234 213.381 181.835C213.454 181.436 213.611 181.057 213.84 180.722C214.07 180.388 214.368 180.105 214.714 179.894C215.061 179.683 215.448 179.547 215.851 179.496C218.279 179.247 221.148 182.586 222.026 184.59C222.088 184.737 222.761 186.904 222.903 187.459C223.344 185.863 223.769 184.261 224.12 182.671C224.61 180.524 224.96 178.348 225.167 176.156C225.008 176.156 220.871 176.1 219.179 175.29C217.707 174.594 216.026 173.292 215.675 171.606C215.58 171.211 215.568 170.801 215.641 170.402C215.715 170.002 215.871 169.623 216.101 169.288C216.33 168.954 216.628 168.671 216.974 168.459C217.32 168.247 217.707 168.11 218.109 168.057C220.543 167.808 223.407 171.153 224.284 173.151C224.358 173.309 225.076 175.641 225.178 176.071C225.178 175.941 225.212 175.811 225.224 175.686C225.37 173.481 225.319 171.266 225.071 169.07C224.952 167.859 224.771 166.704 224.567 165.583C223.797 165.651 220.265 165.929 218.658 165.374C217.051 164.819 215.307 163.732 214.775 162.091C214.637 161.709 214.581 161.303 214.611 160.898C214.64 160.494 214.754 160.1 214.946 159.742C215.138 159.384 215.402 159.071 215.723 158.822C216.044 158.574 216.413 158.395 216.807 158.299C219.19 157.784 222.411 160.789 223.503 162.68C223.56 162.782 224.069 163.891 224.392 164.706C224.295 164.202 224.199 163.682 224.097 163.2C223.707 161.395 223.237 159.765 222.812 158.327C222.563 157.512 222.32 156.776 222.088 156.063C221.296 155.735 218.126 154.365 216.994 153.165C215.862 151.965 214.775 150.165 215.058 148.467C215.11 148.065 215.247 147.677 215.459 147.331C215.671 146.984 215.953 146.687 216.288 146.457C216.623 146.227 217.003 146.071 217.402 145.998C217.802 145.925 218.212 145.937 218.607 146.034C220.962 146.679 222.433 150.828 222.535 153.007C222.535 153.199 222.337 156.154 222.297 156.137H222.246C222.484 156.793 222.733 157.495 222.988 158.271C223.446 159.703 223.95 161.327 224.38 163.127C224.87 165.066 225.248 167.031 225.512 169.013C225.809 171.232 225.909 173.473 225.812 175.709C225.809 175.735 225.809 175.762 225.812 175.788C226.061 175.115 226.825 173.264 226.899 173.128C227.946 171.221 231.099 168.142 233.498 168.6C233.894 168.688 234.267 168.859 234.593 169.101C234.919 169.342 235.19 169.65 235.389 170.003C235.588 170.357 235.71 170.748 235.748 171.152C235.787 171.555 235.739 171.963 235.61 172.347C235.112 174 233.346 175.177 231.8 175.743C230.074 176.383 226.101 176.094 225.79 176.071C225.595 178.34 225.251 180.594 224.759 182.818C224.499 184.12 224.193 185.422 223.876 186.723C224.109 186.157 224.324 185.642 224.363 185.591C225.416 183.678 228.569 180.605 230.963 181.063C231.359 181.151 231.733 181.321 232.059 181.562C232.385 181.804 232.656 182.112 232.856 182.465C233.055 182.819 233.177 183.21 233.215 183.614C233.252 184.019 233.204 184.426 233.074 184.81C232.576 186.457 230.81 187.606 229.265 188.172C227.72 188.738 224.324 188.574 223.424 188.512C223.299 189.01 223.175 189.514 223.044 190.006C222.422 192.395 221.794 194.778 221.245 197.132C221.052 197.964 220.888 198.785 220.73 199.611C220.939 199.102 221.114 198.677 221.148 198.615C222.201 196.702 225.354 193.629 227.754 194.087C228.149 194.175 228.522 194.346 228.848 194.588C229.174 194.829 229.445 195.137 229.644 195.49C229.843 195.844 229.966 196.235 230.004 196.639C230.042 197.042 229.994 197.45 229.865 197.834C229.367 199.481 227.601 200.63 226.05 201.196C224.499 201.762 221.443 201.609 220.39 201.547C220.248 202.396 220.107 203.245 220.005 204.077C219.954 204.643 219.864 205.209 219.835 205.775L219.733 207.473C219.705 208.548 219.671 209.652 219.671 210.699C219.671 211.429 219.671 212.125 219.671 212.822C219.852 211.995 220.237 210.382 220.294 210.252C221.02 208.477 222.189 206.918 223.69 205.724C223.762 205.527 223.853 205.337 223.961 205.158C224.156 204.802 224.423 204.492 224.745 204.246C225.068 204 225.438 203.825 225.832 203.732C226.227 203.638 226.636 203.629 227.035 203.704C227.433 203.779 227.811 203.937 228.144 204.167C230.114 205.616 229.995 210.02 229.276 212.091C229.236 212.21 228.648 213.49 228.263 214.288C228.563 213.852 228.829 213.427 229.157 212.98C229.769 212.103 230.402 211.237 231.087 210.309L232.129 208.984C232.468 208.537 232.882 208.101 233.261 207.654C234.166 206.641 235.129 205.65 236.119 204.677C235.344 204.139 232.638 202.192 231.795 200.794C230.951 199.396 230.267 197.398 230.912 195.785C231.05 195.406 231.266 195.061 231.545 194.771C231.825 194.481 232.162 194.252 232.535 194.1C232.909 193.948 233.309 193.876 233.712 193.889C234.115 193.901 234.511 193.997 234.874 194.172C237.036 195.304 237.585 199.673 237.217 201.824C237.217 201.954 236.753 203.471 236.498 204.292C237.098 203.726 237.693 203.132 238.321 202.566C240.132 200.924 242.011 199.323 243.879 197.721L245.577 196.232C245.3 196.045 242.028 193.798 241.083 192.231C240.24 190.838 239.56 188.835 240.2 187.227C240.338 186.849 240.554 186.503 240.833 186.213C241.113 185.923 241.45 185.694 241.823 185.541C242.196 185.389 242.597 185.316 242.999 185.328C243.402 185.339 243.798 185.435 244.162 185.608C246.324 186.74 246.873 191.11 246.505 193.261C246.505 193.425 245.843 195.598 245.656 196.142C246.907 195.055 248.141 193.951 249.313 192.819C250.933 191.286 252.449 189.647 253.852 187.912C253.722 187.821 250.303 185.495 249.324 183.888C248.481 182.49 247.796 180.492 248.435 178.879C248.574 178.497 248.792 178.15 249.074 177.858C249.356 177.566 249.696 177.337 250.072 177.185C250.448 177.033 250.852 176.961 251.257 176.975C251.663 176.989 252.061 177.088 252.426 177.266C254.588 178.398 255.137 182.767 254.769 184.918C254.74 185.088 254.056 187.425 253.903 187.838C253.982 187.742 254.073 187.646 254.152 187.544C255.49 185.786 256.671 183.913 257.678 181.946C258.244 180.865 258.731 179.801 259.178 178.76C258.493 178.392 255.397 176.671 254.367 175.324C253.337 173.977 252.476 172.104 252.935 170.445C253.029 170.05 253.206 169.68 253.454 169.358C253.701 169.036 254.014 168.77 254.371 168.577C254.729 168.384 255.123 168.269 255.528 168.239C255.933 168.209 256.339 168.264 256.721 168.402C258.985 169.291 260.021 173.57 259.891 175.76C259.891 175.879 259.676 177.073 259.518 177.939C259.71 177.469 259.919 176.983 260.084 176.524C260.751 174.826 261.261 173.185 261.702 171.747C261.946 170.932 262.149 170.185 262.331 169.483C261.849 168.77 259.948 165.883 259.659 164.242C259.37 162.6 259.467 160.512 260.638 159.255C260.904 158.949 261.232 158.702 261.599 158.531C261.967 158.359 262.367 158.267 262.773 158.26C263.178 158.253 263.581 158.331 263.954 158.49C264.328 158.649 264.663 158.885 264.94 159.182C266.553 161.021 265.506 165.295 264.374 167.162C264.278 167.327 262.472 169.681 262.449 169.647L262.415 169.602C262.257 170.281 262.07 171 261.849 171.787C261.493 173.196 260.995 174.849 260.361 176.592C259.696 178.477 258.921 180.322 258.04 182.116C257.066 184.13 255.912 186.053 254.593 187.861C254.578 187.883 254.561 187.904 254.542 187.923C255.108 187.504 256.778 186.378 256.914 186.305C258.844 185.291 263.174 184.465 264.917 186.174C265.199 186.466 265.416 186.814 265.554 187.196C265.692 187.577 265.749 187.983 265.72 188.388C265.691 188.792 265.578 189.186 265.387 189.544C265.196 189.902 264.932 190.216 264.612 190.465C263.287 191.568 261.159 191.54 259.574 191.166Z" fill="black"/>
<path opacity="0.1" d="M224.782 165.198C224.737 165.198 225.094 162.261 225.139 162.074C225.648 159.957 227.878 156.159 230.312 155.972C230.717 155.953 231.122 156.018 231.5 156.165C231.878 156.312 232.22 156.538 232.506 156.826C232.791 157.114 233.012 157.459 233.155 157.839C233.298 158.219 233.359 158.624 233.335 159.029C233.295 160.727 231.874 162.329 230.55 163.28C228.993 164.395 224.782 165.193 224.782 165.198Z" fill="black"/>
</g>
<path d="M118.096 18.8818L125.171 86.117" stroke="#263238" stroke-linecap="round" stroke-linejoin="round"/>
<path d="M139.315 33.1677L134.04 34.379L129.212 43.9274L121.566 41.7426L121.351 43.8255L130.859 47.7705L134.261 43.0501V51.2854L144.472 51.7269L146.56 42.3935L150.29 45.6876V54.3588H152.486L153.805 43.4916L147.987 34.0507L139.315 33.1677Z" fill="white" stroke="#263238" stroke-linecap="round" stroke-linejoin="round"/>
<path d="M134.262 43.0502L134.183 38.4033" stroke="#263238" stroke-linecap="round" stroke-linejoin="round"/>
<path d="M139.236 36.2239L140.668 38.9124C140.668 38.9124 144.63 40.1689 145.332 40.3444C146.034 40.5198 148.202 39.8067 149.99 39.4501C151.779 39.0935 157.524 41.9575 157.524 41.9575L162.544 42.1386L159.856 38.9124L150.171 37.4748L145.151 39.0935L141.755 38.1936L142.48 36.7899L140.866 34.2769L139.236 36.2239Z" fill="black" stroke="#263238" stroke-linecap="round" stroke-linejoin="round"/>
<path d="M139.753 32.3979C139.461 32.3428 139.159 32.4044 138.913 32.5696C138.666 32.7347 138.494 32.9902 138.434 33.2809C138.219 34.3789 137.998 37.124 137.998 37.124L140.63 36.3543L143.709 37.673C143.709 37.673 144.694 34.8147 144.145 33.8299C143.596 32.8451 141.071 31.5206 139.753 32.3979Z" fill="white" stroke="#263238" stroke-linecap="round" stroke-linejoin="round"/>
<path d="M139.202 30.864C139.202 30.864 139.53 33.9374 139.644 35.0354C139.757 36.1335 140.413 37.7805 140.849 37.4523C141.285 37.124 142.825 34.0563 142.825 34.0563L143.594 31.9734L139.202 30.864Z" fill="white" stroke="#263238" stroke-linecap="round" stroke-linejoin="round"/>
<path d="M139.237 26.3758C139.237 26.3758 138.274 26.2909 138.274 27.8644C138.274 29.4379 138.971 29.5228 138.971 29.5228L139.237 26.3758Z" fill="white" stroke="#263238" stroke-linecap="round" stroke-linejoin="round"/>
<path d="M145.673 27.689C145.798 27.6956 145.919 27.7295 146.03 27.7883C146.14 27.847 146.236 27.9292 146.311 28.029C146.386 28.1288 146.438 28.2439 146.464 28.366C146.489 28.4882 146.488 28.6145 146.46 28.7361C146.284 29.6983 144.626 31.0001 144.626 31.0001L145.673 27.689Z" fill="white" stroke="#263238" stroke-linecap="round" stroke-linejoin="round"/>
<path d="M142.496 23.206C142.496 23.206 140.741 22.7645 139.75 24.853C138.76 26.9416 138.981 29.4659 139.184 30.8923C139.388 32.3186 140.724 32.9751 142.043 32.9751C143.362 32.9751 145.331 30.2357 145.773 28.1472C146.214 26.0586 145.897 23.206 142.496 23.206Z" fill="white" stroke="#263238" stroke-linecap="round" stroke-linejoin="round"/>
<path d="M119.443 40.5254L119.879 43.8195L121.855 44.0403L121.526 40.3047L119.443 40.5254Z" fill="white" stroke="#263238" stroke-linecap="round" stroke-linejoin="round"/>
<path d="M121.565 40.4747L122.363 40.3672L122.522 42.1218L121.724 42.2293L121.565 40.4747Z" fill="white" stroke="#263238" stroke-linecap="round" stroke-linejoin="round"/>
<path d="M150.291 54.3586L149.091 56.2378L149.402 58.1225L150.449 58.0207L152.232 57.3924L152.487 54.3586H150.291Z" fill="white" stroke="#263238" stroke-linecap="round" stroke-linejoin="round"/>
<path d="M134.261 51.2854L133.485 54.6701L124.894 65.9788L130.655 82.2173L132.121 81.9003L130.865 66.3976L137.883 58.9604L138.721 59.4867L138.744 67.7843L146.786 81.3796L148.462 80.9551L144.692 67.8635L144.902 53.9343L144.472 51.7269L134.261 51.2854Z" fill="#263238" stroke="#263238" stroke-linecap="round" stroke-linejoin="round"/>
<path d="M130.656 82.2173L129.4 83.9946C129.4 83.9946 127.408 84.9398 127.096 85.4605C126.785 85.9813 128.794 85.8794 128.794 85.8794L131.098 85.67L133.509 84.1021L132.145 81.9004L130.656 82.2173Z" fill="white" stroke="#263238" stroke-linecap="round" stroke-linejoin="round"/>
<path d="M118.396 21.2761C118.396 21.2761 117.343 23.676 112.997 25.323C108.65 26.9701 102.356 27.87 100.709 31.317C99.0616 34.7639 99.0616 34.4696 98.7616 36.411C98.6013 37.5458 98.0746 38.5972 97.2617 39.4051C97.2617 39.4051 98.7616 39.5579 99.5257 38.5108C100.29 37.4637 100.578 34.4639 101.79 34.0111C103.001 33.5583 105.203 32.8282 105.203 32.8282C105.203 32.8282 103.108 34.6281 102.939 35.528C102.769 36.4279 102.639 38.5278 102.339 39.8749C102.208 40.6114 101.85 41.2883 101.314 41.8106C101.314 41.8106 103.261 41.8106 103.861 40.4635C104.461 39.1164 103.861 37.3166 105.808 35.9638C107.755 34.6111 109.855 35.2167 113.166 35.3639C116.477 35.511 119.613 33.5696 119.613 33.5696L118.396 21.2761Z" fill="black" stroke="#263238" stroke-linecap="round" stroke-linejoin="round"/>
<path d="M146.787 81.3796L145.344 86.1736L148.927 86.0321L148.462 80.9551L146.787 81.3796Z" fill="white" stroke="#263238" stroke-linecap="round" stroke-linejoin="round"/>
<path d="M141.297 27.4114C141.235 27.6944 141.036 27.8925 140.844 27.8529C140.652 27.8133 140.55 27.5473 140.612 27.2869C140.674 27.0266 140.872 26.8058 141.065 26.8454C141.257 26.8851 141.353 27.1284 141.297 27.4114Z" fill="#263238"/>
<path d="M143.918 28.0228C143.856 28.3058 143.658 28.5039 143.465 28.4643C143.273 28.4246 143.171 28.1586 143.233 27.8983C143.295 27.6379 143.493 27.4172 143.686 27.4568C143.878 27.4964 143.975 27.7341 143.918 28.0228Z" fill="#263238"/>
<path d="M142.174 27.7737L141.478 29.8735H142.615" stroke="#263238" stroke-linecap="round" stroke-linejoin="round"/>
<path d="M140.606 30.4849C140.606 30.4849 141.218 31.532 142.791 30.9207" stroke="#263238" stroke-linecap="round" stroke-linejoin="round"/>
<path d="M140.516 25.9398C140.743 25.8169 141.006 25.7757 141.261 25.8231C141.515 25.8705 141.745 26.0036 141.914 26.2002" stroke="#263238" stroke-linecap="round" stroke-linejoin="round"/>
<path d="M143.227 26.5512C143.38 26.4673 143.549 26.4166 143.723 26.4025C143.897 26.3884 144.072 26.4112 144.236 26.4695C144.401 26.5277 144.551 26.62 144.678 26.7405C144.804 26.8609 144.904 27.0066 144.97 27.1682" stroke="#263238" stroke-linecap="round" stroke-linejoin="round"/>
<path d="M138.857 25.6794L145.146 24.904C145.146 24.904 144.885 25.9511 145.236 26.2115C145.587 26.4718 145.672 27.7001 145.672 27.7001L145.412 29.0981L146.81 26.653C146.81 26.653 147.246 24.7286 146.895 24.1173C146.78 23.9328 146.627 23.7748 146.447 23.6538C146.266 23.5328 146.062 23.4516 145.848 23.4154C145.473 22.8492 144.946 22.4011 144.326 22.1234C143.707 21.8458 143.021 21.7502 142.35 21.8476C139.905 22.108 138.857 23.3305 138.857 24.2927V25.6794Z" fill="#263238" stroke="#263238" stroke-linecap="round" stroke-linejoin="round"/>
<path d="M134.215 263.303L145.308 199.645L103.436 161.22L118.633 109.442L102.366 109.804L95.4947 115.951L81.1352 115.6L79.1939 122.601L75.2545 122.109L73.8961 124.565L67.1777 137.98L63.6855 151.377L50.6675 167.649L49.2411 206.047L28.2539 236.339L21.6543 263.303H134.215Z" fill="#808080" stroke="#39515E" stroke-linecap="round" stroke-linejoin="round"/>
<path d="M228.697 263.303L214.801 232.836L237.441 247.919V223.78L224.135 208.016L226.104 190.284L205.898 151.858L204.891 138.557L197.997 132.15L162.61 134.708L160.086 122.284L137.446 109.476L123.862 142.366L111.348 147.902L120.166 159.991L118.74 169.574L121.689 184.369L72.4465 195.208C72.4465 195.208 71.9541 218.855 71.9541 220.825C71.9541 222.795 62.1001 234.126 62.1001 234.126L61.6416 263.303H228.697Z" fill="#ABABAB" stroke="#39515E" stroke-linecap="round" stroke-linejoin="round"/>
<path d="M256.12 263.303L250.239 260.728L242.847 244.965L233.978 238.563L230.039 229.202L226.099 221.81L205.044 211.526L208.31 263.303H256.12Z" fill="#CCCCCC" stroke="#39515E" stroke-linecap="round" stroke-linejoin="round"/>
<path d="M35.7429 263.241H62.0676L62.543 247.919L60.0809 239.056V215.408L54.1719 214.424L49.242 219.84L41.3633 224.278L24.2871 263.303H35.7429V263.241Z" fill="#CCCCCC" stroke="#39515E" stroke-linecap="round" stroke-linejoin="round"/>
<path d="M44.8486 237.59L45.4259 235.134" stroke="#39515E" stroke-miterlimit="10"/>
<path d="M35.7432 263.303L39.2524 249.442L42.5635 247.336L44.4992 239.084" stroke="#39515E" stroke-miterlimit="10"/>
<path d="M30.0596 263.45L35.6347 247.636" stroke="#39515E" stroke-miterlimit="10"/>
<path d="M54.2504 220.967L53.707 223.536" stroke="#39515E" stroke-miterlimit="10"/>
<path d="M55.5125 214.956L54.4824 219.863" stroke="#39515E" stroke-miterlimit="10"/>
<path d="M62.0667 263.241L62.5421 247.919L60.08 239.056V215.408L55.1558 246.935L50.7184 248.412L49.2411 257.281L48.3242 263.241H62.0667Z" fill="white" stroke="#39515E" stroke-linecap="round" stroke-linejoin="round"/>
<path d="M146.372 245.768C149.173 245.389 151.911 244.643 154.517 243.55C156.597 242.701 158.428 241.338 159.837 239.588C160.001 239.367 160.154 239.135 160.301 238.903L156.413 221.357L148.744 214.667L147.464 208.927L140.106 203.188L137.559 212.12L133.411 217.859L133.094 238.909L137.056 246.482C140.174 246.455 143.286 246.217 146.372 245.768Z" fill="white" stroke="#39515E" stroke-linecap="round" stroke-linejoin="round"/>
<path d="M146.373 245.769L145.592 239.214L147.895 233.005V229.326L147.431 223.576" stroke="#39515E" stroke-miterlimit="10"/>
<path d="M151.042 225.845L152.265 232.773L154.563 233.232L154.104 238.982L155.021 241.976" stroke="#39515E" stroke-miterlimit="10"/>
<path d="M150.192 221.046L150.6 223.355" stroke="#39515E" stroke-miterlimit="10"/>
<path d="M142.603 206.324L144.442 225.183" stroke="#39515E" stroke-miterlimit="10"/>
<path d="M120.133 245.299C125.424 246.103 130.77 246.5 136.122 246.487C137.198 246.487 138.25 246.459 139.286 246.419L139.173 240.499L137.26 237.952V219.772L140.452 216.58L140.129 203.194L136.303 210.212L131.209 214.673L128.017 223.921L122.923 229.983L121.644 236.362L115.588 241.456L113.171 244.031C115.454 244.518 117.774 244.94 120.133 245.299Z" fill="#CCCCCC" stroke="#39515E" stroke-linecap="round" stroke-linejoin="round"/>
<path d="M212.306 263.303L239.049 263.252L204.421 242.503L196.05 222.302L189.151 221.317L183.242 213.439L180.282 216.393L182.251 233.634L174.865 245.95V253.834L171.418 262.698L188.081 263.303H212.306Z" fill="white" stroke="#39515E" stroke-linecap="round" stroke-linejoin="round"/>
<path d="M198.892 263.269L197.63 256.223L199.617 252.063L199.073 243.929L200.703 245.559L211.729 263.269H198.892Z" fill="#CCCCCC" stroke="#39515E" stroke-linecap="round" stroke-linejoin="round"/>
<path d="M199.072 243.929L206.849 247.727L209.917 251.519L218.775 256.042L224.922 259.839L228.697 263.303L211.728 263.269L199.072 243.929Z" fill="white" stroke="#39515E" stroke-linecap="round" stroke-linejoin="round"/>
<path d="M174.865 245.95V253.834L171.152 263.145L185.217 263.326L182.252 246.442L188.166 241.025L180.282 216.393L182.252 233.633L174.865 245.95Z" fill="#CCCCCC" stroke="#39515E" stroke-linecap="round" stroke-linejoin="round"/>
<path d="M189.15 221.317L194.352 232.315L196.65 232.547L198.489 238.065" stroke="#39515E" stroke-miterlimit="10"/>
<path d="M192.644 254.587L193.436 257.156" stroke="#39515E" stroke-miterlimit="10"/>
<path d="M189.523 234.613L191.131 240.827L193.893 245.423L190.672 248.185L192.065 252.708" stroke="#39515E" stroke-miterlimit="10"/>
<path d="M123.806 108.248L112.259 120.875L111.863 97.7256L123.359 83.7681L123.806 108.248Z" fill="#CCCCCC" stroke="#39515E" stroke-linecap="round" stroke-linejoin="round"/>
<path d="M115.791 158.803L127.598 148.383C128.445 147.648 129.387 147.031 130.399 146.549C131.67 145.946 132.997 145.472 134.361 145.134C136.111 144.708 137.889 144.413 139.682 144.251C141.94 144.043 144.207 143.96 146.474 144.002C151.955 144.074 157.422 144.557 162.831 145.445C167.327 146.189 171.771 147.216 176.138 148.519C180.066 149.69 183.496 150.947 186.456 152.107C189.416 153.267 191.861 154.331 193.842 155.112L178.521 165.046C176.647 164.31 174.321 163.308 171.531 162.216C168.74 161.123 165.486 159.952 161.767 158.82C157.637 157.593 153.432 156.631 149.179 155.939C144.058 155.107 138.882 154.66 133.694 154.603C131.544 154.566 129.393 154.649 127.253 154.852C125.557 155.008 123.875 155.29 122.221 155.695C120.92 156.015 119.655 156.466 118.446 157.043C117.485 157.507 116.593 158.099 115.791 158.803Z" fill="#CCCCCC" stroke="#39515E" stroke-linecap="round" stroke-linejoin="round"/>
<path d="M153.386 244.008L140.062 249.102C141.226 248.67 142.342 248.116 143.39 247.45C144.319 246.857 145.154 246.131 145.869 245.293C146.544 244.5 147.066 243.588 147.409 242.605C147.761 241.557 147.926 240.455 147.895 239.35C147.886 237.422 147.294 235.542 146.197 233.956C144.791 232.091 142.995 230.556 140.934 229.457C137.965 227.835 134.845 226.508 131.617 225.495C127.768 224.198 123.127 222.919 117.665 221.589C110.226 219.857 102.942 217.517 95.8857 214.593C89.5129 211.982 83.5306 208.504 78.1077 204.258C73.1271 200.367 69.0246 195.468 66.0688 189.882C63.0719 183.945 61.5204 177.384 61.5409 170.734C61.5125 168.033 61.7018 165.334 62.1069 162.663C62.4936 160.095 63.0995 157.565 63.918 155.101C64.724 152.686 65.7411 150.347 66.9575 148.111C68.1831 145.873 69.6016 143.746 71.1968 141.755L80.3717 130.248C76.9883 134.457 74.3852 139.238 72.6854 144.364C71.8106 146.969 71.1629 149.645 70.7497 152.362C70.3302 155.191 70.1409 158.049 70.1837 160.908C70.1791 167.958 71.8371 174.91 75.023 181.199C78.1577 187.121 82.5046 192.317 87.7806 196.447C93.1463 200.766 99.5251 204.371 106.617 207.388C114.083 210.493 121.792 212.98 129.665 214.825C135.466 216.24 140.351 217.604 144.42 218.98C147.836 220.065 151.137 221.485 154.274 223.219C156.81 224.696 158.627 226.259 159.827 227.979C160.996 229.655 161.63 231.647 161.644 233.69C161.682 234.86 161.509 236.028 161.134 237.137C160.773 238.172 160.225 239.131 159.515 239.967C158.759 240.847 157.876 241.611 156.895 242.231C155.791 242.945 154.615 243.541 153.386 244.008Z" fill="#CCCCCC" stroke="#39515E" stroke-linecap="round" stroke-linejoin="round"/>
<path d="M87.7802 196.447C93.1459 200.766 99.5247 204.371 106.617 207.388C114.083 210.493 121.791 212.98 129.664 214.825C135.466 216.24 140.35 217.604 144.42 218.98C147.836 220.065 151.137 221.485 154.274 223.219C156.81 224.696 158.626 226.259 159.826 227.979C160.996 229.655 161.629 231.647 161.643 233.69C161.737 235.811 161.093 237.899 159.821 239.599C158.412 241.349 156.581 242.713 154.5 243.561C151.9 244.653 149.167 245.399 146.373 245.78C142.978 246.271 139.552 246.511 136.122 246.499C130.77 246.512 125.424 246.114 120.133 245.31C115.051 244.54 110.022 243.46 105.072 242.078C100.261 240.737 95.6816 239.186 91.4139 237.55C87.1463 235.915 83.1843 234.154 79.6128 232.456L72.3793 263.19H202.384C206.435 258.678 209.605 253.446 211.729 247.767C213.955 241.715 214.989 235.29 214.774 228.845C214.581 221.957 213.534 215.827 211.48 210.331C209.435 204.837 206.253 199.838 202.141 195.661C197.913 191.325 192.519 187.505 185.806 184.097C179.093 180.69 171.011 177.673 161.468 174.951C155.325 173.162 149.953 171.445 145.354 169.8C141.427 168.441 137.595 166.819 133.887 164.944C130.83 163.342 128.538 161.752 127.01 160.121C125.481 158.491 124.7 156.833 124.666 155.09C124.623 153.664 124.93 152.249 125.561 150.969C126.347 149.481 127.52 148.234 128.957 147.358C131.021 146.114 133.296 145.26 135.669 144.839C139.246 144.17 142.883 143.888 146.52 143.996C152.001 144.069 157.468 144.551 162.877 145.439C167.373 146.184 171.817 147.21 176.184 148.513C180.112 149.684 183.542 150.941 186.502 152.101C189.462 153.262 191.907 154.326 193.888 155.107L202.31 117.185C199.661 116.053 196.814 114.921 193.696 113.845C190.577 112.77 187.181 111.762 183.451 110.851C179.721 109.94 175.646 109.153 171.163 108.468C166.681 107.783 161.773 107.297 156.396 106.98L155.904 84.5548L123.387 83.7681L123.834 108.248C115.927 109.339 108.211 111.532 100.911 114.762C94.6262 117.539 88.8889 121.419 83.971 126.218C79.4715 130.661 75.9342 135.982 73.5793 141.851C71.2037 147.918 70.0497 154.394 70.1833 160.908C70.1787 167.958 71.8367 174.91 75.0226 181.199C78.1573 187.121 82.5042 192.317 87.7802 196.447Z" fill="white" stroke="#39515E" stroke-linecap="round" stroke-linejoin="round"/>
<path d="M72.3789 263.19L79.6124 232.439L70.3469 238.235L64.4492 263.19H72.3789Z" fill="#CCCCCC" stroke="#39515E" stroke-linecap="round" stroke-linejoin="round"/>
<path d="M228.75 255.77C228.18 255.662 227.59 255.778 227.103 256.093L229.638 257.615C229.706 257.436 229.736 257.245 229.728 257.054C229.719 256.862 229.672 256.675 229.589 256.502C229.506 256.33 229.389 256.176 229.244 256.05C229.1 255.924 228.932 255.829 228.75 255.77Z" fill="#263238"/>
<path d="M229.463 235.733C229.463 235.733 229.803 234.307 229.814 234.217C229.927 233.147 229.514 231.007 228.41 230.515C228.225 230.439 228.025 230.403 227.824 230.409C227.624 230.415 227.427 230.464 227.246 230.551C227.066 230.639 226.906 230.764 226.777 230.917C226.647 231.071 226.552 231.25 226.497 231.443C226.231 232.253 226.633 233.22 227.092 233.883C227.635 234.664 229.463 235.728 229.463 235.733Z" fill="#263238"/>
<path d="M246.244 244.438C246.935 243.606 247.767 241.608 247.116 240.578C247.004 240.412 246.858 240.271 246.687 240.165C246.517 240.059 246.326 239.991 246.127 239.964C245.928 239.937 245.725 239.953 245.533 240.01C245.341 240.067 245.162 240.164 245.01 240.295C244.704 240.603 244.469 240.975 244.323 241.384C244.176 241.793 244.121 242.229 244.161 242.661C244.161 243.606 245.118 245.491 245.123 245.491C245.129 245.491 246.21 244.512 246.244 244.438Z" fill="#263238"/>
<path d="M222.925 252.306C223.725 252.817 224.599 253.199 225.518 253.438C225.444 253.857 225.37 254.276 225.28 254.677C225.28 254.779 225.229 254.881 225.206 254.989L225.738 255.306C225.772 255.142 225.806 254.972 225.846 254.808C225.976 254.145 226.084 253.472 226.168 252.793C227.076 253.128 228.031 253.319 228.998 253.359C229.436 253.347 229.865 253.24 230.256 253.044C230.647 252.849 230.991 252.57 231.262 252.227C231.371 252.057 231.443 251.866 231.473 251.667C231.503 251.468 231.491 251.265 231.438 251.071C231.385 250.876 231.291 250.695 231.163 250.54C231.036 250.384 230.876 250.257 230.696 250.166C229.604 249.651 227.714 250.732 226.972 251.519C226.927 251.57 226.463 252.193 226.214 252.544C226.265 252.13 226.316 251.723 226.355 251.304C226.463 250.104 226.536 248.882 226.61 247.665C226.61 247.297 226.661 246.923 226.689 246.533C226.848 246.589 228.704 247.212 229.61 247.099C230.408 247.014 231.41 246.686 231.874 245.967C231.982 245.798 232.054 245.607 232.084 245.409C232.114 245.21 232.102 245.007 232.049 244.813C231.996 244.619 231.902 244.439 231.774 244.284C231.647 244.128 231.488 244.002 231.308 243.912C230.215 243.397 228.325 244.478 227.583 245.265C227.532 245.327 226.859 246.227 226.7 246.459C226.757 245.644 226.825 244.829 226.921 244.025C227.043 242.945 227.232 241.873 227.487 240.816C227.561 240.816 229.502 241.501 230.425 241.382C231.228 241.297 232.225 240.969 232.689 240.25C232.797 240.081 232.869 239.891 232.899 239.692C232.929 239.493 232.917 239.29 232.864 239.097C232.811 238.903 232.717 238.722 232.589 238.567C232.462 238.412 232.303 238.285 232.123 238.196C231.03 237.675 229.14 238.762 228.404 239.548C228.342 239.611 227.623 240.578 227.504 240.76C227.504 240.697 227.532 240.635 227.549 240.573C227.846 239.522 228.234 238.499 228.71 237.516C228.964 236.95 229.242 236.458 229.519 235.971C229.87 236.13 231.472 236.843 232.309 236.848C233.147 236.854 234.143 236.639 234.664 235.96C234.791 235.804 234.885 235.624 234.938 235.43C234.991 235.237 235.002 235.034 234.972 234.835C234.942 234.637 234.87 234.447 234.761 234.278C234.652 234.109 234.509 233.964 234.341 233.854C233.317 233.22 231.319 234.092 230.498 234.794C230.453 234.833 230.04 235.269 229.746 235.592C229.876 235.371 230.006 235.145 230.136 234.935C230.617 234.16 231.104 233.481 231.54 232.875C231.789 232.536 232.021 232.236 232.242 231.953C233.218 231.933 234.186 231.764 235.111 231.449C235.824 231.081 236.639 230.413 236.809 229.575C236.847 229.381 236.844 229.18 236.801 228.987C236.757 228.794 236.674 228.611 236.557 228.452C236.439 228.292 236.29 228.159 236.118 228.06C235.946 227.961 235.755 227.899 235.558 227.877C234.353 227.792 232.983 229.485 232.576 230.481C232.542 230.572 232.145 231.981 232.168 231.981H232.196C231.976 232.247 231.743 232.547 231.5 232.852C231.047 233.447 230.544 234.12 230.045 234.89C229.502 235.715 229.005 236.569 228.557 237.448C228.051 238.434 227.634 239.462 227.312 240.522C227.312 240.522 227.312 240.55 227.312 240.561C227.312 240.205 227.261 239.22 227.249 239.141C227.074 238.077 226.117 236.124 224.918 235.943C224.718 235.919 224.516 235.937 224.325 235.996C224.133 236.055 223.955 236.154 223.804 236.286C223.653 236.417 223.53 236.579 223.445 236.761C223.36 236.943 223.314 237.14 223.31 237.341C223.271 238.196 223.916 239.039 224.533 239.543C225.235 240.109 227.131 240.675 227.283 240.675C226.983 241.76 226.754 242.864 226.599 243.98C226.502 244.631 226.429 245.288 226.367 245.95C226.367 245.644 226.333 245.384 226.327 245.333C226.151 244.269 225.195 242.31 223.995 242.135C223.796 242.11 223.594 242.128 223.402 242.187C223.21 242.245 223.033 242.344 222.882 242.476C222.73 242.608 222.609 242.77 222.525 242.952C222.44 243.134 222.396 243.332 222.393 243.533C222.354 244.382 222.999 245.231 223.616 245.729C224.441 246.24 225.34 246.622 226.282 246.861C226.282 247.11 226.231 247.365 226.214 247.619C226.106 248.836 226.01 250.048 225.874 251.236C225.829 251.655 225.767 252.068 225.704 252.476C225.704 252.204 225.704 251.978 225.704 251.944C225.529 250.88 224.572 248.927 223.372 248.746C223.173 248.721 222.971 248.739 222.779 248.797C222.587 248.856 222.41 248.955 222.259 249.087C222.108 249.219 221.986 249.381 221.902 249.563C221.818 249.745 221.773 249.943 221.771 250.144C221.663 250.959 222.308 251.791 222.925 252.306Z" fill="#263238"/>
<path d="M254.536 242.276C253.579 241.535 251.502 242.192 250.613 242.803C250.534 242.854 249.425 243.816 249.447 243.827C249.119 243.924 248.768 244.037 248.383 244.167C247.681 244.416 246.889 244.699 246.051 245.067C245.14 245.449 244.254 245.888 243.397 246.38C242.432 246.922 241.517 247.549 240.663 248.253L240.635 248.282C240.821 247.982 241.331 247.15 241.359 247.065C241.801 246.08 242.078 243.918 241.178 243.103C241.026 242.973 240.847 242.876 240.655 242.819C240.463 242.763 240.261 242.747 240.062 242.774C239.863 242.801 239.673 242.869 239.502 242.974C239.332 243.08 239.185 243.22 239.072 243.386C238.569 244.071 238.648 245.118 238.874 245.893C239.14 246.765 240.431 248.248 240.538 248.367C239.685 249.101 238.885 249.896 238.144 250.744C237.703 251.236 237.278 251.74 236.859 252.255C237.018 251.995 237.154 251.757 237.171 251.723C237.612 250.738 237.89 248.576 236.99 247.761C236.837 247.631 236.659 247.534 236.467 247.478C236.274 247.421 236.072 247.406 235.874 247.432C235.675 247.459 235.484 247.527 235.314 247.633C235.143 247.738 234.997 247.878 234.884 248.044C234.38 248.729 234.46 249.782 234.692 250.551C235.099 251.431 235.639 252.242 236.293 252.957L235.818 253.523C235.06 254.485 234.307 255.442 233.554 256.353C233.288 256.676 232.988 256.987 232.733 257.292L232.999 256.828C233.441 255.849 233.718 253.687 232.818 252.866C232.666 252.736 232.488 252.64 232.295 252.583C232.103 252.526 231.901 252.511 231.702 252.538C231.504 252.564 231.313 252.633 231.142 252.738C230.972 252.843 230.825 252.984 230.713 253.149C230.209 253.834 230.288 254.881 230.52 255.657C230.898 256.548 231.418 257.371 232.06 258.096L231.494 258.707L231.992 259.007C232.337 258.651 232.671 258.277 233.005 257.875C233.58 258.648 234.271 259.328 235.054 259.89C235.425 260.117 235.841 260.26 236.273 260.309C236.706 260.358 237.143 260.312 237.556 260.173C237.74 260.094 237.905 259.976 238.04 259.829C238.176 259.681 238.279 259.506 238.342 259.316C238.406 259.126 238.429 258.925 238.409 258.725C238.39 258.526 238.328 258.333 238.229 258.158C237.601 257.123 235.399 256.987 234.38 257.236C234.312 257.236 233.582 257.513 233.18 257.666C233.446 257.349 233.718 257.038 233.978 256.709C234.731 255.77 235.467 254.791 236.203 253.817L236.882 252.934C236.984 253.064 238.195 254.632 238.999 255.028C239.369 255.254 239.785 255.396 240.216 255.445C240.647 255.494 241.083 255.448 241.495 255.311C241.679 255.232 241.844 255.114 241.98 254.967C242.115 254.819 242.218 254.645 242.282 254.454C242.345 254.264 242.368 254.063 242.349 253.863C242.329 253.664 242.268 253.471 242.168 253.296C241.546 252.261 239.372 252.119 238.32 252.368C238.24 252.368 237.188 252.77 236.927 252.878C237.425 252.227 237.929 251.587 238.456 250.97C239.156 250.135 239.913 249.349 240.72 248.616C240.765 248.678 242.016 250.314 242.842 250.727C243.555 251.1 244.568 251.378 245.338 251.01C245.523 250.931 245.688 250.814 245.824 250.666C245.961 250.519 246.064 250.344 246.128 250.154C246.192 249.964 246.216 249.763 246.197 249.563C246.177 249.363 246.116 249.169 246.017 248.995C245.389 247.959 243.216 247.823 242.168 248.067C242.084 248.067 240.952 248.497 240.748 248.587L240.889 248.452C241.716 247.738 242.604 247.1 243.544 246.544C244.059 246.227 244.568 245.978 245.072 245.706C245.276 246.029 246.204 247.506 246.917 247.97C247.63 248.435 248.564 248.802 249.368 248.536C249.56 248.477 249.737 248.378 249.888 248.246C250.039 248.114 250.16 247.952 250.244 247.77C250.329 247.588 250.374 247.391 250.377 247.19C250.38 246.99 250.341 246.791 250.262 246.606C249.753 245.508 247.608 245.135 246.538 245.265C246.476 245.265 245.893 245.412 245.468 245.52C245.7 245.406 245.932 245.288 246.153 245.186C246.985 244.801 247.766 244.501 248.462 244.24L249.56 243.861C250.385 244.381 251.284 244.772 252.226 245.022C252.654 245.099 253.094 245.082 253.514 244.972C253.935 244.861 254.326 244.66 254.66 244.382C254.8 244.24 254.908 244.071 254.978 243.885C255.047 243.699 255.077 243.5 255.066 243.302C255.054 243.103 255.001 242.909 254.909 242.733C254.818 242.556 254.691 242.401 254.536 242.276Z" fill="#263238"/>
<path d="M225.676 263.281L226.327 263.683L226.729 263.388L226.881 263.275L225.676 263.281Z" fill="#263238"/>
<path d="M38.1544 225.834C37.9864 225.943 37.8432 226.087 37.734 226.255C37.6248 226.423 37.5522 226.612 37.5207 226.81C37.4892 227.008 37.4996 227.21 37.5513 227.404C37.6029 227.597 37.6946 227.778 37.8205 227.934C38.2251 228.402 38.7907 228.701 39.4053 228.772L40.6222 225.993C39.7675 225.608 38.7827 225.427 38.1544 225.834Z" fill="#263238"/>
<path d="M43.7864 222.183C43.4036 222.47 43.1316 222.88 43.0166 223.344L45.1504 222.149C44.9403 222.034 44.7034 221.977 44.4638 221.983C44.2243 221.989 43.9905 222.058 43.7864 222.183Z" fill="#263238"/>
<path d="M44.1483 201.955C44.8728 202.566 46.9161 203.121 46.9161 203.121C46.9161 203.121 46.8765 201.66 46.8595 201.57C46.6897 200.506 45.7275 198.547 44.5445 198.36C44.3453 198.334 44.1427 198.35 43.9501 198.408C43.7576 198.466 43.5794 198.563 43.4275 198.695C43.2756 198.827 43.1533 198.989 43.0688 199.171C42.9842 199.354 42.9393 199.552 42.9371 199.753C42.9144 200.602 43.5823 201.434 44.1483 201.955Z" fill="#263238"/>
<path d="M29.2454 208.373C29.2454 208.373 28.4021 207.179 28.3398 207.111C27.6153 206.318 25.7362 205.209 24.6382 205.713C24.4585 205.802 24.2996 205.928 24.1719 206.083C24.0442 206.237 23.9506 206.417 23.8972 206.611C23.8438 206.804 23.8318 207.007 23.8619 207.205C23.8921 207.403 23.9637 207.593 24.0722 207.762C24.5023 208.498 25.4928 208.837 26.2965 208.933C27.2304 209.041 29.2454 208.379 29.2454 208.373Z" fill="#263238"/>
<path d="M28.181 203.856C28.2376 204.196 28.2999 204.558 28.3734 204.954C28.5206 205.685 28.6904 206.505 28.9394 207.388C29.1916 208.349 29.5016 209.294 29.8677 210.218C30.2718 211.248 30.7661 212.241 31.3449 213.184V213.218C31.0789 212.992 30.3035 212.369 30.2129 212.329C29.3017 211.763 27.1962 211.197 26.2509 211.956C26.101 212.09 25.9811 212.254 25.899 212.437C25.8169 212.62 25.7744 212.819 25.7744 213.02C25.7744 213.221 25.8169 213.419 25.899 213.603C25.9811 213.786 26.101 213.95 26.2509 214.084C26.8622 214.678 27.9093 214.746 28.7074 214.65C29.6073 214.514 31.2544 213.433 31.3846 213.348C32.0017 214.292 32.6785 215.196 33.4108 216.054C33.8353 216.552 34.2768 217.044 34.7296 217.531L34.2428 217.146C33.3316 216.58 31.2261 216.014 30.2809 216.778C30.1317 216.912 30.0125 217.077 29.9309 217.26C29.8493 217.443 29.8072 217.642 29.8072 217.842C29.8072 218.043 29.8493 218.241 29.9309 218.425C30.0125 218.608 30.1317 218.772 30.2809 218.906C30.6265 219.169 31.0253 219.354 31.4496 219.447C31.8739 219.54 32.3134 219.539 32.7373 219.444C33.6653 219.161 34.5451 218.74 35.3465 218.193C35.522 218.374 35.6918 218.561 35.8673 218.759C36.7106 219.642 37.5653 220.519 38.3577 221.408C38.6407 221.719 38.9237 222.036 39.1784 222.353L38.7539 222.025C37.8426 221.459 35.7371 220.893 34.7919 221.651C34.6428 221.786 34.5235 221.95 34.4419 222.133C34.3603 222.316 34.3182 222.515 34.3182 222.715C34.3182 222.916 34.3603 223.115 34.4419 223.298C34.5235 223.481 34.6428 223.645 34.7919 223.78C35.4031 224.374 36.4559 224.442 37.2483 224.346C38.1528 224.075 39.0101 223.667 39.7896 223.134C40.0557 223.463 40.3217 223.797 40.5651 224.136C40.7235 224.368 40.8933 224.578 41.0405 224.821V224.855L41.2556 224.368L41.3801 224.295L41.0122 223.797C40.6047 223.259 40.1689 222.732 39.7161 222.217C40.555 221.753 41.3184 221.163 41.9801 220.468C42.2557 220.132 42.4547 219.739 42.5632 219.318C42.6717 218.897 42.6871 218.457 42.6083 218.029C42.5549 217.836 42.4614 217.656 42.334 217.502C42.2065 217.347 42.0478 217.221 41.8684 217.132C41.689 217.043 41.4928 216.992 41.2926 216.984C41.0924 216.976 40.8927 217.01 40.7066 217.084C39.5746 217.559 39.1557 219.693 39.2576 220.763C39.2576 220.831 39.4217 221.595 39.518 222.014C39.2406 221.702 38.952 221.391 38.6859 221.085C37.8539 220.208 36.9879 219.348 36.1276 218.482L35.3465 217.689C35.488 217.604 37.186 216.625 37.7124 215.884C38.0235 215.553 38.255 215.156 38.3894 214.723C38.5238 214.289 38.5575 213.831 38.4878 213.382C38.4343 213.189 38.3408 213.009 38.2134 212.855C38.086 212.7 37.9276 212.574 37.7483 212.484C37.5691 212.394 37.373 212.343 37.1728 212.334C36.9726 212.325 36.7727 212.358 36.5861 212.431C35.4541 212.907 35.0352 215.04 35.1371 216.116C35.1371 216.195 35.3692 217.293 35.4428 217.571C34.8768 217.005 34.3108 216.393 33.7448 215.793C33.0173 214.982 32.3442 214.124 31.7298 213.224C31.7977 213.184 33.575 212.165 34.1127 211.412C34.3882 211.077 34.5872 210.685 34.6957 210.265C34.8042 209.845 34.8196 209.406 34.7409 208.979C34.6902 208.782 34.5982 208.599 34.4711 208.44C34.3441 208.282 34.1848 208.153 34.0039 208.061C33.823 207.968 33.6246 207.916 33.4218 207.906C33.2191 207.897 33.0166 207.93 32.8278 208.005C31.6958 208.481 31.277 210.614 31.3789 211.69C31.3789 211.775 31.6336 212.952 31.6902 213.161L31.577 213.009C30.986 212.089 30.4766 211.119 30.0545 210.111C29.8167 209.545 29.6186 209.013 29.4375 208.481C30.3464 208.109 31.1922 207.6 31.9449 206.969C32.2542 206.666 32.4934 206.298 32.6459 205.892C32.7984 205.487 32.8605 205.053 32.8278 204.62C32.7932 204.424 32.718 204.237 32.607 204.072C32.4961 203.907 32.3518 203.766 32.1835 203.66C32.0152 203.553 31.8265 203.483 31.6295 203.453C31.4324 203.424 31.2314 203.436 31.0393 203.488C29.9073 203.839 29.2168 205.911 29.1941 206.992C29.1941 207.049 29.2507 207.649 29.296 208.084C29.2224 207.841 29.1375 207.592 29.064 207.36C28.7979 206.488 28.6112 205.662 28.4527 204.943C28.3621 204.53 28.2885 204.156 28.2263 203.811C28.8572 203.066 29.3689 202.228 29.7432 201.326C29.8807 200.914 29.9261 200.478 29.8762 200.046C29.8263 199.615 29.6824 199.2 29.4545 198.83C29.3352 198.669 29.1832 198.535 29.0085 198.436C28.8337 198.337 28.6402 198.277 28.4404 198.258C28.2406 198.239 28.0391 198.263 27.8491 198.327C27.6591 198.392 27.4848 198.496 27.3377 198.632C26.4717 199.475 26.8283 201.621 27.3377 202.594C27.3716 202.628 28.1697 203.873 28.181 203.856Z" fill="#263238"/>
<path d="M43.1245 208.05C43.9509 208.43 45.9205 208.441 46.079 208.447C46.0668 209.582 46.1311 210.716 46.2715 211.843C46.3507 212.493 46.4526 213.15 46.5601 213.801C46.4639 213.512 46.379 213.235 46.362 213.235C45.9205 212.25 44.4829 210.614 43.283 210.75C43.0842 210.778 42.8936 210.848 42.7235 210.954C42.5534 211.061 42.4075 211.202 42.2955 211.368C42.1834 211.535 42.1076 211.723 42.0729 211.921C42.0383 212.119 42.0456 212.321 42.0944 212.516C42.2755 213.348 43.1132 213.982 43.849 214.322C44.7775 214.601 45.7436 214.734 46.7129 214.718C46.7582 214.967 46.7978 215.216 46.8431 215.465C47.0582 216.671 47.2789 217.865 47.4601 219.048C47.5223 219.467 47.5676 219.88 47.6185 220.293L47.4487 219.784C47.0016 218.799 45.564 217.163 44.364 217.299C44.1679 217.327 43.9797 217.396 43.8117 217.501C43.6437 217.606 43.4994 217.745 43.3881 217.91C43.2768 218.074 43.2009 218.259 43.1652 218.454C43.1296 218.649 43.135 218.849 43.1811 219.042C43.3622 219.874 44.1999 220.508 44.93 220.848C45.5528 221.066 46.2059 221.187 46.8658 221.204L48.1845 220.463L49.226 219.897L52.073 216.778C52.0085 216.754 51.9423 216.735 51.8749 216.721C50.6863 216.506 49.1411 218.04 48.6317 218.985C48.6317 219.048 48.3147 219.772 48.1619 220.168C48.1053 219.761 48.0487 219.353 47.9751 218.94C47.7714 217.752 47.5223 216.557 47.2846 215.357C47.2054 214.995 47.1374 214.627 47.0695 214.259C47.2337 214.259 49.192 214.39 50.0354 214.067C50.7881 213.778 51.6711 213.201 51.9032 212.369C51.9616 212.178 51.9794 211.977 51.9553 211.779C51.9312 211.581 51.8659 211.39 51.7634 211.219C51.661 211.048 51.5238 210.9 51.3607 210.785C51.1976 210.67 51.0122 210.591 50.8164 210.552C49.6278 210.337 48.0883 211.871 47.5789 212.816C47.5393 212.89 47.1261 213.948 47.0129 214.203C46.8601 213.393 46.7129 212.59 46.5997 211.792C46.4397 210.714 46.3508 209.627 46.3337 208.537C46.413 208.537 48.4562 208.673 49.3222 208.345C49.7384 208.215 50.1212 207.995 50.4438 207.702C50.7664 207.409 51.0211 207.049 51.19 206.647C51.2523 206.456 51.2738 206.254 51.2529 206.055C51.2321 205.856 51.1694 205.663 51.069 205.489C50.9685 205.316 50.8327 205.165 50.6702 205.048C50.5077 204.93 50.3222 204.848 50.1259 204.807C48.9373 204.586 47.3921 206.126 46.8827 207.071C46.8431 207.145 46.4016 208.265 46.3167 208.475C46.3167 208.413 46.3167 208.345 46.3167 208.282C46.3336 207.19 46.4434 206.101 46.645 205.028C46.7526 204.434 46.8884 203.896 47.0299 203.33C47.4091 203.392 49.1411 203.664 49.9505 203.449C50.7598 203.234 51.6485 202.77 51.9937 201.983C52.076 201.8 52.119 201.602 52.12 201.402C52.1209 201.201 52.0798 201.003 51.9992 200.819C51.9187 200.636 51.8005 200.471 51.6523 200.336C51.5041 200.201 51.3293 200.099 51.1391 200.036C50.0071 199.691 48.3091 201.049 47.6695 201.938C47.6355 201.983 47.3525 202.504 47.1488 202.9C47.2167 202.656 47.2846 202.402 47.3525 202.17C47.6185 201.298 47.9185 200.511 48.1732 199.815C48.3317 199.425 48.4789 199.074 48.6147 198.745C49.0222 198.609 50.641 198.066 51.2523 197.511C51.8635 196.957 52.4635 196.113 52.3843 195.247C52.3734 195.047 52.3204 194.851 52.2288 194.672C52.1372 194.493 52.0091 194.336 51.8527 194.21C51.6963 194.084 51.5151 193.992 51.321 193.941C51.1269 193.89 50.9241 193.88 50.7259 193.912C49.5373 194.138 48.6543 196.13 48.5185 197.2C48.5185 197.296 48.5185 198.762 48.5185 198.757C48.377 199.074 48.2298 199.408 48.0713 199.781C47.794 200.472 47.5053 201.253 47.1997 202.124C46.8871 203.062 46.6282 204.016 46.4243 204.983C46.2106 206.072 46.0932 207.178 46.0734 208.288V208.328C45.9771 207.988 45.6715 207.043 45.6432 206.975C45.1961 205.99 43.7584 204.354 42.5585 204.49C42.3599 204.518 42.1694 204.588 41.9995 204.694C41.8295 204.801 41.684 204.942 41.5724 205.109C41.4607 205.275 41.3855 205.464 41.3516 205.661C41.3177 205.859 41.3258 206.062 41.3756 206.256C41.5567 207.077 42.3944 207.722 43.1245 208.05Z" fill="#263238"/>
<path d="M125.211 220.604C125.012 220.632 124.822 220.702 124.652 220.808C124.482 220.915 124.336 221.056 124.225 221.223C124.113 221.389 124.038 221.578 124.004 221.775C123.97 221.973 123.978 222.176 124.028 222.37C124.169 222.781 124.399 223.155 124.702 223.467C125.004 223.779 125.371 224.021 125.777 224.176C126.334 224.376 126.918 224.49 127.509 224.515L128.013 223.915L128.296 223.095C127.848 222.104 126.411 220.468 125.211 220.604Z" fill="#263238"/>
<path d="M119.001 229.156C118.833 229.266 118.69 229.409 118.581 229.577C118.472 229.745 118.399 229.934 118.367 230.132C118.336 230.33 118.346 230.532 118.398 230.726C118.45 230.92 118.541 231.1 118.667 231.256C119.177 231.941 120.207 232.162 121.01 232.162C121.537 232.123 122.054 232.005 122.544 231.811L122.873 230.158L122.839 230.124C122.024 229.417 120.031 228.534 119.001 229.156Z" fill="#263238"/>
<path d="M124.633 225.534C123.711 226.1 123.53 227.923 123.694 229.043L126.405 225.823C126.191 225.573 125.896 225.408 125.572 225.355C125.248 225.302 124.915 225.365 124.633 225.534Z" fill="#263238"/>
<path d="M116.275 221.487C116.45 221.668 116.62 221.855 116.796 222.053C117.639 222.936 118.494 223.814 119.286 224.702C119.569 225.014 119.852 225.331 120.107 225.647L119.682 225.319C118.771 224.753 116.665 224.187 115.72 224.946C115.571 225.08 115.452 225.244 115.37 225.427C115.289 225.611 115.246 225.809 115.246 226.01C115.246 226.21 115.289 226.409 115.37 226.592C115.452 226.775 115.571 226.94 115.72 227.074C116.331 227.668 117.384 227.736 118.177 227.64C119.081 227.37 119.938 226.961 120.718 226.429C120.984 226.762 121.25 227.091 121.493 227.43C121.652 227.662 121.822 227.872 121.969 228.115L122.416 228.817C122.62 229.168 122.829 229.519 123.027 229.864L123.463 229.349C123.293 229.066 123.118 228.783 122.931 228.483L122.467 227.787C122.32 227.555 122.133 227.323 121.963 227.091C121.556 226.525 121.12 226.027 120.667 225.512C121.506 225.047 122.269 224.457 122.931 223.763C123.207 223.426 123.406 223.034 123.514 222.612C123.623 222.191 123.638 221.751 123.559 221.323C123.509 221.131 123.419 220.952 123.296 220.796C123.172 220.641 123.017 220.513 122.842 220.421C122.666 220.329 122.473 220.274 122.275 220.261C122.077 220.248 121.878 220.276 121.691 220.344C120.559 220.819 120.141 222.953 120.242 224.023C120.242 224.091 120.407 224.855 120.503 225.274C120.225 224.963 119.937 224.651 119.671 224.351C118.839 223.474 117.973 222.608 117.112 221.742L116.331 220.95C116.473 220.865 118.171 219.886 118.697 219.144C118.973 218.809 119.172 218.417 119.281 217.997C119.389 217.576 119.405 217.137 119.326 216.71C119.272 216.517 119.179 216.337 119.051 216.183C118.924 216.028 118.765 215.902 118.586 215.812C118.407 215.723 118.211 215.672 118.011 215.662C117.81 215.653 117.61 215.686 117.424 215.759C116.292 216.235 115.873 218.369 115.975 219.444C115.975 219.523 116.207 220.621 116.28 220.899C115.714 220.333 115.148 219.721 114.582 219.121C113.855 218.31 113.182 217.452 112.568 216.552C112.635 216.512 114.413 215.493 114.95 214.741C115.226 214.405 115.425 214.014 115.533 213.593C115.642 213.173 115.657 212.734 115.579 212.307C115.525 212.114 115.432 211.934 115.304 211.779C115.177 211.625 115.018 211.498 114.839 211.409C114.66 211.319 114.464 211.268 114.264 211.259C114.063 211.25 113.863 211.283 113.677 211.356C112.545 211.831 112.126 213.965 112.228 215.041C112.228 215.126 112.483 216.303 112.539 216.512L112.426 216.359C111.835 215.44 111.326 214.47 110.903 213.461C110.666 212.895 110.468 212.363 110.287 211.831C111.194 211.46 112.04 210.953 112.794 210.326C113.332 209.72 113.847 208.809 113.683 207.971C113.648 207.775 113.573 207.588 113.462 207.423C113.351 207.257 113.207 207.117 113.038 207.01C112.87 206.904 112.681 206.834 112.484 206.804C112.287 206.775 112.086 206.787 111.894 206.839C110.762 207.19 110.071 209.267 110.049 210.343C110.049 210.399 110.105 210.999 110.151 211.435C110.077 211.192 109.992 210.943 109.919 210.711C109.653 209.839 109.466 209.013 109.307 208.294C109.217 207.881 109.143 207.507 109.081 207.162C109.712 206.417 110.224 205.579 110.598 204.677C110.735 204.265 110.781 203.828 110.731 203.397C110.681 202.966 110.537 202.551 110.309 202.181C110.19 202.02 110.038 201.885 109.863 201.787C109.688 201.688 109.495 201.627 109.295 201.609C109.095 201.59 108.894 201.614 108.704 201.678C108.514 201.743 108.339 201.847 108.192 201.983C107.326 202.826 107.683 204.977 108.192 205.945C108.238 206.03 109.036 207.258 109.047 207.241C109.104 207.581 109.166 207.943 109.239 208.339C109.387 209.069 109.556 209.89 109.805 210.773C110.058 211.734 110.368 212.679 110.734 213.603C111.139 214.634 111.633 215.629 112.211 216.574C112.213 216.584 112.213 216.593 112.211 216.603C111.945 216.376 111.169 215.754 111.107 215.714C110.196 215.148 108.09 214.582 107.145 215.346C106.996 215.48 106.877 215.644 106.796 215.826C106.714 216.009 106.672 216.207 106.672 216.408C106.672 216.608 106.714 216.806 106.796 216.989C106.877 217.171 106.996 217.335 107.145 217.469C107.757 218.069 108.804 218.131 109.602 218.035C110.502 217.899 112.149 216.818 112.279 216.733C112.896 217.677 113.573 218.581 114.305 219.438C114.73 219.937 115.171 220.429 115.624 220.916L115.137 220.531C114.226 219.965 112.12 219.399 111.175 220.163C111.025 220.297 110.905 220.461 110.823 220.644C110.741 220.827 110.699 221.026 110.699 221.227C110.699 221.428 110.741 221.627 110.823 221.81C110.905 221.993 111.025 222.157 111.175 222.291C111.781 222.885 112.834 222.953 113.626 222.829C114.573 222.522 115.467 222.069 116.275 221.487Z" fill="#263238"/>
<path d="M125.018 205.305C125.743 205.916 127.786 206.471 127.786 206.471C127.786 206.471 127.746 205.011 127.729 204.92C127.56 203.856 126.597 201.898 125.414 201.711C125.215 201.686 125.013 201.702 124.821 201.76C124.629 201.818 124.451 201.916 124.299 202.048C124.148 202.179 124.025 202.341 123.94 202.523C123.856 202.705 123.81 202.903 123.807 203.103C123.762 203.952 124.401 204.784 125.018 205.305Z" fill="#263238"/>
<path d="M110.093 211.729C110.093 211.729 109.25 210.53 109.187 210.462C108.463 209.669 106.584 208.56 105.486 209.064C105.306 209.153 105.147 209.279 105.02 209.434C104.892 209.588 104.798 209.768 104.745 209.962C104.691 210.155 104.679 210.357 104.71 210.556C104.74 210.754 104.811 210.944 104.92 211.113C105.35 211.848 106.34 212.188 107.144 212.284C108.106 212.392 110.093 211.729 110.093 211.729Z" fill="#263238"/>
<path d="M123.954 211.401C124.78 211.78 126.75 211.797 126.908 211.797C126.898 212.923 126.962 214.048 127.101 215.165C127.18 215.816 127.282 216.472 127.39 217.129C127.293 216.835 127.208 216.563 127.191 216.563C126.75 215.578 125.312 213.942 124.112 214.078C123.914 214.106 123.723 214.176 123.553 214.282C123.383 214.389 123.237 214.53 123.125 214.696C123.013 214.863 122.937 215.051 122.902 215.249C122.868 215.447 122.875 215.649 122.924 215.844C123.105 216.676 123.943 217.31 124.678 217.65C125.607 217.929 126.573 218.062 127.542 218.046C127.588 218.295 127.627 218.544 127.673 218.793C127.888 219.999 128.108 221.198 128.29 222.376C128.29 222.551 128.329 222.727 128.352 222.902L128.708 221.883C128.516 220.831 128.301 219.772 128.091 218.714C128.018 218.351 127.944 217.984 127.876 217.621C128.648 217.668 129.422 217.651 130.191 217.57L131.187 214.689L131.974 214.005C131.87 213.954 131.76 213.917 131.646 213.897C130.457 213.682 128.918 215.216 128.408 216.161C128.369 216.235 127.956 217.293 127.842 217.548C127.69 216.738 127.542 215.935 127.429 215.137C127.269 214.059 127.18 212.972 127.163 211.882C127.242 211.882 129.286 212.018 130.152 211.69C130.568 211.56 130.951 211.34 131.273 211.047C131.596 210.754 131.851 210.394 132.019 209.992C132.082 209.801 132.103 209.599 132.082 209.4C132.061 209.201 131.999 209.008 131.898 208.834C131.798 208.661 131.662 208.51 131.5 208.393C131.337 208.275 131.152 208.193 130.955 208.152C129.767 207.931 128.222 209.471 127.712 210.416C127.673 210.49 127.231 211.61 127.146 211.82C127.146 211.758 127.146 211.695 127.146 211.627C127.163 210.535 127.273 209.446 127.474 208.373C127.582 207.807 127.718 207.241 127.859 206.675C128.239 206.737 129.971 207.009 130.78 206.794C131.589 206.579 132.478 206.115 132.823 205.328C132.905 205.145 132.948 204.947 132.949 204.747C132.95 204.546 132.909 204.348 132.829 204.164C132.748 203.981 132.63 203.816 132.482 203.681C132.334 203.546 132.159 203.444 131.969 203.381C130.837 203.035 129.139 204.394 128.499 205.283C128.465 205.328 128.182 205.849 127.978 206.245C128.046 206.001 128.114 205.747 128.182 205.515C128.448 204.643 128.748 203.856 129.003 203.16C129.161 202.769 129.308 202.419 129.444 202.09C129.852 201.954 131.47 201.411 132.082 200.856C132.693 200.302 133.293 199.458 133.214 198.592C133.203 198.392 133.15 198.196 133.058 198.017C132.967 197.838 132.838 197.681 132.682 197.555C132.526 197.429 132.345 197.337 132.15 197.286C131.956 197.235 131.754 197.225 131.555 197.257C130.367 197.483 129.484 199.475 129.354 200.545C129.354 200.641 129.325 202.107 129.354 202.102C129.212 202.419 129.065 202.753 128.912 203.126C128.629 203.817 128.318 204.598 128.035 205.469C127.722 206.407 127.463 207.361 127.259 208.328C127.029 209.412 126.895 210.514 126.858 211.622V211.684C126.761 211.344 126.456 210.399 126.427 210.331C125.98 209.346 124.543 207.711 123.343 207.847C123.144 207.874 122.954 207.944 122.784 208.051C122.614 208.157 122.468 208.298 122.357 208.465C122.245 208.632 122.17 208.82 122.136 209.018C122.102 209.215 122.11 209.418 122.16 209.612C122.403 210.427 123.241 211.061 123.954 211.401Z" fill="#263238"/>
<path d="M209.784 161.966L207.525 159.165L209.557 157.563L210.921 159.267L210.457 160.348L210.842 161.208L210.044 161.78" fill="white"/>
<path d="M209.784 161.966L207.525 159.165L209.557 157.563L210.921 159.267L210.457 160.348L210.842 161.208L210.044 161.78" stroke="#263238" stroke-linecap="round" stroke-linejoin="round"/>
<path d="M228.098 166.829C228.098 166.829 226.553 165.448 225.976 165.538C225.399 165.629 217.825 166.897 217.825 166.897L210.858 161.208L209.794 161.967L216.461 170.332L223.706 169.879L222.15 177.803L215.556 182.818L226.31 189.242L228.478 182.405L237.041 173.972L233.713 169.8L228.098 166.829Z" fill="black" stroke="#263238" stroke-linecap="round" stroke-linejoin="round"/>
<path d="M230.306 165L229.089 167.559L228.642 167.151L227.787 173.371L233.719 169.777L233.124 168.838L233.26 166.896L230.306 165Z" fill="white" stroke="#263238" stroke-linecap="round" stroke-linejoin="round"/>
<path d="M227.787 173.372L231.257 171.266L228.359 169.229L227.787 173.372Z" fill="white" stroke="#263238" stroke-linecap="round" stroke-linejoin="round"/>
<path d="M237.154 158.905C237.154 158.905 239.775 155.837 242.441 157.773C245.106 159.708 244.371 161.599 246.272 160.563C248.174 159.527 251.746 156.895 253.896 160.246C256.047 163.597 254.389 167.106 253.036 167.91C251.683 168.713 252.04 167.179 252.068 166.438C252.096 165.697 249.878 164.74 249.385 166.268C248.893 167.796 246.306 170.151 243.024 169.93C239.741 169.71 239.107 165.674 239.18 163.302C239.176 162.591 238.986 161.892 238.63 161.276C238.273 160.66 237.763 160.147 237.148 159.787L237.154 158.905Z" fill="#263238" stroke="#263238" stroke-linecap="round" stroke-linejoin="round"/>
<path d="M230.871 158.27C230.871 158.27 229.23 161.927 229.57 164.083C229.909 166.24 229.728 167.898 230.826 168.317C231.924 168.736 235.564 166.534 236.367 165.079C237.171 163.625 238.32 161.525 238.003 159.51C237.686 157.495 233.826 154.563 230.871 158.27Z" fill="white" stroke="#263238" stroke-linecap="round" stroke-linejoin="round"/>
<path d="M231.494 162.108C231.409 162.391 231.228 162.583 231.086 162.538C230.945 162.493 230.899 162.232 230.984 161.972C231.069 161.712 231.25 161.497 231.392 161.542C231.533 161.587 231.556 161.825 231.494 162.108Z" fill="#263238"/>
<path d="M234.109 163.195C234.024 163.478 233.837 163.676 233.695 163.631C233.554 163.585 233.509 163.325 233.594 163.065C233.678 162.804 233.865 162.589 234.007 162.629C234.148 162.668 234.194 162.912 234.109 163.195Z" fill="#263238"/>
<path d="M232.157 162.578C232.157 162.578 232.326 162.702 232.089 163.144C231.851 163.585 231.279 163.427 231.342 163.806C231.404 164.185 232.123 164.372 232.123 164.372" stroke="#263238" stroke-linecap="round" stroke-linejoin="round"/>
<path d="M230.838 165.029C230.838 165.029 231.749 165.889 232.564 165.68" stroke="#263238" stroke-linecap="round" stroke-linejoin="round"/>
<path d="M234.97 162.289L233.277 161.859" stroke="#263238" stroke-linecap="round" stroke-linejoin="round"/>
<path d="M231.942 161.219L231.133 160.495" stroke="#263238" stroke-linecap="round" stroke-linejoin="round"/>
<path d="M230.871 158.27C230.871 158.27 230.628 158.836 230.345 159.612C231.301 159.114 232.948 158.553 234.454 159.482C235.959 160.41 236.718 162.544 237.024 163.851C237.663 162.555 238.235 161.021 238.003 159.51C237.686 157.495 233.826 154.563 230.871 158.27Z" fill="#263238" stroke="#263238" stroke-linecap="round" stroke-linejoin="round"/>
<path d="M236.633 163.795C236.633 163.795 237.81 162.714 237.765 163.699C237.719 164.683 236.367 165.266 236.067 165.312C235.767 165.357 235.789 164.978 235.789 164.978" fill="white"/>
<path d="M236.633 163.795C236.633 163.795 237.81 162.714 237.765 163.699C237.719 164.683 236.367 165.266 236.067 165.312C235.767 165.357 235.789 164.978 235.789 164.978" stroke="#263238" stroke-linecap="round" stroke-linejoin="round"/>
<path d="M237.036 173.977L235.225 186.888C235.185 187.162 235.05 187.415 234.843 187.6C234.636 187.785 234.371 187.892 234.093 187.901H233.703C233.401 187.912 233.107 187.807 232.881 187.608C232.655 187.409 232.513 187.131 232.486 186.831L231.778 179.065L237.036 173.977Z" fill="black" stroke="#263238" stroke-linecap="round" stroke-linejoin="round"/>
<path d="M233.758 185.116L227.945 179.988L226.644 181.08L232.224 187.539C232.346 187.671 232.497 187.773 232.665 187.838C232.833 187.902 233.013 187.928 233.192 187.912H233.651C233.826 187.905 233.998 187.858 234.154 187.776C234.309 187.694 234.445 187.579 234.55 187.438C234.655 187.297 234.727 187.134 234.762 186.961C234.796 186.789 234.792 186.611 234.749 186.44" fill="black"/>
<path d="M233.758 185.116L227.945 179.988L226.644 181.08L232.224 187.539C232.346 187.671 232.497 187.773 232.665 187.838C232.833 187.902 233.013 187.928 233.192 187.912H233.651C233.826 187.905 233.998 187.858 234.154 187.776C234.309 187.694 234.445 187.579 234.55 187.438C234.655 187.297 234.727 187.134 234.762 186.961C234.796 186.789 234.792 186.611 234.749 186.44V186.44" stroke="#263238" stroke-linecap="round" stroke-linejoin="round"/>
<path d="M227.945 179.982L226.581 177.803L223.514 177.464L223.531 179.292L225.002 180.52L225.936 180.65L226.644 181.075L227.945 179.982Z" fill="white" stroke="#263238" stroke-linecap="round" stroke-linejoin="round"/>
<path d="M211.52 186.78C211.52 186.78 205.113 195.117 205.464 196.498C205.815 197.879 215.177 212.499 215.177 212.499L216.478 211.638L211.334 195.575L221.674 191.461L211.52 186.78Z" fill="white" stroke="#263238" stroke-linecap="round" stroke-linejoin="round"/>
<path d="M216.683 189.87L217.441 193.204L220.865 191.891L216.683 189.87Z" fill="#263238" stroke="#263238" stroke-miterlimit="10"/>
<path d="M215.176 212.471L213.478 215.301C213.478 215.301 212.126 217.327 212.522 217.451C213.388 217.729 215.629 216.257 216.269 215.804C216.908 215.352 217.593 215.052 218.018 214.752C218.442 214.452 219.291 214.276 218.131 213.201C217.74 212.844 216.501 211.61 216.501 211.61L215.176 212.471Z" fill="white" stroke="#263238" stroke-linecap="round" stroke-linejoin="round"/>
<path d="M225.754 184.12C222.87 182.969 219.92 181.992 216.919 181.194C211.729 179.784 207.891 178.692 207.965 179.988C208.038 181.284 217.479 202.164 217.479 202.164L219.098 201.649L216.63 190.136C216.63 190.136 220.592 192.91 223.519 191.534C226.445 190.159 227.56 186.44 227.356 185.173" fill="#263238"/>
<path d="M225.754 184.12C222.87 182.969 219.92 181.992 216.919 181.194C211.729 179.784 207.891 178.692 207.965 179.988C208.038 181.284 217.479 202.164 217.479 202.164L219.098 201.649L216.63 190.136C216.63 190.136 220.592 192.91 223.519 191.534C226.445 190.159 227.56 186.44 227.356 185.173" stroke="#263238" stroke-linecap="round" stroke-linejoin="round"/>
<path d="M215.816 180.894C211.197 179.643 207.891 178.782 207.965 179.988C208.039 181.284 217.48 202.164 217.48 202.164L219.098 201.649L216.631 190.136C217.474 188.082 216.58 183.763 215.816 180.894Z" fill="white" stroke="#263238" stroke-linecap="round" stroke-linejoin="round"/>
<path d="M216.63 190.136L212.561 184.233" stroke="#263238" stroke-linecap="round" stroke-linejoin="round"/>
<path d="M217.48 202.164L215.964 205.022C215.964 205.022 212.902 207.988 213.581 208.141C214.26 208.294 220.016 205.82 220.446 205.232C220.876 204.643 219.099 201.649 219.099 201.649L217.48 202.164Z" fill="white" stroke="#263238" stroke-linecap="round" stroke-linejoin="round"/>
<path d="M210.439 160.585L224.714 177.582" stroke="#263238" stroke-miterlimit="10"/>
<path d="M166.518 107.948L208.407 158.072" stroke="#263238" stroke-miterlimit="10"/>
<path d="M225.937 180.645V263.28" stroke="#263238" stroke-miterlimit="10"/>
<path d="M89.6139 157.682C89.6139 157.682 92.625 175.301 89.3535 180.888C86.082 186.474 77.875 182.456 77.875 182.456V262.714" stroke="#263238" stroke-miterlimit="10"/>
<path d="M71.5357 164.276C71.5357 164.276 74.2016 163.97 74.4053 164.587C74.5172 165.092 74.5172 165.616 74.4053 166.121C74.4053 166.121 75.9392 167.762 75.9392 168.889C75.9392 170.015 74.3035 170.53 74.3035 170.53L73.9978 173.19L69.9 173.394L69.3849 170.219C69.3849 170.219 67.8454 164.174 71.5357 164.276Z" fill="white" stroke="#263238" stroke-linecap="round" stroke-linejoin="round"/>
<path d="M72.3563 168.668L71.2243 167.027C71.6043 166.409 71.8151 165.703 71.8356 164.978C71.8356 163.846 71.7337 161.802 69.3792 161.802C67.0246 161.802 65.4851 163.648 64.9757 167.644C64.4663 171.64 66.8152 173.587 70.1998 172.868C73.5845 172.149 72.3563 168.668 72.3563 168.668Z" fill="#263238" stroke="#263238" stroke-linecap="round" stroke-linejoin="round"/>
<path d="M72.2551 167.966C72.2551 167.966 70.5118 167.763 70.6137 169.098C70.6406 169.386 70.7539 169.658 70.9387 169.879C71.1235 170.101 71.3711 170.261 71.6487 170.339C71.9264 170.416 72.2212 170.408 72.4941 170.315C72.7671 170.222 73.0054 170.049 73.1777 169.817" fill="white"/>
<path d="M72.2551 167.966C72.2551 167.966 70.5118 167.763 70.6137 169.098C70.6406 169.386 70.7539 169.658 70.9387 169.879C71.1235 170.101 71.3711 170.261 71.6487 170.339C71.9264 170.416 72.2212 170.408 72.4941 170.315C72.7671 170.222 73.0054 170.049 73.1777 169.817" stroke="#263238" stroke-linecap="round" stroke-linejoin="round"/>
<path d="M69.8265 174.396L66.0512 175.46C66.0512 175.46 65.7569 176.196 65.3154 177.158C64.7211 178.466 63.0854 181.12 63.0854 181.12L55.5293 183.277L53.1012 191.104L52.5635 194.342L56.8764 192.18L57.1481 184.629L63.9401 183.582L66.855 176.224L69.8265 174.396Z" fill="#263238" stroke="#263238" stroke-linecap="round" stroke-linejoin="round"/>
<path d="M75.8433 173.292C75.8433 173.292 72.8718 171.962 70.6191 172.268C68.3664 172.573 68.5702 173.705 68.5702 173.705L68.6721 175.239C68.6721 175.239 72.4473 174.113 75.8433 173.292Z" fill="black" stroke="#263238" stroke-linecap="round" stroke-linejoin="round"/>
<path d="M65.6943 180.775L67.8168 190.589C67.833 190.707 67.877 190.819 67.9452 190.916C68.0135 191.014 68.1039 191.093 68.209 191.149C68.3142 191.204 68.431 191.234 68.5498 191.235C68.6687 191.236 68.786 191.209 68.8922 191.155L73.6863 188.761L65.6943 180.775Z" fill="black" stroke="#263238" stroke-linecap="round" stroke-linejoin="round"/>
<path d="M71.0267 185.999L69.9004 188.252" stroke="#263238" stroke-linecap="round" stroke-linejoin="round"/>
<path d="M80.96 195.938L87.1463 206.171L86.3256 220.01L89.2971 219.908L92.2686 203.403L87.9274 191.84L80.96 195.938Z" fill="#263238" stroke="#263238" stroke-linecap="round" stroke-linejoin="round"/>
<path d="M68.6658 175.24C68.6658 175.24 65.6943 180.362 65.6943 180.775C65.6943 181.188 77.2747 192.35 77.2747 192.35L86.0873 186.509L80.5518 176.887L88.5211 169.065L89.1324 158.509L87.7004 158.407L85.1364 166.093L76.6464 172.783L68.6658 175.24Z" fill="black" stroke="#263238" stroke-linecap="round" stroke-linejoin="round"/>
<path d="M87.7002 158.406L87.8021 156.052L90.3604 154.105L90.5698 154.614V156.154L90.6717 157.382L89.1322 158.508L87.7002 158.406Z" fill="white" stroke="#263238" stroke-linecap="round" stroke-linejoin="round"/>
<path d="M77.2744 192.35C77.2744 192.35 79.2215 195.627 80.6704 196.651C82.1194 197.676 86.5964 194.5 87.7284 193.572C88.8604 192.644 93.162 187.12 93.162 187.12L97.158 204.145L99.6201 203.121C99.6201 203.121 98.1768 180.481 97.4636 179.847C96.7505 179.213 85.6795 186.401 85.6795 186.401L77.2744 192.35Z" fill="#263238" stroke="#263238" stroke-linecap="round" stroke-linejoin="round"/>
<path d="M99.6156 203.126H103.097C103.713 203.126 105.247 202.204 105.361 202.922C105.474 203.641 102.389 205.583 101.155 206.2C99.9702 206.66 98.7324 206.97 97.4705 207.122L97.1592 204.151L99.6156 203.126Z" fill="white" stroke="#263238" stroke-linecap="round" stroke-linejoin="round"/>
<path d="M89.297 219.908L91.0402 223.083C91.0402 223.083 93.191 224.006 93.191 224.419C93.191 224.832 89.7101 224.623 89.3988 224.623C89.0875 224.623 85.6123 221.227 85.6123 221.227L86.3255 219.993L89.297 219.908Z" fill="white" stroke="#263238" stroke-linecap="round" stroke-linejoin="round"/>
<path d="M90.3613 154.105L123.806 108.248" stroke="#263238" stroke-miterlimit="10"/>
<path d="M6.79199 263.303H275.076" stroke="#263238" stroke-linecap="round" stroke-linejoin="round"/>
</svg>
