<svg width="253" height="228" viewBox="0 0 253 228" fill="none" xmlns="http://www.w3.org/2000/svg">
<path d="M113.46 109.733C108.243 110.081 103.172 107.846 101.288 106.685H100.418L99.5488 111.475V116.7L101.722 122.361C101.722 122.361 103.461 124.538 103.896 124.538C104.331 124.538 97.81 138.037 97.81 138.037V162.422L96.5059 174.179L98.2449 178.969C96.651 178.533 95.8975 178.446 105.635 181.582C115.372 184.717 119.835 175.05 120.85 169.824C121.284 164.018 122.154 152.755 122.154 154.148C122.154 155.542 128.24 158.213 131.283 159.374C138.528 161.696 153.714 166.341 156.496 166.341C159.278 166.341 162.582 165.18 163.886 164.599C168.233 160.68 165.625 149.794 165.19 148.488C164.842 147.442 162.727 145.73 161.712 145.004C160.309 144.198 159.263 143.725 156.496 142.827L144.759 139.779L143.889 141.956C143.845 141.556 143.573 141.268 142.585 140.65L140.846 137.601L139.107 139.779L137.369 140.65V139.343L138.238 136.73L137.369 135.424C137.079 135.279 136.412 134.902 136.064 134.553C135.717 134.205 135.34 133.537 135.195 133.247L134.76 129.328C135.816 127.316 138.012 122.291 139.542 118.877C141.083 115.439 141.281 108.572 140.846 105.378L137.369 100.588C123.023 110.604 119.98 109.297 113.46 109.733Z" fill="#263238"/>
<path d="M103.208 125.339C103.128 125.338 103.05 125.319 102.979 125.283C102.908 125.247 102.847 125.194 102.799 125.13C101.435 123.214 98.9393 117.623 98.6785 115.045C98.4176 112.467 99.8869 106.336 99.9478 106.058C99.9809 105.93 100.062 105.821 100.174 105.753C100.287 105.685 100.421 105.663 100.549 105.693C100.677 105.722 100.788 105.8 100.859 105.911C100.931 106.021 100.956 106.155 100.93 106.284C100.93 106.354 99.4435 112.537 99.6783 114.993C99.913 117.449 102.347 122.831 103.617 124.573C103.656 124.626 103.683 124.687 103.699 124.752C103.714 124.816 103.717 124.883 103.706 124.949C103.696 125.014 103.672 125.077 103.638 125.134C103.603 125.19 103.557 125.239 103.504 125.278C103.413 125.327 103.31 125.348 103.208 125.339Z" fill="#263238"/>
<path d="M110.364 182.269L107.052 182.034C110.642 181.067 112.868 175.276 114.259 171.296C114.52 170.547 114.772 169.833 115.024 169.18C116.259 165.949 116.372 155.89 116.302 152.023C115.789 150.203 114.407 145.77 113.433 144.333C113.23 144.042 113.089 143.713 113.017 143.366C112.945 143.019 112.945 142.66 113.016 142.313C113.32 140.85 114.816 139.9 116.128 139.073C116.572 138.81 116.999 138.519 117.406 138.202C117.702 136.338 119.867 135.755 121.475 135.328C121.98 135.189 122.458 135.058 122.832 134.919C124.388 133.491 131.204 120.445 132.7 113.434C133.969 107.52 131.83 105.43 131.83 105.413L133.795 103.114C134.16 103.419 137.333 106.336 135.682 114.07C134.395 120.079 126.944 136.539 124.11 137.68C123.512 137.903 122.903 138.092 122.284 138.246C121.634 138.39 121.002 138.603 120.397 138.881C120.206 140.101 119.024 140.85 117.789 141.642C117.178 141.98 116.602 142.377 116.068 142.827C117.493 145.143 119.084 150.734 119.267 151.387L119.319 151.762C119.319 153.19 119.545 165.818 117.841 170.26C117.606 170.887 117.363 171.566 117.111 172.28C115.555 176.791 115.502 180.893 110.364 182.269Z" fill="white"/>
<path d="M166.398 152.067C164.024 150.9 157.843 149.68 154.139 148.897C152.557 148.566 151.192 148.27 150.166 148.026C148.463 147.621 146.672 147.837 145.115 148.635C144.652 148.838 144.176 149.007 143.689 149.141C141.811 149.611 140.533 147.764 139.611 146.415C139.507 146.267 139.394 146.092 139.272 145.936C138.098 146.624 136.481 147.564 134.925 147.12C134.564 147.011 134.23 146.829 133.943 146.585C133.655 146.34 133.421 146.039 133.256 145.7C132.859 144.845 132.568 143.944 132.386 143.018C132.099 141.808 131.899 141.041 131.299 140.562C129.248 138.925 129.256 138.15 129.213 137.95L130.752 135.433C131.448 136.462 132.265 137.403 133.186 138.237C134.369 139.312 135.128 140.777 135.325 142.365C135.456 143.006 135.648 143.633 135.899 144.237C136.54 144.022 137.153 143.729 137.724 143.366C138.151 143.085 138.613 142.862 139.098 142.705C140.463 142.365 141.298 143.575 142.098 144.734C142.425 145.242 142.798 145.72 143.211 146.162C143.428 146.092 143.689 145.988 143.976 145.866C146.137 144.813 148.599 144.554 150.931 145.134C151.896 145.378 153.235 145.657 154.782 146.005C158.468 146.708 162.062 147.83 165.494 149.35L166.398 152.067Z" fill="white"/>
<path d="M183.525 168.457C183.427 168.457 183.331 168.43 183.247 168.379C177.631 164.712 164.989 163.676 164.85 163.667C164.78 163.669 164.709 163.656 164.644 163.629C164.579 163.602 164.52 163.562 164.471 163.51C164.422 163.459 164.385 163.398 164.361 163.331C164.337 163.265 164.328 163.194 164.334 163.123C164.339 163.052 164.359 162.984 164.393 162.921C164.427 162.859 164.473 162.805 164.529 162.762C164.585 162.718 164.65 162.688 164.719 162.671C164.788 162.655 164.859 162.653 164.928 162.666C165.459 162.666 177.97 163.728 183.795 167.534C183.851 167.569 183.899 167.616 183.937 167.67C183.975 167.725 184.002 167.786 184.016 167.851C184.03 167.916 184.03 167.983 184.018 168.048C184.005 168.114 183.98 168.176 183.943 168.231C183.897 168.3 183.835 168.357 183.762 168.396C183.689 168.436 183.608 168.457 183.525 168.457Z" fill="#263238"/>
<path d="M179.005 158.546C178.612 158.537 178.223 158.473 177.848 158.355C176.049 157.841 166.546 152.729 166.164 152.511C166.046 152.448 165.959 152.341 165.92 152.214C165.881 152.087 165.893 151.949 165.955 151.832C166.019 151.714 166.127 151.626 166.256 151.587C166.384 151.548 166.523 151.56 166.642 151.623C170.024 153.451 176.77 156.996 178.118 157.388C178.479 157.535 178.874 157.574 179.257 157.501C179.288 157.384 179.36 157.282 179.46 157.214C179.56 157.146 179.681 157.116 179.801 157.13C179.921 157.143 180.033 157.2 180.115 157.289C180.197 157.378 180.244 157.493 180.248 157.614C180.243 157.748 180.208 157.879 180.145 157.997C180.081 158.114 179.992 158.216 179.883 158.294C179.626 158.472 179.317 158.561 179.005 158.546Z" fill="#263238"/>
<path d="M184.317 151.814C184.317 151.814 179.535 156.482 179.535 156.987C179.535 157.492 182.935 160.514 183.187 161.525C183.439 162.535 185.708 161.272 186.334 161.525C186.96 161.777 186.838 163.545 185.073 163.919C183.308 164.294 183.439 168.84 184.065 169.467C184.691 170.094 190.151 172.872 193.133 176.025C196.115 179.178 197.793 182.33 199.045 182.835C200.297 183.34 201.566 183.706 201.94 181.198C202.314 178.69 202.696 173.255 199.427 169.345C196.158 165.435 194.767 165.052 193.759 165.052C192.75 165.052 191.151 165.182 191.75 163.798C192.35 162.413 193.759 161.185 193.255 160.009C192.75 158.833 188.812 151.44 184.317 151.814Z" fill="#263238"/>
<path d="M201.775 184.682C201.408 184.7 201.042 184.618 200.719 184.443C200.396 184.267 200.126 184.007 199.94 183.689C199.911 183.63 199.893 183.566 199.888 183.5C199.884 183.435 199.892 183.369 199.913 183.306C199.934 183.244 199.967 183.186 200.011 183.137C200.054 183.087 200.107 183.047 200.167 183.018C200.284 182.96 200.42 182.95 200.545 182.991C200.67 183.032 200.775 183.12 200.836 183.236C200.879 183.306 201.219 183.872 202.279 183.611C203.731 183.245 204.887 182.827 205.183 181.102C205.591 177.339 204.822 173.541 202.983 170.234C201.866 168.546 200.527 167.017 199.001 165.688C197.637 164.407 196.567 163.397 196.489 162.317C196.489 161.925 196.489 161.533 196.445 161.124C196.519 159.561 196.221 158.003 195.576 156.578C194.437 154.305 191.733 151.353 189.168 150.264C186.812 149.297 185.743 149.724 184.821 152.006C184.769 152.129 184.671 152.227 184.547 152.278C184.423 152.329 184.284 152.328 184.161 152.276C184.037 152.224 183.939 152.125 183.889 152.001C183.838 151.877 183.839 151.738 183.891 151.614C185.065 148.81 186.717 148.13 189.586 149.324C192.455 150.517 195.306 153.678 196.541 156.125C197.268 157.676 197.614 159.378 197.55 161.089C197.55 161.484 197.567 161.867 197.602 162.239C197.645 162.918 198.645 163.859 199.793 164.939C201.388 166.33 202.786 167.932 203.948 169.702C205.922 173.219 206.738 177.269 206.279 181.277C205.844 183.584 204.235 184.177 202.627 184.577C202.349 184.653 202.062 184.688 201.775 184.682Z" fill="#263238"/>
<path d="M112.155 105.674C109.677 105.674 105.2 105.352 102.861 103.174C101.926 102.31 101.107 101.326 100.427 100.248C99.9761 99.5032 99.4294 98.8209 98.8008 98.2191C98.2415 97.7359 97.8379 97.0972 97.6413 96.384C97.4448 95.6708 97.464 94.9152 97.6967 94.2129C97.7469 94.0899 97.8435 93.9916 97.9656 93.9394C98.0876 93.8873 98.2253 93.8854 98.3487 93.9343C98.4111 93.9574 98.4681 93.9928 98.5165 94.0384C98.5649 94.0841 98.6036 94.139 98.6304 94.1999C98.6572 94.2609 98.6714 94.3266 98.6723 94.3931C98.6732 94.4597 98.6607 94.5258 98.6356 94.5874C98.48 95.1016 98.4795 95.6503 98.6341 96.1647C98.7888 96.6791 99.0918 97.1363 99.505 97.4788C100.176 98.1389 100.761 98.8823 101.244 99.6909C101.879 100.702 102.645 101.625 103.522 102.434C105.939 104.681 111.347 104.707 112.894 104.655C113.028 104.655 113.156 104.708 113.251 104.803C113.345 104.898 113.398 105.026 113.398 105.16C113.398 105.294 113.345 105.423 113.251 105.517C113.156 105.612 113.028 105.665 112.894 105.665L112.155 105.674Z" fill="#263238"/>
<path d="M115.859 110.168C111.671 110.215 107.504 109.561 103.53 108.235C98.2008 106.145 98.3139 103.88 98.5312 103.262C98.5974 103.034 98.6757 102.811 98.766 102.591C98.9746 102.069 99.0529 101.877 98.766 101.407C98.053 100.327 98.6355 97.9844 98.7051 97.7231C98.7379 97.5941 98.8203 97.4833 98.9343 97.4148C99.0482 97.3463 99.1846 97.3256 99.3137 97.3573C99.4431 97.3922 99.5538 97.4764 99.6221 97.5919C99.6903 97.7075 99.7107 97.8452 99.6788 97.9756C99.4441 98.8465 99.2702 100.344 99.6093 100.85C99.8324 101.152 99.9634 101.513 99.9866 101.888C100.01 102.264 99.924 102.638 99.7397 102.966C99.6572 103.149 99.5903 103.338 99.5397 103.532C99.305 104.403 100.314 105.875 103.887 107.294C108.234 109.036 119.328 110.482 125.892 107.294C136.542 102.156 137.298 100.257 137.272 99.7958C137.246 99.3342 137.203 98.9249 137.151 98.4024C136.886 97.0092 136.94 95.5742 137.307 94.2047C137.898 92.6719 138.49 91.1478 137.881 89.2406C137.477 87.4956 137.27 85.7107 137.264 83.9194C137.203 82.735 137.151 81.6116 137.029 80.7581C136.881 79.2201 136.397 77.7336 135.612 76.4036C135.56 76.3623 135.518 76.311 135.486 76.253C135.455 76.1949 135.436 76.1312 135.429 76.0655C135.423 75.9998 135.429 75.9335 135.449 75.8704C135.468 75.8074 135.5 75.7488 135.542 75.6982C135.629 75.5957 135.751 75.5311 135.885 75.5181C136.018 75.505 136.151 75.5447 136.255 75.6285C136.985 76.2468 137.733 78.6679 137.994 80.6536C138.133 81.5245 138.185 82.7002 138.246 83.9107C138.248 85.6164 138.44 87.3165 138.82 88.9793C139.533 91.2262 138.82 92.9941 138.246 94.553C137.928 95.7916 137.887 97.085 138.124 98.3414C138.177 98.8465 138.229 99.3342 138.255 99.7871C138.307 100.919 137.133 103.027 126.3 108.243C123.397 109.637 119.597 110.168 115.859 110.168Z" fill="#263238"/>
<path d="M161.164 111.039C158.905 110.98 156.659 110.689 154.461 110.168C152.435 109.698 152.035 107.042 151.739 105.1C151.688 104.425 151.526 103.763 151.261 103.14C150.061 102.339 149.87 101.633 149.87 99.7871C149.769 98.8363 149.353 97.9469 148.688 97.2615C148.263 96.7169 147.891 96.1338 147.575 95.5197C146.871 94.1089 144.428 87.2114 145.019 85.2258C145.436 83.8411 143.749 80.7058 140.967 79.6259C137.942 78.4415 131.899 74.6967 131.647 74.5399C131.59 74.5051 131.541 74.4595 131.502 74.4056C131.463 74.3517 131.435 74.2907 131.42 74.2259C131.405 74.1612 131.402 74.0941 131.413 74.0284C131.423 73.9627 131.447 73.8998 131.482 73.8432C131.554 73.7304 131.666 73.65 131.796 73.6191C131.926 73.5882 132.063 73.6092 132.177 73.6777C132.238 73.6777 138.394 77.5358 141.332 78.6854C144.506 79.922 146.549 83.5362 145.984 85.5132C145.558 86.9589 147.592 93.299 148.47 95.093C148.779 95.6494 149.137 96.177 149.54 96.6693C150.339 97.529 150.826 98.6335 150.922 99.8045C150.922 101.546 151.087 101.799 151.87 102.321C152.426 102.696 152.574 103.645 152.739 104.934C153.009 106.676 153.339 108.853 154.687 109.167C159.347 110.238 164.615 110.517 165.172 108.618C165.641 107.024 165.441 104.499 165.259 102.269C165.091 100.885 165.056 99.4883 165.154 98.0976C165.372 96.5561 162.546 85.8354 160.807 79.4343C159.981 76.3165 159.329 73.8606 159.121 72.8852C158.512 70.0113 140.932 57.2614 136.429 55.4673C132.551 53.891 126.761 51.8183 121.197 51.9837C121.123 51.9904 121.049 51.9787 120.98 51.9499C120.912 51.921 120.852 51.8758 120.805 51.8183C119.975 50.8427 119.048 49.9529 118.041 49.1621L117.736 49.493C116.537 50.7906 113.728 53.8475 109.703 53.3249C107.49 53.0878 105.323 52.5304 103.269 51.6702C103.284 52.1333 103.122 52.5847 102.817 52.933L102.739 52.994C102.652 53.0549 100.592 54.3439 94.9143 53.8649C89.437 53.3685 86.4288 53.0985 81.1775 47.8383C79.7082 46.3665 78.0041 44.5724 76.1871 42.6652C71.9965 38.1627 67.2147 33.1376 65.3889 32.2232C63.3023 31.1781 59.5465 30.7601 58.1902 30.6381C58.0424 32.2319 57.2686 36.8824 53.3388 38.4762C53.3388 39.1032 53.617 40.9495 56.0253 44.1109L57.3555 45.8527C61.4157 51.2348 70.9358 63.8366 73.9527 65.1343C74.9264 65.5523 76.5609 66.1358 78.4215 66.8064C83.5075 68.6352 89.8456 70.9083 91.7322 72.8068C93.332 74.4006 94.7056 80.4881 95.9228 85.8702C96.6357 89.0055 97.3747 92.2539 97.8094 92.7764C98.7018 93.6242 99.7382 94.3055 100.87 94.7882C101.627 95.0745 102.312 95.5234 102.878 96.1032C102.95 96.2154 102.975 96.3516 102.948 96.4821C102.92 96.6127 102.842 96.7269 102.73 96.8C102.619 96.8709 102.484 96.8961 102.355 96.8701C102.225 96.8442 102.111 96.7691 102.035 96.6606C101.541 96.2653 100.997 95.9373 100.418 95.6852C99.16 95.1469 98.0131 94.3791 97.0357 93.4209C96.4705 92.7503 95.9054 90.3205 94.9404 86.0967C93.8971 81.3416 92.4104 74.897 91.0193 73.4948C89.2805 71.753 82.812 69.4278 78.0824 67.7295C76.1958 67.0502 74.6047 66.4667 73.5527 65.9877C70.2924 64.5856 61.0071 52.2973 56.5557 46.3926L55.2255 44.6508C51.9043 40.2964 52.3129 38.1452 52.3738 37.9188C52.3912 37.8362 52.4301 37.7596 52.4866 37.6969C52.5431 37.6342 52.6152 37.5876 52.6955 37.5617C57.0425 36.0986 57.2164 30.0982 57.2251 30.0372C57.2273 29.9701 57.2429 29.9041 57.2709 29.8431C57.2989 29.7821 57.3387 29.7273 57.3881 29.6818C57.4375 29.6364 57.4954 29.6013 57.5585 29.5786C57.6215 29.5559 57.6885 29.546 57.7555 29.5495C57.9728 29.5495 63.0937 29.9066 65.841 31.2913C67.8146 32.319 72.4573 37.1873 76.9435 41.8988C78.7518 43.7973 80.4211 45.5914 81.9165 47.0545C86.907 52.0534 89.6195 52.2799 95.0273 52.7937C99.7917 53.2291 101.791 52.3234 102.13 52.1405C102.234 51.9021 102.279 51.6422 102.261 51.3828C102.261 51.0954 102.261 50.4336 102.878 50.4336C103.095 50.4609 103.304 50.5289 103.495 50.6339C105.507 51.502 107.638 52.0599 109.816 52.2886C113.294 52.7327 115.902 49.9546 116.989 48.805C117.182 48.5606 117.411 48.3463 117.667 48.1692C117.962 48.0299 118.536 47.7599 121.388 50.9735C127.057 50.869 132.89 52.9504 136.803 54.5442C141.332 56.3992 159.347 69.1752 160.094 72.7284C160.294 73.6777 160.964 76.1249 161.772 79.2253C164.302 88.7006 166.372 96.6432 166.119 98.2892C166.034 99.6078 166.072 100.931 166.232 102.243C166.415 104.56 166.624 107.181 166.102 108.949C165.65 110.551 163.52 111.039 161.164 111.039Z" fill="#263238"/>
<path d="M109.625 57.54C108.074 57.5478 106.531 57.2976 105.061 56.7998C100.036 55.058 100.088 53.3597 100.149 53.0375C100.17 52.9047 100.242 52.7856 100.351 52.7064C100.459 52.6271 100.594 52.5943 100.727 52.6151C100.86 52.6359 100.978 52.7086 101.058 52.8172C101.137 52.9258 101.169 53.0614 101.149 53.1943C101.149 53.2813 101.349 54.4483 105.391 55.8069C108.13 56.686 111.072 56.7059 113.822 55.8638C116.572 55.0218 119 53.358 120.78 51.0954C120.821 51.0433 120.871 50.9999 120.929 50.9677C120.987 50.9355 121.05 50.9151 121.116 50.9078C121.181 50.9005 121.248 50.9064 121.311 50.9252C121.374 50.9439 121.433 50.9752 121.484 51.017C121.588 51.1022 121.654 51.2246 121.669 51.3581C121.683 51.4916 121.645 51.6255 121.563 51.7312C120.136 53.5354 118.322 54.9946 116.256 56.0002C114.189 57.0059 111.923 57.5322 109.625 57.54Z" fill="#263238"/>
<path d="M65.6152 17.6529L3.34766 6.72314L60.9117 8.74362L65.6152 17.6529Z" fill="#E8E8E8"/>
<path d="M55.3648 8.5433V5.71289L3.34766 6.72313L55.3648 8.5433Z" fill="#D9D9D9"/>
<path d="M58.7381 5.6521L47.9922 0L3.34766 6.7233L58.7381 5.6521Z" fill="#E8E8E8"/>
<path d="M52.8611 38.5804C52.7882 38.5832 52.7157 38.5688 52.6493 38.5386C52.5829 38.5084 52.5244 38.4631 52.4786 38.4063C52.4003 38.3192 44.7581 29.4273 42.4803 27.6333C42.0108 27.2675 41.5239 26.8669 41.0197 26.4576C38.9909 24.6323 36.7242 23.0912 34.2817 21.8767C31.1518 20.5529 27.1525 14.1083 26.9873 13.8296C26.953 13.7724 26.9304 13.7091 26.9206 13.6431C26.9108 13.5771 26.914 13.5099 26.9302 13.4452C26.9463 13.3805 26.975 13.3196 27.0147 13.266C27.0543 13.2125 27.1041 13.1672 27.1612 13.1329C27.2183 13.0986 27.2815 13.0759 27.3474 13.0661C27.4132 13.0563 27.4804 13.0595 27.5449 13.0757C27.6095 13.0919 27.6703 13.1206 27.7238 13.1603C27.7773 13.2 27.8224 13.2499 27.8567 13.3071C27.8567 13.3681 31.856 19.743 34.699 20.9535C37.1855 22.0073 39.5677 23.9581 41.6543 25.6738L43.0976 26.8408C45.4624 28.6958 52.922 37.3786 53.2436 37.7531C53.2869 37.8026 53.3199 37.8603 53.3408 37.9227C53.3616 37.9851 53.3698 38.0511 53.365 38.1167C53.3601 38.1824 53.3423 38.2464 53.3125 38.3051C53.2827 38.3638 53.2416 38.4159 53.1915 38.4585C53.1004 38.539 52.9826 38.5825 52.8611 38.5804Z" fill="#263238"/>
<path d="M37.6026 12.6626L4.68652 6.72314L38.8024 16.9997L37.6026 12.6626Z" fill="#9E9E9E"/>
<path d="M43.8193 18.5064L56.052 22.1903L56.9214 16.1376L42.3848 13.5249C42.3848 13.5249 42.7065 15.4147 42.889 16.1376C43.1429 16.9482 43.4537 17.7398 43.8193 18.5064Z" fill="#9E9E9E"/>
<path d="M105.2 52.3318H105.061C104.996 52.3137 104.937 52.2831 104.884 52.2418C104.832 52.2004 104.789 52.1491 104.756 52.0908C104.724 52.0325 104.703 51.9684 104.696 51.9021C104.689 51.8359 104.694 51.7688 104.713 51.7047C104.713 51.7047 105.66 48.3518 104.713 46.0439C104.679 45.9813 104.66 45.9124 104.655 45.8417C104.65 45.7709 104.66 45.6998 104.684 45.6332C104.708 45.5665 104.746 45.5057 104.795 45.4547C104.844 45.4037 104.904 45.3637 104.97 45.3372C105.035 45.3108 105.106 45.2985 105.177 45.3011C105.247 45.3038 105.317 45.3214 105.38 45.3527C105.444 45.3841 105.5 45.4285 105.545 45.4831C105.591 45.5376 105.624 45.6011 105.643 45.6694C106.712 48.2821 105.704 51.8354 105.643 51.9834C105.612 52.0791 105.553 52.1634 105.474 52.2254C105.396 52.2875 105.3 52.3245 105.2 52.3318Z" fill="#263238"/>
<path d="M116.432 50.573C116.353 50.573 116.274 50.554 116.203 50.5177C116.132 50.4814 116.071 50.4287 116.024 50.3639C114.65 48.4654 112.355 45.1386 112.442 44.2067C112.457 44.075 112.523 43.9544 112.625 43.87C112.727 43.7856 112.858 43.744 112.99 43.7539C113.122 43.7692 113.243 43.8346 113.329 43.9365C113.414 44.0385 113.458 44.1695 113.45 44.3025C113.45 44.8338 115.189 47.5597 116.841 49.7717C116.88 49.8255 116.908 49.8864 116.923 49.9509C116.938 50.0155 116.941 50.0824 116.93 50.1479C116.92 50.2134 116.897 50.2762 116.862 50.3327C116.827 50.3892 116.782 50.4383 116.728 50.4772C116.642 50.5384 116.538 50.5718 116.432 50.573Z" fill="#263238"/>
<path d="M172.692 129.023C172.572 129.021 172.452 129.006 172.335 128.98C170.944 128.675 165.502 123.092 164.511 121.734C163.745 120.764 162.766 119.983 161.65 119.452C161.096 120.222 160.749 121.122 160.642 122.065C160.537 123.354 160.338 124.616 159.59 125.13C159.411 125.248 159.207 125.323 158.994 125.349C158.782 125.375 158.566 125.351 158.364 125.278C156.816 124.808 157.051 123.371 157.382 121.385L157.495 120.68C157.839 119.126 158.426 117.636 159.233 116.265C159.372 116.003 159.52 115.716 159.599 115.542C159.199 114.871 157.564 112.171 156.443 110.316C156.374 110.202 156.353 110.065 156.384 109.934C156.415 109.804 156.495 109.691 156.608 109.62C156.664 109.585 156.727 109.561 156.793 109.55C156.858 109.54 156.925 109.542 156.99 109.558C157.054 109.573 157.115 109.601 157.169 109.64C157.223 109.679 157.269 109.728 157.303 109.785C157.834 110.656 160.459 114.95 160.581 115.202C160.703 115.455 160.581 115.803 160.12 116.7C159.368 117.977 158.82 119.364 158.494 120.811L158.373 121.516C158.034 123.589 158.016 124.085 158.651 124.277C158.894 124.355 158.981 124.277 159.025 124.277C159.477 123.972 159.599 122.465 159.642 121.969C159.734 120.664 160.278 119.432 161.181 118.485C161.271 118.423 161.374 118.381 161.482 118.363C161.59 118.345 161.701 118.351 161.807 118.381C163.172 118.978 164.367 119.906 165.284 121.081C166.623 122.822 171.701 127.769 172.544 127.952C172.64 127.952 172.805 127.996 172.848 127.908C172.892 127.821 172.848 127.125 172.101 126.419C171.101 125.548 167.806 121.194 168.093 120.192C168.123 120.083 168.183 119.985 168.266 119.908C168.349 119.831 168.451 119.779 168.562 119.757C169.032 119.661 169.501 120.001 172.188 122.37C173.57 123.598 175.665 125.444 176.187 125.548C176.388 125.588 176.591 125.617 176.796 125.635C176.686 125.442 176.564 125.256 176.43 125.078C176.013 124.495 175.187 123.589 174.387 122.709C173.41 121.722 172.522 120.65 171.736 119.504C171.674 119.386 171.661 119.249 171.7 119.122C171.74 118.994 171.827 118.888 171.944 118.825C172.062 118.762 172.2 118.748 172.328 118.785C172.457 118.823 172.565 118.909 172.631 119.025C173.38 120.093 174.214 121.098 175.126 122.03C175.996 122.97 176.796 123.859 177.248 124.486C177.7 125.113 178.117 125.766 177.761 126.228C177.404 126.689 176.7 126.646 176.022 126.498C175.344 126.35 173.84 125.113 171.553 123.092C170.944 122.552 170.214 121.899 169.623 121.412C170.523 122.934 171.59 124.351 172.805 125.635C173.77 126.506 174.161 127.586 173.779 128.326C173.688 128.538 173.536 128.718 173.342 128.842C173.148 128.967 172.922 129.03 172.692 129.023Z" fill="#263238"/>
<path d="M177.787 124.808C177.075 124.769 176.38 124.573 175.752 124.233C175.654 124.159 175.586 124.052 175.561 123.931C175.536 123.811 175.556 123.685 175.616 123.578C175.677 123.471 175.775 123.39 175.891 123.351C176.008 123.311 176.134 123.315 176.248 123.362C176.775 123.667 177.378 123.815 177.987 123.789L178.03 123.736C178.03 123.736 178.03 123.44 177.065 122.561C175.502 120.918 174.05 119.172 172.718 117.335C172.647 117.235 172.608 117.115 172.608 116.991C172.608 116.868 172.647 116.748 172.718 116.647C173.318 115.916 178.448 118.32 178.5 118.389C178.534 118.396 178.57 118.396 178.604 118.389C178.604 118.389 178.604 117.98 177.961 117.44C177.161 116.787 172.683 115.141 165.971 113.033L165.85 112.99C164.424 112.545 163.824 110.516 163.763 110.29C163.744 110.167 163.77 110.042 163.837 109.938C163.903 109.833 164.006 109.757 164.125 109.724C164.245 109.69 164.372 109.702 164.483 109.757C164.594 109.811 164.682 109.905 164.728 110.02C164.867 110.49 165.38 111.762 166.145 112.032H166.267C171.24 113.599 177.422 115.663 178.595 116.621C179.769 117.579 179.743 118.433 179.465 118.92C179.318 119.137 179.094 119.289 178.839 119.348C178.585 119.406 178.317 119.365 178.091 119.234C177.569 118.973 175.639 118.206 174.353 117.762C175.424 119.186 176.585 120.538 177.83 121.812C178.743 122.683 179.126 123.266 179.108 123.789C179.097 123.949 179.05 124.104 178.972 124.244C178.894 124.384 178.786 124.505 178.656 124.599C178.402 124.774 178.092 124.848 177.787 124.808Z" fill="#263238"/>
<path d="M98.0183 8.55231C98.0183 8.55231 91.7933 10.1548 90.9586 13.5687C90.124 16.9826 90.9586 20.5358 93.6451 20.1787C96.3316 19.8217 99.8527 17.4877 102.2 17.6532C104.548 17.8186 104.052 18.7069 103.209 20.1962C102.365 21.6854 103.878 24.211 108.077 23.0353C112.277 21.8596 112.424 19.6736 115.459 20.5097C118.493 21.3457 115.728 28.2432 116.432 29.2186C117.137 30.194 117.302 31.57 118.884 29.2186C120.467 26.8672 122.849 23.671 125.361 24.5158C127.874 25.3606 123.014 30.2289 120.501 31.2391L117.98 32.2493C117.98 32.2493 116.972 39.3036 115.459 40.3138C115.459 40.3138 125.535 38.9726 129.369 35.4368C133.204 31.901 129.874 31.9532 130.543 30.0634C131.213 28.1735 135.073 28.0778 135.073 25.7873C135.073 23.4968 134.568 23.8365 131.047 22.1557C127.526 20.4748 128.526 19.6388 129.03 18.794C129.535 17.9493 130.039 16.4426 127.187 15.5978C124.335 14.7531 117.624 12.7413 118.858 10.895C120.093 9.04872 120.736 5.34742 116.406 5.66965C112.077 5.99188 107.938 8.81358 105.478 8.50877C103.017 8.20395 100.748 7.55078 98.0183 8.55231Z" fill="#263238"/>
<path d="M106.234 46.5664H106.113L104.982 46.3139C102.052 45.6694 95.9578 44.337 92.7062 42.0291C88.7329 39.2074 89.4546 32.188 90.1675 29.9498C90.8804 27.7116 92.4888 20.1435 92.5062 20.0303C92.5195 19.9638 92.5464 19.9008 92.5853 19.8453C92.6242 19.7898 92.6743 19.7431 92.7323 19.7081C92.7878 19.6707 92.8508 19.6459 92.9168 19.6354C92.9829 19.6249 93.0504 19.6289 93.1148 19.6471C93.216 19.6565 93.3179 19.6565 93.4191 19.6471C93.4709 19.6206 93.5267 19.6029 93.5843 19.5949C94.9047 19.3393 96.1893 18.9241 97.4097 18.3582C99.1485 17.6441 100.835 16.9648 102.235 17.0693C103.009 17.1302 103.974 17.2696 104.287 17.9402C104.6 18.6108 104.209 19.3946 103.652 20.3787C103.527 20.6208 103.476 20.8946 103.505 21.1657C103.534 21.4368 103.643 21.6932 103.817 21.9027C104.513 22.7736 106.06 23.0262 107.938 22.4949C109.212 22.1391 110.417 21.5709 111.503 20.8141C112.703 20.039 113.642 19.4294 115.598 19.9432C118.015 20.6225 117.458 24.08 117.059 26.6143C116.883 27.3613 116.813 28.1294 116.85 28.896C116.98 29.0789 117.093 29.2792 117.206 29.4708C117.294 29.6594 117.412 29.8328 117.554 29.9846C117.894 29.6615 118.187 29.2921 118.423 28.8873C119.841 26.8233 122.475 22.9826 125.483 23.9929C125.778 24.069 126.039 24.2396 126.227 24.4787C126.416 24.7178 126.521 25.0121 126.526 25.3166C126.587 27.311 122.849 30.7771 120.64 31.6567L118.363 32.5712C118.058 33.7904 116.754 38.8939 115.859 40.5137L115.685 40.8447C115.128 41.942 113.946 44.2412 111.712 45.4256C111.594 45.4872 111.457 45.4999 111.33 45.4608C111.203 45.4216 111.096 45.3339 111.033 45.2166C110.971 45.0973 110.959 44.9585 110.998 44.8299C111.037 44.7013 111.124 44.5931 111.242 44.5286C113.207 43.4922 114.276 41.3933 114.789 40.3831L114.981 40.026C115.902 38.3365 117.432 32.188 117.45 32.0835C117.468 32.0059 117.504 31.9338 117.555 31.8732C117.607 31.8126 117.672 31.7652 117.745 31.7351L120.267 30.7249C122.205 29.9498 125.561 26.7101 125.483 25.3428C125.483 25.2121 125.483 25.0554 125.127 24.9422C123.118 24.2716 121.101 26.6839 119.223 29.4621C118.45 30.5855 117.911 31.0036 117.389 30.9862C116.867 30.9687 116.519 30.4375 116.25 29.9672C116.154 29.8017 116.059 29.6276 115.946 29.4621C115.598 28.9744 115.72 28.0948 115.946 26.4488C116.293 24.2977 116.763 21.3541 115.215 20.9186C113.668 20.4832 113.077 20.9186 111.938 21.6328C110.81 22.4619 109.552 23.0976 108.217 23.5139C104.921 24.437 103.487 23.1655 103 22.5733C102.705 22.2118 102.523 21.7705 102.478 21.3053C102.433 20.8402 102.527 20.3722 102.748 19.9606C103.052 19.412 103.47 18.6717 103.365 18.4801C103.365 18.4801 103.209 18.245 102.139 18.1666C101.07 18.0882 99.3398 18.7414 97.7923 19.3859C96.5163 19.9607 95.1809 20.393 93.8103 20.6748C93.6768 20.7241 93.5353 20.7477 93.393 20.7444C93.0192 22.4862 91.7324 28.3561 91.1238 30.2546C90.5152 32.1532 89.8197 38.7371 93.2887 41.2105C96.3664 43.3964 102.331 44.694 105.191 45.3298L106.347 45.5823C106.412 45.5977 106.473 45.6256 106.527 45.6646C106.58 45.7036 106.626 45.7528 106.661 45.8094C106.695 45.8661 106.719 45.929 106.729 45.9946C106.739 46.0603 106.737 46.1273 106.721 46.192C106.694 46.3001 106.631 46.3959 106.543 46.4638C106.454 46.5317 106.346 46.5679 106.234 46.5664Z" fill="#263238"/>
<path d="M91.4366 27.5986C91.3542 27.6001 91.2731 27.579 91.2018 27.5377C90.0531 26.8691 89.0506 25.9754 88.2544 24.91C87.4583 23.8446 86.8846 22.6294 86.5678 21.3369C86.3068 20.5839 86.3068 19.7647 86.5678 19.0116C86.7016 18.8161 86.8873 18.662 87.1039 18.5665C87.3205 18.4711 87.5595 18.4383 87.7937 18.4717C88.6631 18.5501 89.7934 19.3426 90.5932 21.215C91.0454 22.3889 91.6287 23.5079 92.3321 24.5505C92.4139 24.6568 92.4503 24.7912 92.4332 24.9243C92.416 25.0575 92.3468 25.1783 92.2408 25.2603C92.1347 25.3423 92.0005 25.3787 91.8676 25.3616C91.7347 25.3444 91.6141 25.2751 91.5322 25.1688C90.7587 24.0645 90.1196 22.8716 89.6282 21.6156C88.95 20.0044 88.0719 19.508 87.6546 19.4732C87.4546 19.4732 87.3851 19.5429 87.3677 19.569C87.0808 20.2048 88.098 24.7944 91.6452 26.6494C91.7435 26.7027 91.8213 26.7871 91.8664 26.8895C91.9115 26.9919 91.9215 27.1064 91.8946 27.215C91.8677 27.3236 91.8056 27.4203 91.718 27.4897C91.6304 27.5591 91.5222 27.5975 91.4105 27.5986H91.4366Z" fill="#263238"/>
<path d="M111.964 26.2048H111.703C111.486 26.1669 111.286 26.0629 111.131 25.907C110.975 25.7512 110.872 25.551 110.834 25.3339C110.695 24.7417 109.443 23.8969 108.591 23.4876C108.53 23.4588 108.476 23.4183 108.432 23.3684C108.387 23.3185 108.353 23.2603 108.331 23.1971C108.31 23.1339 108.301 23.067 108.305 23.0003C108.309 22.9335 108.326 22.8683 108.356 22.8083C108.384 22.7483 108.423 22.6945 108.472 22.65C108.521 22.6055 108.579 22.5714 108.641 22.5494C108.703 22.5275 108.77 22.5183 108.836 22.5224C108.902 22.5265 108.966 22.5438 109.025 22.5732C109.443 22.7735 111.52 23.8447 111.816 25.1075C111.816 25.1859 111.816 25.1859 111.886 25.1946C111.995 25.1981 112.104 25.1746 112.203 25.126C112.302 25.0774 112.387 25.0052 112.451 24.9159C112.506 24.8337 112.536 24.7366 112.536 24.6372C112.536 24.5378 112.506 24.4408 112.451 24.3585C111.79 23.1306 111.338 22.4425 110.781 22.2945C110.713 22.282 110.648 22.2556 110.591 22.2169C110.533 22.1782 110.484 22.128 110.447 22.0695C110.41 22.011 110.385 21.9454 110.374 21.8768C110.363 21.8083 110.367 21.7382 110.384 21.671C110.401 21.6038 110.432 21.5409 110.475 21.4862C110.518 21.4315 110.571 21.3863 110.632 21.3533C110.693 21.3203 110.76 21.3002 110.829 21.2943C110.898 21.2884 110.968 21.2969 111.034 21.3191C112.042 21.5804 112.651 22.5906 113.338 23.8882C113.483 24.1415 113.55 24.4325 113.53 24.7241C113.51 25.0157 113.404 25.2947 113.225 25.5255C113.078 25.7253 112.889 25.8899 112.671 26.0074C112.453 26.1249 112.211 26.1923 111.964 26.2048Z" fill="#263238"/>
<path d="M93.8978 22.6956C93.843 22.7039 93.7873 22.7039 93.7326 22.6956C93.4722 22.6383 93.2312 22.5143 93.0331 22.3357C92.8349 22.1571 92.6865 21.93 92.6024 21.6766C92.5623 21.4224 92.5789 21.1625 92.6511 20.9156C92.7232 20.6686 92.8491 20.4408 93.0197 20.2483C93.1153 20.1558 93.2431 20.104 93.3761 20.104C93.5091 20.104 93.6369 20.1558 93.7326 20.2483C93.8245 20.3427 93.8759 20.4693 93.8759 20.6011C93.8759 20.7329 93.8245 20.8594 93.7326 20.9538C93.6456 21.0583 93.4978 21.3108 93.5413 21.4502C93.5848 21.5895 93.6717 21.6244 93.8369 21.7027C94.763 21.2792 95.7593 21.0312 96.7756 20.9712C96.9242 20.9655 97.0675 20.9139 97.1858 20.8235C97.3041 20.7331 97.3916 20.6082 97.4363 20.4661C97.5672 20.1669 97.5917 19.8319 97.5059 19.5168C97.3915 19.5341 97.2747 19.5116 97.175 19.4529C97.0753 19.3943 96.9987 19.303 96.9581 19.1946C96.9119 19.0743 96.9141 18.9407 96.9644 18.822C97.0147 18.7034 97.1091 18.609 97.2277 18.5588C97.386 18.4921 97.5605 18.4739 97.7291 18.5064C97.8978 18.539 98.0531 18.6209 98.1753 18.7417C98.3904 19.0324 98.524 19.3755 98.5623 19.7354C98.6005 20.0952 98.5419 20.4587 98.3927 20.7883C98.282 21.1235 98.0722 21.4171 97.7912 21.6302C97.5102 21.8432 97.1711 21.9657 96.819 21.9814C95.8739 22.0379 94.9491 22.2806 94.0978 22.6956C94.0319 22.7105 93.9636 22.7105 93.8978 22.6956Z" fill="#263238"/>
<path d="M95.1575 25.6997C94.6494 25.4894 94.1263 25.3176 93.5925 25.1859C93.3606 25.1238 93.1255 25.0744 92.8883 25.0378C92.6188 24.9856 92.3319 24.9594 91.958 24.8549C92.1556 24.5446 92.4464 24.3049 92.7884 24.1703C93.1305 24.0358 93.5064 24.0132 93.862 24.106C94.2272 24.1835 94.5548 24.3839 94.7905 24.6739C95.0261 24.9638 95.1556 25.3258 95.1575 25.6997Z" fill="#263238"/>
<path d="M104.33 27.0932C104.644 26.6688 105.091 26.3621 105.599 26.2223C106.111 26.0742 106.652 26.0562 107.173 26.17C107.687 26.2887 108.164 26.5308 108.564 26.8755C108.966 27.207 109.267 27.6444 109.434 28.1383C108.938 27.9641 108.564 27.7638 108.129 27.6157C107.747 27.4622 107.351 27.3427 106.947 27.2587C106.548 27.1599 106.14 27.1015 105.73 27.0845C105.26 27.0845 104.817 27.0845 104.33 27.0932Z" fill="#263238"/>
<path d="M98.0966 33.0941H98.001C97.1091 32.9146 96.2359 32.6522 95.3927 32.3103C95.2369 32.2431 95.0981 32.1417 94.9868 32.0136C94.8754 31.8855 94.7942 31.7338 94.7493 31.57C94.6687 30.9552 94.8241 30.3327 95.184 29.8282L97.6706 24.9251L97.7575 24.8032C97.922 24.6095 98.1297 24.4573 98.3639 24.3589C98.598 24.2606 98.8519 24.2189 99.1051 24.2371C99.3743 24.2925 99.6288 24.4042 99.852 24.5648C100.075 24.7253 100.262 24.9312 100.401 25.1689C100.455 25.2701 100.476 25.3859 100.461 25.4999C100.461 25.4999 99.8963 29.2099 99.8355 30.7252C99.8606 31.2391 99.7193 31.7474 99.4326 32.1743C99.1459 32.6012 98.7291 32.9238 98.2444 33.0941H98.0966ZM98.5052 25.4302L96.0274 30.3159C95.8137 30.5961 95.6976 30.9387 95.697 31.2913C95.697 31.2913 95.697 31.3523 95.7926 31.3871C96.5224 31.6864 97.2794 31.9139 98.0531 32.0664C98.2973 31.9295 98.4973 31.7257 98.6298 31.4789C98.7622 31.232 98.8216 30.9524 98.8008 30.673C98.8617 29.2796 99.2877 26.3185 99.4094 25.526C99.2966 25.3752 99.1379 25.2652 98.9573 25.2125C98.8704 25.2167 98.7853 25.239 98.7075 25.278C98.6296 25.3169 98.5607 25.3718 98.5052 25.4389V25.4302Z" fill="#263238"/>
<path d="M91.9583 27.0676C92.1544 27.0035 92.3616 26.9813 92.5667 27.0023C92.7719 27.0233 92.9704 27.0871 93.1494 27.1895C93.7024 27.4941 94.1439 27.9674 94.4097 28.5407C94.6755 29.114 94.7518 29.7573 94.6274 30.377C94.3492 31.0911 93.445 30.2812 92.1409 29.7673C91.7149 29.6019 91.6714 29.7673 91.2715 29.628L91.9583 27.0676Z" fill="#263238"/>
<path d="M102.261 31.9359C102.114 32.8068 103.722 32.5978 105.609 32.9026C107.495 33.2074 108.93 33.9477 109.086 33.0419C109.243 32.1362 108.026 29.9067 106.148 29.6019C104.27 29.2971 102.409 31.0302 102.261 31.9359Z" fill="#263238"/>
<path d="M97.5576 36.8999C98.6966 36.5516 99.6616 36.3774 100.583 36.09C101.045 35.9574 101.499 35.7945 101.939 35.6023C102.4 35.4194 102.809 35.1582 103.383 34.8882C103.267 35.4877 102.962 36.0343 102.513 36.4471C102.066 36.8544 101.53 37.1524 100.948 37.318C100.384 37.4815 99.7932 37.5319 99.2095 37.466C98.6198 37.4211 98.0512 37.2263 97.5576 36.8999Z" fill="#263238"/>
<path d="M119.658 79.0332C119.658 83.8579 117.641 87.7421 110.416 87.7421C105.321 87.7421 102.252 83.8405 102.252 79.0332C102.252 74.2258 104.304 70.3242 110.416 70.3242C116.528 70.3242 119.658 74.2171 119.658 79.0332Z" fill="#E8E8E8"/>
<path d="M109.547 80.1227H109.382C109.104 80.1227 108.573 80.1227 108.417 79.6437C108.26 79.1647 108.617 78.9383 108.86 78.7728C108.984 78.6738 109.097 78.5629 109.199 78.4419L109.121 78.3896C108.469 77.9368 104.105 78.0761 100.262 78.4767C100.196 78.4852 100.129 78.4803 100.065 78.4625C100.001 78.4446 99.9416 78.414 99.8897 78.3726C99.8378 78.3312 99.7947 78.2797 99.763 78.2213C99.7314 78.1629 99.7117 78.0987 99.7053 78.0326C99.693 77.8989 99.7335 77.7658 99.818 77.6616C99.9025 77.5575 100.024 77.4905 100.157 77.4752C101.522 77.3358 108.408 76.6653 109.721 77.5623C109.872 77.6527 109.999 77.7799 110.089 77.9321C110.178 78.0843 110.228 78.2566 110.234 78.4332C110.238 78.5708 110.214 78.7078 110.165 78.8363C110.116 78.9649 110.042 79.0824 109.947 79.1821C110.364 79.1821 110.938 79.0863 111.599 79.008C114.511 78.6596 119.424 78.0761 123.684 79.217C123.809 79.2547 123.915 79.34 123.979 79.4547C124.043 79.5695 124.06 79.7046 124.026 79.8315C123.992 79.9584 123.91 80.067 123.797 80.1344C123.685 80.2018 123.551 80.2226 123.423 80.1924C119.311 79.1038 114.564 79.6698 111.721 80.0095C110.729 80.0269 110.008 80.1227 109.547 80.1227Z" fill="#263238"/>
<path d="M39.2631 21.1799C39.1647 21.1806 39.0684 21.152 38.9864 21.0977C38.9043 21.0434 38.8402 20.9659 38.8023 20.8751C38.4332 19.6414 38.2629 18.3567 38.298 17.0693L37.1069 12.8715C37.0859 12.7893 37.0855 12.7031 37.1058 12.6207C37.1261 12.5383 37.1664 12.4622 37.2233 12.3992C37.2801 12.3362 37.3516 12.2884 37.4315 12.2598C37.5113 12.2313 37.5969 12.2231 37.6807 12.2358L41.8887 12.9761C42.0974 12.9761 43.1059 13.307 43.2885 15.5887C43.3721 16.5557 43.7013 17.4851 44.2448 18.2885C44.2805 18.3446 44.3043 18.4073 44.3148 18.473C44.3253 18.5386 44.3224 18.6057 44.3061 18.6701C44.2898 18.7345 44.2606 18.7949 44.2201 18.8476C44.1797 18.9003 44.1289 18.9442 44.071 18.9765C44.0146 19.011 43.952 19.0338 43.8868 19.0437C43.8215 19.0536 43.7549 19.0504 43.691 19.0341C43.627 19.0179 43.5669 18.9891 43.5142 18.9493C43.4615 18.9094 43.4173 18.8595 43.3841 18.8023C42.7588 17.8708 42.3818 16.7945 42.2886 15.6758C42.1669 14.1692 41.6801 13.934 41.6714 13.934L38.298 13.3418L39.2892 16.8254C39.2934 16.8747 39.2934 16.9242 39.2892 16.9735C39.2503 18.1492 39.3911 19.3239 39.7065 20.457C39.759 20.5795 39.761 20.7178 39.7122 20.8418C39.6633 20.9658 39.5675 21.0654 39.4457 21.1189C39.3889 21.15 39.3271 21.1707 39.2631 21.1799Z" fill="#263238"/>
<path d="M57.729 30.5944C57.6371 30.5983 57.546 30.574 57.4682 30.5247C56.3206 29.8455 46.218 23.7666 44.8617 21.2584C44.8167 21.1803 44.793 21.0917 44.793 21.0015C44.793 20.9113 44.8167 20.8227 44.8617 20.7446C45.1433 20.235 45.3123 19.6707 45.3573 19.0899C45.363 19.0236 45.3817 18.959 45.4123 18.8999C45.4429 18.8408 45.4848 18.7884 45.5357 18.7455C45.5866 18.7026 45.6453 18.6702 45.7087 18.6501C45.7721 18.63 45.8388 18.6226 45.905 18.6283C45.9712 18.6341 46.0357 18.6528 46.0947 18.6835C46.1536 18.7141 46.206 18.7561 46.2488 18.8071C46.2916 18.858 46.324 18.9169 46.344 18.9804C46.3641 19.0439 46.3715 19.1107 46.3658 19.177C46.3061 19.8077 46.1384 20.4234 45.8702 20.9972C47.3482 23.0612 55.0252 27.9034 57.9638 29.7061C58.0218 29.7384 58.0725 29.7823 58.113 29.835C58.1534 29.8877 58.1827 29.9481 58.1989 30.0125C58.2152 30.077 58.2182 30.144 58.2077 30.2097C58.1971 30.2753 58.1733 30.3381 58.1377 30.3941C58.09 30.4572 58.0282 30.5083 57.9572 30.5431C57.8862 30.5778 57.8081 30.5954 57.729 30.5944Z" fill="#263238"/>
<path d="M108.868 203.249C108.868 203.249 108.39 195.882 107.999 195.525C107.608 195.168 102.608 195.847 101.582 195.333C100.557 194.819 99.9915 197.632 99.3307 197.946C98.67 198.259 97.2789 196.918 98.2266 195.168C99.1742 193.417 95.2792 190.273 94.3055 190.352C93.3317 190.43 87.1241 192.964 82.325 193.26C77.5258 193.556 73.709 192.651 72.3875 193.347C71.066 194.044 69.8401 194.828 71.6833 196.953C73.5265 199.078 77.7692 203.284 83.403 203.337C89.0368 203.389 90.3583 202.466 91.0539 201.647C91.7494 200.828 92.7927 199.339 93.5491 200.863C94.3055 202.387 94.3229 204.451 95.6357 204.843C96.9485 205.235 105.938 207.325 108.868 203.249Z" fill="#263238"/>
<path d="M100.47 210.757C99.1537 210.767 97.8408 210.624 96.5576 210.33C94.748 209.826 93.0828 208.901 91.6976 207.63C91.3672 207.36 91.0368 207.09 90.7064 206.846C90.0805 206.385 88.5677 206.55 86.8289 206.742C84.5246 207.084 82.1842 207.108 79.8735 206.811C75.5353 205.954 71.5791 203.744 68.5711 200.497C66.9627 198.503 67.6235 196.753 68.432 195.124C68.6195 194.621 68.9741 194.197 69.4363 193.924C69.8985 193.652 70.4402 193.546 70.9707 193.626C71.0866 193.669 71.1828 193.753 71.241 193.862C71.2992 193.971 71.3153 194.098 71.2864 194.218C71.2574 194.339 71.1854 194.444 71.0839 194.515C70.9825 194.585 70.8586 194.616 70.736 194.601C70.649 194.601 69.8665 194.462 69.3275 195.577C68.5885 197.066 68.119 198.329 69.3275 199.862C72.1905 202.913 75.9313 204.995 80.03 205.819C82.2492 206.093 84.495 206.066 86.7071 205.74C88.7329 205.514 90.3413 205.34 91.2803 206.036C91.628 206.289 91.9671 206.568 92.3149 206.846C93.5851 208.025 95.1167 208.885 96.7837 209.354C99.5136 210.034 103.974 209.894 106.704 208.484C109.234 207.177 109.642 205.958 108.443 203.476C108.419 203.367 108.431 203.253 108.479 203.152C108.527 203.05 108.606 202.968 108.706 202.917C108.805 202.866 108.919 202.85 109.028 202.871C109.138 202.892 109.238 202.948 109.312 203.032C110.79 205.993 110.181 207.83 107.173 209.372C105.073 210.337 102.78 210.811 100.47 210.757Z" fill="#263238"/>
<path d="M96.114 193.826C96.0213 193.827 95.9303 193.801 95.8517 193.751C95.7732 193.702 95.7104 193.631 95.6706 193.547C95.6405 193.49 95.622 193.428 95.6162 193.363C95.6104 193.299 95.6174 193.234 95.6369 193.173C95.6563 193.111 95.6877 193.054 95.7293 193.005C95.7709 192.955 95.8219 192.915 95.8793 192.885C95.9488 192.833 98.218 191.283 100.696 181.076C100.704 181.005 100.728 180.937 100.764 180.876C100.801 180.815 100.85 180.762 100.909 180.722C100.967 180.681 101.034 180.653 101.104 180.64C101.174 180.627 101.245 180.629 101.315 180.645C101.384 180.662 101.449 180.693 101.505 180.737C101.561 180.781 101.608 180.836 101.641 180.899C101.675 180.961 101.695 181.031 101.7 181.102C101.704 181.173 101.694 181.244 101.67 181.311C99.0613 192.145 96.6096 193.643 96.3401 193.774C96.2698 193.809 96.1924 193.826 96.114 193.826Z" fill="#263238"/>
<path d="M106.33 197.345C106.203 197.345 106.081 197.296 105.989 197.209C105.897 197.121 105.841 197.002 105.835 196.874C105.591 193.077 110.599 182.557 110.817 182.113C110.89 182.031 110.989 181.975 111.097 181.955C111.206 181.934 111.318 181.95 111.417 181.999C111.515 182.049 111.595 182.129 111.644 182.228C111.692 182.327 111.707 182.44 111.686 182.548C111.634 182.653 106.582 193.278 106.8 196.805C106.805 196.871 106.796 196.938 106.775 197.001C106.754 197.064 106.721 197.122 106.677 197.172C106.633 197.223 106.58 197.264 106.521 197.293C106.461 197.323 106.397 197.34 106.33 197.345Z" fill="#263238"/>
<path d="M110.259 182.887C106.955 182.887 101.017 181.146 98.1744 179.465C95.201 177.723 96.1052 171.296 96.8964 165.617C96.992 164.921 97.0876 164.233 97.1746 163.58C97.5223 160.88 97.4354 155.689 97.3398 150.664C97.2354 144.733 97.1398 139.125 97.6875 136.8C98.696 132.445 107.434 116.421 107.808 115.741C107.838 115.682 107.879 115.63 107.93 115.588C107.981 115.545 108.04 115.514 108.104 115.495C108.167 115.476 108.234 115.471 108.299 115.479C108.365 115.487 108.428 115.508 108.486 115.541C108.544 115.572 108.595 115.614 108.637 115.665C108.678 115.717 108.709 115.775 108.728 115.839C108.746 115.902 108.752 115.968 108.745 116.034C108.738 116.099 108.718 116.163 108.686 116.22C108.599 116.386 99.6437 132.854 98.6613 137.026C98.1483 139.229 98.2526 145.038 98.3483 150.647C98.4352 155.707 98.5309 160.941 98.1744 163.71C98.0875 164.372 97.9918 165.06 97.8875 165.757C97.1833 170.852 96.2965 177.2 98.6787 178.594C101.643 180.336 108.607 182.278 111.172 181.807C112.433 181.581 116.71 180.344 119.101 174.056C121.049 168.944 121.588 152.032 121.588 150.272C121.249 149.248 120.766 148.277 120.153 147.39C118.945 145.352 118.414 144.35 118.901 143.784C119.388 143.218 120.023 143.645 120.284 143.784C121.376 144.334 122.395 145.018 123.318 145.822L123.909 146.284C123.909 146.284 123.909 146.188 123.909 146.136C123.692 145.343 123.448 144.638 123.248 144.072C122.831 142.844 122.596 142.164 122.988 141.711C123.117 141.585 123.279 141.497 123.455 141.455C123.631 141.414 123.815 141.421 123.987 141.476C125.309 141.738 126.03 141.642 126.596 141.111C127.274 140.379 139.211 121.08 140.054 116.9C141.01 112.266 140.924 107.111 139.872 105.421C138.637 103.444 137.142 101.441 137.124 101.424C137.045 101.316 137.011 101.182 137.031 101.05C137.05 100.917 137.121 100.798 137.229 100.718C137.281 100.678 137.341 100.647 137.404 100.63C137.468 100.613 137.535 100.608 137.601 100.617C137.667 100.626 137.73 100.648 137.787 100.682C137.844 100.716 137.893 100.761 137.933 100.814C137.933 100.814 139.472 102.87 140.724 104.881C142.106 107.102 141.923 112.833 141.045 117.074C140.167 121.315 127.978 141.084 127.23 141.833C126.257 142.809 124.996 142.704 123.753 142.478C123.855 142.91 123.986 143.334 124.144 143.749C124.344 144.333 124.596 145.056 124.822 145.883C124.996 146.536 125.126 147.198 124.665 147.494C124.205 147.79 123.631 147.398 122.666 146.623C121.806 145.873 120.857 145.233 119.84 144.716H119.788C120.142 145.482 120.546 146.224 120.997 146.937C121.97 148.591 122.57 149.645 122.57 150.333C122.57 150.507 122.179 168.796 120.023 174.474C117.415 181.259 112.72 182.609 111.329 182.861C110.974 182.902 110.616 182.911 110.259 182.887Z" fill="#263238"/>
<path d="M155.991 166.994C155.548 166.994 155.122 166.994 154.783 166.942C152.696 166.785 145.445 164.399 139.046 162.3C135.203 161.037 131.578 159.844 129.77 159.365C126.629 158.449 123.824 156.633 121.701 154.14C121.651 154.09 121.612 154.029 121.586 153.963C121.561 153.896 121.55 153.825 121.553 153.754C121.557 153.683 121.576 153.614 121.609 153.551C121.641 153.487 121.687 153.432 121.742 153.387C121.797 153.343 121.862 153.311 121.93 153.293C121.999 153.275 122.071 153.272 122.141 153.284C122.211 153.295 122.278 153.322 122.337 153.361C122.396 153.401 122.446 153.452 122.484 153.513C124.485 155.818 127.099 157.507 130.022 158.381C131.865 158.869 135.508 160.062 139.359 161.333C145.393 163.31 152.896 165.784 154.861 165.932C157.8 166.158 162.781 165.531 164.424 162.883C166.068 160.236 166.328 153.783 165.876 152.198L165.816 151.98C165.276 150.073 164.016 145.588 159.903 144.22C154.757 142.478 145.776 140.031 144.819 140.197C144.619 140.197 144.402 140.737 144.271 141.024C144.071 141.477 143.863 141.938 143.402 141.947C142.941 141.956 142.637 141.416 142.533 141.19C142.35 140.824 142.167 140.397 141.985 139.953C141.707 139.282 141.115 137.889 140.794 137.81C140.379 138.193 140.003 138.616 139.672 139.073C138.872 140.101 138.333 140.815 137.725 140.562C137.116 140.31 137.186 139.692 137.186 139.448C137.203 138.838 137.279 138.231 137.412 137.636C137.69 136.225 137.699 135.738 136.76 135.381C134.534 134.51 134.038 130.843 134.038 129.493C134.038 129.359 134.092 129.231 134.186 129.136C134.281 129.041 134.409 128.988 134.543 128.988C134.676 128.988 134.805 129.041 134.899 129.136C134.994 129.231 135.047 129.359 135.047 129.493C135.047 130.364 135.403 133.796 137.116 134.44C138.829 135.085 138.646 136.556 138.403 137.828C138.31 138.328 138.255 138.835 138.238 139.343C138.455 139.099 138.716 138.76 138.916 138.472C139.285 137.948 139.714 137.469 140.194 137.044C140.315 136.949 140.456 136.882 140.607 136.849C140.757 136.816 140.913 136.817 141.063 136.852C141.863 137.07 142.35 138.237 142.915 139.578C143.072 139.953 143.228 140.327 143.376 140.65C143.611 140.127 143.932 139.422 144.61 139.247C145.897 138.934 156.861 142.165 160.26 143.297C164.868 144.839 166.285 149.855 166.815 151.745L166.876 151.954C167.398 153.765 167.207 160.471 165.311 163.458C163.512 166.271 158.947 166.994 155.991 166.994Z" fill="#263238"/>
<path d="M223.188 199.949C223.011 199.961 222.834 199.961 222.658 199.949C222.525 199.929 222.406 199.857 222.326 199.75C222.246 199.642 222.212 199.507 222.231 199.374C222.251 199.241 222.323 199.122 222.43 199.041C222.538 198.961 222.673 198.928 222.805 198.947C222.875 198.947 228.891 199.679 234.186 189.524C238.75 180.815 238.968 178.203 238.898 177.541C238.733 177.663 238.516 177.863 238.316 178.046C237.8 178.574 237.193 179.005 236.525 179.317C235.525 179.718 224.735 188.897 222.527 198.564C222.513 198.628 222.486 198.689 222.448 198.743C222.41 198.797 222.361 198.842 222.306 198.877C222.25 198.912 222.187 198.935 222.123 198.946C222.058 198.956 221.991 198.954 221.927 198.938C221.862 198.925 221.801 198.899 221.746 198.861C221.691 198.823 221.645 198.775 221.609 198.719C221.573 198.663 221.549 198.6 221.538 198.535C221.527 198.469 221.529 198.402 221.545 198.338C223.857 188.218 234.968 178.856 236.151 178.377C236.705 178.113 237.206 177.75 237.629 177.305C237.966 176.903 238.409 176.601 238.907 176.435C239.05 176.404 239.2 176.416 239.336 176.47C239.472 176.525 239.589 176.618 239.672 176.739C240.872 178.342 237.307 185.718 235.073 189.968C230.248 199.165 224.875 199.949 223.188 199.949Z" fill="#263238"/>
<path d="M223.953 198.764C223.88 198.763 223.808 198.747 223.742 198.715C223.676 198.683 223.618 198.638 223.571 198.581C223.528 198.53 223.495 198.472 223.475 198.408C223.455 198.345 223.447 198.278 223.453 198.212C223.459 198.145 223.477 198.081 223.508 198.021C223.539 197.962 223.581 197.91 223.632 197.867C223.701 197.815 230.509 192.023 233.456 185.753C233.516 185.638 233.619 185.551 233.741 185.509C233.864 185.468 233.998 185.475 234.116 185.53C234.233 185.585 234.325 185.683 234.372 185.804C234.419 185.925 234.418 186.06 234.369 186.18C231.326 192.659 224.571 198.372 224.284 198.642C224.192 198.721 224.074 198.764 223.953 198.764Z" fill="#263238"/>
<path d="M222.762 186.598H222.719C222.653 186.593 222.588 186.576 222.529 186.546C222.47 186.516 222.418 186.475 222.375 186.425C222.332 186.375 222.299 186.316 222.279 186.253C222.259 186.19 222.252 186.124 222.258 186.058C222.945 177.775 226.979 169.232 234.247 160.68C234.551 160.314 234.76 160.07 234.847 159.948C235.022 159.667 235.182 159.376 235.325 159.077C235.916 157.963 236.395 157.092 237.064 157.283C237.733 157.475 237.933 158.154 237.751 161.638C237.386 168.605 232.647 182.086 232.447 182.652C232.431 182.721 232.4 182.785 232.357 182.841C232.315 182.897 232.26 182.944 232.199 182.978C232.137 183.011 232.069 183.032 231.998 183.037C231.928 183.043 231.858 183.034 231.791 183.011C231.725 182.988 231.664 182.951 231.612 182.903C231.561 182.854 231.52 182.796 231.493 182.731C231.465 182.666 231.452 182.596 231.453 182.526C231.454 182.455 231.47 182.386 231.5 182.322C231.552 182.182 236.395 168.431 236.716 161.586C236.795 160.586 236.795 159.581 236.716 158.581C236.534 158.868 236.316 159.278 236.177 159.539C236.038 159.8 235.795 160.262 235.638 160.488C235.482 160.715 235.308 160.898 234.969 161.298C227.84 169.694 223.892 178.037 223.223 186.101C223.221 186.226 223.173 186.347 223.088 186.438C223.003 186.53 222.887 186.587 222.762 186.598Z" fill="#263238"/>
<path d="M223.014 191.597H222.875C222.748 191.558 222.64 191.471 222.576 191.353C222.513 191.236 222.498 191.098 222.536 190.97C225.466 180.919 232.3 168.326 232.369 168.17C232.4 168.111 232.443 168.06 232.494 168.018C232.545 167.977 232.603 167.946 232.667 167.927C232.73 167.908 232.796 167.902 232.861 167.91C232.927 167.917 232.99 167.937 233.048 167.969C233.106 168 233.157 168.043 233.199 168.094C233.24 168.145 233.271 168.204 233.29 168.267C233.308 168.33 233.314 168.397 233.307 168.462C233.3 168.528 233.28 168.591 233.248 168.649C233.178 168.779 226.405 181.311 223.501 191.292C223.462 191.387 223.394 191.467 223.306 191.522C223.219 191.577 223.117 191.603 223.014 191.597Z" fill="#263238"/>
<path d="M219.962 198.93C219.833 198.931 219.708 198.881 219.615 198.791C219.267 198.46 211.129 190.474 212.077 180.502C212.903 171.793 215.015 163.598 216.685 162.527C216.796 162.446 216.925 162.392 217.061 162.371C217.197 162.35 217.336 162.361 217.467 162.405C218.467 162.753 218.676 164.225 218.936 166.097C219.079 167.585 219.412 169.049 219.928 170.452C221.327 173.752 224.709 188.871 222.892 197.057C222.856 197.18 222.775 197.285 222.665 197.35C222.555 197.415 222.424 197.436 222.3 197.408C222.175 197.381 222.065 197.307 221.993 197.201C221.92 197.095 221.891 196.966 221.91 196.84C223.649 188.854 220.371 174.075 218.997 170.844C218.451 169.368 218.095 167.829 217.937 166.263C217.771 165.104 217.571 163.65 217.198 163.415C216.259 164.007 213.998 170.939 213.077 180.624C212.207 190.082 220.232 197.981 220.31 198.042C220.388 198.109 220.443 198.199 220.467 198.3C220.491 198.4 220.484 198.505 220.446 198.601C220.407 198.697 220.34 198.778 220.254 198.834C220.167 198.89 220.065 198.917 219.962 198.912V198.93Z" fill="#263238"/>
<path d="M220.658 197.736C220.561 197.735 220.466 197.707 220.385 197.655C220.303 197.602 220.238 197.528 220.197 197.44C215.85 187.808 215.146 174.283 215.146 174.152C215.141 174.087 215.15 174.02 215.171 173.958C215.192 173.895 215.225 173.837 215.269 173.788C215.313 173.738 215.366 173.698 215.425 173.67C215.485 173.641 215.549 173.624 215.615 173.621C215.745 173.619 215.871 173.668 215.965 173.757C216.06 173.847 216.115 173.97 216.12 174.1C216.12 174.231 216.859 187.573 221.093 197.031C221.146 197.152 221.149 197.29 221.102 197.413C221.055 197.537 220.961 197.638 220.84 197.693C220.783 197.72 220.721 197.735 220.658 197.736Z" fill="#263238"/>
<path d="M220.066 172.812C219.938 172.812 219.815 172.764 219.722 172.676C219.628 172.589 219.571 172.469 219.562 172.341C218.788 159.051 224.292 147.582 226.935 142.078C227.419 141.127 227.852 140.15 228.23 139.152C228.813 137.192 229.56 136.861 230.073 136.931C230.83 137.027 231.856 137.95 232.038 144.699C232.273 153.216 229.795 168.109 229.778 168.213C229.767 168.279 229.743 168.342 229.708 168.399C229.673 168.455 229.627 168.504 229.573 168.543C229.519 168.582 229.458 168.61 229.393 168.625C229.328 168.64 229.261 168.642 229.195 168.631C229.13 168.62 229.067 168.597 229.01 168.562C228.954 168.526 228.905 168.48 228.866 168.426C228.827 168.372 228.8 168.311 228.784 168.246C228.769 168.181 228.767 168.114 228.778 168.048C228.778 167.9 231.256 153.095 231.03 144.682C230.865 138.403 229.934 137.889 229.926 137.88C229.562 138.318 229.311 138.838 229.195 139.395C228.805 140.446 228.352 141.473 227.839 142.47C225.231 147.904 219.814 159.208 220.571 172.237C220.574 172.303 220.565 172.37 220.542 172.432C220.52 172.495 220.486 172.552 220.442 172.602C220.397 172.651 220.343 172.691 220.284 172.72C220.224 172.748 220.159 172.765 220.092 172.768L220.066 172.812Z" fill="#263238"/>
<path d="M222.571 184.446C222.446 184.445 222.326 184.399 222.234 184.315C222.141 184.232 222.081 184.118 222.067 183.994C221.901 182.487 222.44 180.188 223.432 176.007C223.927 173.9 224.536 171.278 225.231 168.039C226.684 160.551 227.755 152.993 228.439 145.396C228.455 145.263 228.52 145.142 228.622 145.056C228.724 144.97 228.854 144.926 228.987 144.934C229.053 144.939 229.117 144.958 229.176 144.989C229.235 145.019 229.287 145.062 229.329 145.113C229.371 145.164 229.402 145.223 229.421 145.286C229.44 145.35 229.446 145.417 229.439 145.483C228.753 153.121 227.68 160.719 226.222 168.248C225.518 171.496 224.901 174.118 224.405 176.225C223.449 180.301 222.919 182.539 223.066 183.88C223.081 184.013 223.043 184.146 222.96 184.251C222.876 184.355 222.755 184.422 222.623 184.438L222.571 184.446Z" fill="#263238"/>
<path d="M230.326 202.474C230.217 202.474 230.112 202.439 230.024 202.375C229.937 202.311 229.872 202.221 229.839 202.117C229.801 201.989 229.816 201.851 229.879 201.733C229.943 201.616 230.05 201.528 230.178 201.49L231.204 201.168C231.154 201.141 231.108 201.109 231.065 201.072C230.966 200.981 230.895 200.865 230.858 200.736C230.821 200.607 230.821 200.47 230.856 200.341C231.028 199.821 231.284 199.332 231.613 198.895L231.726 198.729C229.839 199.443 227.222 200.219 225.422 199.435C225.361 199.409 225.306 199.372 225.259 199.324C225.213 199.277 225.176 199.221 225.151 199.16C225.126 199.098 225.113 199.033 225.113 198.966C225.114 198.9 225.127 198.834 225.153 198.773C225.208 198.65 225.309 198.554 225.434 198.505C225.559 198.456 225.699 198.459 225.822 198.512C227.561 199.261 230.569 198.094 231.569 197.71C231.926 197.571 232.578 197.319 232.925 197.763C233.273 198.207 232.925 198.729 232.456 199.452C232.291 199.696 232.108 199.975 231.978 200.219C232.265 200.149 232.656 200.027 232.969 199.931C233.808 199.623 234.686 199.435 235.577 199.374C236.134 199.374 236.299 199.644 236.325 199.87C236.394 200.341 236.447 200.645 230.482 202.483L230.326 202.474Z" fill="#263238"/>
<path d="M218.31 198.634C218.228 198.635 218.147 198.614 218.076 198.573C216.702 197.82 215.453 196.859 214.372 195.725C213.546 194.854 212.937 194.619 212.633 194.697C212.577 194.72 212.528 194.758 212.493 194.808C212.458 194.857 212.437 194.915 212.433 194.976C212.419 195.106 212.369 195.23 212.289 195.335C212.21 195.439 212.103 195.52 211.981 195.568C211.503 195.751 211.033 195.368 210.486 194.924L210.347 194.819C210.347 194.88 210.347 194.941 210.347 194.993C210.434 196.012 210.573 197.545 209.477 198.05C209.417 198.077 209.351 198.093 209.285 198.095C209.219 198.097 209.152 198.086 209.09 198.063C209.028 198.039 208.971 198.004 208.923 197.958C208.874 197.913 208.835 197.858 208.808 197.797C208.78 197.737 208.765 197.671 208.763 197.605C208.761 197.538 208.772 197.472 208.795 197.41C208.819 197.348 208.854 197.291 208.899 197.242C208.945 197.193 208.999 197.154 209.06 197.127C209.503 196.927 209.399 195.768 209.338 195.08C209.277 194.392 209.234 193.835 209.651 193.6C210.068 193.365 210.564 193.713 211.103 194.14L211.52 194.471C211.593 194.294 211.704 194.136 211.845 194.008C211.987 193.88 212.155 193.785 212.338 193.73C212.781 193.6 213.72 193.6 215.059 195.037C216.065 196.074 217.219 196.954 218.484 197.649C218.544 197.68 218.597 197.722 218.641 197.773C218.684 197.824 218.717 197.884 218.737 197.948C218.758 198.012 218.765 198.079 218.759 198.146C218.753 198.213 218.733 198.278 218.702 198.337C218.666 198.416 218.612 198.484 218.544 198.535C218.475 198.587 218.395 198.621 218.31 198.634Z" fill="#263238"/>
<path d="M43.9231 198.015C43.0245 198.014 42.127 197.953 41.2366 197.832C37.2895 197.301 31.5339 195.219 26.5609 188.566C18.3101 177.479 17.9884 168.457 17.8667 164.599C17.8667 164.015 17.8667 163.562 17.7885 163.231C17.5711 161.489 17.7885 159.434 18.8057 159.007C19.0665 158.886 19.5968 158.798 20.162 159.486C20.528 159.998 20.7448 160.601 20.7879 161.228C20.9705 162.343 21.1792 163.614 23.6396 165.051C28.7866 168.039 45.9315 179.064 50.6785 195.437C50.7039 195.502 50.7155 195.572 50.7124 195.642C50.7093 195.713 50.6917 195.781 50.6606 195.844C50.6296 195.907 50.5858 195.963 50.532 196.008C50.4782 196.053 50.4156 196.086 50.3483 196.106C50.281 196.125 50.2103 196.13 50.1409 196.121C50.0714 196.111 50.0047 196.088 49.945 196.051C49.8852 196.014 49.8338 195.965 49.7939 195.908C49.754 195.85 49.7266 195.785 49.7134 195.716C45.0707 179.709 28.1954 168.866 23.1354 165.922C20.2576 164.25 19.9881 162.596 19.7968 161.394C19.7705 160.953 19.6296 160.527 19.3882 160.157C19.33 160.073 19.2525 160.004 19.1621 159.957C18.997 160.061 18.5449 161.193 18.7883 163.135C18.7883 163.484 18.8491 164.006 18.8752 164.59C19.0056 168.352 19.3186 177.157 27.3781 187.991C32.1251 194.383 37.5851 196.334 41.3322 196.856C43.7006 197.206 46.1156 197.064 48.4267 196.438C48.5535 196.397 48.6915 196.408 48.8104 196.468C48.9294 196.529 49.0196 196.634 49.0613 196.761C49.083 196.824 49.0917 196.89 49.0872 196.956C49.0826 197.023 49.0648 197.087 49.0348 197.147C49.0048 197.206 48.9632 197.259 48.9125 197.302C48.8618 197.344 48.803 197.377 48.7397 197.396C47.1738 197.841 45.5504 198.05 43.9231 198.015Z" fill="#263238"/>
<path d="M48.6869 196.238H48.5999C48.2783 196.177 40.5926 194.801 32.3071 187.399C27.1728 182.638 23.4383 176.56 21.5089 169.824C21.4935 169.76 21.491 169.693 21.5014 169.627C21.5119 169.561 21.5351 169.498 21.5698 169.442C21.6045 169.385 21.65 169.336 21.7037 169.297C21.7574 169.258 21.8183 169.23 21.8828 169.215C21.9473 169.199 22.0142 169.197 22.0797 169.207C22.1452 169.217 22.208 169.241 22.2645 169.276C22.321 169.31 22.3702 169.356 22.4091 169.41C22.448 169.463 22.476 169.524 22.4914 169.589C24.3623 176.132 27.9889 182.036 32.9765 186.659C41.0273 193.861 48.6956 195.246 48.7738 195.254C48.9041 195.28 49.0194 195.355 49.0956 195.463C49.1718 195.572 49.2029 195.706 49.1825 195.838C49.16 195.952 49.098 196.055 49.0074 196.128C48.9168 196.202 48.8033 196.241 48.6869 196.238Z" fill="#263238"/>
<path d="M53.6085 196.064C53.4771 196.076 53.3464 196.035 53.2453 195.95C53.1443 195.865 53.081 195.743 53.0695 195.611C53.0579 195.48 53.0991 195.349 53.1839 195.248C53.2687 195.146 53.3901 195.083 53.5216 195.072C53.6172 195.072 63.0851 193.077 63.4416 175.494C63.8763 156.099 59.9639 146.807 57.5383 144.377C57.034 143.863 56.5906 143.619 56.3732 143.706C55.443 144.072 55.3647 148.348 55.3212 150.9C55.2517 154.314 53.5824 157.597 51.3393 162.152C50.5655 163.702 49.6961 165.461 48.7832 167.377C45.3838 174.701 47.2096 187.338 47.227 187.46C47.2453 187.529 47.2489 187.6 47.2376 187.671C47.2263 187.741 47.2003 187.808 47.1614 187.867C47.1224 187.927 47.0713 187.977 47.0115 188.016C46.9516 188.054 46.8844 188.079 46.8142 188.09C46.7439 188.1 46.6723 188.096 46.6039 188.077C46.5355 188.058 46.4719 188.024 46.4173 187.979C46.3627 187.933 46.3183 187.877 46.2871 187.813C46.2558 187.749 46.2383 187.679 46.2358 187.608C46.1576 187.085 44.3405 174.545 47.8704 166.95C48.7398 164.991 49.67 163.232 50.4786 161.673C52.6869 157.24 54.2866 154.044 54.3475 150.856C54.4257 146.328 54.5909 143.314 56.0342 142.74C57.0166 142.348 57.973 143.323 58.286 143.61C61.6506 147.016 64.8674 158.189 64.4849 175.459C64.0676 193.922 54.1562 195.925 53.7389 196.003L53.6085 196.064Z" fill="#263238"/>
<path d="M41.8634 200.558C38.8987 200.454 38.7943 199.931 38.7422 199.687C38.69 199.444 38.8987 199.026 39.4116 198.817C40.1312 198.495 40.9237 198.371 41.7069 198.46C42.2917 198.523 42.8832 198.466 43.4457 198.294C44.7759 197.885 44.9846 197.38 44.9846 197.38C44.9998 197.316 45.0275 197.256 45.066 197.203C45.1044 197.151 45.1529 197.106 45.2087 197.072C45.2644 197.038 45.3263 197.015 45.3908 197.005C45.4553 196.995 45.5211 196.998 45.5845 197.014C45.7143 197.049 45.8257 197.133 45.8953 197.248C45.965 197.363 45.9876 197.501 45.9583 197.632C45.9583 197.798 45.6366 198.677 43.7413 199.261C43.0573 199.467 42.3397 199.538 41.6286 199.47C41.2563 199.422 40.8794 199.422 40.5071 199.47C40.9157 199.522 41.3765 199.557 41.8721 199.574C42.0058 199.574 42.134 199.627 42.2286 199.722C42.3232 199.817 42.3763 199.945 42.3763 200.079C42.3763 200.213 42.3232 200.342 42.2286 200.437C42.134 200.531 42.0058 200.584 41.8721 200.584L41.8634 200.558Z" fill="#263238"/>
<path d="M57.1042 197.693C57.0359 197.693 56.9683 197.679 56.9056 197.652C56.8428 197.625 56.7861 197.586 56.739 197.536C56.6445 197.442 56.5914 197.313 56.5914 197.179C56.5914 197.045 56.6445 196.917 56.739 196.822C57.0575 196.53 57.3485 196.209 57.6085 195.864L57.5563 195.916C57.1998 196.343 56.6869 196.979 55.9653 196.622C55.6826 196.452 55.4363 196.227 55.2409 195.961C55.0454 195.695 54.9045 195.393 54.8263 195.072C54.7952 194.941 54.8171 194.804 54.8872 194.689C54.9573 194.575 55.0699 194.493 55.2002 194.462C55.3305 194.431 55.4678 194.453 55.5819 194.523C55.696 194.593 55.7776 194.706 55.8088 194.836C55.9029 195.194 56.1259 195.504 56.4347 195.707C56.5392 195.543 56.6585 195.388 56.7912 195.246C57.1564 194.819 57.7736 194.096 58.53 194.601C58.6372 194.675 58.7264 194.772 58.7911 194.885C58.8558 194.998 58.8943 195.125 58.9039 195.254C58.956 196.064 57.9127 197.127 57.4607 197.545C57.3641 197.637 57.2372 197.689 57.1042 197.693Z" fill="#263238"/>
<path d="M53.5485 193.861C53.4824 193.874 53.4145 193.874 53.3485 193.861C53.2871 193.834 53.2316 193.796 53.1854 193.748C53.1392 193.699 53.1032 193.642 53.0797 193.579C53.0561 193.517 53.0454 193.45 53.0483 193.383C53.0512 193.316 53.0675 193.251 53.0964 193.19C57.9768 180.952 59.809 167.707 58.4346 154.601C58.4198 154.467 58.4579 154.333 58.5408 154.227C58.6238 154.121 58.7448 154.052 58.878 154.035C58.9438 154.026 59.0106 154.031 59.0745 154.049C59.1384 154.067 59.1981 154.098 59.25 154.139C59.3019 154.18 59.345 154.232 59.3766 154.29C59.4083 154.349 59.428 154.413 59.4344 154.479C61.9383 175.711 54.0875 193.425 54.0092 193.608C53.963 193.689 53.8956 193.755 53.8143 193.799C53.733 193.844 53.641 193.865 53.5485 193.861Z" fill="#263238"/>
<path d="M46.4185 185.553C46.3257 185.554 46.2343 185.529 46.1545 185.482C46.0748 185.434 46.0097 185.365 45.9664 185.283C45.9056 185.152 39.3241 172.054 41.4455 152.433C42.2984 143.903 44.2686 135.522 47.3053 127.508C48.3139 124.712 48.9746 122.866 48.792 121.716C48.6964 121.124 47.9226 115.899 49.3572 115.254C49.6441 115.124 50.1135 115.106 50.6526 115.768C52.1654 117.632 56.7385 131.74 56.469 143.384C56.469 143.45 56.4559 143.516 56.4306 143.577C56.4053 143.639 56.3681 143.694 56.3213 143.741C56.2745 143.788 56.2189 143.825 56.1577 143.851C56.0965 143.876 56.0309 143.889 55.9647 143.889C55.8985 143.889 55.8329 143.876 55.7717 143.851C55.7106 143.825 55.655 143.788 55.6081 143.741C55.5613 143.694 55.5242 143.639 55.4988 143.577C55.4735 143.516 55.4605 143.45 55.4605 143.384C55.73 131.644 51.0351 117.858 49.8701 116.386L49.731 116.238C49.4702 116.796 49.3745 118.921 49.7919 121.542C50.0092 122.944 49.3137 124.886 48.253 127.83C45.2489 135.77 43.2963 144.071 42.4453 152.52C40.3587 171.827 46.7924 184.673 46.8619 184.804C46.8933 184.862 46.9125 184.927 46.9186 184.993C46.9246 185.059 46.9172 185.126 46.8969 185.19C46.8767 185.253 46.8439 185.312 46.8005 185.362C46.7572 185.412 46.7041 185.454 46.6446 185.483C46.5758 185.524 46.4983 185.548 46.4185 185.553Z" fill="#263238"/>
<path d="M46.584 174.231C46.4533 174.231 46.3276 174.18 46.2335 174.089C46.1394 173.998 46.0843 173.874 46.0798 173.743C46.0798 173.56 45.9668 169.319 47.6099 160.14C49.2531 150.961 51.0876 129.232 51.0876 129.005C51.1029 128.873 51.1682 128.751 51.27 128.666C51.3718 128.58 51.5025 128.536 51.6353 128.544C51.7013 128.549 51.7656 128.568 51.8242 128.599C51.8829 128.629 51.9349 128.671 51.977 128.723C52.0191 128.774 52.0506 128.833 52.0696 128.896C52.0886 128.96 52.0946 129.027 52.0874 129.092C52.0874 129.31 50.2182 151.178 48.6098 160.323C47.0014 169.467 47.0883 173.665 47.097 173.708C47.0972 173.843 47.0458 173.972 46.9535 174.069C46.8613 174.166 46.7352 174.224 46.6014 174.231H46.584Z" fill="#263238"/>
<path d="M34.1509 173.56C34.0786 173.559 34.0072 173.543 33.9414 173.513C33.8755 173.483 33.8166 173.44 33.7684 173.386C33.6989 173.299 26.4827 164.912 24.7178 153.652C22.9529 142.391 22.2052 138.637 21.0662 137.017C20.4055 136.068 20.3794 135.049 21.0054 134.466C21.3445 134.144 22.7442 133.29 25.8306 135.833C29.9256 139.186 39.5761 151.509 42.0105 159.548C42.0399 159.673 42.0203 159.805 41.9557 159.916C41.8912 160.028 41.7865 160.11 41.6632 160.147C41.5399 160.184 41.4073 160.172 41.2924 160.114C41.1776 160.056 41.0892 159.956 41.0454 159.835C38.7067 152.11 29.1083 139.804 25.1873 136.617C23.2311 135.014 22.0226 134.875 21.7096 135.206C21.5183 135.389 21.5183 135.868 21.9183 136.434C23.1876 138.237 23.9092 141.886 25.735 153.495C27.4738 164.468 34.49 172.654 34.5596 172.724C34.6031 172.774 34.6363 172.833 34.6572 172.896C34.6782 172.959 34.6865 173.026 34.6816 173.092C34.6768 173.158 34.6589 173.223 34.629 173.283C34.5991 173.342 34.5578 173.395 34.5074 173.438C34.4083 173.523 34.2809 173.566 34.1509 173.56Z" fill="#263238"/>
<path d="M45.2104 182.774C45.1358 182.775 45.062 182.759 44.9943 182.727C44.9266 182.695 44.8668 182.649 44.8192 182.592C44.8192 182.539 40.5765 177.453 34.9948 169.328C29.4132 161.202 26.3789 146.449 26.2485 145.814C26.2359 145.749 26.2362 145.681 26.2495 145.616C26.2627 145.551 26.2887 145.49 26.3258 145.435C26.363 145.38 26.4106 145.332 26.466 145.296C26.5213 145.259 26.5833 145.234 26.6484 145.222C26.7784 145.198 26.9124 145.226 27.0225 145.299C27.1326 145.372 27.2104 145.484 27.2396 145.613C27.2396 145.77 30.326 160.732 35.8294 168.753C41.3328 176.774 45.5582 181.886 45.6017 181.938C45.6854 182.043 45.7249 182.176 45.7119 182.31C45.699 182.443 45.6344 182.566 45.5321 182.653C45.4425 182.73 45.3286 182.773 45.2104 182.774Z" fill="#263238"/>
<path d="M30.5344 142.087C30.4264 142.084 30.322 142.047 30.2361 141.981C30.1502 141.916 30.0873 141.824 30.0562 141.721C30.0562 141.616 26.8567 130.939 25.8656 123.989C25.6309 122.309 25.4048 120.933 25.2222 119.8C24.7354 116.848 24.5528 115.733 25.1353 115.176C25.2912 115.046 25.4767 114.957 25.6754 114.916C25.874 114.875 26.0797 114.883 26.2742 114.941C27.9087 115.263 41.6716 125.783 44.9927 137.932C45.0121 137.997 45.0184 138.065 45.0111 138.132C45.0037 138.2 44.983 138.265 44.9502 138.324C44.9173 138.383 44.8729 138.434 44.8197 138.476C44.7665 138.518 44.7054 138.548 44.6402 138.565C44.5751 138.583 44.507 138.587 44.4402 138.578C44.3733 138.569 44.309 138.546 44.2511 138.511C44.1932 138.476 44.1428 138.431 44.1029 138.376C44.063 138.321 44.0345 138.259 44.019 138.194C40.863 126.68 27.587 116.221 26.083 115.925C25.9938 115.909 25.9025 115.909 25.8134 115.925C25.6396 116.177 25.9091 117.789 26.2134 119.661C26.3959 120.784 26.622 122.178 26.8654 123.867C27.8392 130.747 30.9865 141.346 31.0212 141.451C31.059 141.579 31.0446 141.717 30.981 141.834C30.9175 141.952 30.81 142.039 30.6822 142.078C30.6338 142.09 30.5837 142.093 30.5344 142.087Z" fill="#263238"/>
<path d="M41.6199 157.144C41.5023 157.146 41.3878 157.106 41.297 157.031C41.2062 156.956 41.145 156.851 41.1244 156.735C40.1975 152.852 38.5423 149.182 36.2469 145.918C32.2129 140.031 29.7611 126.898 29.6655 126.341C29.6528 126.275 29.6532 126.208 29.6665 126.143C29.6797 126.078 29.7057 126.017 29.7428 125.961C29.78 125.906 29.8276 125.859 29.8829 125.823C29.9383 125.786 30.0003 125.761 30.0654 125.748C30.1975 125.728 30.3326 125.759 30.4426 125.835C30.5526 125.911 30.6292 126.027 30.6566 126.158C30.6566 126.288 33.1605 139.639 37.0729 145.317C39.463 148.691 41.1756 152.498 42.1155 156.526C42.128 156.591 42.1272 156.658 42.1133 156.723C42.0994 156.788 42.0726 156.85 42.0345 156.904C41.9964 156.959 41.9477 157.005 41.8915 157.04C41.8352 157.075 41.7724 157.099 41.7069 157.109L41.6199 157.144Z" fill="#263238"/>
<path d="M47.5571 128.788C47.4909 128.786 47.4258 128.771 47.3654 128.743C47.3051 128.716 47.2508 128.676 47.2056 128.628C47.1604 128.579 47.1251 128.522 47.1019 128.46C47.0787 128.398 47.0679 128.332 47.0703 128.266C47.2528 123.449 46.6616 120.271 44.9576 116.944L44.7576 116.569C41.4017 109.959 37.4632 102.017 36.8894 99.2647C36.5156 97.523 35.9331 96.8175 35.6548 96.8088C35.594 96.8088 34.8724 96.8698 33.9943 99.7873C32.4989 104.717 36.0113 123.084 36.0548 123.301C36.0801 123.433 36.0523 123.569 35.9773 123.681C35.9023 123.792 35.7863 123.868 35.6548 123.894C35.5234 123.919 35.3873 123.891 35.2764 123.816C35.1655 123.741 35.089 123.625 35.0636 123.493C34.9158 122.727 31.4643 104.69 33.0292 99.526C33.7769 97.0353 34.6376 95.8247 35.6375 95.8247H35.6462C36.9503 95.877 37.5676 97.8887 37.8197 99.0819C38.4457 102.052 43.6448 112.285 45.6444 116.134L45.8357 116.517C47.6267 120.001 48.2527 123.354 48.0614 128.353C48.0445 128.474 47.984 128.585 47.8912 128.666C47.7984 128.746 47.6797 128.789 47.5571 128.788Z" fill="#263238"/>
<path d="M43.9581 136.852C43.8321 136.851 43.7111 136.803 43.6181 136.718C43.5251 136.633 43.4666 136.516 43.4538 136.391C43.4538 136.33 42.967 129.937 42.4888 125.862C42.0106 121.786 37.2723 114.279 37.2028 114.209C37.1313 114.094 37.1085 113.954 37.1395 113.822C37.1705 113.69 37.2526 113.575 37.3679 113.504C37.4832 113.432 37.6222 113.409 37.7543 113.44C37.8863 113.471 38.0007 113.554 38.0722 113.669C38.2721 113.983 43.0104 121.507 43.506 125.74C44.0016 129.972 44.4711 136.251 44.4798 136.312C44.4894 136.445 44.4464 136.576 44.3601 136.677C44.2739 136.778 44.1513 136.841 44.019 136.852H43.9581Z" fill="#263238"/>
<ellipse cx="137.802" cy="140.649" rx="0.434708" ry="0.43544" fill="#263238"/>
<ellipse cx="143.453" cy="141.956" rx="0.869408" ry="0.870895" fill="#263238"/>
<ellipse cx="137.368" cy="140.214" rx="0.869415" ry="0.870888" fill="#263238"/>
<ellipse rx="0.654265" ry="3.27468" transform="matrix(0.894685 0.446698 -0.445481 0.895291 101.313 131.398)" fill="#263238"/>
</svg>
