<svg width="66" height="67" viewBox="0 0 66 67" fill="none" xmlns="http://www.w3.org/2000/svg">
<path d="M38.897 42.8621C41.6767 42.1493 44.0913 40.5815 45.8799 38.3282C48.0729 35.5654 49.0451 32.1155 48.6174 28.6138C48.1898 25.1128 46.4139 21.9958 43.6191 19.8424C40.9114 17.7549 37.5358 16.8269 34.1142 17.2293C30.6927 17.6318 27.6243 19.3177 25.4743 21.9763C23.6312 24.2555 22.6259 27.0047 22.5672 29.9267C22.4718 34.6702 20.8372 39.2758 17.9643 42.8952L14.8208 46.8554C13.4264 48.6121 13.7211 51.1756 15.4778 52.57L18.441 54.9221C20.1977 56.3165 22.7613 56.0217 24.1556 54.2651L27.2989 50.3051C30.2037 46.6459 34.2055 44.0651 38.897 42.8621ZM24.2431 29.9604C24.2943 27.4139 25.1707 25.0176 26.7777 23.0304C30.6382 18.2565 37.734 17.422 42.5956 21.1701C45.033 23.052 46.5806 25.7651 46.9533 28.8171C47.3262 31.8699 46.4787 34.8776 44.5669 37.2861C43.0076 39.2504 40.903 40.6171 38.4805 41.2384C33.5373 42.5061 29.2875 45.1893 26.1705 49.0069L19.4712 43.6892C22.4504 39.8233 24.1427 34.961 24.2431 29.9604ZM16.4869 47.4527L16.9088 46.9212L23.0077 53.0152L22.8427 53.223C22.7559 53.3324 22.6599 53.43 22.5591 53.5199L16.4869 47.4527ZM17.9578 45.5997L18.4309 45.0037L25.1398 50.3291L24.0567 51.6937L17.9578 45.5997ZM16.5199 51.2571C15.8147 50.6973 15.511 49.8171 15.65 48.9861L20.7876 54.1196C20.3269 54.0851 19.8716 53.9174 19.4833 53.6092L16.52 51.257L16.5199 51.2571Z" fill="black"/>
<path d="M28.3641 26.0341C28.5856 25.6499 28.8413 25.2775 29.1243 24.9277C29.4154 24.5678 29.3596 24.0401 28.9997 23.749C28.6421 23.46 28.112 23.5137 27.8209 23.8736C27.4829 24.2916 27.177 24.7368 26.9117 25.197C26.7017 25.5613 26.7961 26.0176 27.1159 26.2715C27.1481 26.2971 27.1827 26.3206 27.2194 26.3418C27.6204 26.5728 28.1329 26.4351 28.3641 26.0341Z" fill="black"/>
<path d="M24.3123 39.0724C24.3802 39.1263 24.4578 39.1705 24.5437 39.2022C24.978 39.3624 25.4599 39.1401 25.62 38.7058C26.6487 35.9158 27.2006 32.9937 27.2603 30.021C27.2702 29.5296 27.3225 29.0393 27.4159 28.5637C27.5051 28.1095 27.2091 27.669 26.7548 27.5798C26.3006 27.4907 25.8601 27.7867 25.7709 28.2409C25.659 28.8115 25.5961 29.399 25.5843 29.9873C25.5284 32.7732 25.0112 35.5114 24.0473 38.1259C23.9188 38.4743 24.0364 38.8534 24.3123 39.0724Z" fill="black"/>
<path d="M40.7533 37.9228C40.5343 37.515 40.026 37.3621 39.6183 37.5813C39.0269 37.8992 38.3921 38.1462 37.7315 38.3156C37.2831 38.4305 37.0128 38.8873 37.1278 39.3357C37.175 39.5198 37.2798 39.6738 37.4181 39.7835C37.6165 39.941 37.8836 40.0071 38.148 39.9393C38.9396 39.7363 39.7013 39.4397 40.4118 39.0578C40.8196 38.8388 40.9726 38.3305 40.7533 37.9228Z" fill="black"/>
<path d="M40.8496 23.6353C44.4692 26.5084 45.0764 31.7906 42.2033 35.4102C42.04 35.616 41.8659 35.8158 41.686 36.0042C41.3663 36.339 41.3785 36.8694 41.7132 37.1892C41.7321 37.2072 41.7516 37.2243 41.7717 37.2402C42.1072 37.5065 42.5965 37.4779 42.8982 37.162C43.1132 36.9368 43.3213 36.6981 43.5163 36.4524C46.9641 32.1088 46.2354 25.7701 41.8918 22.3223C41.5293 22.0345 41.002 22.0951 40.7143 22.4577C40.4265 22.8202 40.4871 23.3475 40.8496 23.6353Z" fill="black"/>
<path d="M44.6668 18.8265C45.0294 19.1143 45.5566 19.0537 45.8444 18.6911L48.7626 15.0148C49.0504 14.6523 48.9897 14.125 48.6272 13.8373C48.2646 13.5495 47.7374 13.6101 47.4496 13.9726L44.5315 17.6489C44.2437 18.0115 44.3043 18.5387 44.6668 18.8265Z" fill="black"/>
<path d="M36.9962 14.8519C36.9507 15.1591 37.0778 15.452 37.3047 15.632C37.416 15.7204 37.5514 15.7817 37.7022 15.8041C38.16 15.872 38.5864 15.556 38.6544 15.0981L39.3434 10.4571C39.4113 9.99907 39.0953 9.57286 38.6374 9.50492C38.1795 9.43697 37.7532 9.75302 37.6852 10.2109L36.9962 14.8519Z" fill="black"/>
<path d="M43.7505 48.7918L42.0262 44.4283C41.8561 43.9976 41.3691 43.7866 40.9387 43.9568C40.5082 44.1269 40.297 44.6138 40.4672 45.0444L42.1915 49.4079C42.2475 49.5497 42.3378 49.6676 42.4492 49.756C42.6761 49.9361 42.9903 49.9935 43.279 49.8794C43.7095 49.7093 43.9206 49.2223 43.7505 48.7918Z" fill="black"/>
<path d="M27.3461 11.8363L29.0704 16.1999C29.1264 16.3416 29.2167 16.4596 29.3281 16.548C29.555 16.7281 29.8692 16.7854 30.1579 16.6713C30.5884 16.5013 30.7995 16.0144 30.6294 15.5838L28.9051 11.2202C28.7351 10.7897 28.2481 10.5786 27.8176 10.7488C27.3871 10.9189 27.176 11.4057 27.3461 11.8363Z" fill="black"/>
<path d="M51.8904 42.2153L48.2141 39.2971C47.8515 39.0093 47.3243 39.07 47.0365 39.4325C46.7487 39.7951 46.8094 40.3223 47.1719 40.6101L50.8482 43.5282C51.2107 43.816 51.738 43.7554 52.0258 43.3928C52.3136 43.0303 52.253 42.5031 51.8904 42.2153Z" fill="black"/>
<path d="M24.0609 21.1955C24.3487 20.8329 24.2881 20.3057 23.9256 20.0179L20.2493 17.0998C19.8867 16.812 19.3595 16.8726 19.0717 17.2352C18.7839 17.5977 18.8445 18.125 19.2071 18.4127L22.8834 21.3309C23.246 21.6187 23.7732 21.558 24.0609 21.1955Z" fill="black"/>
<path d="M50.3664 33.2476C50.4777 33.336 50.6131 33.3973 50.7639 33.4196L55.4049 34.1086C55.8628 34.1766 56.2891 33.8605 56.3571 33.4027C56.425 32.9448 56.1089 32.5184 55.6511 32.4505L51.0101 31.7615C50.5522 31.6935 50.1259 32.0096 50.0579 32.4674C50.0123 32.7746 50.1396 33.0676 50.3664 33.2476Z" fill="black"/>
<path d="M20.3327 27.2086L15.6917 26.5195C15.2339 26.4516 14.8075 26.7676 14.7396 27.2255C14.694 27.5326 14.8211 27.8256 15.048 28.0057C15.1593 28.0941 15.2948 28.1553 15.4455 28.1777L20.0865 28.8667C20.5444 28.9346 20.9708 28.6186 21.0387 28.1607C21.1068 27.7029 20.7904 27.2764 20.3327 27.2086Z" fill="black"/>
<path d="M49.1909 24.924C49.2469 25.0658 49.3372 25.1837 49.4487 25.2721C49.6756 25.4522 49.9897 25.5096 50.2785 25.3955L54.642 23.6712C55.0725 23.5011 55.2836 23.0142 55.1135 22.5837C54.9435 22.1533 54.4565 21.9421 54.026 22.1122L49.6624 23.8365C49.2319 24.0066 49.0209 24.4935 49.1909 24.924Z" fill="black"/>
</svg>
