<svg width="241" height="241" viewBox="0 0 241 241" fill="none" xmlns="http://www.w3.org/2000/svg">
<path d="M230.237 111.265C227.711 98.9115 223.277 86.8519 218.004 75.7659C208.913 56.6401 194.019 40.7582 174.966 31.3303C128.212 8.1943 94.4719 17.8343 76.1559 36.6323C57.8399 55.4303 63.1419 87.7243 43.3799 101.702C23.6179 115.68 9.63993 121.946 8.67593 147.492C7.71193 173.038 20.2439 192.318 40.4879 198.584C60.7319 204.85 91.0979 225.094 151.83 213.526C212.562 201.958 227.504 169.664 231.36 146.528C233.288 134.888 232.623 122.944 230.237 111.265Z" fill="#CBCBCB"/>
<path opacity="0.7" d="M230.237 111.265C227.711 98.9115 223.277 86.8519 218.004 75.7659C208.913 56.6401 194.019 40.7582 174.966 31.3303C128.212 8.1943 94.4719 17.8343 76.1559 36.6323C57.8399 55.4303 63.1419 87.7243 43.3799 101.702C23.6179 115.68 9.63993 121.946 8.67593 147.492C7.71193 173.038 20.2439 192.318 40.4879 198.584C60.7319 204.85 91.0979 225.094 151.83 213.526C212.562 201.958 227.504 169.664 231.36 146.528C233.288 134.888 232.623 122.944 230.237 111.265Z" fill="white"/>
<path d="M87.8787 40.7388H83.5117V60.0911H87.8787V40.7388Z" fill="#C9C9C9" stroke="#263238" stroke-linecap="round" stroke-linejoin="round"/>
<path d="M87.8787 43.6504H83.5117V45.5398H87.8787V43.6504Z" fill="white" stroke="#263238" stroke-linecap="round" stroke-linejoin="round"/>
<path d="M87.8787 55.6562H83.5117V57.5457H87.8787V55.6562Z" fill="white" stroke="#263238" stroke-linecap="round" stroke-linejoin="round"/>
<path d="M92.9741 40.7388H86.8623V60.0911H92.9741V40.7388Z" fill="#878787" stroke="#263238" stroke-linecap="round" stroke-linejoin="round"/>
<path d="M92.5388 40.7388H88.1719V60.0911H92.5388V40.7388Z" fill="#C9C9C9" stroke="#263238" stroke-linecap="round" stroke-linejoin="round"/>
<path d="M92.5388 43.6504H88.1719V45.5398H92.5388V43.6504Z" fill="white" stroke="#263238" stroke-linecap="round" stroke-linejoin="round"/>
<path d="M92.5388 55.6562H88.1719V57.5457H92.5388V55.6562Z" fill="white" stroke="#263238" stroke-linecap="round" stroke-linejoin="round"/>
<path d="M97.6293 40.7388H91.5176V60.0911H97.6293V40.7388Z" fill="#878787" stroke="#263238" stroke-linecap="round" stroke-linejoin="round"/>
<path d="M97.195 40.7388H92.8281V60.0911H97.195V40.7388Z" fill="#C9C9C9" stroke="#263238" stroke-linecap="round" stroke-linejoin="round"/>
<path d="M97.195 43.6504H92.8281V45.5398H97.195V43.6504Z" fill="white" stroke="#263238" stroke-linecap="round" stroke-linejoin="round"/>
<path d="M97.195 55.6562H92.8281V57.5457H97.195V55.6562Z" fill="white" stroke="#263238" stroke-linecap="round" stroke-linejoin="round"/>
<path d="M102.285 40.7388H96.1729V60.0911H102.285V40.7388Z" fill="#C9C9C9" stroke="#263238" stroke-linecap="round" stroke-linejoin="round"/>
<path d="M106.266 60.2887H116.523L119.251 57.8208H106.266V60.2887Z" fill="white" stroke="#263238" stroke-linecap="round" stroke-linejoin="round"/>
<path d="M118.09 60.4137L117.762 59.8498L106.055 59.8257L106.392 60.4137H118.09Z" fill="white" stroke="#263238" stroke-linecap="round" stroke-linejoin="round"/>
<path d="M100.329 41.142L96.5488 43.3281L106.237 60.0809L110.017 57.8948L100.329 41.142Z" fill="#C9C9C9" stroke="#263238" stroke-linecap="round" stroke-linejoin="round"/>
<path d="M101.787 43.6552L98.0068 45.8413L98.9527 47.477L102.733 45.2909L101.787 43.6552Z" fill="white" stroke="#263238" stroke-linecap="round" stroke-linejoin="round"/>
<path d="M107.802 54.0478L104.021 56.2339L104.967 57.8695L108.748 55.6834L107.802 54.0478Z" fill="white" stroke="#263238" stroke-linecap="round" stroke-linejoin="round"/>
<path d="M119.184 57.9894L109.915 57.9653L100.227 41.2109L109.495 41.235L119.184 57.9894Z" fill="#C9C9C9" stroke="#263238" stroke-linecap="round" stroke-linejoin="round"/>
<path d="M124.235 50.4896C124.235 50.4896 122.548 49.8871 122.066 47.2361C121.584 44.5851 120.741 40.8496 121.705 40.0061C122.669 39.1626 124.476 38.6806 124.717 40.3676C124.958 42.0546 124.597 45.3081 124.958 46.0311C125.32 46.7541 126.525 46.2721 126.525 44.8261C126.525 42.445 125.561 40.0061 125.903 37.5961C126.385 34.2655 129.759 33.8992 130.12 37.5961C130.323 39.6398 130.381 41.7268 130.381 43.7802C130.381 44.6237 131.827 45.1057 131.706 43.0572C131.619 41.6112 132.67 39.9242 134.116 40.4062C135.562 40.8882 134.357 47.2747 133.875 48.3592C133.393 49.4437 130.381 49.6461 130.381 49.6461V52.4176L126.766 52.5381L126.645 49.7666C125.909 50.1921 125.084 50.4396 124.235 50.4896Z" fill="#CBCBCB" stroke="#263238" stroke-linecap="round" stroke-linejoin="round"/>
<path d="M127.489 45.207C127.533 45.8095 127.562 46.171 127.562 46.171" stroke="#263238" stroke-linecap="round" stroke-linejoin="round"/>
<path d="M127.73 35.8608C127.73 35.8608 126.939 36.4103 126.997 38.0588C127.036 39.0613 127.229 41.8376 127.378 43.8669" stroke="#263238" stroke-linecap="round" stroke-linejoin="round"/>
<path d="M129.089 41.5439L129.214 45.5783" stroke="#263238" stroke-linecap="round" stroke-linejoin="round"/>
<path d="M130.853 48.2002C130.574 48.2436 130.292 48.2678 130.01 48.2725" stroke="#263238" stroke-linecap="round" stroke-linejoin="round"/>
<path d="M133.37 41.4233C133.091 41.9509 132.944 42.5379 132.941 43.1344C132.941 44.0984 133.004 46.8025 132.391 47.5351C132.242 47.6996 132.06 47.8309 131.856 47.9207" stroke="#263238" stroke-linecap="round" stroke-linejoin="round"/>
<path d="M122.91 46.8457C123.055 47.5704 123.403 48.239 123.913 48.7737C124.214 49.0152 124.587 49.1515 124.973 49.1619C125.359 49.1723 125.738 49.0563 126.053 48.8315" stroke="#263238" stroke-linecap="round" stroke-linejoin="round"/>
<path d="M122.794 40.3247C122.794 40.3247 121.575 40.3247 121.999 42.46C122.182 43.3613 122.351 44.4699 122.568 45.5159" stroke="#263238" stroke-linecap="round" stroke-linejoin="round"/>
<path d="M127.379 48.4507L127.625 51.0776" stroke="#263238" stroke-linecap="round" stroke-linejoin="round"/>
<path d="M133.635 51.333L133.196 54.9287L132.898 57.3773L132.551 60.2259H123.879L123.532 57.3773L123.234 54.9287L122.795 51.333H133.635Z" fill="white" stroke="#263238" stroke-linecap="round" stroke-linejoin="round"/>
<path d="M133.195 54.9292L132.897 57.3778H123.531L123.232 54.9292H133.195Z" fill="#CBCBCB" stroke="#263238" stroke-linecap="round" stroke-linejoin="round"/>
<path d="M138.397 60.2256H82.7402V63.9129H138.397V60.2256Z" fill="white" stroke="#263238" stroke-linecap="round" stroke-linejoin="round"/>
<path d="M138.395 60.2256H125.564V63.9129H138.395V60.2256Z" fill="white" stroke="#263238" stroke-linecap="round" stroke-linejoin="round"/>
<path d="M124.317 63.9277C130.28 66.1257 129.205 70.2805 129.205 70.2805H134.849V63.9277H124.317Z" fill="#919191" stroke="#263238" stroke-linecap="round" stroke-linejoin="round"/>
<path d="M126.222 63.9277C132.179 66.1257 131.104 70.2805 131.104 70.2805H136.753V63.9277H126.222Z" fill="white" stroke="#263238" stroke-linecap="round" stroke-linejoin="round"/>
<path d="M86.1191 63.9282C92.0815 66.1262 91.0066 70.281 91.0066 70.281H96.6509V63.9282H86.1191Z" fill="#919191" stroke="#263238" stroke-linecap="round" stroke-linejoin="round"/>
<path d="M88.0234 63.9282C93.981 66.1262 92.9061 70.281 92.9061 70.281H98.5552V63.9282H88.0234Z" fill="white" stroke="#263238" stroke-linecap="round" stroke-linejoin="round"/>
<path d="M215.955 41.4277H166.039V110.72H215.955V41.4277Z" fill="#919191" stroke="#263238" stroke-linecap="round" stroke-linejoin="round"/>
<path d="M213.79 44.4355H168.207V107.712H213.79V44.4355Z" fill="#CBCBCB"/>
<path opacity="0.5" d="M213.79 44.4355H168.207V107.712H213.79V44.4355Z" fill="white"/>
<path d="M178.229 102.906C177.007 104.771 175.463 106.403 173.669 107.726H213.791V44.4351H206.397L205.433 44.7387C198.203 47.0186 190.732 53.6172 186.495 65.6093" stroke="#263238" stroke-linecap="round" stroke-linejoin="round"/>
<path d="M185.791 67.7114C184.108 73.4305 183.178 79.3447 183.024 85.3044C182.759 92.4573 181.236 97.6002 179.202 101.297" stroke="#263238" stroke-linecap="round" stroke-linejoin="round"/>
<path d="M209.332 60.4956C202.704 64.3516 194.987 70.8297 192.105 80.7637C190.558 86.0657 192.008 90.8472 194.876 94.9393" stroke="#263238" stroke-linecap="round" stroke-linejoin="round"/>
<path d="M196.429 96.9346C200.405 101.591 206.069 105.254 210.653 107.717H213.79V58.1577C212.894 58.5771 211.939 59.0494 210.947 59.6037" stroke="#263238" stroke-linecap="round" stroke-linejoin="round"/>
<path d="M175.785 60.9339C179.275 53.8196 179.641 48.1754 179.241 44.4351H168.218V73.384C169.847 71.0656 171.842 67.9663 174.252 63.8115C174.402 63.556 174.542 63.3295 174.681 63.0595" stroke="#263238" stroke-linecap="round" stroke-linejoin="round"/>
<path d="M180.104 88.3359C179.569 91.84 177.959 94.385 176.06 94.385C173.722 94.385 171.823 90.529 171.823 85.7572C171.823 80.9854 173.722 77.1294 176.06 77.1294C178.398 77.1294 180.297 80.9854 180.297 85.7572" stroke="#263238" stroke-linecap="round" stroke-linejoin="round"/>
<path d="M182.114 68.0489C182.114 69.8853 181.304 71.3795 180.297 71.3795C179.289 71.3795 178.484 69.8853 178.484 68.0489C178.484 66.2125 179.294 64.7183 180.297 64.7183C181.299 64.7183 182.114 66.2076 182.114 68.0489Z" stroke="#263238" stroke-linecap="round" stroke-linejoin="round"/>
<path d="M205.24 82.1181C206.99 82.952 208.132 84.4076 208.132 86.0609C208.132 88.6492 205.288 90.7508 201.775 90.7508C198.261 90.7508 195.422 88.6492 195.422 86.0609C195.422 83.4726 198.266 81.3662 201.775 81.3662C202.335 81.3658 202.893 81.4207 203.442 81.5301" stroke="#263238" stroke-linecap="round" stroke-linejoin="round"/>
<path d="M204.455 86.0612C204.455 87.1457 203.264 88.0278 201.79 88.0278C200.315 88.0278 199.124 87.1457 199.124 86.0612C199.124 84.9767 200.319 84.0898 201.79 84.0898C203.26 84.0898 204.455 84.9719 204.455 86.0612Z" stroke="#263238" stroke-linecap="round" stroke-linejoin="round"/>
<path d="M208.754 74.1027C208.754 75.6066 207.265 76.826 205.423 76.826C203.582 76.826 202.093 75.6066 202.093 74.1027C202.093 72.5989 203.582 71.3794 205.423 71.3794C207.265 71.3794 208.754 72.5989 208.754 74.1027Z" stroke="#263238" stroke-linecap="round" stroke-linejoin="round"/>
<path d="M184.687 58.9678C185.941 58.9678 186.957 56.4602 186.957 53.367C186.957 50.2737 185.941 47.7661 184.687 47.7661C183.433 47.7661 182.417 50.2737 182.417 53.367C182.417 56.4602 183.433 58.9678 184.687 58.9678Z" stroke="#263238" stroke-linecap="round" stroke-linejoin="round"/>
<path d="M190.896 101.499C190.896 102.128 190.709 102.743 190.36 103.266C190.01 103.79 189.513 104.197 188.932 104.438C188.351 104.679 187.711 104.742 187.094 104.619C186.477 104.496 185.91 104.193 185.465 103.749C185.02 103.304 184.717 102.737 184.594 102.12C184.472 101.503 184.535 100.863 184.775 100.282C185.016 99.7004 185.424 99.2036 185.947 98.854C186.47 98.5044 187.085 98.3179 187.714 98.3179C188.558 98.3179 189.367 98.653 189.964 99.2496C190.56 99.8462 190.896 100.655 190.896 101.499Z" stroke="#263238" stroke-linecap="round" stroke-linejoin="round"/>
<path d="M205.727 54.2732C205.728 54.6635 205.613 55.0453 205.397 55.3703C205.18 55.6952 204.873 55.9486 204.512 56.0984C204.152 56.2482 203.755 56.2877 203.372 56.2118C202.989 56.1359 202.638 55.948 202.362 55.672C202.086 55.396 201.898 55.0443 201.822 54.6614C201.746 54.2786 201.785 53.8818 201.935 53.5214C202.085 53.161 202.338 52.8531 202.663 52.6369C202.988 52.4206 203.37 52.3057 203.76 52.3066C204.282 52.3079 204.781 52.5155 205.15 52.884C205.518 53.2526 205.726 53.752 205.727 54.2732Z" stroke="#263238" stroke-linecap="round" stroke-linejoin="round"/>
<path d="M193.315 68.1982C193.316 68.4081 193.255 68.6136 193.139 68.7886C193.023 68.9636 192.858 69.1003 192.664 69.1813C192.47 69.2623 192.257 69.284 192.051 69.2436C191.845 69.2032 191.655 69.1026 191.507 68.9545C191.358 68.8064 191.256 68.6175 191.215 68.4116C191.174 68.2058 191.194 67.9924 191.275 67.7983C191.355 67.6043 191.491 67.4384 191.665 67.3216C191.84 67.2049 192.045 67.1426 192.255 67.1426C192.394 67.142 192.532 67.1688 192.66 67.2215C192.789 67.2743 192.906 67.352 193.004 67.4501C193.103 67.5481 193.181 67.6647 193.234 67.7931C193.288 67.9215 193.315 68.0591 193.315 68.1982V68.1982Z" stroke="#263238" stroke-linecap="round" stroke-linejoin="round"/>
<path d="M213.79 44.4355H168.207V107.712H213.79V44.4355Z" stroke="#263238" stroke-linecap="round" stroke-linejoin="round"/>
<path d="M139.295 134.666H126.912V139.327H139.295V134.666Z" fill="#263238" stroke="#263238" stroke-linecap="round" stroke-linejoin="round"/>
<path d="M155.908 135.369H106.624L108.957 97.166H158.246L155.908 135.369Z" fill="#919191" stroke="#263238" stroke-linecap="round" stroke-linejoin="round"/>
<path d="M154.496 135.369H105.212L107.545 97.166H156.829L154.496 135.369Z" fill="#263238" stroke="#263238" stroke-linecap="round" stroke-linejoin="round"/>
<path d="M151.889 133.244H108.08L110.153 99.2871H153.962L151.889 133.244Z" fill="white" stroke="#263238" stroke-linecap="round" stroke-linejoin="round"/>
<path d="M139.145 128.183H109.387L110.982 102.015H140.746L139.145 128.183Z" fill="#919191" stroke="#263238" stroke-linecap="round" stroke-linejoin="round"/>
<path d="M121.128 116.942C121.128 116.942 114.929 119.396 114.891 120.056C114.852 120.716 113.638 128.183 113.638 128.183H132.069L130.517 119.584L123.697 116.75L121.128 116.942Z" fill="white" stroke="#263238" stroke-linecap="round" stroke-linejoin="round"/>
<path d="M121.31 115.429C120.844 115.552 120.41 115.777 120.042 116.089C119.56 116.571 118.972 118.167 118.972 118.167L118.948 120.056L121.392 118.735L123.874 118.571L126.198 120.745L126.496 117.439C126.496 117.439 126.14 115.549 125.388 115.453C124.636 115.357 121.31 115.429 121.31 115.429Z" fill="white" stroke="#263238" stroke-linecap="round" stroke-linejoin="round"/>
<path d="M121.234 113.636L121.128 116.942L122.588 119.304L125.003 116.846L125.379 113.824L121.234 113.636Z" fill="white" stroke="#263238" stroke-linecap="round" stroke-linejoin="round"/>
<path d="M127.192 109.77C127.018 112.542 125.177 115.901 123.157 115.901C121.138 115.901 119.706 112.527 119.875 109.77C120.044 107.013 121.803 104.752 123.837 104.752C125.871 104.752 127.36 107.003 127.192 109.77Z" fill="white" stroke="#263238" stroke-linecap="round" stroke-linejoin="round"/>
<path d="M119.841 110.136C119.841 110.136 119.19 108.44 118.92 109.761C118.65 111.081 119.98 112.498 119.98 112.498L119.841 110.136Z" fill="white" stroke="#263238" stroke-linecap="round" stroke-linejoin="round"/>
<path d="M127.191 109.771C127.191 109.771 128.786 109.101 128.319 110.518C128.2 110.919 127.993 111.288 127.713 111.598C127.432 111.908 127.086 112.152 126.699 112.311L127.191 109.771Z" fill="white" stroke="#263238" stroke-linecap="round" stroke-linejoin="round"/>
<path d="M122.958 110.137C122.971 109.967 122.948 109.796 122.891 109.635C122.834 109.474 122.744 109.327 122.627 109.202C122.51 109.078 122.369 108.98 122.212 108.913C122.055 108.847 121.885 108.814 121.715 108.816C121.359 108.825 121.02 108.965 120.761 109.209C120.503 109.452 120.343 109.783 120.312 110.137C120.299 110.307 120.322 110.478 120.379 110.639C120.436 110.8 120.526 110.948 120.643 111.073C120.76 111.197 120.901 111.296 121.058 111.363C121.215 111.43 121.385 111.464 121.556 111.462C121.912 111.453 122.252 111.312 122.51 111.068C122.769 110.823 122.929 110.492 122.958 110.137Z" fill="white" stroke="#263238" stroke-linecap="round" stroke-linejoin="round"/>
<path d="M126.17 110.137L127.611 109.761" stroke="#263238" stroke-linecap="round" stroke-linejoin="round"/>
<path d="M126.169 110.137C126.182 109.967 126.159 109.796 126.102 109.636C126.046 109.475 125.956 109.328 125.84 109.204C125.723 109.08 125.582 108.981 125.426 108.915C125.269 108.848 125.101 108.814 124.93 108.816C124.574 108.824 124.234 108.963 123.974 109.207C123.714 109.451 123.554 109.782 123.523 110.137C123.51 110.307 123.533 110.478 123.59 110.639C123.647 110.8 123.737 110.948 123.854 111.073C123.97 111.197 124.112 111.296 124.269 111.363C124.426 111.43 124.596 111.464 124.767 111.462C125.123 111.453 125.462 111.312 125.721 111.068C125.98 110.823 126.14 110.492 126.169 110.137Z" fill="white" stroke="#263238" stroke-linecap="round" stroke-linejoin="round"/>
<path d="M123.509 104.184C123.509 104.184 122.063 103.432 120.979 103.904C119.894 104.377 119.094 106.927 119.147 107.587C119.317 108.452 119.549 109.304 119.841 110.137L120.988 106.83L123.996 105.509L123.509 104.184Z" fill="#263238" stroke="#263238" stroke-linecap="round" stroke-linejoin="round"/>
<path d="M122.054 104.849C122.054 104.849 124.435 102.96 126.363 103.885C126.953 104.142 127.441 104.587 127.749 105.152C128.057 105.717 128.168 106.369 128.065 107.004C128.036 107.486 127.997 109.645 127.997 109.645L126.85 109.838L126.286 108.059C125.634 107.801 125 107.502 124.387 107.163C124.387 107.163 121.837 106.83 122.054 104.849Z" fill="#263238" stroke="#263238" stroke-linecap="round" stroke-linejoin="round"/>
<path d="M122.96 110.136L122.791 112.879H123.451" fill="white"/>
<path d="M122.96 110.136L122.791 112.879H123.451" stroke="#263238" stroke-linecap="round" stroke-linejoin="round"/>
<path d="M122.444 113.916H123.861" stroke="#263238" stroke-linecap="round" stroke-linejoin="round"/>
<path d="M122.589 119.304L122.063 127.898" stroke="#263238" stroke-linecap="round" stroke-linejoin="round"/>
<path d="M130.508 119.583C130.508 119.583 128.537 124.028 128.479 124.972C128.421 125.917 128.199 127.994 128.199 127.994" stroke="#263238" stroke-linecap="round" stroke-linejoin="round"/>
<path d="M114.89 120.056C114.89 120.056 116.851 123.459 117.107 123.912C117.362 124.365 117.049 127.975 117.049 127.975" stroke="#263238" stroke-linecap="round" stroke-linejoin="round"/>
<path d="M131.823 122.798L132.474 119.868L133.583 118.735L134.628 117.034H135.101L134.522 118.832L135.988 117.978L136.932 116.47L137.482 116.749L136.132 120.249L133.992 121.285L133.621 122.702L131.823 122.798Z" fill="white" stroke="#263238" stroke-linecap="round" stroke-linejoin="round"/>
<path d="M133.656 128.182L133.835 122.326L131.685 121.945L129.988 128.182H133.656Z" fill="white" stroke="#263238" stroke-linecap="round" stroke-linejoin="round"/>
<path d="M139.015 130.357H109.252L109.387 128.183H139.146L139.015 130.357Z" fill="white" stroke="#263238" stroke-linecap="round" stroke-linejoin="round"/>
<path d="M110.467 129.036H137.772" stroke="#263238" stroke-linecap="round" stroke-linejoin="round"/>
<path d="M151.937 108.999H141.921L142.345 102.102H152.361L151.937 108.999Z" fill="#CBCBCB" stroke="#263238" stroke-linecap="round" stroke-linejoin="round"/>
<path d="M151.937 108.999H141.921L141.993 107.867H152.009L151.937 108.999Z" fill="white" stroke="#263238" stroke-linecap="round" stroke-linejoin="round"/>
<path d="M148.703 105.148L146.1 103.591L145.912 106.705L148.703 105.148Z" fill="white" stroke="#263238" stroke-linecap="round" stroke-linejoin="round"/>
<path d="M151.285 119.675H141.27L141.689 112.783H151.705L151.285 119.675Z" fill="#CBCBCB" stroke="#263238" stroke-linecap="round" stroke-linejoin="round"/>
<path d="M151.285 119.676H141.27L141.342 118.543H151.353L151.285 119.676Z" fill="white" stroke="#263238" stroke-linecap="round" stroke-linejoin="round"/>
<path d="M148.053 115.829L145.451 114.272L145.263 117.386L148.053 115.829Z" fill="white" stroke="#263238" stroke-linecap="round" stroke-linejoin="round"/>
<path d="M150.63 130.357H140.619L141.038 123.459H151.054L150.63 130.357Z" fill="#CBCBCB" stroke="#263238" stroke-linecap="round" stroke-linejoin="round"/>
<path d="M150.63 130.357H140.619L140.687 129.224H150.703L150.63 130.357Z" fill="white" stroke="#263238" stroke-linecap="round" stroke-linejoin="round"/>
<path d="M147.397 126.506L144.799 124.949L144.606 128.062L147.397 126.506Z" fill="white" stroke="#263238" stroke-linecap="round" stroke-linejoin="round"/>
<path d="M141.95 110.136H151.677" stroke="#263238" stroke-linecap="round" stroke-linejoin="round"/>
<path d="M141.878 111.274H151.609" stroke="#263238" stroke-linecap="round" stroke-linejoin="round"/>
<path d="M141.29 120.909H151.022" stroke="#263238" stroke-linecap="round" stroke-linejoin="round"/>
<path d="M141.224 122.042H150.955" stroke="#263238" stroke-linecap="round" stroke-linejoin="round"/>
<path d="M136.976 139.326H129.659C129.659 138.596 129.949 137.896 130.465 137.38C130.981 136.864 131.681 136.574 132.411 136.574H134.214C134.944 136.574 135.644 136.864 136.16 137.38C136.676 137.896 136.966 138.596 136.966 139.326H136.976Z" fill="white" stroke="#263238" stroke-linecap="round" stroke-linejoin="round"/>
<path d="M126.174 137.828H90.4004V139.327H126.174V137.828Z" fill="#919191" stroke="#263238" stroke-linecap="round" stroke-linejoin="round"/>
<path d="M126.165 137.828H117.176V139.327H126.165V137.828Z" fill="white" stroke="#263238" stroke-linecap="round" stroke-linejoin="round"/>
<path d="M75.7354 65.8559V37.3745" stroke="#263238" stroke-linecap="round" stroke-linejoin="round"/>
<path d="M75.7354 208.398V68.6904" stroke="#263238" stroke-linecap="round" stroke-linejoin="round"/>
<path d="M140.778 149.324L145.116 207.805C145.139 208.019 145.242 208.216 145.404 208.356C145.567 208.496 145.777 208.569 145.991 208.559C146.206 208.55 146.409 208.46 146.559 208.306C146.709 208.153 146.794 207.948 146.798 207.733L146.148 149.324H140.778Z" fill="#919191" stroke="#263238" stroke-linecap="round" stroke-linejoin="round"/>
<path d="M144.051 149.324L146.34 208.48C146.475 208.407 146.588 208.3 146.666 208.168C146.744 208.036 146.785 207.886 146.784 207.733L146.148 149.324H144.051Z" fill="white" stroke="#263238" stroke-linecap="round" stroke-linejoin="round"/>
<path d="M168.046 149.324L172.384 207.805C172.406 208.018 172.509 208.215 172.672 208.355C172.835 208.495 173.045 208.568 173.259 208.559C173.473 208.55 173.676 208.459 173.826 208.306C173.976 208.152 174.062 207.947 174.066 207.733L173.415 149.324H168.046Z" fill="#919191" stroke="#263238" stroke-linecap="round" stroke-linejoin="round"/>
<path d="M171.062 149.324L173.733 208.393C173.833 208.315 173.914 208.214 173.969 208.1C174.024 207.985 174.052 207.86 174.051 207.733L173.415 149.324H171.062Z" fill="white" stroke="#263238" stroke-linecap="round" stroke-linejoin="round"/>
<path d="M96.1684 149.96L91.8304 207.8C91.8158 208.013 91.721 208.211 91.5652 208.356C91.4095 208.501 91.2045 208.582 90.9917 208.581C90.8802 208.583 90.7693 208.563 90.6656 208.522C90.5619 208.48 90.4674 208.419 90.3876 208.341C90.3078 208.263 90.2443 208.17 90.2007 208.067C90.1572 207.965 90.1344 207.854 90.1338 207.743L90.7748 149.806L96.1684 149.96Z" fill="#263238" stroke="#263238" stroke-linecap="round" stroke-linejoin="round"/>
<path d="M68.9265 149.96L64.5885 207.8C64.5739 208.012 64.4791 208.211 64.3234 208.356C64.1676 208.501 63.9626 208.582 63.7499 208.581C63.6387 208.58 63.5287 208.558 63.4263 208.515C63.3239 208.471 63.231 208.408 63.1531 208.329C63.0752 208.25 63.0137 208.156 62.9722 208.053C62.9306 207.949 62.9099 207.839 62.9112 207.728L63.5522 149.792L68.9265 149.96Z" fill="#263238" stroke="#263238" stroke-linecap="round" stroke-linejoin="round"/>
<path d="M175.011 140.687H61.9189V149.796H175.011V140.687Z" fill="#919191" stroke="#263238" stroke-linecap="round" stroke-linejoin="round"/>
<path d="M175.009 140.687H142.6V149.796H175.009V140.687Z" fill="white" stroke="#263238" stroke-linecap="round" stroke-linejoin="round"/>
<path d="M175.011 142.132H61.9189V144.644H175.011V142.132Z" fill="#263238" stroke="#263238" stroke-linecap="round" stroke-linejoin="round"/>
<path d="M176.639 139.38H60.2891V142.427H176.639V139.38Z" fill="#919191" stroke="#263238" stroke-linecap="round" stroke-linejoin="round"/>
<path d="M176.633 139.38H144.682V142.427H176.633V139.38Z" fill="white" stroke="#263238" stroke-linecap="round" stroke-linejoin="round"/>
<path d="M142.33 82.9043H126.627C125.809 82.9043 125.024 83.2293 124.446 83.8078C123.867 84.3863 123.542 85.171 123.542 85.9891V91.7731C123.541 92.1784 123.621 92.5798 123.776 92.9543C123.93 93.3289 124.158 93.6692 124.444 93.9558C124.731 94.2424 125.071 94.4696 125.446 94.6244C125.82 94.7792 126.222 94.8585 126.627 94.8579H134.85L131.77 103.462L137.669 94.8579H142.33C142.736 94.8585 143.137 94.7792 143.512 94.6244C143.886 94.4696 144.226 94.2424 144.513 93.9558C144.8 93.6692 145.027 93.3289 145.182 92.9543C145.336 92.5798 145.416 92.1784 145.415 91.7731V85.9891C145.415 85.171 145.09 84.3863 144.512 83.8078C143.933 83.2293 143.149 82.9043 142.33 82.9043Z" fill="white" stroke="#263238" stroke-linecap="round" stroke-linejoin="round"/>
<path d="M130.271 90.1968C130.891 90.1968 131.394 89.694 131.394 89.0737C131.394 88.4535 130.891 87.9507 130.271 87.9507C129.65 87.9507 129.147 88.4535 129.147 89.0737C129.147 89.694 129.65 90.1968 130.271 90.1968Z" fill="#263238"/>
<path d="M134.48 90.1968C135.1 90.1968 135.603 89.694 135.603 89.0737C135.603 88.4535 135.1 87.9507 134.48 87.9507C133.859 87.9507 133.356 88.4535 133.356 89.0737C133.356 89.694 133.859 90.1968 134.48 90.1968Z" fill="#263238"/>
<path d="M139.805 89.0737C139.805 88.8514 139.739 88.6341 139.615 88.4493C139.491 88.2645 139.316 88.1206 139.11 88.0357C138.905 87.9508 138.679 87.9289 138.461 87.9726C138.243 88.0163 138.043 88.1238 137.886 88.2813C137.729 88.4389 137.622 88.6394 137.58 88.8576C137.537 89.0758 137.56 89.3017 137.645 89.5069C137.731 89.712 137.876 89.887 138.061 90.0099C138.247 90.1327 138.464 90.1977 138.686 90.1968C138.834 90.1968 138.98 90.1677 139.116 90.1112C139.252 90.0547 139.375 89.9719 139.479 89.8676C139.583 89.7632 139.665 89.6394 139.721 89.5031C139.777 89.3669 139.805 89.221 139.805 89.0737Z" fill="#263238"/>
<path d="M216.9 208.706H229.914" stroke="#263238" stroke-linecap="round" stroke-linejoin="round"/>
<path d="M11.5684 208.706H210.152" stroke="#263238" stroke-linecap="round" stroke-linejoin="round"/>
<path d="M88.0324 123.527C86.6201 121.117 82.4653 111.839 82.4653 111.839C82.5905 110.848 82.7936 109.868 83.0726 108.908C83.4148 107.944 84.2776 105.023 84.1041 104.416C83.9306 103.809 81.429 102.691 81.1735 102.604C80.9181 102.517 81.5157 101.052 80.5662 100.705C79.6167 100.358 79.2744 100.878 79.2744 100.878L78.9129 103.288L77.8043 105.023C77.3427 104.673 76.8598 104.351 76.3583 104.059C75.5823 103.626 73.77 103.452 73.6832 104.146C73.5965 104.84 75.1292 105.438 75.6642 105.872C76.1993 106.306 76.8741 108.373 77.4814 108.981C78.0332 109.583 78.5514 110.215 79.0334 110.875L79.3805 111.998C79.3805 111.998 80.5614 123.368 80.7012 126.198C80.8409 129.027 81.2651 136.513 82.1134 137.64C82.9617 138.768 83.1063 139.482 85.4874 138.633C87.8685 137.785 88.3119 136.652 88.8614 134.107C89.4109 131.562 89.4446 125.928 88.0324 123.527Z" fill="white" stroke="#263238" stroke-linecap="round" stroke-linejoin="round"/>
<path d="M88.8797 134.121C89.4436 131.581 89.4436 125.927 88.0314 123.517C87.8771 123.252 87.6892 122.91 87.4771 122.505C84.2814 121.575 81.2448 123.093 81.2448 123.093L80.4736 123.431C80.5749 124.612 80.652 125.6 80.6809 126.202C80.8255 129.027 81.2448 136.517 82.0932 137.645C82.9415 138.773 83.0861 139.486 85.4671 138.638C87.8482 137.789 88.3109 136.666 88.8797 134.121Z" fill="#CBCBCB" stroke="#263238" stroke-linecap="round" stroke-linejoin="round"/>
<path d="M77.7269 85.314C78.075 86.5925 78.2692 87.908 78.3054 89.2326C78.3054 91.1172 77.727 92.2789 78.5994 92.8573C79.4718 93.4356 80.1948 93.4405 80.0454 94.6021C79.9882 95.2433 79.7339 95.8511 79.3176 96.3421C79.3176 96.3421 79.0284 102.29 78.7392 102.873C78.45 103.456 74.6759 102.729 73.8035 102.579C72.931 102.43 70.468 103.596 68.8678 100.405C67.2676 97.2145 68.5786 92.4235 71.4802 89.9556C73.4761 88.2954 75.5614 86.7459 77.7269 85.314Z" fill="white" stroke="#263238" stroke-linecap="round" stroke-linejoin="round"/>
<path d="M78.3057 89.2089C78.3057 89.2089 77.52 88.6209 77.1055 89.6523" stroke="#263238" stroke-linecap="round" stroke-linejoin="round"/>
<path d="M77.6012 91.6089C77.4884 92.1933 77.5249 92.7968 77.7073 93.3634" stroke="#263238" stroke-linecap="round" stroke-linejoin="round"/>
<path d="M79.0464 98.4246C78.9176 98.466 78.7815 98.4798 78.647 98.4651C78.5125 98.4504 78.3826 98.4075 78.2658 98.3393C78.1489 98.2712 78.0478 98.1791 77.9688 98.0693C77.8899 97.9594 77.835 97.8341 77.8076 97.7017" stroke="#263238" stroke-linecap="round" stroke-linejoin="round"/>
<path d="M80.6904 125.706C80.6904 125.706 80.2084 127.913 79.7795 129.08C79.3505 130.246 71.6578 132.386 68.3079 132.83C66.1011 133.105 63.8801 133.252 61.6562 133.268L61.8683 139.37C61.8683 139.37 68.3561 139.5 68.814 139.37C69.2719 139.24 80.194 134.358 80.194 134.358L84.9079 133.741C84.9079 133.741 86.889 133.259 86.9661 131.721C87.0432 130.183 85.2935 125.812 84.4982 125.132C83.7029 124.452 82.0256 122.65 81.0182 123.758C80.0108 124.867 80.6904 125.706 80.6904 125.706Z" fill="white" stroke="#263238" stroke-linecap="round" stroke-linejoin="round"/>
<path d="M66.2266 136.662C66.2266 134.025 66.9014 133.958 67.6726 132.912C65.6799 133.134 63.6769 133.253 61.6718 133.268L61.5127 138.869C61.5127 138.869 65.065 139.197 67.2292 139.351C67.0509 139.626 66.2266 138.358 66.2266 136.662Z" fill="#CBCBCB" stroke="#263238" stroke-linecap="round" stroke-linejoin="round"/>
<path d="M87.1741 148.519C84.6077 145.635 81.3453 143.456 77.698 142.19L69.2341 145.801C68.5768 144.187 67.7045 142.669 66.6409 141.289L65.06 139.361L66.077 133.832C66.077 133.832 72.1695 129.658 72.9551 127.851L72.984 127.793C74.2083 129.687 79.52 137.886 80.5177 138.681C81.6456 139.588 85.0292 139.698 86.4945 138.344C87.9598 136.99 88.6394 136.088 88.302 134.059C88.302 134.059 86.0462 129.205 84.8027 127.06C83.5591 124.915 80.8551 117.247 79.5007 114.875C78.5367 113.179 78.1366 111.983 77.4522 111.183C76.977 110.365 76.4164 109.599 75.7797 108.899C74.4252 107.453 70.6994 107.091 69.9089 106.754C69.1184 106.416 69.0075 106.301 64.496 104.951C59.9845 103.601 54.9042 102.806 51.294 105.626C51.294 105.626 46.4451 111.381 44.5461 120.857C42.647 130.333 42.512 139.925 42.2903 141.617C42.0686 143.309 40.1454 151.546 39.5815 156.284C39.0175 161.022 43.9628 165.779 47.0091 167.254C50.0553 168.729 63.1416 168.946 70.815 167.254C78.4885 165.563 90.6734 157.889 90.6734 157.889C90.6734 157.889 91.1217 153.146 87.1741 148.519Z" fill="#CBCBCB" stroke="#263238" stroke-linecap="round" stroke-linejoin="round"/>
<path d="M67.225 127.672L65.6777 127.619" stroke="#263238" stroke-linecap="round" stroke-linejoin="round"/>
<path d="M66.6416 125.209C68.809 125.94 70.9194 126.829 72.9558 127.87L68.9841 127.735" stroke="#263238" stroke-linecap="round" stroke-linejoin="round"/>
<path d="M87.6033 128.058C88.0485 128.757 88.3226 129.552 88.4034 130.377C88.4034 131.442 88.5818 132.868 88.1383 132.425C87.6949 131.982 87.5117 130.463 87.5117 130.463L87.6033 128.058Z" fill="white" stroke="#263238" stroke-linecap="round" stroke-linejoin="round"/>
<path d="M84.9326 126.814C84.9326 126.814 86.6003 125.908 87.3426 126.997C88.0849 128.086 87.8873 130.26 87.3426 131.335C86.798 132.41 86.1762 131.383 86.2533 130.429C86.3304 129.475 84.9326 126.814 84.9326 126.814Z" fill="white" stroke="#263238" stroke-linecap="round" stroke-linejoin="round"/>
<path d="M84.3057 125.657C84.3057 125.657 85.9782 124.751 86.7157 125.84C87.4531 126.93 87.2555 129.099 86.7157 130.178C86.1758 131.258 85.5492 130.227 85.6263 129.272C85.7035 128.318 84.3057 125.657 84.3057 125.657Z" fill="white" stroke="#263238" stroke-linecap="round" stroke-linejoin="round"/>
<path d="M83.54 124.409C83.54 124.409 85.2126 123.503 85.95 124.592C86.6875 125.682 86.4947 127.855 85.95 128.93C85.4054 130.005 84.7836 128.979 84.8607 128.024C84.9378 127.07 83.54 124.409 83.54 124.409Z" fill="white" stroke="#263238" stroke-linecap="round" stroke-linejoin="round"/>
<path d="M79.3082 80.7882C79.336 82.5204 78.8893 84.2273 78.0165 85.7239C75.5487 89.4979 73.2302 89.0593 72.2325 92.1104C71.2348 95.1614 69.7454 98.3282 71.336 100.092C72.9266 101.856 74.228 100.815 74.228 100.815C74.228 100.815 75.245 103.428 72.6326 106.04C70.0201 108.653 65.5231 107.636 64.3614 107.202C63.6299 106.92 62.9457 106.528 62.3322 106.04C62.3322 106.04 61.6044 108.074 57.9942 108.074C54.384 108.074 50.2822 105.606 50.2822 101.104C50.2822 96.6026 52.7452 93.5612 53.3285 91.8163C53.9117 90.0715 52.3114 84.7068 54.7745 81.3714C57.2375 78.036 61.0405 75.5874 63.9325 75.5874C66.8245 75.5874 72.4687 77.1732 72.4928 77.1828C72.8736 77.3901 75.3125 76.3972 75.9728 76.4405C78.3973 76.5755 79.2793 78.5662 79.3082 80.7882Z" fill="#263238" stroke="#263238" stroke-linecap="round" stroke-linejoin="round"/>
<path d="M69.8896 101.432C70.4159 101.502 70.9491 101.502 71.4754 101.432" stroke="#919191" stroke-linecap="round" stroke-linejoin="round"/>
<path d="M77.216 83.3188C76.9871 84.6109 76.5108 85.8465 75.8134 86.9579C73.5576 90.5006 70.9934 91.7779 67.923 95.1519C65.9517 97.3354 66.3228 99.514 67.923 100.656" stroke="#919191" stroke-linecap="round" stroke-linejoin="round"/>
<path d="M77.2588 79.5542C77.3527 80.0857 77.3995 80.6244 77.3986 81.1641" stroke="#919191" stroke-linecap="round" stroke-linejoin="round"/>
<path d="M74.2276 82.9331C74.2276 82.9331 73.7456 87.9218 71.6537 90.8186C69.5618 93.7154 65.3877 95.1566 65.5371 98.2221" stroke="#919191" stroke-linecap="round" stroke-linejoin="round"/>
<path d="M93.652 166.439C93.652 166.439 96.6597 181.892 99.2336 189.402C101.807 196.911 104.381 203.78 105.018 204.426C105.654 205.072 107.379 207.429 107.379 207.429C106.582 208.066 105.607 208.441 104.589 208.504C103.085 208.504 101.157 206.576 99.436 205.496C97.7153 204.416 97.508 203.78 94.0714 202.493C90.6347 201.206 93.4303 197.774 94.2883 196.053C94.7844 195.125 95.0769 194.101 95.1462 193.051C93.7821 188.217 91.3639 183.747 88.0656 179.959C82.7106 173.954 81.6357 160.024 81.6357 160.024L91.9361 156.168L93.652 166.439Z" fill="white" stroke="#263238" stroke-linecap="round" stroke-linejoin="round"/>
<path d="M104.594 203.655L103.972 203.78C103.972 203.78 100.323 198.845 97.5371 197.129C96.5874 196.473 95.4705 196.102 94.3173 196.059C93.4545 197.775 90.6686 201.206 94.1004 202.493C97.5322 203.78 97.7491 204.421 99.465 205.496C101.181 206.571 103.114 208.504 104.618 208.504C105.636 208.441 106.611 208.066 107.408 207.429C107.408 207.429 105.688 205.067 105.047 204.426C104.864 204.189 104.712 203.93 104.594 203.655Z" fill="#CBCBCB" stroke="#263238" stroke-linecap="round" stroke-linejoin="round"/>
<path d="M102.863 207.891C101.167 206.72 99.6341 204.117 96.8722 202.493C94.361 201.018 93.0692 200.96 92.5342 201.071C92.6652 201.415 92.876 201.724 93.1491 201.971C93.4222 202.218 93.7499 202.397 94.1055 202.493C97.5422 203.78 97.7543 204.421 99.4702 205.496C100.555 206.19 101.75 207.26 102.863 207.891Z" fill="#CBCBCB" stroke="#263238" stroke-linecap="round" stroke-linejoin="round"/>
<path d="M104.593 208.504C104.484 208.5 104.374 208.489 104.266 208.47C104.374 208.491 104.483 208.502 104.593 208.504Z" fill="#CBCBCB" stroke="#263238" stroke-linecap="round" stroke-linejoin="round"/>
<path d="M74.5262 143.154C74.5262 143.154 84.841 139.501 85.805 141.911C86.769 144.321 91.1841 153.31 89.5743 157.002C87.9644 160.694 76.647 146.398 75.0371 146.09C73.4272 145.781 74.3382 144.234 74.5262 143.154Z" fill="white" stroke="#263238" stroke-linecap="round" stroke-linejoin="round"/>
<path d="M84.6348 147.863C84.6348 147.863 96.3619 146.899 98.6128 148.991C100.864 151.083 93.1517 176.142 88.9728 184.013C82.4224 196.324 84.4034 199.548 84.4034 199.548C84.4034 199.548 84.8854 201.476 88.1004 204.532C91.3153 207.588 92.2793 208.065 91.1514 208.547C90.0236 209.029 85.2084 208.547 84.7264 208.224C84.2444 207.901 80.7113 205.014 77.4964 204.05C74.2814 203.086 74.7634 202.44 76.2094 199.548C77.6554 196.656 77.4964 199.066 79.1014 194.087C81.0255 187.951 82.5454 181.696 83.6515 175.361C84.5047 170.199 85.8061 164.531 85.4397 159.282L84.6348 147.863Z" fill="white" stroke="#263238" stroke-linecap="round" stroke-linejoin="round"/>
<path d="M93.2235 155.71C91.9955 152.747 89.883 150.236 87.1744 148.519C82.046 145.246 77.6983 142.19 77.6983 142.19L69.2344 145.8C69.2344 145.8 71.2974 149.299 60.6934 151.068C52.5283 152.428 45.0332 150.456 40.9892 148.08C40.4253 150.88 39.8372 153.994 39.5432 156.274C38.9793 161.012 43.9439 165.75 46.9901 167.22C50.0363 168.69 74.5798 171.732 81.188 167.485C93.2235 159.788 93.2235 155.71 93.2235 155.71Z" fill="#263238" stroke="#263238" stroke-linecap="round" stroke-linejoin="round"/>
<path d="M68.2755 148.456C67.1428 149.386 64.9352 150.384 60.6936 151.073C52.5285 152.433 45.0334 150.461 40.9895 148.085C40.8449 148.803 40.7003 149.531 40.5557 150.278C43.3272 151.946 49.1497 154.77 55.7146 153.965C63.5471 153.006 67.0271 150.866 68.2755 148.456Z" fill="#CBCBCB" stroke="#263238" stroke-linecap="round" stroke-linejoin="round"/>
<path d="M62.019 158.78C61.6431 159.262 61.2527 159.744 60.8574 160.226" stroke="white" stroke-linecap="round" stroke-linejoin="round"/>
<path d="M67.9227 149.632C66.4394 152.36 64.7844 154.99 62.9678 157.508" stroke="white" stroke-linecap="round" stroke-linejoin="round"/>
<path d="M64.3913 152.683C64.3913 152.683 61.4993 156.539 58.4482 158.79" stroke="white" stroke-linecap="round" stroke-linejoin="round"/>
<path d="M88.1004 204.522C84.8854 201.476 84.4034 199.548 84.4034 199.548C84.2958 199.448 84.2104 199.327 84.1528 199.191C83.9359 199.418 83.2804 199.847 81.6753 199.23C80.2823 198.695 78.9617 197.784 77.5687 197.172C77.2361 197.765 76.9132 198.136 76.2094 199.548C74.7634 202.44 74.2814 203.086 77.4964 204.05C80.7113 205.014 84.2444 207.906 84.7264 208.224C85.2084 208.542 90.0284 209.029 91.1514 208.547C92.2745 208.065 91.3153 207.573 88.1004 204.522Z" fill="#CBCBCB" stroke="#263238" stroke-linecap="round" stroke-linejoin="round"/>
<path d="M91.0596 157.344L96.5255 153.97" stroke="#263238" stroke-linecap="round" stroke-linejoin="round"/>
<path d="M25.7627 126.795C25.7627 126.795 43.1725 124.616 54.2971 127.759L55.9889 170.083H29.8838C29.8838 170.083 31.566 147.347 25.7627 126.795Z" fill="#919191" stroke="#263238" stroke-linecap="round" stroke-linejoin="round"/>
<path d="M54.2971 127.759C43.1725 124.616 25.7627 126.795 25.7627 126.795C27.6258 133.645 28.8632 140.65 29.4596 147.723C39.181 152.578 48.0848 158.92 55.8491 166.521L54.2971 127.759Z" fill="#757575" stroke="#263238" stroke-linecap="round" stroke-linejoin="round"/>
<path d="M87.1254 209.67C86.9284 209.671 86.736 209.611 86.574 209.499C86.412 209.387 86.2882 209.228 86.2192 209.044C82.3633 198.652 81.3993 171.674 81.3414 170.532C81.3325 170.276 81.4255 170.028 81.5999 169.84C81.7744 169.653 82.016 169.543 82.2717 169.534C82.5273 169.525 82.7761 169.618 82.9632 169.793C83.1503 169.967 83.2605 170.209 83.2694 170.465C83.2694 170.744 84.272 198.271 88.0267 208.369C88.1155 208.609 88.1055 208.874 87.9988 209.106C87.8922 209.338 87.6976 209.519 87.458 209.608C87.3522 209.65 87.2392 209.671 87.1254 209.67Z" fill="white" stroke="#263238" stroke-linecap="round" stroke-linejoin="round"/>
<path d="M66.1362 209.67C65.94 209.67 65.7486 209.61 65.5876 209.498C65.4265 209.386 65.3035 209.227 65.2348 209.044C61.3788 198.652 60.4148 171.674 60.3522 170.532C60.3432 170.276 60.4362 170.028 60.6106 169.84C60.7851 169.653 61.0267 169.543 61.2824 169.534C61.5381 169.525 61.7868 169.618 61.974 169.793C62.1611 169.967 62.2712 170.209 62.2802 170.465C62.2802 170.744 63.2827 198.271 67.0423 208.369C67.1311 208.609 67.1211 208.874 67.0144 209.106C66.9078 209.338 66.7132 209.519 66.4736 209.608C66.3661 209.65 66.2516 209.671 66.1362 209.67Z" fill="white" stroke="#263238" stroke-linecap="round" stroke-linejoin="round"/>
<path d="M86.8657 170.064H29.4258V168.136H84.9474C85.4587 168.136 85.9491 168.339 86.3107 168.701C86.6722 169.063 86.8754 169.553 86.8754 170.064H86.8657Z" fill="#919191" stroke="#263238" stroke-linecap="round" stroke-linejoin="round"/>
<path d="M86.8609 169.597H29.4258V171.51H86.8609V169.597Z" fill="white" stroke="#263238" stroke-linecap="round" stroke-linejoin="round"/>
<path d="M53.8673 209.67C53.7223 209.673 53.5783 209.643 53.4463 209.583C53.3143 209.523 53.1977 209.434 53.105 209.322C53.0123 209.21 52.946 209.079 52.9111 208.938C52.8762 208.797 52.8736 208.65 52.9033 208.508C58.3547 182.683 53.3853 128.376 53.3179 127.831C53.3061 127.705 53.3195 127.577 53.3571 127.456C53.3947 127.334 53.4559 127.221 53.5371 127.123C53.6184 127.026 53.7181 126.945 53.8306 126.886C53.943 126.826 54.0661 126.79 54.1927 126.778C54.4483 126.754 54.7029 126.833 54.9004 126.997C55.098 127.161 55.2222 127.397 55.2459 127.653C55.2989 128.202 60.3068 182.794 54.7976 208.904C54.7527 209.118 54.6361 209.311 54.467 209.45C54.2979 209.589 54.0864 209.667 53.8673 209.67Z" fill="white" stroke="#263238" stroke-linecap="round" stroke-linejoin="round"/>
<path d="M23.9841 208.966C23.8943 208.967 23.8048 208.954 23.719 208.928C23.474 208.858 23.2664 208.694 23.1418 208.472C23.0172 208.25 22.9855 207.988 23.0538 207.742C35.5858 163.254 24.9481 127.431 24.8421 127.075C24.7813 126.835 24.8152 126.581 24.9366 126.365C25.058 126.149 25.2576 125.989 25.4943 125.916C25.7309 125.844 25.9863 125.865 26.2076 125.976C26.429 126.086 26.5993 126.278 26.6833 126.511C26.7942 126.872 37.6151 163.205 24.9095 208.263C24.8529 208.465 24.7319 208.643 24.5649 208.77C24.3978 208.897 24.1939 208.966 23.9841 208.966Z" fill="white" stroke="#263238" stroke-linecap="round" stroke-linejoin="round"/>
<path d="M200.212 129.49C200.212 129.49 194.289 126.197 193.85 133.659C193.412 141.12 192.317 189.614 192.317 189.614" stroke="#263238" stroke-width="2" stroke-linecap="round" stroke-linejoin="round"/>
<path d="M190.775 134.314C190.775 134.314 195.595 145.067 193.412 188.958" stroke="#263238" stroke-width="2" stroke-linecap="round" stroke-linejoin="round"/>
<path d="M195.523 130.993C195.523 130.993 193.253 132.439 191.966 130.781C190.679 129.123 192.838 126.077 190.934 124.775C189.03 123.474 185.738 125.46 185.738 125.46C185.738 125.46 188.269 126.202 188.187 127.585C188.105 128.969 186.885 129.489 186.741 128.887C186.596 128.284 185.367 125.238 183.314 126.506C182.72 126.855 182.204 127.322 181.797 127.877C181.389 128.432 181.098 129.064 180.942 129.735C180.942 129.735 185.729 129.224 186.018 131.022C186.307 132.82 184.056 130.709 182.08 130.593C180.104 130.477 178.301 130.766 178.431 131.962C178.475 133.019 178.412 134.079 178.243 135.124C179.325 134.225 180.693 133.743 182.099 133.764C184.273 133.895 184.191 135.278 182.215 135.162C180.239 135.047 178.542 136.926 178.542 136.926C178.542 136.926 180.345 140.006 182.634 141.529C184.924 143.053 185.748 142.493 186.008 141.332C186.268 140.17 185.661 137.148 187.044 137.23C188.428 137.312 184.755 142.445 186.519 142.749C188.283 143.053 189.705 142.542 190.168 141.38L190.65 140.218C190.65 140.218 190.033 137.206 190.303 136.035C190.573 134.863 190.896 136.068 191.209 137.481C191.522 138.893 191.72 142.267 192.322 142.103C192.925 141.939 194.858 139.481 195.311 138.512C195.764 137.543 192.766 134.598 192.8 134.005C192.833 133.413 195.147 134.54 195.508 135.157C195.771 135.626 196.008 136.109 196.217 136.603C196.217 136.603 197.663 135.697 197.624 132.921C197.586 130.145 195.523 130.993 195.523 130.993Z" fill="#CBCBCB"/>
<path opacity="0.3" d="M195.523 130.993C195.523 130.993 193.253 132.439 191.966 130.781C190.679 129.123 192.838 126.077 190.934 124.775C189.03 123.474 185.738 125.46 185.738 125.46C185.738 125.46 188.269 126.202 188.187 127.585C188.105 128.969 186.885 129.489 186.741 128.887C186.596 128.284 185.367 125.238 183.314 126.506C182.72 126.855 182.204 127.322 181.797 127.877C181.389 128.432 181.098 129.064 180.942 129.735C180.942 129.735 185.729 129.224 186.018 131.022C186.307 132.82 184.056 130.709 182.08 130.593C180.104 130.477 178.301 130.766 178.431 131.962C178.475 133.019 178.412 134.079 178.243 135.124C179.325 134.225 180.693 133.743 182.099 133.764C184.273 133.895 184.191 135.278 182.215 135.162C180.239 135.047 178.542 136.926 178.542 136.926C178.542 136.926 180.345 140.006 182.634 141.529C184.924 143.053 185.748 142.493 186.008 141.332C186.268 140.17 185.661 137.148 187.044 137.23C188.428 137.312 184.755 142.445 186.519 142.749C188.283 143.053 189.705 142.542 190.168 141.38L190.65 140.218C190.65 140.218 190.033 137.206 190.303 136.035C190.573 134.863 190.896 136.068 191.209 137.481C191.522 138.893 191.72 142.267 192.322 142.103C192.925 141.939 194.858 139.481 195.311 138.512C195.764 137.543 192.766 134.598 192.8 134.005C192.833 133.413 195.147 134.54 195.508 135.157C195.771 135.626 196.008 136.109 196.217 136.603C196.217 136.603 197.663 135.697 197.624 132.921C197.586 130.145 195.523 130.993 195.523 130.993Z" fill="#263238"/>
<path d="M184.031 137.505C185.511 135.678 187.685 133.205 189.512 132.024" stroke="#263238" stroke-linecap="round" stroke-linejoin="round"/>
<path d="M182.321 139.727C182.321 139.727 182.697 139.202 183.314 138.411" stroke="#263238" stroke-linecap="round" stroke-linejoin="round"/>
<path d="M190.477 132.478C190.477 132.478 192.675 135.582 193.079 138.778" stroke="#263238" stroke-linecap="round" stroke-linejoin="round"/>
<path d="M187.98 134.314C187.98 134.314 188.597 133.952 188.366 137.905" stroke="#263238" stroke-linecap="round" stroke-linejoin="round"/>
<path d="M189.595 130.622C189.595 130.622 190.853 129.509 190.188 127.287" stroke="#263238" stroke-linecap="round" stroke-linejoin="round"/>
<path d="M187.898 132.526L187.001 130.887" stroke="#263238" stroke-linecap="round" stroke-linejoin="round"/>
<path d="M186.013 134.198C186.013 134.198 183.169 132.048 181.391 131.942" stroke="#263238" stroke-linecap="round" stroke-linejoin="round"/>
<path d="M203.601 125.137C203.601 125.137 203.509 128.395 200.964 128.554C198.419 128.713 196.848 124.472 194.245 125.494C191.642 126.515 191.392 131.162 191.392 131.162C191.392 131.162 193.859 129.133 195.19 130.154C196.52 131.176 196.212 132.757 195.493 132.507C194.775 132.256 190.91 131.393 190.775 134.314C190.721 135.147 190.836 135.982 191.113 136.769C191.391 137.556 191.825 138.278 192.389 138.893C192.389 138.893 195.142 133.75 197.147 134.685C199.152 135.62 195.493 136.44 194.028 138.339C192.563 140.238 191.618 142.238 192.915 142.927C194.004 143.602 195.021 144.385 195.951 145.265C195.951 145.265 195.604 142.576 197.214 140.489C198.824 138.401 200.15 139.423 198.689 141.322C197.229 143.221 197.952 146.205 197.952 146.205C197.952 146.205 202.261 146.499 205.346 145.241C208.43 143.983 208.45 142.788 207.457 141.722C206.464 140.657 203.032 139.221 204.054 137.866C205.076 136.512 207.717 143.713 209.226 142.151C210.734 140.59 211.187 138.821 210.339 137.563L209.491 136.31C209.491 136.31 206.059 134.864 205.066 133.803C204.073 132.743 205.505 133.234 207.129 133.88C208.753 134.526 212.267 136.633 212.518 135.914C212.768 135.196 211.616 131.576 210.961 130.477C210.305 129.378 205.302 130.357 204.733 129.918C204.165 129.48 206.869 127.932 207.731 127.99C208.378 128.044 209.022 128.132 209.659 128.255C209.659 128.255 209.737 126.192 206.931 124.337C204.126 122.481 203.601 125.137 203.601 125.137Z" fill="#CBCBCB"/>
<path opacity="0.2" d="M203.601 125.137C203.601 125.137 203.509 128.395 200.964 128.554C198.419 128.713 196.848 124.472 194.245 125.494C191.642 126.515 191.392 131.162 191.392 131.162C191.392 131.162 193.859 129.133 195.19 130.154C196.52 131.176 196.212 132.757 195.493 132.507C194.775 132.256 190.91 131.393 190.775 134.314C190.721 135.147 190.836 135.982 191.113 136.769C191.391 137.556 191.825 138.278 192.389 138.893C192.389 138.893 195.142 133.75 197.147 134.685C199.152 135.62 195.493 136.44 194.028 138.339C192.563 140.238 191.618 142.238 192.915 142.927C194.004 143.602 195.021 144.385 195.951 145.265C195.951 145.265 195.604 142.576 197.214 140.489C198.824 138.401 200.15 139.423 198.689 141.322C197.229 143.221 197.952 146.205 197.952 146.205C197.952 146.205 202.261 146.499 205.346 145.241C208.43 143.983 208.45 142.788 207.457 141.722C206.464 140.657 203.032 139.221 204.054 137.866C205.076 136.512 207.717 143.713 209.226 142.151C210.734 140.59 211.187 138.821 210.339 137.563L209.491 136.31C209.491 136.31 206.059 134.864 205.066 133.803C204.073 132.743 205.505 133.234 207.129 133.88C208.753 134.526 212.267 136.633 212.518 135.914C212.768 135.196 211.616 131.576 210.961 130.477C210.305 129.378 205.302 130.357 204.733 129.918C204.165 129.48 206.869 127.932 207.731 127.99C208.378 128.044 209.022 128.132 209.659 128.255C209.659 128.255 209.737 126.192 206.931 124.337C204.126 122.481 203.601 125.137 203.601 125.137Z" fill="#263238"/>
<path d="M202.29 141.077C201.475 138.334 200.473 134.478 200.54 131.856" stroke="#263238" stroke-linecap="round" stroke-linejoin="round"/>
<path d="M203.346 144.311C203.346 144.311 203.076 143.569 202.705 142.417" stroke="#263238" stroke-linecap="round" stroke-linejoin="round"/>
<path d="M201.648 131.2C201.648 131.2 206.252 131.114 209.727 132.887" stroke="#263238" stroke-linecap="round" stroke-linejoin="round"/>
<path d="M201.793 134.961C201.793 134.961 201.851 134.098 205.649 137.023" stroke="#263238" stroke-linecap="round" stroke-linejoin="round"/>
<path d="M199.21 130.829C199.21 130.829 198.95 128.815 196.274 127.966" stroke="#263238" stroke-linecap="round" stroke-linejoin="round"/>
<path d="M199.937 133.813L197.687 133.591" stroke="#263238" stroke-linecap="round" stroke-linejoin="round"/>
<path d="M200.328 136.84C200.328 136.84 196.236 138.223 194.92 139.934" stroke="#263238" stroke-linecap="round" stroke-linejoin="round"/>
<path d="M176.296 146.827C176.296 146.827 189.242 155.382 189.026 188.52" stroke="#263238" stroke-width="2" stroke-linecap="round" stroke-linejoin="round"/>
<path d="M192.259 144.566C192.259 144.566 191.845 148.316 188.885 148.258C185.926 148.2 184.547 143.159 181.424 144.094C178.3 145.029 177.592 150.36 177.592 150.36C177.592 150.36 180.638 148.249 182.074 149.56C183.511 150.871 183.005 152.659 182.2 152.302C181.395 151.946 177.013 150.581 176.584 153.941C176.445 154.897 176.501 155.872 176.75 156.806C176.998 157.739 177.434 158.613 178.03 159.373C178.03 159.373 181.694 153.7 183.916 154.972C186.138 156.245 181.843 156.838 179.973 158.891C178.103 160.944 176.835 163.162 178.252 164.077C179.447 164.959 180.548 165.96 181.539 167.066C181.539 167.066 181.39 163.933 183.443 161.672C185.497 159.412 186.938 160.708 185.068 162.776C183.198 164.844 183.757 168.338 183.757 168.338C183.757 168.338 188.707 169.085 192.384 167.929C196.062 166.772 196.192 165.393 195.146 164.073C194.1 162.752 190.278 160.766 191.584 159.33C192.891 157.893 195.257 166.425 197.147 164.762C199.036 163.099 199.721 161.108 198.863 159.576L198.005 158.043C198.005 158.043 194.182 156.062 193.136 154.736C192.09 153.411 193.695 154.124 195.508 155.021C197.32 155.917 201.181 158.679 201.533 157.879C201.885 157.079 200.901 152.799 200.251 151.454C199.6 150.109 193.734 150.779 193.117 150.22C192.5 149.661 195.773 148.133 196.761 148.292C197.497 148.415 198.226 148.575 198.944 148.774C198.944 148.774 199.224 146.403 196.163 143.993C193.103 141.583 192.259 144.566 192.259 144.566Z" fill="#CBCBCB"/>
<path opacity="0.3" d="M192.259 144.566C192.259 144.566 191.845 148.316 188.885 148.258C185.926 148.2 184.547 143.159 181.424 144.094C178.3 145.029 177.592 150.36 177.592 150.36C177.592 150.36 180.638 148.249 182.074 149.56C183.511 150.871 183.005 152.659 182.2 152.302C181.395 151.946 177.013 150.581 176.584 153.941C176.445 154.897 176.501 155.872 176.75 156.806C176.998 157.739 177.434 158.613 178.03 159.373C178.03 159.373 181.694 153.7 183.916 154.972C186.138 156.245 181.843 156.838 179.973 158.891C178.103 160.944 176.835 163.162 178.252 164.077C179.447 164.959 180.548 165.96 181.539 167.066C181.539 167.066 181.39 163.933 183.443 161.672C185.497 159.412 186.938 160.708 185.068 162.776C183.198 164.844 183.757 168.338 183.757 168.338C183.757 168.338 188.707 169.085 192.384 167.929C196.062 166.772 196.192 165.393 195.146 164.073C194.1 162.752 190.278 160.766 191.584 159.33C192.891 157.893 195.257 166.425 197.147 164.762C199.036 163.099 199.721 161.108 198.863 159.576L198.005 158.043C198.005 158.043 194.182 156.062 193.136 154.736C192.09 153.411 193.695 154.124 195.508 155.021C197.32 155.917 201.181 158.679 201.533 157.879C201.885 157.079 200.901 152.799 200.251 151.454C199.6 150.109 193.734 150.779 193.117 150.22C192.5 149.661 195.773 148.133 196.761 148.292C197.497 148.415 198.226 148.575 198.944 148.774C198.944 148.774 199.224 146.403 196.163 143.993C193.103 141.583 192.259 144.566 192.259 144.566Z" fill="#263238"/>
<path d="M189.243 162.834C188.549 159.615 187.773 155.06 188.091 152.028" stroke="#263238" stroke-linecap="round" stroke-linejoin="round"/>
<path d="M190.159 166.666C190.159 166.666 189.918 165.783 189.595 164.419" stroke="#263238" stroke-linecap="round" stroke-linejoin="round"/>
<path d="M189.426 151.376C189.426 151.376 194.728 151.714 198.584 154.085" stroke="#263238" stroke-linecap="round" stroke-linejoin="round"/>
<path d="M189.247 155.686C189.247 155.686 189.396 154.698 193.503 158.433" stroke="#263238" stroke-linecap="round" stroke-linejoin="round"/>
<path d="M186.655 150.721C186.655 150.721 186.544 148.369 183.541 147.135" stroke="#263238" stroke-linecap="round" stroke-linejoin="round"/>
<path d="M187.214 154.23L184.64 153.763" stroke="#263238" stroke-linecap="round" stroke-linejoin="round"/>
<path d="M187.382 157.759C187.382 157.759 182.528 158.973 180.846 160.819" stroke="#263238" stroke-linecap="round" stroke-linejoin="round"/>
<path d="M181.343 172.937C181.343 172.937 189.681 179.3 190.559 188.737L188.804 157.132" stroke="#263238" stroke-width="2" stroke-linecap="round" stroke-linejoin="round"/>
<path d="M201.529 168.329C190.559 166.352 190.559 188.737 190.559 188.737" stroke="#263238" stroke-width="2" stroke-linecap="round" stroke-linejoin="round"/>
<path d="M191.874 188.52C191.874 188.52 185.512 142.219 203.924 142.219" stroke="#263238" stroke-width="2" stroke-linecap="round" stroke-linejoin="round"/>
<path d="M197.35 166.999C195.851 165.312 192.665 165.312 190.795 169.621C188.925 173.93 190.607 173.183 190.607 173.183C190.607 173.183 194.164 172.055 196.415 171.308C198.666 170.561 201.659 168.686 201.847 169.809C202.035 170.932 200.348 172.055 198.285 172.431C196.222 172.807 190.795 174.306 191.354 175.448C191.913 176.591 193.229 179.945 193.229 179.945C194.829 178.586 196.518 177.335 198.285 176.2C200.724 174.701 202.223 175.26 200.912 176.947C199.601 178.634 195.851 180.504 196.603 182.755C197.355 185.006 201.847 187.812 201.847 187.812C201.847 187.812 202.411 183.131 203.722 181.632C205.033 180.133 205.033 181.82 204.657 184.442C204.469 185.559 204.344 186.686 204.281 187.816L209.526 189.691C210.383 188.386 211.322 187.135 212.336 185.946L213.3 184.982C213.3 184.982 209.178 181.425 208.991 179.198C208.803 176.971 211.801 179.198 212.736 179.574C213.671 179.95 215.17 182.572 215.17 182.572C215.17 182.572 216.11 178.263 216.298 176.764L216.486 175.265C216.486 175.265 212.548 173.766 211.049 173.766C209.55 173.766 208.803 174.889 208.803 173.395C208.803 171.901 210.302 170.956 211.989 171.144C213.515 171.399 215.019 171.775 216.486 172.267C216.486 172.267 217.609 171.332 217.233 168.522C216.857 165.712 215.922 165.712 213.676 166.459C211.429 167.206 209.926 168.898 208.239 168.898C206.552 168.898 207.491 166.835 208.615 166.276C209.738 165.717 212.548 164.589 213.112 164.401C213.676 164.213 210.114 161.591 208.239 161.215C206.364 160.839 203.939 162.179 204.117 164.025C204.469 167.934 198.849 168.7 197.35 166.999Z" fill="#CBCBCB"/>
<path d="M209.409 186.288C209.467 186.85 209.506 187.414 209.525 187.98" stroke="#263238" stroke-linecap="round" stroke-linejoin="round"/>
<path d="M205.646 172.84C207.297 176.55 208.487 180.448 209.188 184.447" stroke="#263238" stroke-linecap="round" stroke-linejoin="round"/>
<path d="M204.97 171.337C204.045 169.341 203.346 168.122 203.346 168.122C204.368 167.64 205.218 166.856 205.78 165.875C206.218 164.988 206.861 164.216 207.655 163.625" stroke="#263238" stroke-linecap="round" stroke-linejoin="round"/>
<path d="M196.79 174.484C196.79 174.484 203.538 171.674 203.538 172.233" stroke="#263238" stroke-linecap="round" stroke-linejoin="round"/>
<path d="M207.259 170.932C207.259 170.932 210.257 169.433 212.879 169.433" stroke="#263238" stroke-linecap="round" stroke-linejoin="round"/>
<path d="M206.156 175.448C204.855 176.517 203.662 177.71 202.594 179.01C201.501 180.3 200.616 181.752 199.972 183.315" stroke="#263238" stroke-linecap="round" stroke-linejoin="round"/>
<path d="M208.223 176.181C208.223 176.181 212.161 175.053 214.219 176.928" stroke="#263238" stroke-linecap="round" stroke-linejoin="round"/>
<path d="M215.341 150.866C213.303 149.661 211.047 149.632 209.938 148.359C208.83 147.087 211.003 146.431 212.165 146.913C213.327 147.395 216.021 148.779 216.527 149.077C217.033 149.376 216.686 144.976 215.741 143.293C214.797 141.611 212.208 140.667 210.921 142.026C208.198 144.884 203.947 141.134 204.236 138.898C204.525 136.661 202.438 134.256 197.97 135.663C193.502 137.071 195.16 137.856 195.16 137.856C195.16 137.856 198.341 139.809 200.385 141.014C202.429 142.219 205.803 143.255 205.075 144.132C204.347 145.009 202.395 144.474 200.761 143.168C199.127 141.862 194.437 138.739 193.955 139.9C193.473 141.062 191.786 144.262 191.786 144.262C193.862 144.581 195.915 145.036 197.932 145.626C200.66 146.484 201.219 147.983 199.088 148.099C196.958 148.215 193.083 146.614 191.858 148.653C190.634 150.692 191.478 155.927 191.478 155.927C191.478 155.927 195.382 153.285 197.372 153.29C199.363 153.295 198.091 154.404 195.864 155.84C194.898 156.43 193.966 157.073 193.073 157.768L195.097 162.959C196.646 162.749 198.206 162.637 199.768 162.622L201.089 162.718C201.089 162.718 201.089 157.271 202.65 155.657C204.212 154.042 204.492 157.778 204.824 158.732C205.157 159.686 204.159 162.535 204.159 162.535C204.159 162.535 208.015 160.419 209.278 159.575L210.536 158.737C210.536 158.737 209.09 154.78 208.102 153.652C207.114 152.524 205.783 152.688 206.911 151.724C208.039 150.76 209.736 151.242 210.7 152.659C211.508 153.977 212.209 155.359 212.796 156.789C212.796 156.789 214.242 157.026 216.117 154.9C217.992 152.774 217.38 152.071 215.341 150.866ZM197.618 156.862C196.119 156.11 199.676 154.611 199.676 154.611C200.992 154.428 199.112 157.614 197.618 156.862ZM200.139 149.868C199.503 149.55 201.416 148.904 201.416 148.904C204.183 149.42 200.775 150.186 200.134 149.868H200.139Z" fill="#CBCBCB"/>
<path d="M197.571 160.68C197.186 161.089 196.781 161.489 196.371 161.875" stroke="#263238" stroke-linecap="round" stroke-linejoin="round"/>
<path d="M205.26 149.02C203.538 152.696 201.37 156.145 198.806 159.291" stroke="#263238" stroke-linecap="round" stroke-linejoin="round"/>
<path d="M205.954 147.525C206.855 145.515 207.313 144.19 207.313 144.19C208.349 144.645 209.5 144.772 210.61 144.556C211.567 144.303 212.57 144.282 213.536 144.494" stroke="#263238" stroke-linecap="round" stroke-linejoin="round"/>
<path d="M204.324 147.034C204.748 146.663 198.207 143.414 198.207 143.414" stroke="#263238" stroke-linecap="round" stroke-linejoin="round"/>
<path d="M207.77 149.001C207.77 149.001 210.869 150.283 212.59 152.264" stroke="#263238" stroke-linecap="round" stroke-linejoin="round"/>
<path d="M203.64 151.102C201.982 150.821 200.3 150.702 198.618 150.746C196.926 150.767 195.248 151.051 193.644 151.589" stroke="#263238" stroke-linecap="round" stroke-linejoin="round"/>
<path d="M204.426 153.151C204.426 153.151 207.853 155.383 207.8 158.169" stroke="#263238" stroke-linecap="round" stroke-linejoin="round"/>
<path d="M186.229 176.822C184.591 175.858 182.773 175.834 181.891 174.807C181.009 173.78 182.745 173.264 183.68 173.65C184.615 174.036 186.784 175.154 187.193 175.395C187.603 175.636 187.319 172.088 186.557 170.753C185.796 169.418 183.713 168.642 182.677 169.731C180.484 172.035 177.062 169.013 177.298 167.215C177.534 165.418 175.852 163.48 172.242 164.613C168.632 165.745 169.981 166.377 169.981 166.377C169.981 166.377 172.541 167.948 174.184 168.917C175.828 169.886 178.546 170.724 177.958 171.428C177.37 172.132 175.804 171.708 174.488 170.652C173.172 169.596 169.398 167.085 169.012 168.02C168.627 168.955 167.268 171.529 167.268 171.529C168.938 171.787 170.59 172.154 172.213 172.628C174.406 173.318 174.854 174.523 173.138 174.614C171.422 174.706 168.318 173.419 167.354 175.062C166.39 176.706 167.046 180.919 167.046 180.919C167.046 180.919 170.188 178.788 171.789 178.793C173.389 178.798 172.367 179.69 170.579 180.846C169.802 181.321 169.052 181.839 168.333 182.398L169.957 186.573C171.203 186.405 172.459 186.317 173.717 186.307L174.782 186.38C174.782 186.38 174.782 181.998 176.04 180.697C177.298 179.396 177.52 182.403 177.785 183.174C178.05 183.946 177.25 186.235 177.25 186.235C177.25 186.235 180.363 184.529 181.371 183.854L182.383 183.174C182.383 183.174 181.217 179.993 180.426 179.082C179.636 178.171 178.556 178.311 179.462 177.521C180.368 176.73 181.732 177.145 182.508 178.268C183.159 179.33 183.725 180.442 184.2 181.593C184.2 181.593 185.362 181.781 186.87 180.075C188.379 178.369 187.873 177.795 186.229 176.822ZM171.962 181.642C170.757 181.039 173.62 179.834 173.62 179.834C174.676 179.69 173.167 182.254 171.962 181.646V181.642ZM174.001 176.022C173.485 175.761 175.028 175.25 175.028 175.25C177.25 175.679 174.507 176.277 174.001 176.022Z" fill="#CBCBCB"/>
<path d="M171.934 184.722C171.62 185.049 171.297 185.372 170.97 185.686" stroke="#263238" stroke-linecap="round" stroke-linejoin="round"/>
<path d="M178.117 175.337C176.733 178.295 174.989 181.071 172.926 183.603" stroke="#263238" stroke-linecap="round" stroke-linejoin="round"/>
<path d="M178.677 174.132C179.4 172.517 179.771 171.452 179.771 171.452C180.604 171.817 181.529 171.919 182.422 171.746C183.191 171.543 183.997 171.526 184.774 171.698" stroke="#263238" stroke-linecap="round" stroke-linejoin="round"/>
<path d="M172.439 170.826C172.439 170.826 177.708 173.443 177.365 173.718" stroke="#263238" stroke-linecap="round" stroke-linejoin="round"/>
<path d="M180.138 175.323C180.138 175.323 182.63 176.354 183.994 177.95" stroke="#263238" stroke-linecap="round" stroke-linejoin="round"/>
<path d="M176.811 177.015C175.477 176.789 174.125 176.694 172.772 176.73C171.411 176.743 170.061 176.973 168.771 177.41" stroke="#263238" stroke-linecap="round" stroke-linejoin="round"/>
<path d="M177.447 178.663C177.447 178.663 180.204 180.46 180.151 182.697" stroke="#263238" stroke-linecap="round" stroke-linejoin="round"/>
<path d="M179.54 145.887C179.54 145.887 177.477 147.386 176.166 145.887C174.855 144.388 176.73 141.39 174.855 140.267C172.98 139.144 169.986 141.202 169.986 141.202C169.986 141.202 172.421 141.766 172.421 143.077C172.421 144.388 171.298 144.952 171.11 144.388C170.922 143.824 169.611 141.014 167.736 142.33C167.195 142.694 166.735 143.163 166.381 143.71C166.027 144.257 165.788 144.869 165.677 145.511C165.677 145.511 170.17 144.764 170.546 146.451C170.922 148.138 168.675 146.263 166.8 146.263C164.925 146.263 163.238 146.639 163.426 147.762C163.528 148.759 163.528 149.763 163.426 150.76C164.397 149.851 165.66 149.32 166.988 149.261C169.047 149.261 169.047 150.572 167.176 150.572C165.306 150.572 163.802 152.447 163.802 152.447C163.802 152.447 165.677 155.257 167.924 156.568C170.17 157.879 170.922 157.315 171.11 156.192C171.298 155.069 170.546 152.259 171.857 152.259C173.168 152.259 169.986 157.315 171.669 157.503C173.351 157.691 174.667 157.127 175.043 156.004L175.419 154.881C175.419 154.881 174.667 152.071 174.855 150.948C175.043 149.825 175.419 150.948 175.79 152.259C176.161 153.57 176.542 156.751 177.106 156.568C177.67 156.385 179.352 153.941 179.728 153.006C180.104 152.071 177.106 149.449 177.106 148.885C177.106 148.321 179.352 149.261 179.728 149.82C180.104 150.379 180.475 151.131 180.475 151.131C180.475 151.131 181.786 150.196 181.598 147.574C181.41 144.952 179.54 145.887 179.54 145.887Z" fill="#CBCBCB"/>
<path d="M169.043 152.683C170.34 150.876 172.263 148.418 173.921 147.198" stroke="#263238" stroke-linecap="round" stroke-linejoin="round"/>
<path d="M167.548 154.881C167.548 154.881 167.88 154.36 168.415 153.58" stroke="#263238" stroke-linecap="round" stroke-linejoin="round"/>
<path d="M174.855 147.574C174.855 147.574 177.106 150.384 177.666 153.382" stroke="#263238" stroke-linecap="round" stroke-linejoin="round"/>
<path d="M172.608 149.449C172.608 149.449 173.167 149.073 173.167 152.823" stroke="#263238" stroke-linecap="round" stroke-linejoin="round"/>
<path d="M173.919 145.887C173.919 145.887 175.042 144.764 174.295 142.701" stroke="#263238" stroke-linecap="round" stroke-linejoin="round"/>
<path d="M172.419 147.762L171.484 146.263" stroke="#263238" stroke-linecap="round" stroke-linejoin="round"/>
<path d="M170.733 149.449C170.733 149.449 167.923 147.574 166.236 147.574" stroke="#263238" stroke-linecap="round" stroke-linejoin="round"/>
<path d="M198.459 187.859H183.975V208.706H198.459V187.859Z" fill="#263238" stroke="#263238" stroke-width="2" stroke-linecap="round" stroke-linejoin="round"/>
</svg>
