<svg width="204" height="204" viewBox="0 0 204 204" fill="none" xmlns="http://www.w3.org/2000/svg">
<path d="M174.191 132.074L173.873 134.93L179.426 128.438C180.09 128.508 180.757 128.543 181.425 128.544" stroke="#263238" stroke-linecap="round" stroke-linejoin="round"/>
<path d="M167.235 112.375C166.506 113.476 166.048 114.735 165.901 116.047C165.375 120.792 169.096 125.28 174.718 127.357L174.432 129.907" stroke="#263238" stroke-linecap="round" stroke-linejoin="round"/>
<path d="M169.394 110.013C169.033 110.306 168.689 110.621 168.366 110.956" stroke="#263238" stroke-linecap="round" stroke-linejoin="round"/>
<path d="M190.218 110.013C187.683 108.276 184.753 107.204 181.695 106.896C178.464 106.5 175.186 106.982 172.205 108.291" stroke="#263238" stroke-linecap="round" stroke-linejoin="round"/>
<path d="M185.29 128.161C190.594 127.063 194.613 123.673 195.082 119.275C195.425 116.198 193.985 113.232 191.41 110.955" stroke="#263238" stroke-linecap="round" stroke-linejoin="round"/>
<path d="M172.209 113.167C172.658 113.251 173.119 113.245 173.566 113.149C174.013 113.054 174.436 112.872 174.812 112.612L176.795 114.15C176.656 114.195 176.668 113.901 176.815 113.893C176.962 113.885 177.072 114.02 177.174 114.126C177.639 114.619 178.423 114.636 179.088 114.493C179.753 114.35 180.402 114.085 181.079 114.109C181.482 114.151 181.878 114.243 182.258 114.383C184.983 115.227 187.819 115.652 190.642 116.068" stroke="#263238" stroke-linecap="round" stroke-linejoin="round"/>
<path d="M169.867 116.068C170.275 116.043 172.548 116.068 172.874 115.794L173.429 116.761L174.041 116.17C174.147 116.578 174.253 116.986 174.355 117.369C174.816 117.479 174.763 116.59 175.171 116.325C175.297 116.263 175.441 116.251 175.575 116.291C175.709 116.331 175.822 116.421 175.893 116.541C176.027 116.792 176.092 117.073 176.081 117.357L178.872 117.585L179.414 117.63C179.608 117.334 179.895 117.112 180.23 116.998C180.128 117.643 180.94 118.01 181.585 118.14C184.759 118.788 187.95 119.347 191.157 119.817" stroke="#263238" stroke-linecap="round" stroke-linejoin="round"/>
<path d="M171.107 120.499C171.364 120.678 171.679 120.344 171.993 120.303C172.307 120.262 172.564 120.499 172.841 120.641C173.119 120.784 173.576 120.723 173.592 120.413C173.657 120.821 174.163 120.968 174.575 121.025L185.29 122.53" stroke="#263238" stroke-linecap="round" stroke-linejoin="round"/>
<path d="M27.7441 106.561L32.0363 112.339L31.1754 104.779C32.2016 104.28 33.1831 103.695 34.1089 103.028C38.5072 99.8458 40.2779 94.7254 38.6663 90.6005C37.5361 87.72 34.8882 85.7616 31.5426 84.9497" stroke="#263238" stroke-linecap="round" stroke-linejoin="round"/>
<path d="M10.7921 97.4467C10.6583 98.7551 10.8373 100.077 11.3143 101.302C13.0524 105.749 18.4298 107.993 24.3703 107.218" stroke="#263238" stroke-linecap="round" stroke-linejoin="round"/>
<path d="M11.604 94.3499C11.4217 94.7781 11.2651 95.2168 11.1348 95.6636" stroke="#263238" stroke-linecap="round" stroke-linejoin="round"/>
<path d="M30.0454 84.6722C26.9928 84.3072 23.8975 84.717 21.045 85.8635C18.0004 87.0148 15.3225 88.9655 13.293 91.5102" stroke="#263238" stroke-linecap="round" stroke-linejoin="round"/>
<path d="M15.5605 95.831C16.4382 95.5573 17.1718 94.947 17.6005 94.1337L20.0485 94.5743C19.9425 94.6763 19.8201 94.4111 19.9465 94.3336C20.073 94.2561 20.2321 94.3336 20.3545 94.3744C20.9992 94.5947 21.6969 94.2479 22.2191 93.8114C22.7413 93.3748 23.1901 92.8322 23.8062 92.5466C24.1826 92.3962 24.5758 92.2921 24.9772 92.2365C27.7842 91.7224 30.4893 90.7759 33.1861 89.8334" stroke="#263238" stroke-linecap="round" stroke-linejoin="round"/>
<path d="M14.835 99.4908C15.1981 99.2746 17.2095 98.2423 17.3727 97.8588L18.3152 98.4586C18.405 98.1893 18.4947 97.9159 18.5804 97.6426L19.4168 98.5606C19.8778 98.4463 19.4168 97.6834 19.6371 97.2672C19.7192 97.1542 19.8411 97.0766 19.9782 97.0501C20.1153 97.0236 20.2573 97.0502 20.3756 97.1244C20.6086 97.2807 20.7959 97.4962 20.9182 97.7486L23.4927 96.6552L23.9986 96.443C24.0276 96.0926 24.171 95.7615 24.4066 95.5006C24.6188 96.1248 25.5082 96.0677 26.1366 95.8841C29.251 94.9865 32.3368 93.9991 35.3941 92.922" stroke="#263238" stroke-linecap="round" stroke-linejoin="round"/>
<path d="M17.9932 102.836C18.3073 102.877 18.4297 102.428 18.6868 102.249C18.9438 102.069 19.2865 102.163 19.5966 102.155C19.9067 102.147 20.2861 101.89 20.1556 101.608C20.4044 101.939 20.9226 101.833 21.3102 101.694L31.5102 98.0422" stroke="#263238" stroke-linecap="round" stroke-linejoin="round"/>
<path d="M152.155 36.5649H50.4242C48.4435 36.5649 46.8379 38.1706 46.8379 40.1513V131.796C46.8379 133.777 48.4435 135.383 50.4242 135.383H152.155C154.136 135.383 155.741 133.777 155.741 131.796V40.1513C155.741 38.1706 154.136 36.5649 152.155 36.5649Z" fill="white"/>
<path opacity="0.2" d="M155.741 90.6942V131.902C155.741 132.825 155.375 133.709 154.723 134.362C154.072 135.014 153.187 135.381 152.265 135.382H50.3181C49.3951 135.382 48.5099 135.016 47.8572 134.363C47.2046 133.71 46.8379 132.825 46.8379 131.902V123.742H47.0541V129.242C47.0541 129.765 47.1572 130.282 47.3573 130.765C47.5575 131.248 47.8509 131.687 48.2207 132.056C48.5905 132.426 49.0295 132.719 49.5126 132.918C49.9957 133.118 50.5135 133.221 51.0362 133.22H149.523C150.046 133.221 150.564 133.118 151.047 132.918C151.53 132.719 151.969 132.426 152.339 132.056C152.709 131.687 153.002 131.248 153.202 130.765C153.402 130.282 153.505 129.765 153.505 129.242V96.8061C153.505 96.0713 153.214 95.3667 152.694 94.8471C152.174 94.3276 151.47 94.0357 150.735 94.0357H46.8379V90.6942H155.741Z" fill="black"/>
<path d="M152.155 36.5649H50.4242C48.4435 36.5649 46.8379 38.1706 46.8379 40.1513V131.796C46.8379 133.777 48.4435 135.383 50.4242 135.383H152.155C154.136 135.383 155.741 133.777 155.741 131.796V40.1513C155.741 38.1706 154.136 36.5649 152.155 36.5649Z" stroke="#263238" stroke-linecap="round" stroke-linejoin="round"/>
<path d="M146.26 102.428V97.7079C146.261 97.4784 146.216 97.2511 146.128 97.039C146.041 96.8269 145.912 96.6342 145.75 96.4719C145.588 96.3097 145.395 96.1811 145.183 96.0935C144.971 96.0059 144.744 95.9611 144.514 95.9617H58.067C57.6039 95.9617 57.1597 96.1457 56.8322 96.4731C56.5048 96.8006 56.3208 97.2448 56.3208 97.7079V102.428C56.3208 102.892 56.1368 103.336 55.8093 103.663C55.4818 103.991 55.0377 104.175 54.5745 104.175C54.1103 104.175 53.6651 104.359 53.3369 104.687C53.0086 105.016 52.8242 105.461 52.8242 105.925V115.24C52.8242 117.388 53.6775 119.448 55.1963 120.966C56.7151 122.485 58.7751 123.338 60.923 123.338C61.2682 123.338 61.5992 123.476 61.8433 123.72C62.0874 123.964 62.2245 124.295 62.2245 124.64V127.431C62.2245 128.461 62.6338 129.449 63.3622 130.177C64.0906 130.906 65.0786 131.315 66.1087 131.315H136.472C137.503 131.315 138.49 130.906 139.219 130.177C139.947 129.449 140.357 128.461 140.357 127.431V124.64C140.357 124.295 140.494 123.964 140.738 123.72C140.982 123.476 141.313 123.338 141.658 123.338C142.722 123.338 143.775 123.129 144.757 122.722C145.74 122.315 146.633 121.718 147.385 120.966C148.137 120.214 148.733 119.322 149.14 118.339C149.547 117.356 149.757 116.303 149.757 115.24V105.925C149.757 105.462 149.573 105.017 149.246 104.689C148.918 104.361 148.474 104.176 148.011 104.175C147.547 104.175 147.103 103.991 146.774 103.664C146.446 103.336 146.261 102.892 146.26 102.428Z" fill="#263238"/>
<path d="M62.9421 98.6339H59.9188C59.5487 98.6339 59.1938 98.7809 58.9321 99.0426C58.6704 99.3043 58.5234 99.6592 58.5234 100.029V100.804C58.5234 102.412 59.825 104.452 61.4325 104.452C63.04 104.452 64.3415 102.412 64.3415 100.804V100.029C64.3404 99.6588 64.1925 99.3039 63.9302 99.0424C63.6679 98.7808 63.3125 98.6339 62.9421 98.6339Z" fill="white" stroke="#263238" stroke-linecap="round" stroke-linejoin="round"/>
<path d="M70.1757 98.6339H67.1524C66.7819 98.6339 66.4266 98.7808 66.1643 99.0424C65.9019 99.3039 65.754 99.6588 65.7529 100.029V100.804C65.7529 102.412 67.0544 104.452 68.662 104.452C70.2695 104.452 71.571 102.412 71.571 100.804V100.029C71.571 99.6592 71.424 99.3043 71.1623 99.0426C70.9006 98.7809 70.5457 98.6339 70.1757 98.6339Z" fill="white" stroke="#263238" stroke-linecap="round" stroke-linejoin="round"/>
<path d="M77.4392 98.6339H74.4159C74.0458 98.6339 73.6909 98.7809 73.4292 99.0426C73.1675 99.3043 73.0205 99.6592 73.0205 100.029V100.804C73.0205 102.412 74.322 104.452 75.9255 104.452C77.5289 104.452 78.8345 102.412 78.8345 100.804V100.029C78.8345 99.6592 78.6875 99.3043 78.4258 99.0426C78.1641 98.7809 77.8092 98.6339 77.4392 98.6339Z" fill="white" stroke="#263238" stroke-linecap="round" stroke-linejoin="round"/>
<path d="M84.6852 98.6339H81.662C81.2919 98.6339 80.937 98.7809 80.6753 99.0426C80.4136 99.3043 80.2666 99.6592 80.2666 100.029V100.804C80.2666 102.412 81.5681 104.452 83.1756 104.452C84.7832 104.452 86.0806 102.412 86.0806 100.804V100.029C86.0806 99.846 86.0445 99.6646 85.9744 99.4953C85.9043 99.326 85.8015 99.1722 85.6719 99.0426C85.5423 98.913 85.3885 98.8102 85.2192 98.7401C85.0499 98.67 84.8685 98.6339 84.6852 98.6339Z" fill="white" stroke="#263238" stroke-linecap="round" stroke-linejoin="round"/>
<path d="M91.9304 98.6339H88.9071C88.537 98.6339 88.1821 98.7809 87.9204 99.0426C87.6587 99.3043 87.5117 99.6592 87.5117 100.029V100.804C87.5117 102.412 88.8132 104.452 90.4208 104.452C92.0283 104.452 93.3298 102.412 93.3298 100.804V100.029C93.3287 99.6588 93.1808 99.3039 92.9185 99.0424C92.6561 98.7808 92.3008 98.6339 91.9304 98.6339Z" fill="white" stroke="#263238" stroke-linecap="round" stroke-linejoin="round"/>
<path d="M99.1815 98.6339H96.1582C95.7878 98.6339 95.4324 98.7808 95.1701 99.0424C94.9078 99.3039 94.7599 99.6588 94.7588 100.029V100.804C94.7588 102.412 96.0603 104.452 97.6678 104.452C99.2754 104.452 100.577 102.412 100.577 100.804V100.029C100.577 99.6592 100.43 99.3043 100.168 99.0426C99.9065 98.7809 99.5516 98.6339 99.1815 98.6339Z" fill="white" stroke="#263238" stroke-linecap="round" stroke-linejoin="round"/>
<path d="M106.427 98.6339H103.404C103.034 98.6339 102.679 98.7809 102.417 99.0426C102.156 99.3043 102.009 99.6592 102.009 100.029V100.804C102.009 102.412 103.31 104.452 104.914 104.452C106.517 104.452 107.823 102.412 107.823 100.804V100.029C107.823 99.6592 107.676 99.3043 107.414 99.0426C107.152 98.7809 106.798 98.6339 106.427 98.6339Z" fill="white" stroke="#263238" stroke-linecap="round" stroke-linejoin="round"/>
<path d="M113.674 98.634H110.65C110.28 98.634 109.925 98.781 109.664 99.0427C109.402 99.3044 109.255 99.6593 109.255 100.029V100.805C109.255 102.412 110.556 104.452 112.164 104.452C113.771 104.452 115.069 102.412 115.069 100.805V100.029C115.069 99.6593 114.922 99.3044 114.66 99.0427C114.398 98.781 114.044 98.634 113.674 98.634Z" fill="white" stroke="#263238" stroke-linecap="round" stroke-linejoin="round"/>
<path d="M120.92 98.6339H117.913C117.73 98.6339 117.548 98.67 117.379 98.7401C117.21 98.8102 117.056 98.913 116.926 99.0426C116.797 99.1721 116.694 99.326 116.624 99.4953C116.554 99.6646 116.518 99.846 116.518 100.029V100.804C116.518 102.412 117.819 104.452 119.427 104.452C121.034 104.452 122.336 102.412 122.336 100.804V100.029C122.335 99.8444 122.298 99.6615 122.226 99.4912C122.155 99.3208 122.05 99.1663 121.919 99.0365C121.787 98.9068 121.631 98.8044 121.46 98.7353C121.288 98.6662 121.105 98.6317 120.92 98.6339Z" fill="white" stroke="#263238" stroke-linecap="round" stroke-linejoin="round"/>
<path d="M128.169 98.6339H125.146C124.775 98.6339 124.42 98.7808 124.157 99.0424C123.895 99.3039 123.747 99.6588 123.746 100.029V100.804C123.746 102.412 125.048 104.452 126.655 104.452C128.263 104.452 129.564 102.412 129.564 100.804V100.029C129.564 99.6592 129.417 99.3043 129.155 99.0426C128.894 98.7809 128.539 98.6339 128.169 98.6339Z" fill="white" stroke="#263238" stroke-linecap="round" stroke-linejoin="round"/>
<path d="M135.416 98.6339H132.392C132.022 98.6339 131.667 98.7809 131.406 99.0426C131.144 99.3043 130.997 99.6592 130.997 100.029V100.804C130.997 102.412 132.299 104.452 133.902 104.452C135.505 104.452 136.811 102.412 136.811 100.804V100.029C136.811 99.6592 136.664 99.3043 136.402 99.0426C136.141 98.7809 135.786 98.6339 135.416 98.6339Z" fill="white" stroke="#263238" stroke-linecap="round" stroke-linejoin="round"/>
<path d="M142.662 98.634H139.639C139.268 98.634 138.914 98.781 138.652 99.0427C138.39 99.3044 138.243 99.6593 138.243 100.029V100.805C138.243 102.408 139.537 104.448 141.168 104.448C142.8 104.448 144.073 102.408 144.073 100.8V100.025C144.073 99.841 144.036 99.6587 143.964 99.4888C143.893 99.3189 143.789 99.1648 143.658 99.0354C143.526 98.9061 143.371 98.804 143.2 98.7351C143.029 98.6662 142.846 98.6319 142.662 98.634Z" fill="white" stroke="#263238" stroke-linecap="round" stroke-linejoin="round"/>
<path d="M62.9421 113.991H59.9188C59.5487 113.991 59.1938 114.138 58.9321 114.4C58.6704 114.661 58.5234 115.016 58.5234 115.386V116.162C58.5234 117.769 59.825 119.809 61.4325 119.809C63.04 119.809 64.3415 117.769 64.3415 116.162V115.386C64.3404 115.016 64.1925 114.661 63.9302 114.4C63.6679 114.138 63.3125 113.991 62.9421 113.991Z" fill="white" stroke="#263238" stroke-linecap="round" stroke-linejoin="round"/>
<path d="M70.1757 113.991H67.1524C66.7819 113.991 66.4266 114.138 66.1643 114.4C65.9019 114.661 65.754 115.016 65.7529 115.386V116.162C65.7529 117.769 67.0544 119.809 68.662 119.809C70.2695 119.809 71.571 117.769 71.571 116.162V115.386C71.571 115.016 71.424 114.661 71.1623 114.4C70.9006 114.138 70.5457 113.991 70.1757 113.991Z" fill="white" stroke="#263238" stroke-linecap="round" stroke-linejoin="round"/>
<path d="M77.4392 113.991H74.4159C74.0458 113.991 73.6909 114.138 73.4292 114.4C73.1675 114.661 73.0205 115.016 73.0205 115.386V116.162C73.0205 117.769 74.322 119.809 75.9255 119.809C77.5289 119.809 78.8345 117.769 78.8345 116.162V115.386C78.8345 115.016 78.6875 114.661 78.4258 114.4C78.1641 114.138 77.8092 113.991 77.4392 113.991Z" fill="white" stroke="#263238" stroke-linecap="round" stroke-linejoin="round"/>
<path d="M84.6852 113.991H81.662C81.2919 113.991 80.937 114.138 80.6753 114.4C80.4136 114.661 80.2666 115.016 80.2666 115.386V116.162C80.2666 117.769 81.5681 119.809 83.1756 119.809C84.7832 119.809 86.0806 117.769 86.0806 116.162V115.386C86.0806 115.203 86.0445 115.022 85.9744 114.852C85.9043 114.683 85.8015 114.529 85.6719 114.4C85.5423 114.27 85.3885 114.167 85.2192 114.097C85.0499 114.027 84.8685 113.991 84.6852 113.991Z" fill="white" stroke="#263238" stroke-linecap="round" stroke-linejoin="round"/>
<path d="M91.9304 113.991H88.9071C88.537 113.991 88.1821 114.138 87.9204 114.4C87.6587 114.661 87.5117 115.016 87.5117 115.386V116.162C87.5117 117.769 88.8132 119.809 90.4208 119.809C92.0283 119.809 93.3298 117.769 93.3298 116.162V115.386C93.3287 115.016 93.1808 114.661 92.9185 114.4C92.6561 114.138 92.3008 113.991 91.9304 113.991Z" fill="white" stroke="#263238" stroke-linecap="round" stroke-linejoin="round"/>
<path d="M99.1815 113.991H96.1582C95.7878 113.991 95.4324 114.138 95.1701 114.4C94.9078 114.661 94.7599 115.016 94.7588 115.386V116.162C94.7588 117.769 96.0603 119.809 97.6678 119.809C99.2754 119.809 100.577 117.769 100.577 116.162V115.386C100.577 115.016 100.43 114.661 100.168 114.4C99.9065 114.138 99.5516 113.991 99.1815 113.991Z" fill="white" stroke="#263238" stroke-linecap="round" stroke-linejoin="round"/>
<path d="M106.427 113.991H103.404C103.034 113.991 102.679 114.138 102.417 114.4C102.156 114.661 102.009 115.016 102.009 115.386V116.162C102.009 117.769 103.31 119.809 104.914 119.809C106.517 119.809 107.823 117.769 107.823 116.162V115.386C107.823 115.016 107.676 114.661 107.414 114.4C107.152 114.138 106.798 113.991 106.427 113.991Z" fill="white" stroke="#263238" stroke-linecap="round" stroke-linejoin="round"/>
<path d="M113.674 113.991H110.65C110.28 113.991 109.925 114.138 109.664 114.4C109.402 114.661 109.255 115.016 109.255 115.386V116.162C109.255 117.769 110.556 119.809 112.164 119.809C113.771 119.809 115.069 117.769 115.069 116.162V115.386C115.069 115.016 114.922 114.661 114.66 114.4C114.398 114.138 114.044 113.991 113.674 113.991Z" fill="white" stroke="#263238" stroke-linecap="round" stroke-linejoin="round"/>
<path d="M120.92 113.991H117.913C117.73 113.991 117.548 114.027 117.379 114.097C117.21 114.168 117.056 114.27 116.926 114.4C116.797 114.529 116.694 114.683 116.624 114.853C116.554 115.022 116.518 115.203 116.518 115.387V116.162C116.518 117.769 117.819 119.809 119.427 119.809C121.034 119.809 122.336 117.769 122.336 116.162V115.387C122.335 115.202 122.298 115.019 122.226 114.848C122.155 114.678 122.05 114.524 121.919 114.394C121.787 114.264 121.631 114.162 121.46 114.093C121.288 114.023 121.105 113.989 120.92 113.991Z" fill="white" stroke="#263238" stroke-linecap="round" stroke-linejoin="round"/>
<path d="M128.169 113.991H125.146C124.775 113.991 124.42 114.138 124.157 114.4C123.895 114.661 123.747 115.016 123.746 115.387V116.162C123.746 117.769 125.048 119.809 126.655 119.809C128.263 119.809 129.564 117.769 129.564 116.162V115.387C129.564 115.016 129.417 114.662 129.155 114.4C128.894 114.138 128.539 113.991 128.169 113.991Z" fill="white" stroke="#263238" stroke-linecap="round" stroke-linejoin="round"/>
<path d="M135.416 113.991H132.392C132.022 113.991 131.667 114.138 131.406 114.4C131.144 114.661 130.997 115.016 130.997 115.386V116.162C130.997 117.769 132.299 119.809 133.902 119.809C135.505 119.809 136.811 117.769 136.811 116.162V115.386C136.811 115.016 136.664 114.661 136.402 114.4C136.141 114.138 135.786 113.991 135.416 113.991Z" fill="white" stroke="#263238" stroke-linecap="round" stroke-linejoin="round"/>
<path d="M142.662 113.991H139.639C139.268 113.991 138.914 114.138 138.652 114.4C138.39 114.662 138.243 115.016 138.243 115.387V116.162C138.243 117.769 139.545 119.809 141.152 119.809C142.76 119.809 144.057 117.769 144.057 116.162V115.387C144.057 115.016 143.91 114.662 143.648 114.4C143.387 114.138 143.032 113.991 142.662 113.991Z" fill="white" stroke="#263238" stroke-linecap="round" stroke-linejoin="round"/>
<path d="M59.3187 106.561H56.3036C55.9335 106.561 55.5786 106.708 55.3169 106.97C55.0552 107.232 54.9082 107.587 54.9082 107.957V108.732C54.9082 110.335 56.2097 112.38 57.8172 112.38C59.4248 112.38 60.7222 110.34 60.7222 108.732V107.957C60.7222 107.773 60.6858 107.591 60.6152 107.421C60.5446 107.251 60.4411 107.097 60.3106 106.967C60.1802 106.838 60.0254 106.735 59.8552 106.665C59.6849 106.596 59.5026 106.56 59.3187 106.561Z" fill="white" stroke="#263238" stroke-linecap="round" stroke-linejoin="round"/>
<path d="M66.5661 106.561H63.5428C63.1727 106.561 62.8178 106.708 62.5562 106.97C62.2945 107.232 62.1475 107.587 62.1475 107.957V108.732C62.1475 110.335 63.449 112.379 65.0565 112.379C66.664 112.379 67.9655 110.339 67.9655 108.732V107.957C67.9645 107.586 67.8165 107.231 67.5542 106.97C67.2919 106.708 66.9365 106.561 66.5661 106.561Z" fill="white" stroke="#263238" stroke-linecap="round" stroke-linejoin="round"/>
<path d="M73.8163 106.561H70.793C70.4225 106.561 70.0672 106.708 69.8049 106.97C69.5426 107.231 69.3946 107.586 69.3936 107.957V108.732C69.3936 110.335 70.6992 112.379 72.3026 112.379C73.906 112.379 75.2116 110.339 75.2116 108.732V107.957C75.2116 107.587 75.0646 107.232 74.8029 106.97C74.5413 106.708 74.1864 106.561 73.8163 106.561Z" fill="white" stroke="#263238" stroke-linecap="round" stroke-linejoin="round"/>
<path d="M81.0612 106.561H78.0379C77.6679 106.561 77.3129 106.708 77.0513 106.97C76.7896 107.232 76.6426 107.587 76.6426 107.957V108.732C76.6426 110.335 77.9441 112.379 79.5475 112.379C81.151 112.379 82.4566 110.339 82.4566 108.732V107.957C82.4566 107.774 82.4205 107.592 82.3503 107.423C82.2802 107.253 82.1774 107.1 82.0479 106.97C81.9183 106.841 81.7645 106.738 81.5952 106.668C81.4259 106.597 81.2444 106.561 81.0612 106.561Z" fill="white" stroke="#263238" stroke-linecap="round" stroke-linejoin="round"/>
<path d="M88.3078 106.561H85.2723C84.9022 106.561 84.5473 106.708 84.2856 106.97C84.024 107.232 83.877 107.587 83.877 107.957V108.732C83.877 110.335 85.1785 112.379 86.786 112.379C88.3935 112.379 89.6909 110.339 89.6909 108.732V107.957C89.691 107.589 89.5456 107.236 89.2866 106.974C89.0276 106.713 88.6758 106.565 88.3078 106.561Z" fill="white" stroke="#263238" stroke-linecap="round" stroke-linejoin="round"/>
<path d="M95.5534 106.561H92.5301C92.1601 106.561 91.8051 106.708 91.5435 106.97C91.2818 107.232 91.1348 107.587 91.1348 107.957V108.732C91.1348 110.335 92.4363 112.379 94.0438 112.379C95.6513 112.379 96.9529 110.339 96.9529 108.732V107.957C96.9518 107.586 96.8039 107.231 96.5415 106.97C96.2792 106.708 95.9239 106.561 95.5534 106.561Z" fill="white" stroke="#263238" stroke-linecap="round" stroke-linejoin="round"/>
<path d="M102.815 106.561H99.792C99.4216 106.561 99.0662 106.708 98.8039 106.97C98.5416 107.231 98.3937 107.586 98.3926 107.957V108.732C98.3926 110.335 99.6982 112.379 101.302 112.379C102.905 112.379 104.211 110.339 104.211 108.732V107.957C104.211 107.587 104.064 107.232 103.802 106.97C103.54 106.708 103.185 106.561 102.815 106.561Z" fill="white" stroke="#263238" stroke-linecap="round" stroke-linejoin="round"/>
<path d="M110.05 106.561H107.027C106.657 106.561 106.302 106.708 106.041 106.97C105.779 107.232 105.632 107.587 105.632 107.957V108.732C105.632 110.335 106.933 112.379 108.537 112.379C110.14 112.379 111.446 110.339 111.446 108.732V107.957C111.446 107.587 111.299 107.232 111.037 106.97C110.775 106.708 110.421 106.561 110.05 106.561Z" fill="white" stroke="#263238" stroke-linecap="round" stroke-linejoin="round"/>
<path d="M117.297 106.561H114.273C113.903 106.561 113.548 106.708 113.287 106.97C113.025 107.232 112.878 107.587 112.878 107.957V108.732C112.878 110.335 114.179 112.379 115.787 112.379C117.395 112.379 118.692 110.339 118.692 108.732V107.957C118.692 107.587 118.545 107.232 118.283 106.97C118.022 106.708 117.667 106.561 117.297 106.561Z" fill="white" stroke="#263238" stroke-linecap="round" stroke-linejoin="round"/>
<path d="M124.543 106.561H121.519C121.149 106.561 120.794 106.708 120.533 106.97C120.271 107.232 120.124 107.587 120.124 107.957V108.732C120.124 110.335 121.426 112.379 123.033 112.379C124.641 112.379 125.942 110.339 125.942 108.732V107.957C125.941 107.586 125.793 107.231 125.531 106.97C125.268 106.708 124.913 106.561 124.543 106.561Z" fill="white" stroke="#263238" stroke-linecap="round" stroke-linejoin="round"/>
<path d="M131.784 106.561H128.761C128.39 106.561 128.035 106.708 127.773 106.97C127.51 107.231 127.362 107.586 127.361 107.957V108.732C127.361 110.335 128.667 112.379 130.27 112.379C131.874 112.379 133.179 110.339 133.179 108.732V107.957C133.179 107.587 133.032 107.232 132.771 106.97C132.509 106.708 132.154 106.561 131.784 106.561Z" fill="white" stroke="#263238" stroke-linecap="round" stroke-linejoin="round"/>
<path d="M139.038 106.561H136.015C135.648 106.567 135.298 106.716 135.041 106.977C134.784 107.238 134.64 107.59 134.64 107.957V108.732C134.64 110.335 135.941 112.379 137.545 112.379C139.148 112.379 140.454 110.339 140.454 108.732V107.957C140.454 107.772 140.417 107.589 140.345 107.418C140.274 107.247 140.169 107.093 140.038 106.963C139.906 106.833 139.75 106.731 139.578 106.662C139.406 106.593 139.223 106.559 139.038 106.561Z" fill="white" stroke="#263238" stroke-linecap="round" stroke-linejoin="round"/>
<path d="M146.284 106.561H143.261C142.891 106.561 142.536 106.708 142.274 106.97C142.012 107.232 141.865 107.587 141.865 107.957V108.732C141.865 110.335 143.167 112.379 144.774 112.379C146.382 112.379 147.679 110.339 147.679 108.732V107.957C147.679 107.587 147.532 107.232 147.271 106.97C147.009 106.708 146.654 106.561 146.284 106.561Z" fill="white" stroke="#263238" stroke-linecap="round" stroke-linejoin="round"/>
<path d="M128.97 121.727H73.6124C72.8891 121.727 72.3027 122.313 72.3027 123.036V127.01C72.3027 127.734 72.8891 128.32 73.6124 128.32H128.97C129.693 128.32 130.28 127.734 130.28 127.01V123.036C130.28 122.313 129.693 121.727 128.97 121.727Z" fill="white" stroke="#263238" stroke-linecap="round" stroke-linejoin="round"/>
<path d="M136.382 122.114H133.358C132.988 122.114 132.633 122.261 132.372 122.523C132.11 122.785 131.963 123.14 131.963 123.51V124.285C131.963 125.892 133.264 127.932 134.872 127.932C136.479 127.932 137.777 125.892 137.777 124.285V123.51C137.777 123.14 137.63 122.785 137.368 122.523C137.107 122.261 136.752 122.114 136.382 122.114Z" fill="white" stroke="#263238" stroke-linecap="round" stroke-linejoin="round"/>
<path d="M69.2214 122.114H66.1981C65.828 122.114 65.4731 122.261 65.2114 122.523C64.9497 122.785 64.8027 123.14 64.8027 123.51V124.285C64.8027 125.892 66.1043 127.932 67.7118 127.932C69.3193 127.932 70.6208 125.892 70.6208 124.285V123.51C70.6197 123.139 70.4718 122.784 70.2095 122.523C69.9472 122.261 69.5918 122.114 69.2214 122.114Z" fill="white" stroke="#263238" stroke-linecap="round" stroke-linejoin="round"/>
<path opacity="0.2" d="M63.109 100.849C63.2555 100.85 63.4016 100.864 63.5456 100.89C63.5456 100.862 63.5456 100.833 63.5456 100.805V100.029C63.5445 99.8688 63.48 99.7153 63.3661 99.6021C63.2522 99.489 63.0982 99.4255 62.9377 99.4255H59.9144C59.7546 99.4266 59.6016 99.4906 59.4886 99.6036C59.3756 99.7166 59.3116 99.8696 59.3105 100.029V100.805C59.3105 101.918 60.1265 103.322 61.0894 103.603C60.7916 102.367 61.4607 100.849 63.109 100.849Z" fill="black"/>
<path opacity="0.2" d="M70.5181 100.641C70.6105 100.635 70.7032 100.635 70.7956 100.641V100.013C70.7945 99.8532 70.7306 99.7002 70.6175 99.5872C70.5045 99.4742 70.3516 99.4102 70.1917 99.4092H67.1685C67.0079 99.4092 66.8539 99.4727 66.74 99.5858C66.6261 99.6989 66.5616 99.8525 66.5605 100.013V100.788C66.5605 102.012 67.5275 103.542 68.6005 103.644C68.1069 102.379 68.7556 100.641 70.5181 100.641Z" fill="black"/>
<path opacity="0.2" d="M77.9815 100.535H78.0427V100.025C78.0427 99.8651 77.979 99.7115 77.8658 99.5982C77.7526 99.485 77.599 99.4214 77.4388 99.4214H74.4155C74.255 99.4214 74.101 99.4849 73.9871 99.598C73.8732 99.7111 73.8087 99.8647 73.8076 100.025V100.8C73.8076 102.045 74.8358 103.656 75.9251 103.656C75.9781 103.66 76.0313 103.66 76.0843 103.656C75.5375 102.367 76.1699 100.535 77.9815 100.535Z" fill="black"/>
<path opacity="0.2" d="M84.7661 100.327C84.9357 100.322 85.1053 100.336 85.272 100.368V100.013C85.272 99.8529 85.2084 99.6993 85.0951 99.586C84.9819 99.4728 84.8283 99.4092 84.6681 99.4092H81.6449C81.4847 99.4092 81.3311 99.4728 81.2179 99.586C81.1046 99.6993 81.041 99.8529 81.041 100.013V100.788C81.041 101.955 81.9386 103.44 82.9505 103.644C82.2569 102.363 82.8566 100.327 84.7661 100.327Z" fill="black"/>
<path opacity="0.2" d="M92.3837 100.327H92.5387V100.021C92.5376 99.8606 92.4731 99.707 92.3592 99.5939C92.2453 99.4807 92.0913 99.4172 91.9308 99.4172H88.9076C88.7477 99.4183 88.5948 99.4823 88.4818 99.5953C88.3687 99.7083 88.3048 99.8613 88.3037 100.021V100.796C88.3037 102.041 89.3319 103.652 90.4212 103.652C90.4769 103.656 90.5328 103.656 90.5885 103.652C89.8745 102.367 90.4743 100.327 92.3837 100.327Z" fill="black"/>
<path opacity="0.2" d="M99.691 100.368H99.7848V100.013C99.7838 99.8532 99.7198 99.7002 99.6068 99.5872C99.4938 99.4742 99.3408 99.4102 99.181 99.4092H96.1577C95.9972 99.4092 95.8432 99.4727 95.7293 99.5858C95.6154 99.6989 95.5509 99.8525 95.5498 100.013V100.788C95.5498 102.033 96.578 103.644 97.6673 103.644C97.7338 103.65 97.8007 103.65 97.8672 103.644C97.1981 102.359 97.806 100.368 99.691 100.368Z" fill="black"/>
<path opacity="0.2" d="M106.684 100.327C106.8 100.329 106.916 100.337 107.031 100.352V100.029C107.031 99.8692 106.967 99.7156 106.854 99.6024C106.741 99.4892 106.587 99.4255 106.427 99.4255H103.404C103.243 99.4255 103.09 99.4892 102.977 99.6024C102.863 99.7156 102.8 99.8692 102.8 100.029V100.805C102.8 102.029 103.812 103.636 104.893 103.661C104.171 102.379 104.766 100.327 106.684 100.327Z" fill="black"/>
<path opacity="0.2" d="M114.276 100.433V100.025C114.276 99.8651 114.212 99.7115 114.099 99.5982C113.986 99.485 113.832 99.4214 113.672 99.4214H110.649C110.489 99.4214 110.335 99.485 110.222 99.5982C110.109 99.7115 110.045 99.8651 110.045 100.025V100.8C110.045 102.045 111.069 103.656 112.162 103.656C112.272 103.655 112.381 103.637 112.485 103.603C111.897 102.347 112.497 100.49 114.276 100.433Z" fill="black"/>
<path opacity="0.2" d="M120.931 100.274C121.132 100.274 121.332 100.3 121.526 100.352V100.029C121.525 99.8689 121.461 99.7153 121.347 99.6021C121.233 99.489 121.079 99.4255 120.918 99.4255H117.911C117.752 99.4266 117.599 99.4906 117.486 99.6036C117.373 99.7166 117.309 99.8696 117.308 100.029V100.805C117.308 101.955 118.181 103.408 119.172 103.628C118.409 102.351 119.001 100.274 120.931 100.274Z" fill="black"/>
<path opacity="0.2" d="M128.342 100.274C128.487 100.275 128.631 100.288 128.774 100.315V100.029C128.773 99.8696 128.709 99.7166 128.596 99.6036C128.483 99.4906 128.33 99.4266 128.17 99.4255H125.147C124.986 99.4255 124.832 99.489 124.719 99.6021C124.605 99.7153 124.54 99.8689 124.539 100.029V100.805C124.539 102.029 125.518 103.583 126.579 103.661C125.812 102.379 126.4 100.274 128.342 100.274Z" fill="black"/>
<path opacity="0.2" d="M135.701 100.482C135.807 100.484 135.914 100.492 136.019 100.507V100.029C136.019 99.8692 135.955 99.7156 135.842 99.6024C135.729 99.4892 135.575 99.4255 135.415 99.4255H132.392C132.313 99.4255 132.234 99.4412 132.161 99.4715C132.088 99.5018 132.021 99.5463 131.965 99.6024C131.909 99.6585 131.864 99.725 131.834 99.7983C131.804 99.8716 131.788 99.9501 131.788 100.029V100.805C131.788 102.029 132.767 103.579 133.828 103.661C133.236 102.371 133.861 100.482 135.701 100.482Z" fill="black"/>
<path opacity="0.2" d="M143.265 100.388V100.029C143.265 99.8692 143.202 99.7156 143.088 99.6024C142.975 99.4892 142.821 99.4255 142.661 99.4255H139.638C139.478 99.4255 139.324 99.4892 139.211 99.6024C139.098 99.7156 139.034 99.8692 139.034 100.029V100.805C139.034 102.049 140.058 103.661 141.152 103.661C141.309 103.658 141.464 103.625 141.609 103.563C141.029 102.33 141.576 100.527 143.265 100.388Z" fill="black"/>
<path opacity="0.2" d="M63.3179 115.464C63.3954 115.46 63.473 115.46 63.5505 115.464V115.378C63.5494 115.218 63.4849 115.064 63.371 114.951C63.2571 114.838 63.1031 114.775 62.9425 114.775H59.9193C59.7594 114.776 59.6065 114.84 59.4935 114.953C59.3805 115.066 59.3165 115.219 59.3154 115.378V116.154C59.3154 117.398 60.3436 119.01 61.4329 119.01C61.5083 119.008 61.5834 118.999 61.6573 118.985C60.7434 117.745 61.2983 115.464 63.3179 115.464Z" fill="black"/>
<path opacity="0.2" d="M70.4161 115.464C70.5433 115.464 70.6702 115.475 70.7956 115.497V115.391C70.7945 115.231 70.7306 115.078 70.6175 114.965C70.5045 114.852 70.3516 114.788 70.1917 114.787H67.1685C67.0079 114.787 66.8539 114.85 66.74 114.963C66.6261 115.076 66.5616 115.23 66.5605 115.391V116.166C66.5605 117.41 67.5887 119.022 68.6781 119.022H68.7678C67.8335 117.765 68.3843 115.464 70.4161 115.464Z" fill="black"/>
<path opacity="0.2" d="M77.619 115.566C77.7559 115.566 77.8924 115.579 78.027 115.603V115.386C78.027 115.307 78.0114 115.229 77.9811 115.155C77.9507 115.082 77.9063 115.016 77.8502 114.959C77.7941 114.903 77.7275 114.859 77.6543 114.829C77.581 114.798 77.5025 114.783 77.4232 114.783H74.3999C74.2394 114.783 74.0854 114.846 73.9715 114.959C73.8576 115.072 73.7931 115.226 73.792 115.386V116.162C73.792 117.386 74.8038 118.989 75.885 119.018C75.0731 117.749 75.6402 115.566 77.619 115.566Z" fill="black"/>
<path opacity="0.2" d="M84.9744 115.619C85.0795 115.619 85.1844 115.626 85.2886 115.639V115.386C85.2886 115.307 85.273 115.229 85.2426 115.155C85.2123 115.082 85.1678 115.016 85.1117 114.959C85.0557 114.903 84.9891 114.859 84.9158 114.829C84.8426 114.798 84.764 114.783 84.6847 114.783H81.6615C81.5822 114.783 81.5036 114.798 81.4304 114.829C81.3571 114.859 81.2906 114.903 81.2345 114.959C81.1784 115.016 81.1339 115.082 81.1036 115.155C81.0732 115.229 81.0576 115.307 81.0576 115.386V116.162C81.0576 117.406 82.0817 119.018 83.1751 119.018H83.2241C82.4407 117.741 83.0242 115.619 84.9744 115.619Z" fill="black"/>
<path opacity="0.2" d="M92.0736 115.464C92.2297 115.464 92.3855 115.479 92.5387 115.509V115.391C92.5376 115.23 92.4731 115.076 92.3592 114.963C92.2453 114.85 92.0913 114.787 91.9308 114.787H88.9076C88.7477 114.788 88.5948 114.852 88.4818 114.965C88.3687 115.078 88.3048 115.231 88.3037 115.391V116.166C88.3037 117.41 89.3319 119.022 90.4212 119.022C89.491 117.773 90.0377 115.464 92.0736 115.464Z" fill="black"/>
<path opacity="0.2" d="M99.4299 115.513C99.5487 115.514 99.6674 115.523 99.7848 115.541V115.386C99.7838 115.227 99.7198 115.074 99.6068 114.961C99.4938 114.848 99.3408 114.784 99.181 114.783H96.1577C95.9972 114.783 95.8432 114.846 95.7293 114.959C95.6154 115.072 95.5509 115.226 95.5498 115.386V116.162C95.5498 117.406 96.578 119.018 97.6673 119.018H97.7448C96.8636 117.753 97.4266 115.513 99.4299 115.513Z" fill="black"/>
<path opacity="0.2" d="M106.945 115.668H107.031V115.382C107.031 115.222 106.967 115.069 106.854 114.955C106.741 114.842 106.587 114.779 106.427 114.779H103.404C103.243 114.779 103.09 114.842 102.977 114.955C102.863 115.069 102.8 115.222 102.8 115.382V116.158C102.8 117.402 103.824 119.014 104.913 119.014C104.993 119.012 105.072 119.003 105.15 118.985C104.448 117.712 105.032 115.668 106.945 115.668Z" fill="black"/>
<path opacity="0.2" d="M114.239 115.513H114.264V115.386C114.264 115.307 114.248 115.229 114.218 115.155C114.187 115.082 114.143 115.016 114.087 114.959C114.031 114.903 113.964 114.859 113.891 114.829C113.818 114.798 113.739 114.783 113.66 114.783H110.649C110.569 114.783 110.491 114.798 110.418 114.829C110.344 114.859 110.278 114.903 110.222 114.959C110.166 115.016 110.121 115.082 110.091 115.155C110.061 115.229 110.045 115.307 110.045 115.386V116.162C110.045 117.406 111.069 119.018 112.162 119.018C112.288 119.016 112.412 118.994 112.53 118.952C111.701 117.688 112.277 115.513 114.239 115.513Z" fill="black"/>
<path opacity="0.2" d="M121.294 115.358H121.522C121.516 115.202 121.45 115.054 121.337 114.945C121.225 114.837 121.075 114.775 120.918 114.775H117.911C117.752 114.776 117.599 114.84 117.486 114.953C117.373 115.066 117.309 115.219 117.308 115.378V116.154C117.308 117.398 118.336 119.01 119.425 119.01C119.525 119.007 119.623 118.992 119.719 118.965C118.695 117.749 119.225 115.358 121.294 115.358Z" fill="black"/>
<path opacity="0.2" d="M128.76 115.464V115.391C128.759 115.231 128.695 115.078 128.582 114.965C128.469 114.852 128.316 114.788 128.157 114.787H125.133C124.973 114.787 124.819 114.85 124.705 114.963C124.591 115.076 124.526 115.23 124.525 115.391V116.166C124.525 117.41 125.554 119.022 126.643 119.022C126.782 119.02 126.92 118.995 127.051 118.948C126.198 117.684 126.761 115.464 128.76 115.464Z" fill="black"/>
<path opacity="0.2" d="M135.864 115.464H136.027V115.382C136.027 115.303 136.011 115.225 135.981 115.151C135.951 115.078 135.906 115.011 135.85 114.955C135.794 114.899 135.727 114.855 135.654 114.825C135.581 114.794 135.502 114.779 135.423 114.779H132.4C132.24 114.779 132.086 114.842 131.973 114.955C131.86 115.069 131.796 115.222 131.796 115.382V116.158C131.796 117.402 132.82 119.014 133.909 119.014C134.006 119.012 134.102 118.999 134.195 118.973C133.285 117.724 133.844 115.464 135.864 115.464Z" fill="black"/>
<path opacity="0.2" d="M143.004 115.774C143.094 115.774 143.184 115.774 143.265 115.774V115.366C143.265 115.206 143.202 115.052 143.088 114.939C142.975 114.826 142.821 114.762 142.661 114.762H139.638C139.478 114.762 139.324 114.826 139.211 114.939C139.098 115.052 139.034 115.206 139.034 115.366V116.141C139.034 117.386 140.058 118.997 141.152 118.997C140.519 117.732 141.131 115.774 143.004 115.774Z" fill="black"/>
<path opacity="0.2" d="M59.875 108.157H59.9281V107.957C59.927 107.796 59.8624 107.643 59.7486 107.53C59.6347 107.416 59.4807 107.353 59.3201 107.353H56.305C56.1449 107.353 55.9913 107.417 55.878 107.53C55.7648 107.643 55.7012 107.797 55.7012 107.957V108.732C55.7012 109.976 56.7253 111.588 57.8187 111.588C57.9238 111.585 58.028 111.569 58.1288 111.539C57.3454 110.266 57.937 108.157 59.875 108.157Z" fill="black"/>
<path opacity="0.2" d="M66.9695 108.157H67.1735V107.949C67.1724 107.788 67.1079 107.634 66.994 107.521C66.8801 107.408 66.7261 107.345 66.5656 107.345H63.5423C63.3825 107.346 63.2295 107.41 63.1165 107.523C63.0035 107.636 62.9395 107.789 62.9385 107.949V108.724C62.9385 109.968 63.9666 111.58 65.056 111.58C65.1158 111.584 65.1757 111.584 65.2355 111.58C64.4318 110.303 65.0111 108.157 66.9695 108.157Z" fill="black"/>
<path opacity="0.2" d="M74.3823 108.157H74.419V107.957C74.4179 107.797 74.354 107.644 74.2409 107.531C74.1279 107.418 73.975 107.354 73.8151 107.353H70.7919C70.7117 107.352 70.6321 107.367 70.5577 107.396C70.4832 107.426 70.4154 107.471 70.3582 107.527C70.3009 107.583 70.2553 107.65 70.224 107.724C70.1927 107.797 70.1763 107.877 70.1758 107.957V108.732C70.1758 109.976 71.2039 111.588 72.2933 111.588C72.4028 111.587 72.5115 111.569 72.6156 111.535C71.8527 110.266 72.4361 108.157 74.3823 108.157Z" fill="black"/>
<path opacity="0.2" d="M81.4778 108.12H81.6655V107.965C81.6655 107.805 81.6019 107.651 81.4887 107.538C81.3754 107.425 81.2218 107.361 81.0617 107.361H78.0384C77.8783 107.361 77.7247 107.425 77.6114 107.538C77.4982 107.651 77.4346 107.805 77.4346 107.965V108.74C77.4346 109.985 78.4587 111.596 79.548 111.596C79.622 111.595 79.6958 111.586 79.7683 111.572C78.9238 110.303 79.495 108.12 81.4778 108.12Z" fill="black"/>
<path opacity="0.2" d="M88.5358 108.157C88.6657 108.157 88.7953 108.168 88.9234 108.189V107.957C88.9234 107.797 88.8598 107.643 88.7465 107.53C88.6333 107.417 88.4797 107.353 88.3196 107.353H85.2718C85.1117 107.353 84.9581 107.417 84.8448 107.53C84.7316 107.643 84.668 107.797 84.668 107.957V108.732C84.668 109.976 85.692 111.588 86.7855 111.588C85.9776 110.319 86.5529 108.157 88.5358 108.157Z" fill="black"/>
<path opacity="0.2" d="M95.8313 107.896C95.9404 107.896 96.0494 107.903 96.1577 107.916C96.1464 107.763 96.078 107.621 95.966 107.516C95.8541 107.412 95.7069 107.354 95.5539 107.353H92.5306C92.3708 107.354 92.2178 107.418 92.1048 107.531C91.9918 107.644 91.9278 107.797 91.9268 107.957V108.732C91.9268 109.976 92.9549 111.588 94.0443 111.588C94.1226 111.586 94.2005 111.577 94.2768 111.559C93.216 110.348 93.7342 107.896 95.8313 107.896Z" fill="black"/>
<path opacity="0.2" d="M103.135 108.206C103.228 108.206 103.322 108.206 103.408 108.206V107.941C103.407 107.781 103.343 107.628 103.23 107.515C103.117 107.402 102.964 107.338 102.804 107.337H99.7808C99.6202 107.337 99.4662 107.4 99.3523 107.513C99.2385 107.626 99.1739 107.78 99.1729 107.941V108.716C99.1729 109.96 100.201 111.572 101.29 111.572H101.372C100.609 110.307 101.184 108.206 103.135 108.206Z" fill="black"/>
<path opacity="0.2" d="M110.654 107.957C110.654 107.797 110.59 107.643 110.477 107.53C110.364 107.417 110.21 107.353 110.05 107.353H107.027C106.947 107.353 106.869 107.369 106.796 107.399C106.722 107.429 106.656 107.474 106.6 107.53C106.544 107.586 106.499 107.652 106.469 107.726C106.438 107.799 106.423 107.877 106.423 107.957V108.732C106.423 109.976 107.447 111.588 108.536 111.588C108.754 111.583 108.967 111.524 109.156 111.417C108.332 110.201 108.83 108.12 110.654 107.957Z" fill="black"/>
<path opacity="0.2" d="M117.913 108.12V107.965C117.913 107.805 117.849 107.651 117.736 107.538C117.622 107.425 117.469 107.361 117.309 107.361H114.285C114.125 107.361 113.972 107.425 113.858 107.538C113.745 107.651 113.682 107.805 113.682 107.965V108.74C113.682 109.985 114.706 111.596 115.799 111.596C115.974 111.593 116.147 111.553 116.305 111.478C115.558 110.234 116.093 108.222 117.913 108.12Z" fill="black"/>
<path opacity="0.2" d="M124.896 107.998C124.982 107.998 125.068 107.998 125.149 107.998V107.945C125.148 107.784 125.084 107.63 124.97 107.517C124.856 107.404 124.702 107.341 124.541 107.341H121.518C121.358 107.342 121.205 107.406 121.092 107.519C120.979 107.632 120.915 107.785 120.914 107.945V108.72C120.914 109.964 121.942 111.576 123.032 111.576C123.109 111.575 123.185 111.565 123.26 111.547C122.314 110.319 122.856 107.998 124.896 107.998Z" fill="black"/>
<path opacity="0.2" d="M132.397 108.263V107.957C132.396 107.797 132.332 107.644 132.219 107.531C132.106 107.418 131.953 107.354 131.793 107.353H128.77C128.609 107.353 128.455 107.417 128.342 107.53C128.228 107.643 128.163 107.796 128.162 107.957V108.732C128.162 109.976 129.19 111.588 130.28 111.588C130.403 111.586 130.525 111.565 130.643 111.527C129.978 110.262 130.561 108.312 132.397 108.263Z" fill="black"/>
<path opacity="0.2" d="M139.3 108.051C139.415 108.052 139.529 108.061 139.643 108.075V107.957C139.643 107.797 139.579 107.643 139.466 107.53C139.353 107.417 139.199 107.353 139.039 107.353H136.016C135.937 107.353 135.858 107.369 135.785 107.399C135.712 107.429 135.645 107.474 135.589 107.53C135.533 107.586 135.488 107.653 135.458 107.726C135.428 107.799 135.412 107.878 135.412 107.957V108.732C135.412 109.976 136.436 111.588 137.526 111.588C137.564 111.59 137.602 111.59 137.64 111.588C136.726 110.327 137.281 108.051 139.3 108.051Z" fill="black"/>
<path opacity="0.2" d="M146.608 108.365C146.701 108.358 146.795 108.358 146.889 108.365V107.957C146.889 107.797 146.826 107.643 146.712 107.53C146.599 107.417 146.445 107.353 146.285 107.353H143.262C143.102 107.353 142.948 107.417 142.835 107.53C142.722 107.643 142.658 107.797 142.658 107.957V108.732C142.658 109.956 143.674 111.588 144.763 111.588C144.127 110.303 144.743 108.365 146.608 108.365Z" fill="black"/>
<path opacity="0.2" d="M129.487 127.035V123.012C129.487 122.739 129.266 122.518 128.994 122.518H73.5872C73.3146 122.518 73.0936 122.739 73.0936 123.012V127.035C73.0936 127.308 73.3146 127.529 73.5872 127.529H128.994C129.266 127.529 129.487 127.308 129.487 127.035Z" fill="black"/>
<path opacity="0.2" d="M136.987 123.914V123.506C136.987 123.426 136.971 123.348 136.941 123.275C136.911 123.201 136.866 123.135 136.81 123.079C136.754 123.023 136.687 122.978 136.614 122.948C136.541 122.917 136.462 122.902 136.383 122.902H133.36C133.28 122.902 133.202 122.917 133.129 122.948C133.055 122.978 132.989 123.023 132.933 123.079C132.877 123.135 132.832 123.201 132.802 123.275C132.771 123.348 132.756 123.426 132.756 123.506V124.281C132.756 125.525 133.78 127.137 134.873 127.137C134.964 127.135 135.055 127.122 135.143 127.1C134.539 125.827 135.155 123.926 136.987 123.914Z" fill="black"/>
<path opacity="0.2" d="M69.4738 123.653C69.5927 123.654 69.7113 123.663 69.8288 123.681V123.51C69.8277 123.349 69.7632 123.196 69.6493 123.083C69.5354 122.969 69.3814 122.906 69.2209 122.906H66.1976C66.0378 122.907 65.8848 122.971 65.7718 123.084C65.6588 123.197 65.5948 123.35 65.5938 123.51V124.285C65.5938 125.529 66.6219 127.141 67.7113 127.141H67.7806C66.9116 125.876 67.4828 123.653 69.4738 123.653Z" fill="black"/>
<path opacity="0.2" d="M51.2861 38.5559H151.295C151.982 38.5559 152.641 38.8289 153.127 39.3147C153.613 39.8006 153.886 40.4596 153.886 41.1467V63.9947H48.6953V41.1467C48.6953 40.4596 48.9683 39.8006 49.4541 39.3147C49.94 38.8289 50.599 38.5559 51.2861 38.5559Z" fill="black"/>
<path d="M143.118 42.8645H59.4777C58.7802 37.0723 57.551 31.3565 55.8057 25.7897H146.806C145.033 31.3502 143.798 37.068 143.118 42.8645Z" fill="white"/>
<path opacity="0.2" d="M143.942 37.3605C143.334 40.6816 143.126 42.8644 143.126 42.8644H59.4858C59.4858 42.8644 59.2737 40.7224 58.6494 37.3605H143.942Z" fill="black"/>
<path d="M143.118 42.8645H59.4777C58.7802 37.0723 57.551 31.3565 55.8057 25.7897H146.806C145.033 31.3502 143.798 37.068 143.118 42.8645V42.8645Z" stroke="#263238" stroke-linecap="round" stroke-linejoin="round"/>
<path d="M141.98 57.2424H59.9268V91.0004H141.98V57.2424Z" fill="#263238"/>
<g opacity="0.4">
<path opacity="0.4" d="M98.9092 88.0137L99.3417 88.0341C99.8857 79.6156 100.43 71.1836 100.974 62.738C100.28 71.1864 99.5919 79.6116 98.9092 88.0137Z" fill="white"/>
<path opacity="0.4" d="M97.5137 87.9076L97.9462 87.9443C98.89 79.5803 99.8325 71.1796 100.774 62.7422C99.6883 71.1851 98.6017 79.5735 97.5137 87.9076Z" fill="white"/>
<path opacity="0.4" d="M96.1543 87.7525C96.2971 87.7525 96.444 87.7851 96.5868 87.8015C97.925 79.5272 99.2714 71.1728 100.626 62.738C99.13 71.1809 97.6394 79.5191 96.1543 87.7525Z" fill="white"/>
<path opacity="0.4" d="M94.7793 87.5445L95.2159 87.6138C96.9512 79.4538 98.7002 71.1578 100.463 62.7258C98.5587 71.166 96.6643 79.4389 94.7793 87.5445Z" fill="white"/>
<path opacity="0.4" d="M93.4082 87.2875L93.8488 87.3772C95.9704 79.3723 98.1206 71.1579 100.299 62.734C97.9819 71.1606 95.6848 79.3451 93.4082 87.2875Z" fill="white"/>
<path opacity="0.4" d="M92.0459 86.9774L92.4865 87.0876C94.9876 79.2621 97.558 71.147 100.137 62.73C97.407 71.147 94.6857 79.2254 92.0459 86.9774Z" fill="white"/>
<path opacity="0.4" d="M90.6875 86.6102L91.1322 86.7408C93.9882 79.1356 96.9789 71.1307 99.9736 62.7218C96.8279 71.1307 93.6945 79.0908 90.6875 86.6102Z" fill="white"/>
<path opacity="0.4" d="M89.3516 86.194L89.7963 86.3368C93.0236 78.9928 96.41 71.1143 99.8208 62.7177C96.2427 71.1143 92.7012 78.9357 89.3516 86.194Z" fill="white"/>
<path opacity="0.4" d="M87.999 85.7167L88.4478 85.8799C92.0219 78.8134 95.8204 71.094 99.6474 62.7096C95.6613 71.094 91.7037 78.744 87.999 85.7167Z" fill="white"/>
<path opacity="0.4" d="M86.6768 85.1781L87.1256 85.3658C91.026 78.6175 95.2366 71.0858 99.4839 62.7014C95.0652 71.0695 90.7037 78.5604 86.6768 85.1781Z" fill="white"/>
<path opacity="0.4" d="M85.3662 84.5743L85.815 84.7905C90.0256 78.4053 94.6482 71.0409 99.3198 62.6932C94.4809 71.0409 89.6992 78.336 85.3662 84.5743Z" fill="white"/>
<path opacity="0.4" d="M84.0771 83.9051L84.5259 84.1499C89.014 78.1645 94.0609 71.0082 99.1568 62.6809C94.5092 70.0173 89.4755 77.102 84.0771 83.9051Z" fill="white"/>
<path opacity="0.4" d="M82.8242 83.1708C82.9711 83.2646 83.1261 83.3503 83.2771 83.44C88.9395 76.8447 94.1935 69.9094 99.0096 62.6729C94.0809 69.8612 88.6735 76.7093 82.8242 83.1708Z" fill="white"/>
<path opacity="0.4" d="M81.5723 82.3588L82.017 82.6648C88.1271 76.4429 93.7483 69.7591 98.8307 62.6729C93.6428 69.7094 87.8694 76.2948 81.5723 82.3588Z" fill="white"/>
<path opacity="0.4" d="M98.6666 62.6484C92.1019 70.8696 85.68 77.1406 80.376 81.4736L80.8125 81.8122C87.3607 76.0076 93.3393 69.5905 98.6666 62.6484Z" fill="white"/>
<path opacity="0.4" d="M98.5041 62.6361C91.511 70.7961 84.677 76.7611 79.2139 80.5147L79.6464 80.8859C85.036 76.8957 91.6946 70.8165 98.5041 62.6361Z" fill="white"/>
<path opacity="0.4" d="M98.3289 62.6238C90.9155 70.7226 83.6939 76.3367 78.1084 79.4701C78.243 79.6088 78.3777 79.7475 78.5164 79.8781C84.0489 76.4917 91.1114 70.743 98.3289 62.6238Z" fill="white"/>
<path opacity="0.4" d="M98.1784 62.6075C90.3611 70.6247 82.7641 75.8675 77.0889 78.3563L77.4969 78.8011C83.115 76.0389 90.5406 70.6492 98.1784 62.6075Z" fill="white"/>
<path opacity="0.4" d="M76.1494 77.165C76.2677 77.3282 76.3901 77.4914 76.5125 77.6505C82.2041 75.5493 89.9765 70.535 98.0182 62.5953C89.8133 70.4983 81.8737 75.3494 76.1494 77.165Z" fill="white"/>
<path opacity="0.4" d="M75.3174 75.9247C75.4235 76.096 75.5336 76.2674 75.6438 76.4388C81.3558 75.0026 89.4668 70.3881 97.8553 62.5668C89.3036 70.3432 81.0498 74.7864 75.3174 75.9247Z" fill="white"/>
<path opacity="0.4" d="M74.6074 74.6639C74.6972 74.8434 74.791 75.0189 74.8849 75.1984C80.5969 74.4232 88.9854 70.2167 97.6921 62.5708C88.8426 70.1433 80.3194 74.1743 74.6074 74.6639Z" fill="white"/>
<path opacity="0.4" d="M74.0283 73.3746C74.1018 73.5542 74.1793 73.7378 74.2568 73.9173C79.9362 73.7786 88.5368 69.9882 97.5128 62.5422C88.4348 69.9107 79.6995 73.5174 74.0283 73.3746Z" fill="white"/>
<path opacity="0.4" d="M100.291 88.0708H100.719C100.85 79.6388 100.986 71.1959 101.127 62.7422C100.842 71.1905 100.563 79.6334 100.291 88.0708Z" fill="white"/>
<path opacity="0.4" d="M101.67 88.079H102.102C101.83 79.647 101.558 71.2041 101.286 62.7504L101.67 88.079Z" fill="white"/>
<path opacity="0.4" d="M103.049 88.0422H103.481C102.801 79.6374 102.121 71.2054 101.441 62.7462C101.977 71.1945 102.513 79.6265 103.049 88.0422Z" fill="white"/>
<path opacity="0.4" d="M104.449 87.9566L104.881 87.9239C103.793 79.5817 102.705 71.1878 101.617 62.7422C102.553 71.1878 103.497 79.5926 104.449 87.9566Z" fill="white"/>
<path opacity="0.4" d="M105.807 87.8259L106.24 87.7729C104.76 79.5286 103.264 71.1836 101.752 62.738C103.115 71.1836 104.466 79.5463 105.807 87.8259Z" fill="white"/>
<path opacity="0.4" d="M107.182 87.6423L107.618 87.5771C105.742 79.4579 103.844 71.1782 101.927 62.738C103.689 71.1809 105.441 79.4824 107.182 87.6423Z" fill="white"/>
<path opacity="0.4" d="M108.554 87.4097L108.99 87.3281C106.724 79.3694 104.425 71.1713 102.091 62.7339C104.261 71.1713 106.416 79.3966 108.554 87.4097Z" fill="white"/>
<path opacity="0.4" d="M109.916 87.1243L110.361 87.0223C107.717 79.2703 104.992 71.1633 102.254 62.73C104.841 71.1647 107.395 79.2961 109.916 87.1243Z" fill="white"/>
<path opacity="0.4" d="M111.279 86.7897L111.719 86.6632C108.708 79.1275 105.571 71.1592 102.417 62.7218C105.416 71.1511 108.402 79.152 111.279 86.7897Z" fill="white"/>
<path opacity="0.4" d="M112.629 86.3939L113.078 86.247C109.704 78.9765 106.142 71.151 102.58 62.7177C105.999 71.1347 109.394 79.0213 112.629 86.3939Z" fill="white"/>
<path opacity="0.4" d="M113.971 85.9411L114.42 85.7738C110.707 78.8011 106.742 71.1185 102.743 62.7096C106.582 71.1185 110.389 78.8542 113.971 85.9411Z" fill="white"/>
<path opacity="0.4" d="M115.302 85.4311C115.453 85.3658 115.608 85.3087 115.755 85.2434C111.716 78.6093 107.334 71.0981 102.907 62.7014C107.171 71.0981 111.385 78.6665 115.302 85.4311Z" fill="white"/>
<path opacity="0.4" d="M116.619 84.8639L117.072 84.6477C112.727 78.393 107.925 71.0776 103.069 62.6973C107.757 71.0694 112.392 78.4583 116.619 84.8639Z" fill="white"/>
<path opacity="0.4" d="M117.913 84.2233C118.064 84.1458 118.215 84.0601 118.361 83.9785C112.943 77.1517 107.89 70.0425 103.225 62.6809C108.349 71.0449 113.425 78.2216 117.913 84.2233Z" fill="white"/>
<path opacity="0.4" d="M119.194 83.5174L119.651 83.2482C113.776 76.763 108.346 69.889 103.396 62.6727C108.231 69.9378 113.507 76.8991 119.194 83.5174Z" fill="white"/>
<path opacity="0.4" d="M103.56 62.6606C108.662 69.7801 114.308 76.494 120.447 82.7424L120.9 82.4364C114.571 76.3465 108.77 69.7309 103.56 62.6606Z" fill="white"/>
<path opacity="0.4" d="M103.723 62.6483C109.075 69.6237 115.087 76.0672 121.675 81.8896C121.826 81.7795 121.968 81.6652 122.115 81.551C116.795 77.218 110.324 70.9185 103.723 62.6483Z" fill="white"/>
<path opacity="0.4" d="M103.886 62.6361C110.74 70.8655 117.439 76.9691 122.845 80.9594C122.992 80.837 123.143 80.7146 123.286 80.5881C117.803 76.8427 110.924 70.8614 103.886 62.6361Z" fill="white"/>
<path opacity="0.4" d="M104.04 62.6239C111.323 70.7839 118.422 76.5734 123.971 79.9557C124.114 79.8211 124.248 79.6783 124.379 79.5477C118.789 76.4184 111.515 70.7839 104.04 62.6239Z" fill="white"/>
<path opacity="0.4" d="M104.212 62.6075C111.911 70.7104 119.394 76.1246 125.02 78.8663L125.428 78.4175C119.753 75.9573 112.094 70.6941 104.212 62.6075Z" fill="white"/>
<path opacity="0.4" d="M126.028 77.7076C126.155 77.5444 126.273 77.3812 126.395 77.214C120.663 75.4392 112.65 70.5717 104.363 62.5953C112.474 70.6044 120.324 75.635 126.028 77.7076Z" fill="white"/>
<path opacity="0.4" d="M126.914 76.4794L127.249 75.9572C121.508 74.876 113.177 70.4206 104.535 62.5789C113.017 70.4655 121.177 75.0922 126.914 76.4794Z" fill="white"/>
<path opacity="0.4" d="M127.705 75.2106C127.803 75.0311 127.897 74.8516 127.99 74.668C122.278 74.26 113.665 70.2249 104.734 62.5626C113.498 70.2901 121.993 74.5048 127.705 75.2106Z" fill="white"/>
<path opacity="0.4" d="M104.856 62.5422C113.93 70.0739 122.645 73.8642 128.316 73.9214C128.398 73.7378 128.476 73.5542 128.553 73.3706C122.89 73.6031 114.061 69.9923 104.856 62.5422Z" fill="white"/>
</g>
<path opacity="0.2" d="M89.3523 63.3501C87.806 67.3159 89.4788 78.8541 100.638 78.8541C111.796 78.8541 115.848 70.7472 115.395 65.7369L130.291 63.3379C130.291 63.3379 134.857 75.9533 125.162 84.7783C115.468 93.6033 81.8655 93.0321 74.7622 86.3246C67.6589 79.6171 71.6002 66.3653 71.6002 66.3653L89.3523 63.3501Z" fill="black"/>
<path d="M154.73 46.2386V43.456C154.73 43.3531 154.763 43.2527 154.824 43.1697C154.885 43.0868 154.971 43.0255 155.069 42.995L157.109 42.3585V39.5759C157.109 39.2427 157.242 38.923 157.477 38.6874C157.713 38.4517 158.032 38.3193 158.366 38.3193H160.814C160.934 38.317 161.051 38.3617 161.139 38.4439C161.228 38.5261 161.281 38.6394 161.287 38.7599V39.6575C161.287 39.7802 161.239 39.8979 161.152 39.985C161.066 40.0721 160.949 40.1216 160.826 40.1227H157.713V42.844C157.711 42.9261 157.689 43.0064 157.649 43.0777C157.608 43.149 157.55 43.2089 157.48 43.252L155.742 44.3047V46.2427L154.73 46.2386Z" fill="#999999" stroke="#263238" stroke-linecap="round" stroke-linejoin="round"/>
<path d="M157.415 46.2386H154.73V54.2681H157.415V46.2386Z" fill="#263238"/>
<path d="M160.772 45.5573H157.414V54.9494H160.772V45.5573Z" fill="#757575"/>
<path opacity="0.2" d="M160.764 51.2773H157.414V54.9493H160.764V51.2773Z" fill="black"/>
<path d="M160.772 45.5573H157.414V54.9494H160.772V45.5573Z" stroke="#263238" stroke-linecap="round" stroke-linejoin="round"/>
<path d="M45.1659 54.264H47.8506V46.2346H45.1659V54.264Z" fill="#263238"/>
<path d="M41.8082 54.9454H45.166V45.5533H41.8082V54.9454Z" fill="#757575"/>
<path opacity="0.2" d="M45.1703 51.2773H41.8125V54.8596H45.1703V51.2773Z" fill="black"/>
<path d="M41.8082 54.9454H45.166V45.5533H41.8082V54.9454Z" stroke="#263238" stroke-linecap="round" stroke-linejoin="round"/>
<path d="M47.4466 50.7307C47.689 50.0947 47.7265 49.3988 47.5539 48.7404C47.3812 48.082 47.007 47.494 46.4837 47.0587L44.509 45.4267C44.3833 45.3209 44.2372 45.242 44.0797 45.1951C43.9223 45.1482 43.7568 45.1343 43.5937 45.1542C43.4306 45.1741 43.2734 45.2274 43.1318 45.3108C42.9902 45.3942 42.8674 45.5059 42.7709 45.6389L34.9414 56.4387C34.7924 56.6407 34.7123 56.8853 34.7129 57.1363V68.7358C34.7129 68.8915 34.7438 69.0456 34.8039 69.1893C34.8639 69.3329 34.952 69.4632 35.0628 69.5725C35.1736 69.6818 35.3051 69.768 35.4496 69.8261C35.594 69.8842 35.7486 69.913 35.9043 69.9108C36.2159 69.9108 36.5148 69.787 36.7351 69.5667C36.9555 69.3463 37.0793 69.0474 37.0793 68.7358V59.3151C37.08 59.0825 37.1527 58.8559 37.2874 58.6663L43.1422 50.5063C43.1934 50.4347 43.259 50.3745 43.3348 50.3295C43.4105 50.2845 43.4948 50.2557 43.5822 50.245C43.6697 50.2342 43.7584 50.2418 43.8427 50.2671C43.9271 50.2924 44.0053 50.335 44.0724 50.3921L45.1495 51.306C45.4162 51.5323 45.7545 51.6567 46.1042 51.6569C46.3951 51.6552 46.6787 51.5659 46.9181 51.4007C47.1576 51.2355 47.3417 51.0021 47.4466 50.7307Z" fill="white" stroke="#263238" stroke-linecap="round" stroke-linejoin="round"/>
<path d="M45.8304 49.674C46.1392 49.674 46.3894 49.4237 46.3894 49.115C46.3894 48.8063 46.1392 48.556 45.8304 48.556C45.5217 48.556 45.2715 48.8063 45.2715 49.115C45.2715 49.4237 45.5217 49.674 45.8304 49.674Z" fill="#999999" stroke="#263238" stroke-linecap="round" stroke-linejoin="round"/>
<path d="M152.242 42.3586H50.3438V58.1401H152.242V42.3586Z" fill="#263238"/>
<path opacity="0.2" d="M150.768 43.5459H51.775C51.464 43.5459 51.2119 43.798 51.2119 44.1089V46.663C51.2119 46.974 51.464 47.2261 51.775 47.2261H150.768C151.079 47.2261 151.331 46.974 151.331 46.663V44.1089C151.331 43.798 151.079 43.5459 150.768 43.5459Z" fill="white"/>
<path d="M143.118 61.3142H59.4777C57.1206 55.9265 55.8718 50.1197 55.8057 44.2394H146.806C146.806 52.1464 143.118 61.3142 143.118 61.3142Z" fill="white"/>
<g opacity="0.7">
<path opacity="0.7" d="M66.2441 60.0333C66.2441 60.0333 68.0761 59.9354 69.1001 59.3193C70.1242 58.7032 70.0508 59.8742 70.6383 59.9517C71.2258 60.0292 72.613 59.5437 73.3474 59.5437C74.0818 59.5437 73.5229 59.9925 74.3511 59.9517C75.1793 59.9109 74.7346 59.9925 75.1671 59.9109L78.7126 59.3193C78.7126 59.3193 80.5119 58.9725 80.875 59.1479C81.2381 59.3234 81.7155 60.1883 82.2459 59.9639C82.7763 59.7395 82.4948 59.5559 83.2945 59.5559C83.7888 59.5582 84.2805 59.6297 84.7551 59.7681C84.7551 59.7681 84.8285 59.56 85.1957 59.5559H85.8526C85.8526 59.5559 87.2439 59.9231 87.4642 59.9231C87.6845 59.9231 89.3288 59.56 89.3859 59.5559C89.443 59.5519 91.0179 59.1479 91.0179 59.1479C91.352 59.4972 91.7753 59.7483 92.2419 59.8742C92.8376 59.9517 93.4659 59.7926 93.9147 59.9925C94.3635 60.1924 95.8405 59.9109 95.8405 59.9109C96.1928 59.9132 96.5446 59.9405 96.8931 59.9925C97.3501 60.0968 97.8262 60.0828 98.2762 59.9517C99.1036 59.733 99.9718 59.719 100.806 59.9109C102.132 60.1516 103.352 59.5478 103.915 59.5437C104.478 59.5396 106.73 59.7926 107.505 59.7926C108.28 59.7926 110.333 60.07 111.761 59.9109C113.189 59.7518 114.123 60.1108 115.082 60.1108C116.041 60.1108 117.065 60.07 117.285 60.07C117.505 60.07 118.566 59.3764 120.084 59.5437C121.602 59.711 120.251 59.3356 121.185 59.5437C122.12 59.7518 122.858 59.9517 123.254 59.9925C123.571 60.011 123.89 59.9973 124.205 59.9517L125.837 59.8334H133.972" stroke="#263238" stroke-linecap="round" stroke-linejoin="round"/>
<path opacity="0.7" d="M64.5508 56.8835C64.5508 56.8835 69.5896 56.8835 70.4994 56.8019C71.4093 56.7203 71.8948 56.2552 72.3803 56.2552C72.8658 56.2552 75.3179 56.7203 75.3179 56.7203C75.3894 56.5681 75.5062 56.4418 75.6523 56.3585C75.7983 56.2753 75.9665 56.2392 76.1339 56.2552C76.7989 56.2552 76.4603 56.3164 77.0723 56.5612C77.6843 56.806 77.3661 56.5612 77.6884 56.8019C78.1689 57.0177 78.6769 57.1659 79.198 57.2425C79.198 57.2425 81.4705 57.3486 81.5562 56.8019C81.6419 56.2552 82.7802 57.2425 82.7802 57.2425C82.7802 57.2425 85.8647 56.8019 87.056 56.8019C88.2474 56.8019 91.234 56.5612 91.234 56.5612C91.234 56.5612 93.682 56.8835 93.7962 56.8835C93.9104 56.8835 94.3144 57.524 94.7509 57.2425C95.1875 56.961 95.6077 56.6387 96.1259 56.7203C96.6071 56.8396 97.0727 57.0149 97.5131 57.2425L98.6514 56.6387L99.957 56.7203C99.957 56.7203 101.287 57.6056 102.238 57.2425C102.961 56.9532 103.668 56.6236 104.355 56.2552L105.526 57.2425H106.293L108.566 56.8019C108.741 57.0168 108.976 57.1739 109.242 57.2526C109.508 57.3312 109.791 57.3277 110.055 57.2425C111.018 56.9651 120.218 57.2425 122.56 57.2425C124.902 57.2425 125.416 56.6387 125.416 56.6387L127.22 57.2425H136.196" stroke="#263238" stroke-linecap="round" stroke-linejoin="round"/>
</g>
<path opacity="0.2" d="M143.971 58.9561C143.478 60.4249 143.119 61.3143 143.119 61.3143H59.4787C59.4787 61.3143 59.0707 60.4575 58.5117 58.9561H143.971Z" fill="black"/>
<path opacity="0.2" d="M145.714 52.7789C145.432 54.0029 145.122 55.1984 144.816 56.2551H57.602C57.3001 55.2188 56.99 54.0478 56.7207 52.7789H145.714Z" fill="black"/>
<path d="M143.118 61.3142H59.4777C57.1206 55.9265 55.8718 50.1197 55.8057 44.2394H146.806C146.806 52.1464 143.118 61.3142 143.118 61.3142Z" stroke="#263238" stroke-linecap="round" stroke-linejoin="round"/>
<path d="M50.3239 41.5465H47.8311V58.96H50.3239V41.5465Z" fill="#757575"/>
<path opacity="0.2" d="M50.2733 53.7948H47.8457V58.9601H50.2733V53.7948Z" fill="black"/>
<path d="M50.3239 41.5465H47.8311V58.96H50.3239V41.5465Z" stroke="#263238" stroke-linecap="round" stroke-linejoin="round"/>
<path d="M154.751 41.5465H152.258V58.96H154.751V41.5465Z" fill="#757575"/>
<path opacity="0.2" d="M154.75 53.7948H152.236V58.9601H154.75V53.7948Z" fill="black"/>
<path d="M154.751 41.5465H152.258V58.96H154.751V41.5465Z" stroke="#263238" stroke-linecap="round" stroke-linejoin="round"/>
<path d="M152.278 40.8163V53.5173H50.3024V40.8163H49.3232V54.37H153.257V40.8163H152.278Z" fill="#999999" stroke="#263238" stroke-linecap="round" stroke-linejoin="round"/>
<path d="M158.305 62.2119V90.6943C158.305 91.1748 158.114 91.6355 157.774 91.9753C157.434 92.315 156.974 92.5058 156.493 92.5058H46.0762C45.5957 92.5058 45.135 92.315 44.7952 91.9753C44.4555 91.6355 44.2646 91.1748 44.2646 90.6943V62.2119C44.2646 61.7314 44.4555 61.2707 44.7952 60.9309C45.135 60.5912 45.5957 60.4004 46.0762 60.4004H96.9538V62.2119C96.9538 62.2119 88.2675 69.7476 73.2898 72.5261C75.4359 82.2406 87.1618 89.6621 101.311 89.6621C115.461 89.6621 127.187 82.2324 129.337 72.5261C114.339 69.7476 105.652 62.2119 105.652 62.2119V60.384H156.506C156.744 60.3856 156.979 60.4342 157.199 60.527C157.418 60.6198 157.617 60.7549 157.784 60.9247C157.951 61.0945 158.083 61.2956 158.173 61.5164C158.262 61.7373 158.307 61.9736 158.305 62.2119Z" fill="white" stroke="#263238" stroke-linecap="round" stroke-linejoin="round"/>
<path d="M158.304 62.2117V90.6942C158.304 90.9325 158.257 91.1683 158.166 91.3884C158.074 91.6084 157.941 91.8083 157.772 91.9766C157.603 92.1449 157.403 92.2782 157.183 92.369C156.963 92.4598 156.727 92.5063 156.488 92.5057H46.0754C45.8371 92.5063 45.6011 92.4598 45.3809 92.369C45.1606 92.2782 44.9604 92.1449 44.7918 91.9766C44.6231 91.8083 44.4893 91.6084 44.398 91.3884C44.3068 91.1683 44.2598 90.9325 44.2598 90.6942V62.2117C44.2608 61.7306 44.4525 61.2694 44.7927 60.9291C45.133 60.5889 45.5942 60.3972 46.0754 60.3962H96.953V62.2117C96.953 62.2117 88.2626 69.7434 73.289 72.526C75.435 82.2405 87.161 89.662 101.314 89.662C115.468 89.662 127.186 82.2323 129.336 72.526C114.338 69.7434 105.652 62.2117 105.652 62.2117V60.3839H156.505C156.985 60.3882 157.445 60.5831 157.782 60.9258C158.12 61.2684 158.307 61.7309 158.304 62.2117Z" fill="white"/>
<path opacity="0.2" d="M155.856 62.6484V88.944C155.856 89.1188 155.822 89.2919 155.755 89.4533C155.687 89.6147 155.589 89.7612 155.465 89.8845C155.341 90.0077 155.194 90.1052 155.032 90.1714C154.87 90.2375 154.697 90.271 154.522 90.27H47.161C46.9867 90.2705 46.814 90.2366 46.6529 90.1701C46.4918 90.1037 46.3454 90.006 46.2221 89.8828C46.0989 89.7595 46.0013 89.6132 45.9348 89.452C45.8684 89.2909 45.8344 89.1182 45.835 88.944V62.6484C45.8344 62.4737 45.8683 62.3006 45.9347 62.1391C46.001 61.9775 46.0985 61.8306 46.2217 61.7067C46.3448 61.5828 46.4911 61.4844 46.6523 61.417C46.8134 61.3497 46.9863 61.3147 47.161 61.3142H96.937V62.2118C96.937 62.2118 88.2466 69.7435 73.273 72.526C75.419 82.2405 87.145 89.662 101.298 89.662C115.452 89.662 127.17 82.2324 129.32 72.526C114.322 69.7435 105.636 62.2118 105.636 62.2118V61.3142H154.534C154.886 61.3174 155.222 61.4594 155.47 61.7093C155.717 61.9591 155.856 62.2966 155.856 62.6484Z" fill="white"/>
<path d="M158.304 62.2117V90.6942C158.304 90.9325 158.257 91.1683 158.166 91.3884C158.074 91.6084 157.941 91.8083 157.772 91.9766C157.603 92.1449 157.403 92.2782 157.183 92.369C156.963 92.4598 156.727 92.5063 156.488 92.5057H46.0754C45.8371 92.5063 45.6011 92.4598 45.3809 92.369C45.1606 92.2782 44.9604 92.1449 44.7918 91.9766C44.6231 91.8083 44.4893 91.6084 44.398 91.3884C44.3068 91.1683 44.2598 90.9325 44.2598 90.6942V62.2117C44.2608 61.7306 44.4525 61.2694 44.7927 60.9291C45.133 60.5889 45.5942 60.3972 46.0754 60.3962H96.953V62.2117C96.953 62.2117 88.2626 69.7434 73.289 72.526C75.435 82.2405 87.161 89.662 101.314 89.662C115.468 89.662 127.186 82.2323 129.336 72.526C114.338 69.7434 105.652 62.2117 105.652 62.2117V60.3839H156.505C156.985 60.3882 157.445 60.5831 157.782 60.9258C158.12 61.2684 158.307 61.7309 158.304 62.2117V62.2117Z" stroke="#263238" stroke-linecap="round" stroke-linejoin="round"/>
<path opacity="0.2" d="M121.829 100.947L127.251 116.072C127.251 116.072 129.597 99.4255 130.996 99.4255C132.396 99.4255 135.411 108.528 135.411 108.528C135.411 108.528 137.271 103.779 139.034 103.608C140.796 103.436 142.392 115.268 142.392 115.268L142.665 141.531L140.441 181.25C140.441 181.25 126.255 165.624 122.118 161.597C117.981 157.57 114.028 148.708 112.885 146.909C111.743 145.109 111.453 135.689 111.453 135.689C112.899 133.838 113.655 131.541 113.591 129.193C113.591 129.193 116.92 123.62 116.716 119.507C116.512 115.395 115.998 99.4133 121.829 100.947Z" fill="black" fill-opacity="0.7"/>
<path d="M164.51 174.216L143.033 185.514C143.033 185.399 140.21 180.826 136.799 175.652C135.257 173.31 133.592 170.85 132.013 168.622C129.426 164.979 126.138 161.833 125.856 161.148C125.04 159.108 118.749 151.47 117.341 148.5C115.934 145.53 115.611 136.288 114.991 134.114C114.371 131.939 116.15 129.862 117.578 128.851C119.006 127.839 120.503 125.179 120.503 125.179C120.503 125.179 118.924 119.026 118.908 115.897C118.892 112.767 117.827 101.845 119.1 100.825C120.373 99.805 121.511 100.233 121.829 100.935C122.874 103.249 123.812 109.067 124.616 111.747C125.42 114.428 126.929 122.204 127.672 122.763C128.414 123.322 129.736 121.225 129.736 121.225C129.736 121.225 129.863 114.697 130.144 111.992L129.736 103.424C129.736 103.424 128.973 98.275 130.748 97.7854C133.196 97.1122 134.09 98.6504 134.367 99.2991C134.645 99.9478 135.787 103.685 135.787 103.685L135.852 103.942C135.852 103.967 135.852 103.991 135.852 104.02V104.065C135.871 104.135 135.892 104.213 135.913 104.297C135.958 104.468 136.011 104.672 136.068 104.905C136.611 107.031 137.656 111.286 137.611 112.335C137.55 113.75 137.056 121.592 137.754 123.22L138.839 112.388C138.839 112.388 137.088 104.04 137.598 102.836C138.108 101.633 140.512 102.963 140.797 103.436C141.083 103.91 143.417 106.774 143.833 107.867L144.241 108.961C144.241 108.961 144.816 106.374 146.166 107.047C147.517 107.72 147.684 111.009 147.778 112.445C147.872 113.881 148.851 123.118 149.002 123.134C149.153 123.151 150.712 127.949 150.499 131.119C150.055 137.904 151.23 142.951 151.271 145.554C151.311 148.157 149.349 154.187 149.349 154.187C149.418 154.306 150.699 156.484 151.05 158.398C151.307 159.801 155.881 164.873 159.618 168.908C162.217 171.691 164.396 173.967 164.51 174.216Z" fill="white"/>
<path opacity="0.4" d="M136.802 175.66C135.259 173.318 133.595 170.858 132.016 168.631C129.429 164.987 126.141 161.841 125.859 161.156C125.043 159.116 118.752 151.478 117.344 148.508C115.937 145.538 115.614 136.297 114.994 134.122C114.374 131.947 116.153 129.871 117.581 128.859C119.009 127.847 120.506 125.187 120.506 125.187C120.506 125.187 118.927 119.034 118.911 115.905C118.895 112.775 117.83 101.853 119.103 100.833C120.376 99.8132 121.514 100.242 121.832 100.943C122.877 103.257 123.815 109.075 124.619 111.755C125.423 114.436 126.932 122.212 127.675 122.771C128.417 123.33 129.739 121.233 129.739 121.233C129.739 121.233 129.866 114.705 130.147 112L129.739 103.432C129.739 103.432 128.976 98.2832 130.751 97.7936C133.199 97.1204 134.093 98.6586 134.37 99.3073C134.647 99.956 135.79 103.693 135.79 103.693L135.855 103.95C135.855 103.975 135.855 103.999 135.855 104.028V104.073C135.872 104.143 135.892 104.221 135.916 104.305C135.961 104.477 136.014 104.681 136.071 104.913C135.439 103.914 134.57 103.061 133.407 102.836C130.143 102.2 130.849 105.831 131.159 108.01C131.335 109.456 131.301 110.919 131.057 112.355L131.873 111.886C131.286 112.934 130.445 121.649 130.445 123.587C130.445 125.525 128.911 126.17 127.536 125.603C126.161 125.036 125.671 116.141 124.627 114.546C123.583 112.951 120.678 115.999 120.547 118.785C120.416 121.572 123.015 129.883 122.399 131.841C121.783 133.8 121.791 141.225 121.791 141.225L121.041 139.312C121.09 139.573 121.041 140.45 119.47 143.033C118.88 143.967 118.498 145.018 118.351 146.114C118.204 147.209 118.295 148.324 118.617 149.381C119.576 151.499 124.439 157.08 125.255 157.655C125.255 157.655 125.847 155.232 127.703 155.876C127.071 156.881 126.611 157.984 126.341 159.14C125.957 160.919 129.829 162.058 131.041 163.751C131.783 164.783 132.281 167.929 136.802 175.66Z" fill="white"/>
<path opacity="0.4" d="M159.642 168.912C155.824 165.065 149.104 161.401 149.512 160.442C150.059 159.153 149.365 156.407 148.19 154.179C147.015 151.951 148.598 148.337 148.598 148.337L149.324 150.438C149.905 148.014 149.973 145.496 149.524 143.045C148.782 138.879 148.202 140.344 148.202 140.344C148.202 140.344 148.353 136.59 149.018 134.542C149.683 132.494 150.242 127.52 149.324 124.579C148.406 121.637 146.468 122.192 145.95 123.204C145.432 124.216 145.987 128.161 146.415 129.454C146.844 130.748 145.02 132.922 144.983 131.307C144.946 129.691 144.257 125.187 144.257 125.187L145.64 116.141L144.257 108.956C144.257 108.956 144.832 106.37 146.183 107.043C147.533 107.716 147.7 111.005 147.794 112.441C147.888 113.877 148.867 123.114 149.018 123.13C149.169 123.147 150.728 127.945 150.516 131.115C150.071 137.9 151.246 142.947 151.287 145.55C151.327 148.153 149.365 154.183 149.365 154.183C149.434 154.301 150.715 156.48 151.066 158.394C151.323 159.797 155.897 164.869 159.634 168.904L159.642 168.912Z" fill="white"/>
<path opacity="0.4" d="M143.832 107.867C143.91 108.071 143.975 108.238 144.024 108.373C142.727 105.358 140.515 106.292 140.124 107.149C139.732 108.006 141.05 113.322 141.348 114.146C141.646 114.97 140.165 121.551 139.948 123.73C139.732 125.909 139.157 126.353 139.157 126.353C137.692 126.464 137.525 122.42 137.525 121.865C137.553 122.33 137.644 122.788 137.794 123.228L138.879 112.396C138.879 112.396 137.088 104.04 137.598 102.836C138.108 101.633 140.511 102.963 140.797 103.436C141.083 103.909 143.416 106.774 143.832 107.867Z" fill="white"/>
<path d="M164.509 174.216C164.232 173.588 151.49 160.752 151.045 158.394C150.686 156.427 149.34 154.179 149.34 154.179C149.34 154.179 151.302 148.161 151.261 145.546C151.22 142.931 150.037 137.896 150.49 131.111C150.702 127.941 149.148 123.143 148.993 123.126C148.838 123.11 147.859 113.873 147.769 112.437C147.679 111 147.512 107.712 146.157 107.039C144.803 106.366 144.231 108.952 144.231 108.952L143.823 107.859C143.415 106.765 141.074 103.901 140.788 103.428C140.502 102.955 138.103 101.621 137.589 102.828C137.075 104.036 138.866 112.371 138.866 112.371L137.789 123.216C137.091 121.584 137.585 113.746 137.646 112.331C137.708 110.915 135.79 103.681 135.79 103.681C135.79 103.681 134.639 99.96 134.37 99.2909C134.101 98.6218 133.199 97.104 130.751 97.7772C128.976 98.2668 129.739 103.416 129.739 103.416L130.147 111.984C129.874 114.701 129.739 121.217 129.739 121.217C129.739 121.217 128.417 123.31 127.675 122.755C126.932 122.2 125.423 114.428 124.619 111.739C123.815 109.05 122.877 103.24 121.832 100.927C121.514 100.225 120.376 99.7968 119.103 100.817C117.83 101.837 118.891 112.755 118.911 115.888C118.931 119.022 120.506 125.17 120.506 125.17C120.506 125.17 119.009 127.814 117.581 128.842C116.153 129.87 114.374 131.927 114.994 134.106C115.614 136.284 115.937 145.53 117.344 148.492C118.752 151.454 125.027 159.1 125.859 161.14C126.141 161.825 129.429 164.971 132.016 168.614C137.096 175.766 143.032 185.342 143.032 185.505" stroke="#263238" stroke-linecap="round" stroke-linejoin="round"/>
<path d="M120.502 125.191C120.502 125.191 121.514 130.205 121.477 131.045C121.477 131.045 120.591 134.917 120.583 137.427C119.964 138.372 119.408 139.357 118.919 140.376C118.576 141.282 117.964 143.51 118.217 144.75" stroke="#263238" stroke-linecap="round" stroke-linejoin="round"/>
<path d="M118.653 132.6C118.653 132.6 121.134 132.62 120.975 133.665" stroke="#263238" stroke-linecap="round" stroke-linejoin="round"/>
<path d="M120.584 137.427C120.584 137.427 118.993 136.737 118.434 137.663" stroke="#263238" stroke-linecap="round" stroke-linejoin="round"/>
<path d="M129.743 121.233C129.743 121.233 129.629 125.076 128.617 124.77" stroke="#263238" stroke-linecap="round" stroke-linejoin="round"/>
<path d="M137.789 123.216C137.789 123.216 137.495 125.317 138.286 125.966" stroke="#263238" stroke-linecap="round" stroke-linejoin="round"/>
<path d="M144.244 108.96C144.244 108.96 145.346 114.264 145.599 115.521C145.852 116.778 144.346 123.191 144.375 124.86C144.403 126.529 145.117 128.916 145.019 130.038" stroke="#263238" stroke-linecap="round" stroke-linejoin="round"/>
<path d="M148.643 149.242C148.643 149.242 148.288 152.706 149.353 154.187" stroke="#263238" stroke-linecap="round" stroke-linejoin="round"/>
<path d="M127.25 156.097C127.25 156.097 124.876 158.259 125.745 160.919" stroke="#263238" stroke-linecap="round" stroke-linejoin="round"/>
<path d="M142.857 129.136C142.894 130.662 142 132.441 141.906 134.55" stroke="#263238" stroke-linecap="round" stroke-linejoin="round"/>
<path d="M135.293 127.773C135.799 129.022 134.697 131.739 134.53 132.759C134.463 133.557 134.55 134.36 134.787 135.125" stroke="#263238" stroke-linecap="round" stroke-linejoin="round"/>
<path d="M149.511 132.074C149.307 133.4 148.369 134.346 148.189 138.426" stroke="#263238" stroke-linecap="round" stroke-linejoin="round"/>
<path d="M126.344 127.386C127.029 128.133 126.568 131.698 126.752 132.282" stroke="#263238" stroke-linecap="round" stroke-linejoin="round"/>
<path d="M139.127 106.843C139.127 106.843 141.461 105.133 143.468 107.149" stroke="#263238" stroke-linecap="round" stroke-linejoin="round"/>
<path d="M131.091 102.914C131.091 102.914 131.499 102.233 133.469 102.4C135.44 102.567 135.791 103.677 135.791 103.677" stroke="#263238" stroke-linecap="round" stroke-linejoin="round"/>
<path d="M125.333 114.562C125.333 114.562 124.672 113.587 122.929 113.909C121.187 114.232 120.412 116.696 120.412 116.696" fill="white"/>
<path d="M125.333 114.562C125.333 114.562 124.672 113.587 122.929 113.909C121.187 114.232 120.412 116.696 120.412 116.696" stroke="#263238" stroke-linecap="round" stroke-linejoin="round"/>
<path d="M149.005 123.134C149.005 123.134 147.553 121.029 145.807 121.931" stroke="#263238" stroke-linecap="round" stroke-linejoin="round"/>
<path opacity="0.2" d="M87.1281 107.712C89.5761 109.609 87.5116 121.254 87.5116 121.254L87.7279 125.044L91.9262 123.216L93.8397 131.315C93.8397 131.315 93.7908 134.281 95.3452 135.395C95.3452 135.395 95.7288 142.049 95.3452 146.913C94.9617 151.776 87.1852 157.492 84.5047 162.596C81.8241 167.7 64.3413 182.702 64.3413 182.702L49.5391 175.66L60.2409 132.437L69.8289 120.111L75.5124 105.933C75.5124 105.933 76.4875 115.195 75.9204 121.437L87.1281 107.712Z" fill="black" fill-opacity="0.7"/>
<path d="M91.2493 133.579C90.878 135.366 91.7715 145.162 91.6165 146.484C91.4614 147.806 83.6686 156.684 83.277 157.357C82.8853 158.031 77.6751 161.029 76.4634 162.461C70.8003 169.067 67.7077 175.15 65.223 181.25C64.7456 182.425 64.2886 183.604 63.8398 184.787L41.3672 171.731C43.2562 169.389 45.0392 167.308 46.6712 165.415C49.9352 161.576 52.5342 158.504 53.8071 155.603C54.1978 154.862 54.6452 154.153 55.1454 153.481C55.6513 152.763 56.1041 152.172 56.1041 152.172C56.1041 152.172 54.4722 147.573 54.8516 146.129C55.231 144.685 54.3824 132.812 54.3824 132.812C54.3824 132.812 53.2767 124.73 52.1874 122.69C51.9198 122.157 51.7987 121.563 51.8365 120.968C51.8895 119.103 52.9707 116.753 53.5011 114.032C54.211 110.36 53.8683 108.544 56.096 109.813C58.3237 111.082 57.2833 118.789 57.2833 118.789L60.6493 126.247C61.5346 124.444 60.6493 119.181 60.6044 117.936C60.6044 117.732 60.6044 117.394 60.5718 116.953C60.5024 114.807 60.3596 110.339 60.5432 108.577C60.5432 108.479 60.5432 108.389 60.5758 108.308C60.8492 106.488 61.8243 100.698 62.4445 100.054C63.3666 99.099 64.8313 98.2952 66.2103 100.462C66.9814 101.686 66.651 111.392 66.651 111.392C66.651 111.392 69.8497 107.532 70.8207 106.59C71.7918 105.647 74.7375 103.926 75.525 105.921C76.3124 107.916 73.4074 114.081 73.4074 114.081C74.0154 115.509 74.0888 119.462 74.0888 119.462C74.0888 119.462 75.4638 124.403 76.3083 124.358H76.345C76.5898 124.305 76.8591 123.408 77.1406 122.147C77.8342 119.058 78.589 113.775 79.1806 113.314L79.5886 112.987C79.6073 112.964 79.6293 112.943 79.6539 112.926L79.8049 112.791C81.2492 111.506 84.2929 108.65 84.2929 108.65C84.2929 108.65 84.5091 107.283 87.1734 107.704C89.8376 108.124 85.9902 115.986 85.9902 115.986C85.4557 118.487 84.6356 124.921 84.6356 124.921C84.3867 127.598 84.5336 134.791 84.5336 134.791C84.5336 134.791 85.7943 130.605 85.7127 129.079C85.6311 127.553 88.2178 123.816 88.9767 122.853C89.7356 121.89 93.122 122.229 92.1795 124.077C91.237 125.925 91.6206 131.784 91.2493 133.579Z" fill="white"/>
<path opacity="0.4" d="M53.7951 155.619C54.1857 154.879 54.6332 154.169 55.1333 153.498C55.1333 153.498 53.8073 157.17 53.6768 159.124C53.5911 160.413 50.1965 162.645 46.6592 165.432C49.9436 161.592 52.5221 158.52 53.7951 155.619Z" fill="white"/>
<path opacity="0.4" d="M55.1338 153.498C55.6397 152.78 56.0926 152.188 56.0926 152.188C56.0926 152.188 54.4606 147.59 54.84 146.146C55.2195 144.701 54.3708 132.829 54.3708 132.829C54.3708 132.829 53.2651 124.746 52.1758 122.706L54.7135 127.141C54.7135 127.141 54.4647 130.646 55.1868 132.567C55.909 134.489 56.8188 140.352 56.8188 140.352C56.8188 140.352 55.7499 145.281 56.113 147.055C56.4761 148.83 58.1122 148.186 58.1122 148.186C58.1122 148.186 58.9159 151.433 55.1338 153.498Z" fill="white"/>
<path opacity="0.4" d="M61.0532 120.111C62.8035 130.36 59.7884 127.524 58.699 125.313C57.6097 123.102 55.0515 118.916 53.1257 119.809C52.5849 120.063 52.1319 120.472 51.8242 120.984C51.8773 119.12 52.9585 116.769 53.4889 114.048C54.1988 110.376 53.8561 108.561 56.0837 109.829C58.3114 111.098 57.271 118.805 57.271 118.805L60.637 126.264C61.5224 124.46 60.637 119.197 60.5921 117.953C60.5921 117.749 60.5921 117.41 60.5595 116.969C60.6941 117.912 60.8573 118.96 61.0532 120.111Z" fill="white"/>
<path opacity="0.4" d="M65.3375 109.985C65.3375 109.985 63.4485 107.512 61.8083 107.639C61.5267 107.654 61.2556 107.751 61.0287 107.919C60.8018 108.086 60.6288 108.316 60.5312 108.581C60.5313 108.483 60.5313 108.393 60.5639 108.312C60.8373 106.492 61.8124 100.703 62.4325 100.058C63.3546 99.1033 64.8193 98.2995 66.1984 100.466C66.9695 101.69 66.639 111.396 66.639 111.396C66.639 111.396 69.8377 107.537 70.8088 106.594C71.7798 105.652 74.7256 103.93 75.513 105.925C76.3004 107.92 73.3955 114.085 73.3955 114.085C74.0034 115.513 74.0768 119.467 74.0768 119.467C74.0768 119.467 75.4518 124.407 76.2964 124.363C74.4359 127.863 73.1956 120.123 73.1956 120.123C73.473 118.524 72.4856 115.056 72.5836 114.142C72.6815 113.228 70.87 109.997 67.8181 110.878C64.7663 111.759 66.9695 123.82 66.9695 123.82C66.3664 124.781 66.0156 125.878 65.9495 127.01C65.007 125.848 65.9495 122.522 65.9495 122.522C65.1131 119.34 65.3375 109.985 65.3375 109.985Z" fill="white"/>
<path opacity="0.4" d="M79.5603 112.975C78.2588 114.342 78.4383 117.798 77.1123 122.135C77.8059 119.046 78.5607 113.763 79.1523 113.302L79.5603 112.975Z" fill="white"/>
<path opacity="0.4" d="M91.2499 133.579C90.8787 135.366 91.7722 145.162 91.6171 146.484C91.4621 147.806 83.6693 156.684 83.2776 157.357C82.886 158.031 77.6758 161.029 76.464 162.461C70.801 169.067 67.7084 175.15 65.2236 181.25C66.1596 178.088 67.2892 174.987 68.6059 171.964C71.2865 165.938 72.38 164.865 73.9875 163.143C75.595 161.421 75.4196 157.761 75.4196 157.761C76.606 157.476 77.8222 157.332 79.0426 157.333C81.0826 157.333 87.121 148.724 89.1977 147.214C91.2744 145.705 91.6457 145.705 89.1977 142.376C86.7497 139.046 87.4433 142.91 86.7089 142.784C85.9745 142.657 85.5747 144.265 85.5747 144.265C85.3176 140.87 83.1267 136.921 82.6656 135.933C82.2046 134.946 83.7836 129.156 83.4572 127.545C83.1308 125.933 84.8607 116.121 84.8607 116.121C84.8607 116.121 84.6444 112.355 81.2336 112.343C80.7101 112.314 80.1931 112.47 79.7729 112.783C81.2172 111.498 84.2609 108.642 84.2609 108.642C84.2609 108.642 84.4771 107.275 87.1414 107.696C89.8056 108.116 85.9582 115.978 85.9582 115.978C85.4237 118.479 84.6036 124.913 84.6036 124.913C84.3547 127.59 84.5016 134.783 84.5016 134.783C84.5016 134.783 85.7624 130.597 85.6807 129.071C85.5991 127.545 88.1859 123.808 88.9447 122.845C89.7036 121.882 93.09 122.22 92.1476 124.069C91.2051 125.917 91.6212 131.784 91.2499 133.579Z" fill="white"/>
<path d="M63.8359 184.824C66.6062 177.509 69.703 170.369 76.4635 162.482C77.6875 161.07 82.8813 158.071 83.2771 157.378C83.6729 156.684 91.4657 147.822 91.6166 146.505C91.7676 145.187 90.8781 135.387 91.2494 133.6C91.6207 131.813 91.1882 125.921 92.1266 124.085C93.065 122.249 89.6786 121.915 88.9238 122.861C88.169 123.808 85.5905 127.578 85.6598 129.087C85.7292 130.597 84.4807 134.799 84.4807 134.799C84.4807 134.799 84.3338 127.606 84.5827 124.93C84.5827 124.93 85.3987 118.495 85.9373 115.994C85.9373 115.994 89.7806 108.128 87.1205 107.712C84.4603 107.296 84.24 108.659 84.24 108.659C84.24 108.659 79.9927 112.649 79.1522 113.302C78.3117 113.954 77.1653 124.154 76.3207 124.346C75.4761 124.538 74.0645 119.45 74.0645 119.45C74.0645 119.45 73.991 115.497 73.3831 114.069C73.3831 114.069 76.284 107.92 75.5006 105.909C74.7173 103.897 71.7715 105.639 70.7964 106.578C69.8213 107.516 66.6266 111.38 66.6266 111.38C66.6266 111.38 66.9571 101.665 66.186 100.45C64.807 98.275 63.33 99.0787 62.4202 100.042C61.8 100.686 60.8249 106.476 60.5515 108.295C60.2782 110.115 60.5515 116.676 60.5801 117.924C60.6086 119.173 61.5103 124.432 60.625 126.235L57.259 118.777C57.259 118.777 58.3034 111.062 56.0717 109.801C53.8399 108.54 54.1867 110.36 53.4768 114.02C52.7669 117.679 51.0778 120.654 52.163 122.698C53.2483 124.742 54.3581 132.82 54.3581 132.82C54.3581 132.82 55.1986 144.693 54.8273 146.137C54.456 147.582 56.0921 152.184 56.0921 152.184C56.0921 152.184 54.2071 154.669 53.795 155.615C51.8938 159.936 47.0834 164.661 41.3633 171.768" stroke="#263238" stroke-linecap="round" stroke-linejoin="round"/>
<path d="M66.6379 111.404C66.1641 112.105 65.9241 112.938 65.9524 113.783C65.9524 115.333 66.9684 123.82 66.9684 123.82C66.9684 123.82 66.2299 124.693 66.1932 125.452" stroke="#263238" stroke-linecap="round" stroke-linejoin="round"/>
<path d="M84.4883 134.779C84.5998 136.212 84.9688 137.613 85.5776 138.916C86.5324 140.801 86.2223 141.841 85.8959 142.955C85.6772 143.932 85.561 144.929 85.5491 145.929" stroke="#263238" stroke-linecap="round" stroke-linejoin="round"/>
<path d="M60.9966 124.575C60.9966 124.575 61.7065 126.827 60.3887 127.896" stroke="#263238" stroke-linecap="round" stroke-linejoin="round"/>
<path d="M76.3336 124.346C76.3336 124.346 76.4723 125.231 75.2197 125.313" stroke="#263238" stroke-linecap="round" stroke-linejoin="round"/>
<path d="M84.7455 114.146C84.7455 114.146 81.6039 110.719 79.1641 113.302" stroke="#263238" stroke-linecap="round" stroke-linejoin="round"/>
<path d="M72.0167 112.22C72.0167 112.22 70.5683 110.389 69.3117 110.499C68.0551 110.609 66.3578 111.376 66.166 112.384" stroke="#263238" stroke-linecap="round" stroke-linejoin="round"/>
<path d="M86.166 141.854C86.6727 142.578 87.042 143.39 87.2554 144.248" stroke="#263238" stroke-linecap="round" stroke-linejoin="round"/>
<path d="M78.0067 127.924C77.0316 129.74 77.4967 132.82 77.1377 133.665" stroke="#263238" stroke-linecap="round" stroke-linejoin="round"/>
<path d="M67.6756 124.909C67.9041 125.954 67.182 127.655 67.0718 128.908C66.9616 130.16 67.9857 132.094 67.798 133.853" stroke="#263238" stroke-linecap="round" stroke-linejoin="round"/>
<path d="M61.0535 129.185C61.0535 129.185 60.2008 131.152 60.2375 132.449C60.2742 133.746 60.7352 136.59 60.7352 136.59" stroke="#263238" stroke-linecap="round" stroke-linejoin="round"/>
<path d="M54.7814 129.091C54.7814 129.091 54.4714 131.131 55.1894 132.567C55.9075 134.004 56.6052 137.055 56.6052 137.055" stroke="#263238" stroke-linecap="round" stroke-linejoin="round"/>
<path d="M56.0908 152.184C56.4669 152.08 56.803 151.865 57.0555 151.567C57.3079 151.27 57.4651 150.903 57.5066 150.515" stroke="#263238" stroke-linecap="round" stroke-linejoin="round"/>
<path d="M76.6027 158.402C76.6027 158.402 77.3819 161.287 75.8887 163.143" stroke="#263238" stroke-linecap="round" stroke-linejoin="round"/>
<path d="M51.8438 120.642C51.8438 120.642 54.0388 118.5 55.6993 120.307" stroke="#263238" stroke-linecap="round" stroke-linejoin="round"/>
<path d="M60.5635 108.312C60.5635 108.312 62.1955 106.602 64.1049 108.43" stroke="#263238" stroke-linecap="round" stroke-linejoin="round"/>
</svg>
