<svg width="213" height="213" viewBox="0 0 213 213" fill="none" xmlns="http://www.w3.org/2000/svg">
<path d="M186.729 71.2911H148.679V157.607H186.729V71.2911Z" stroke="#263238" stroke-width="0.75" stroke-linecap="round" stroke-linejoin="round"/>
<path d="M183.388 74.6309H152.018V154.267H183.388V74.6309Z" stroke="#263238" stroke-width="0.75" stroke-linecap="round" stroke-linejoin="round"/>
<path d="M155.584 109.793L154.728 111.28" stroke="#263238" stroke-width="0.75" stroke-linecap="round" stroke-linejoin="round"/>
<path d="M164.59 94.2014L156.572 108.089" stroke="#263238" stroke-width="0.75" stroke-linecap="round" stroke-linejoin="round"/>
<path d="M171.947 81.4554L165.872 91.9777" stroke="#263238" stroke-width="0.75" stroke-linecap="round" stroke-linejoin="round"/>
<path d="M173.233 79.2317L172.586 80.3478" stroke="#263238" stroke-width="0.75" stroke-linecap="round" stroke-linejoin="round"/>
<path d="M158.136 147.643L157.407 148.904" stroke="#263238" stroke-width="0.75" stroke-linecap="round" stroke-linejoin="round"/>
<path d="M159.823 144.721L159.052 146.063" stroke="#263238" stroke-width="0.75" stroke-linecap="round" stroke-linejoin="round"/>
<path d="M170.111 126.901L161.476 141.862" stroke="#263238" stroke-width="0.75" stroke-linecap="round" stroke-linejoin="round"/>
<path d="M177.757 113.657L170.996 125.372" stroke="#263238" stroke-width="0.75" stroke-linecap="round" stroke-linejoin="round"/>
<path d="M179.432 110.76L178.763 111.919" stroke="#263238" stroke-width="0.75" stroke-linecap="round" stroke-linejoin="round"/>
<path d="M167.704 138.114L161.476 148.904" stroke="#263238" stroke-width="0.75" stroke-linecap="round" stroke-linejoin="round"/>
<path d="M175.67 124.315L168.611 136.542" stroke="#263238" stroke-width="0.75" stroke-linecap="round" stroke-linejoin="round"/>
<path d="M177.327 121.448L176.492 122.892" stroke="#263238" stroke-width="0.75" stroke-linecap="round" stroke-linejoin="round"/>
<path d="M154.728 120.963L153.782 122.603" stroke="#263238" stroke-width="0.75" stroke-linecap="round" stroke-linejoin="round"/>
<path d="M163.005 106.628L155.486 119.651" stroke="#263238" stroke-width="0.75" stroke-linecap="round" stroke-linejoin="round"/>
<path d="M173.335 88.7358L163.891 105.09" stroke="#263238" stroke-width="0.75" stroke-linecap="round" stroke-linejoin="round"/>
<path d="M179.542 77.9835L174.063 87.4748" stroke="#263238" stroke-width="0.75" stroke-linecap="round" stroke-linejoin="round"/>
<path d="M64.3218 71.2911H26.2715V157.607H64.3218V71.2911Z" stroke="#263238" stroke-width="0.75" stroke-linecap="round" stroke-linejoin="round"/>
<path d="M60.982 74.6309H29.6113V154.267H60.982V74.6309Z" stroke="#263238" stroke-width="0.75" stroke-linecap="round" stroke-linejoin="round"/>
<path d="M33.1776 109.793L32.3213 111.28" stroke="#263238" stroke-width="0.75" stroke-linecap="round" stroke-linejoin="round"/>
<path d="M42.1785 94.2014L34.1611 108.089" stroke="#263238" stroke-width="0.75" stroke-linecap="round" stroke-linejoin="round"/>
<path d="M49.5396 81.4554L43.4648 91.9777" stroke="#263238" stroke-width="0.75" stroke-linecap="round" stroke-linejoin="round"/>
<path d="M50.822 79.2317L50.1787 80.3478" stroke="#263238" stroke-width="0.75" stroke-linecap="round" stroke-linejoin="round"/>
<path d="M35.7285 147.643L35 148.904" stroke="#263238" stroke-width="0.75" stroke-linecap="round" stroke-linejoin="round"/>
<path d="M37.415 144.721L36.6396 146.063" stroke="#263238" stroke-width="0.75" stroke-linecap="round" stroke-linejoin="round"/>
<path d="M47.7028 126.901L39.0635 141.862" stroke="#263238" stroke-width="0.75" stroke-linecap="round" stroke-linejoin="round"/>
<path d="M55.3508 113.657L48.5859 125.372" stroke="#263238" stroke-width="0.75" stroke-linecap="round" stroke-linejoin="round"/>
<path d="M57.0237 110.76L56.3506 111.919" stroke="#263238" stroke-width="0.75" stroke-linecap="round" stroke-linejoin="round"/>
<path d="M45.2959 138.114L39.0635 148.904" stroke="#263238" stroke-width="0.75" stroke-linecap="round" stroke-linejoin="round"/>
<path d="M53.2629 124.315L46.2041 136.542" stroke="#263238" stroke-width="0.75" stroke-linecap="round" stroke-linejoin="round"/>
<path d="M54.9157 121.448L54.085 122.892" stroke="#263238" stroke-width="0.75" stroke-linecap="round" stroke-linejoin="round"/>
<path d="M32.3201 120.963L31.3701 122.603" stroke="#263238" stroke-width="0.75" stroke-linecap="round" stroke-linejoin="round"/>
<path d="M40.5931 106.628L33.0742 119.651" stroke="#263238" stroke-width="0.75" stroke-linecap="round" stroke-linejoin="round"/>
<path d="M50.9245 88.7358L41.4844 105.09" stroke="#263238" stroke-width="0.75" stroke-linecap="round" stroke-linejoin="round"/>
<path d="M57.1307 77.9835L51.6523 87.4748" stroke="#263238" stroke-width="0.75" stroke-linecap="round" stroke-linejoin="round"/>
<path d="M12.5674 193.587H200.433" stroke="#263238" stroke-linecap="round" stroke-linejoin="round"/>
<path d="M77.8263 159.839H74.5674V170.92H77.8263V159.839Z" fill="white"/>
<path opacity="0.2" d="M77.8263 159.839H74.5674V170.92H77.8263V159.839Z" fill="black"/>
<path d="M81.089 161.058H77.8301V170.92H81.089V161.058Z" fill="white"/>
<path d="M85.1578 161.058H82.8574V170.92H85.1578V161.058Z" fill="white"/>
<path opacity="0.9" d="M85.1578 161.058H82.8574V170.92H85.1578V161.058Z" fill="white"/>
<path d="M82.8608 160.018H80.7734V170.924H82.8608V160.018Z" fill="white"/>
<path opacity="0.1" d="M82.8608 160.018H80.7734V170.924H82.8608V160.018Z" fill="black"/>
<path d="M88.421 159.839H85.1621V170.92H88.421V159.839Z" fill="white"/>
<path d="M91.6788 161.058H88.4199V170.92H91.6788V161.058Z" fill="white"/>
<path opacity="0.2" d="M91.6788 161.058H88.4199V170.92H91.6788V161.058Z" fill="#263238"/>
<path d="M95.7526 161.058H93.4521V170.92H95.7526V161.058Z" fill="white"/>
<path opacity="0.8" d="M95.7526 161.058H93.4521V170.92H95.7526V161.058Z" fill="white"/>
<path d="M93.4517 160.018H91.3643V170.924H93.4517V160.018Z" fill="white"/>
<path opacity="0.1" d="M93.4517 160.018H91.3643V170.924H93.4517V160.018Z" fill="black"/>
<path d="M111.301 170.924H114.56V159.844H111.301V170.924Z" fill="white"/>
<path opacity="0.2" d="M111.301 170.924H114.56V159.844H111.301V170.924Z" fill="black"/>
<path d="M108.038 170.924H111.297V161.062H108.038V170.924Z" fill="white"/>
<path d="M103.969 170.924H106.27V161.062H103.969V170.924Z" fill="white"/>
<path opacity="0.9" d="M103.969 170.924H106.27V161.062H103.969V170.924Z" fill="white"/>
<path d="M106.265 170.92H108.353V160.014H106.265V170.92Z" fill="white"/>
<path opacity="0.1" d="M106.265 170.92H108.353V160.014H106.265V170.92Z" fill="black"/>
<path d="M100.706 170.924H103.965V159.844H100.706V170.924Z" fill="white"/>
<path d="M97.4472 170.924H100.706V161.062H97.4472V170.924Z" fill="white"/>
<path opacity="0.2" d="M97.4472 170.924H100.706V161.062H97.4472V170.924Z" fill="#263238"/>
<path d="M95.6753 170.92H97.7627V160.014H95.6753V170.92Z" fill="white"/>
<path opacity="0.1" d="M95.6753 170.92H97.7627V160.014H95.6753V170.92Z" fill="black"/>
<path d="M130.088 170.924H133.347V159.844H130.088V170.924Z" fill="white"/>
<path opacity="0.2" d="M130.088 170.924H133.347V159.844H130.088V170.924Z" fill="black"/>
<path d="M126.825 170.924H130.084V161.062H126.825V170.924Z" fill="white"/>
<path d="M122.756 170.924H125.057V161.062H122.756V170.924Z" fill="white"/>
<path opacity="0.9" d="M122.756 170.924H125.057V161.062H122.756V170.924Z" fill="white"/>
<path d="M125.052 170.92H127.14V160.014H125.052V170.92Z" fill="white"/>
<path opacity="0.1" d="M125.052 170.92H127.14V160.014H125.052V170.92Z" fill="black"/>
<path d="M119.493 170.924H122.752V159.844H119.493V170.924Z" fill="white"/>
<path d="M135.468 170.532L137.608 169.959L134.728 159.211L132.587 159.785L135.468 170.532Z" fill="white"/>
<path d="M116.234 170.924H119.493V161.062H116.234V170.924Z" fill="white"/>
<path opacity="0.2" d="M116.234 170.924H119.493V161.062H116.234V170.924Z" fill="#263238"/>
<path d="M114.462 170.92H116.55V160.014H114.462V170.92Z" fill="white"/>
<path opacity="0.1" d="M114.462 170.92H116.55V160.014H114.462V170.92Z" fill="black"/>
<path d="M136.559 185.317L138.748 184.73L135.88 174.028L133.691 174.614L136.559 185.317Z" fill="white"/>
<path opacity="0.2" d="M136.559 185.317L138.748 184.73L135.88 174.028L133.691 174.614L136.559 185.317Z" fill="black"/>
<path d="M130.935 185.208H134.194V175.346H130.935V185.208Z" fill="white"/>
<path d="M126.858 185.208H129.158V175.346H126.858V185.208Z" fill="white"/>
<path opacity="0.9" d="M126.858 185.208H129.158V175.346H126.858V185.208Z" fill="white"/>
<path d="M129.159 185.212H131.246V174.306H129.159V185.212Z" fill="white"/>
<path opacity="0.1" d="M129.159 185.212H131.246V174.306H129.159V185.212Z" fill="black"/>
<path d="M123.603 185.212H126.862V174.132H123.603V185.212Z" fill="white"/>
<path d="M120.341 185.208H123.6V175.346H120.341V185.208Z" fill="white"/>
<path opacity="0.2" d="M120.341 185.208H123.6V175.346H120.341V185.208Z" fill="#263238"/>
<path d="M116.272 185.208H118.572V175.346H116.272V185.208Z" fill="white"/>
<path opacity="0.8" d="M116.272 185.208H118.572V175.346H116.272V185.208Z" fill="white"/>
<path d="M118.568 185.212H120.655V174.306H118.568V185.212Z" fill="white"/>
<path opacity="0.1" d="M118.568 185.212H120.655V174.306H118.568V185.212Z" fill="black"/>
<path d="M100.724 174.132H97.4648V185.212H100.724V174.132Z" fill="white"/>
<path opacity="0.2" d="M100.724 174.132H97.4648V185.212H100.724V174.132Z" fill="black"/>
<path d="M103.983 175.35H100.724V185.212H103.983V175.35Z" fill="white"/>
<path d="M108.055 175.35H105.755V185.212H108.055V175.35Z" fill="white"/>
<path opacity="0.9" d="M108.055 175.35H105.755V185.212H108.055V175.35Z" fill="white"/>
<path d="M105.754 174.306H103.667V185.212H105.754V174.306Z" fill="white"/>
<path opacity="0.1" d="M105.754 174.306H103.667V185.212H105.754V174.306Z" fill="black"/>
<path d="M111.314 174.132H108.055V185.212H111.314V174.132Z" fill="white"/>
<path d="M114.572 175.35H111.313V185.212H114.572V175.35Z" fill="white"/>
<path opacity="0.2" d="M114.572 175.35H111.313V185.212H114.572V175.35Z" fill="#263238"/>
<path d="M116.344 174.306H114.257V185.212H116.344V174.306Z" fill="white"/>
<path opacity="0.1" d="M116.344 174.306H114.257V185.212H116.344V174.306Z" fill="black"/>
<path d="M81.9366 174.132H78.6777V185.212H81.9366V174.132Z" fill="white"/>
<path opacity="0.2" d="M81.9366 174.132H78.6777V185.212H81.9366V174.132Z" fill="black"/>
<path d="M85.1954 175.35H81.9365V185.212H85.1954V175.35Z" fill="white"/>
<path d="M89.2682 175.35H86.9678V185.212H89.2682V175.35Z" fill="white"/>
<path opacity="0.9" d="M89.2682 175.35H86.9678V185.212H89.2682V175.35Z" fill="white"/>
<path d="M86.9682 174.306H84.8809V185.212H86.9682V174.306Z" fill="white"/>
<path opacity="0.1" d="M86.9682 174.306H84.8809V185.212H86.9682V174.306Z" fill="black"/>
<path d="M92.5274 174.132H89.2686V185.212H92.5274V174.132Z" fill="white"/>
<path d="M78.6715 174.605L76.54 174.034L73.6723 184.737L75.8037 185.308L78.6715 174.605Z" fill="white"/>
<path d="M95.7862 175.35H92.5273V185.212H95.7862V175.35Z" fill="white"/>
<path opacity="0.2" d="M95.7862 175.35H92.5273V185.212H95.7862V175.35Z" fill="#263238"/>
<path d="M97.5581 174.306H95.4707V185.212H97.5581V174.306Z" fill="white"/>
<path opacity="0.1" d="M97.5581 174.306H95.4707V185.212H97.5581V174.306Z" fill="black"/>
<path d="M77.0714 193.587H73.8125L73.3652 187.282H77.5187L77.0714 193.587Z" fill="#263238"/>
<path d="M139.187 193.587H135.928L135.48 187.282H139.634L139.187 193.587Z" fill="#263238"/>
<path d="M142.778 155.656H70.2216C69.807 155.656 69.4093 155.821 69.1161 156.114C68.8229 156.407 68.6582 156.805 68.6582 157.22V186.861C68.6582 187.275 68.8229 187.673 69.1161 187.966C69.4093 188.259 69.807 188.424 70.2216 188.424H142.778C143.193 188.424 143.59 188.259 143.883 187.966C144.177 187.673 144.341 187.275 144.341 186.861V157.22C144.341 156.805 144.177 156.407 143.883 156.114C143.59 155.821 143.193 155.656 142.778 155.656V155.656ZM141.21 158.787V170.924H71.7723V158.787H141.21ZM71.7893 185.31V173.16H141.227V185.31H71.7893Z" fill="white" stroke="#263238" stroke-width="0.75" stroke-linecap="round" stroke-linejoin="round"/>
<path d="M132.051 93.3964H81.8472C80.2332 93.3964 78.9248 94.7047 78.9248 96.3187V107.097C78.9248 108.71 80.2332 110.019 81.8472 110.019H132.051C133.665 110.019 134.974 108.71 134.974 107.097V96.3187C134.974 94.7047 133.665 93.3964 132.051 93.3964Z" fill="#263238" stroke="#263238" stroke-linecap="round" stroke-linejoin="round"/>
<path d="M131.157 92.5017H80.9526C79.3387 92.5017 78.0303 93.8101 78.0303 95.4241V106.202C78.0303 107.816 79.3387 109.124 80.9526 109.124H131.157C132.771 109.124 134.079 107.816 134.079 106.202V95.4241C134.079 93.8101 132.771 92.5017 131.157 92.5017Z" fill="white" stroke="#263238" stroke-linecap="round" stroke-linejoin="round"/>
<path d="M131.157 92.5017H80.9526C79.3387 92.5017 78.0303 93.8101 78.0303 95.4241V106.202C78.0303 107.816 79.3387 109.124 80.9526 109.124H131.157C132.771 109.124 134.079 107.816 134.079 106.202V95.4241C134.079 93.8101 132.771 92.5017 131.157 92.5017Z" stroke="#263238" stroke-linecap="round" stroke-linejoin="round"/>
<path d="M90.4402 105.721H83.0576V96.3826H87.9779L90.4402 98.8449V105.721Z" fill="white"/>
<path opacity="0.5" d="M90.4402 105.721H83.0576V96.3826H87.9779L90.4402 98.8449V105.721Z" fill="white"/>
<path d="M90.4402 105.721H83.0576V96.3826H87.9779L90.4402 98.8449V105.721Z" stroke="#263238" stroke-linecap="round" stroke-linejoin="round"/>
<path d="M87.9775 98.8448H90.4398L87.9775 96.3825V98.8448Z" fill="white" stroke="#263238" stroke-linecap="round" stroke-linejoin="round"/>
<path d="M84.6974 101.337C84.5814 101.326 84.4737 101.272 84.3953 101.186C84.3169 101.099 84.2734 100.987 84.2734 100.87C84.2734 100.754 84.3169 100.642 84.3953 100.555C84.4737 100.469 84.5814 100.415 84.6974 100.404H88.7998C88.9158 100.415 89.0235 100.469 89.1019 100.555C89.1803 100.642 89.2238 100.754 89.2238 100.87C89.2238 100.987 89.1803 101.099 89.1019 101.186C89.0235 101.272 88.9158 101.326 88.7998 101.337H84.6974Z" fill="#858585" stroke="#263238" stroke-width="0.75" stroke-linecap="round" stroke-linejoin="round"/>
<path d="M84.6974 103.301C84.5814 103.29 84.4737 103.236 84.3953 103.15C84.3169 103.063 84.2734 102.951 84.2734 102.834C84.2734 102.718 84.3169 102.605 84.3953 102.519C84.4737 102.433 84.5814 102.379 84.6974 102.368H87.9052C88.0212 102.379 88.1289 102.433 88.2073 102.519C88.2857 102.605 88.3292 102.718 88.3292 102.834C88.3292 102.951 88.2857 103.063 88.2073 103.15C88.1289 103.236 88.0212 103.29 87.9052 103.301H84.6974Z" fill="#858585" stroke="#263238" stroke-width="0.75" stroke-linecap="round" stroke-linejoin="round"/>
<path d="M109.102 101.874H95.3638C95.119 101.89 94.8895 101.999 94.7219 102.178C94.5542 102.357 94.4609 102.593 94.4609 102.839C94.4609 103.084 94.5542 103.32 94.7219 103.499C94.8895 103.678 95.119 103.787 95.3638 103.804H109.102V101.874Z" fill="white"/>
<path d="M95.3638 103.803C95.119 103.787 94.8895 103.678 94.7219 103.499C94.5542 103.32 94.4609 103.084 94.4609 102.839C94.4609 102.593 94.5542 102.357 94.7219 102.178C94.8895 101.999 95.119 101.89 95.3638 101.874H128.081C128.213 101.865 128.345 101.883 128.47 101.928C128.595 101.972 128.709 102.042 128.805 102.132C128.902 102.223 128.979 102.332 129.032 102.454C129.085 102.575 129.112 102.706 129.112 102.839C129.112 102.971 129.085 103.102 129.032 103.223C128.979 103.345 128.902 103.454 128.805 103.545C128.709 103.635 128.595 103.705 128.47 103.749C128.345 103.794 128.213 103.812 128.081 103.803H95.3638Z" stroke="#263238" stroke-linecap="round" stroke-linejoin="round"/>
<path d="M109.413 99.258H108.378V98.7681L109.362 96.4379H109.954V98.7681H110.21V99.258H109.954V99.8842H109.413V99.258ZM109.413 98.7681V97.4262L108.881 98.7723L109.413 98.7681Z" fill="#263238"/>
<path d="M110.462 99.0706V98.8022H110.973V99.109C110.973 99.356 111.08 99.4455 111.254 99.4455C111.429 99.4455 111.535 99.356 111.535 99.109V98.3379C111.535 98.0908 111.425 97.9971 111.254 97.9971C111.084 97.9971 110.973 98.0908 110.973 98.3379V98.3677H110.462L110.56 96.4422H111.987V96.9364H111.041L110.999 97.7585C111.046 97.6777 111.115 97.6115 111.198 97.5671C111.28 97.5228 111.374 97.5021 111.467 97.5072C111.863 97.5072 112.068 97.7884 112.068 98.2953V99.0706C112.068 99.6244 111.791 99.9226 111.259 99.9226C110.726 99.9226 110.462 99.6244 110.462 99.0706Z" fill="#263238"/>
<path d="M112.413 97.8054V96.9534C112.407 96.8809 112.415 96.8078 112.439 96.7388C112.462 96.6699 112.499 96.6065 112.548 96.5528C112.597 96.499 112.657 96.4561 112.724 96.4267C112.79 96.3974 112.862 96.3822 112.935 96.3822C113.008 96.3822 113.08 96.3974 113.146 96.4267C113.213 96.4561 113.273 96.499 113.322 96.5528C113.371 96.6065 113.408 96.6699 113.432 96.7388C113.455 96.8078 113.464 96.8809 113.457 96.9534V97.8054C113.464 97.8779 113.455 97.9509 113.432 98.0199C113.408 98.0889 113.371 98.1523 113.322 98.206C113.273 98.2598 113.213 98.3027 113.146 98.332C113.08 98.3614 113.008 98.3766 112.935 98.3766C112.862 98.3766 112.79 98.3614 112.724 98.332C112.657 98.3027 112.597 98.2598 112.548 98.206C112.499 98.1523 112.462 98.0889 112.439 98.0199C112.415 97.9509 112.407 97.8779 112.413 97.8054V97.8054ZM113.112 97.8309V96.9193C113.112 96.7702 113.044 96.7063 112.937 96.7063C112.831 96.7063 112.758 96.7702 112.758 96.9193V97.8309C112.758 97.9843 112.822 98.0482 112.937 98.0482C113.052 98.0482 113.112 97.98 113.112 97.8309ZM114.185 96.4422H114.53L113.197 99.8885H112.852L114.185 96.4422ZM113.926 99.3859V98.5338C113.919 98.4614 113.928 98.3883 113.951 98.3193C113.974 98.2503 114.011 98.187 114.061 98.1332C114.11 98.0795 114.169 98.0366 114.236 98.0072C114.303 97.9778 114.375 97.9627 114.447 97.9627C114.52 97.9627 114.592 97.9778 114.659 98.0072C114.725 98.0366 114.785 98.0795 114.834 98.1332C114.883 98.187 114.921 98.2503 114.944 98.3193C114.967 98.3883 114.976 98.4614 114.969 98.5338V99.3859C114.976 99.4583 114.967 99.5314 114.944 99.6004C114.921 99.6694 114.883 99.7327 114.834 99.7865C114.785 99.8402 114.725 99.8831 114.659 99.9125C114.592 99.9419 114.52 99.957 114.447 99.957C114.375 99.957 114.303 99.9419 114.236 99.9125C114.169 99.8831 114.11 99.8402 114.061 99.7865C114.011 99.7327 113.974 99.6694 113.951 99.6004C113.928 99.5314 113.919 99.4583 113.926 99.3859ZM114.624 99.4114V98.4998C114.624 98.3464 114.556 98.2825 114.445 98.2825C114.335 98.2825 114.271 98.3464 114.271 98.4998V99.4114C114.271 99.5648 114.335 99.6287 114.445 99.6287C114.556 99.6287 114.624 99.5648 114.624 99.4114V99.4114Z" fill="#263238"/>
<path d="M132.051 112.686H81.8472C80.2332 112.686 78.9248 113.994 78.9248 115.608V126.386C78.9248 128 80.2332 129.308 81.8472 129.308H132.051C133.665 129.308 134.974 128 134.974 126.386V115.608C134.974 113.994 133.665 112.686 132.051 112.686Z" fill="#263238" stroke="#263238" stroke-linecap="round" stroke-linejoin="round"/>
<path d="M131.157 111.791H80.9526C79.3387 111.791 78.0303 113.099 78.0303 114.713V125.491C78.0303 127.105 79.3387 128.413 80.9526 128.413H131.157C132.771 128.413 134.079 127.105 134.079 125.491V114.713C134.079 113.099 132.771 111.791 131.157 111.791Z" fill="white" stroke="#263238" stroke-linecap="round" stroke-linejoin="round"/>
<path d="M119.94 121.044H95.3638C95.119 121.06 94.8895 121.169 94.7219 121.348C94.5542 121.527 94.4609 121.763 94.4609 122.009C94.4609 122.254 94.5542 122.49 94.7219 122.669C94.8895 122.848 95.119 122.957 95.3638 122.973H119.94V121.044Z" fill="white"/>
<path d="M95.3638 122.973C95.119 122.957 94.8895 122.848 94.7219 122.669C94.5542 122.49 94.4609 122.254 94.4609 122.009C94.4609 121.763 94.5542 121.527 94.7219 121.348C94.8895 121.169 95.119 121.06 95.3638 121.044H128.081C128.213 121.035 128.345 121.053 128.47 121.098C128.595 121.142 128.709 121.212 128.805 121.302C128.902 121.393 128.979 121.502 129.032 121.624C129.085 121.745 129.112 121.876 129.112 122.009C129.112 122.141 129.085 122.272 129.032 122.393C128.979 122.515 128.902 122.624 128.805 122.715C128.709 122.805 128.595 122.875 128.47 122.919C128.345 122.964 128.213 122.982 128.081 122.973H95.3638Z" stroke="#263238" stroke-linecap="round" stroke-linejoin="round"/>
<path d="M108.442 118.258V117.951C108.425 117.812 108.45 117.671 108.513 117.546C108.576 117.421 108.674 117.317 108.796 117.248V117.248C108.68 117.18 108.586 117.08 108.527 116.96C108.468 116.839 108.446 116.704 108.463 116.571V116.43C108.463 116.211 108.55 116.001 108.705 115.846C108.86 115.691 109.071 115.604 109.29 115.604C109.509 115.604 109.719 115.691 109.874 115.846C110.029 116.001 110.116 116.211 110.116 116.43V116.571C110.132 116.704 110.108 116.839 110.048 116.959C109.989 117.079 109.895 117.18 109.78 117.248C109.902 117.317 110.001 117.42 110.065 117.545C110.129 117.67 110.154 117.812 110.138 117.951V118.258C110.138 118.484 110.048 118.7 109.888 118.86C109.728 119.02 109.512 119.11 109.286 119.11C109.06 119.11 108.843 119.02 108.683 118.86C108.523 118.7 108.434 118.484 108.434 118.258H108.442ZM109.597 118.228V117.896C109.597 117.636 109.49 117.508 109.29 117.508C109.09 117.508 108.983 117.636 108.983 117.896V118.228C108.983 118.488 109.09 118.616 109.29 118.616C109.49 118.616 109.597 118.488 109.597 118.228V118.228ZM109.597 116.673V116.4C109.597 116.175 109.499 116.055 109.311 116.055C109.124 116.055 109.026 116.175 109.026 116.4V116.673C109.026 116.899 109.124 117.018 109.311 117.018C109.499 117.018 109.575 116.899 109.575 116.673H109.597Z" fill="#263238"/>
<path d="M110.462 118.241V117.972H110.973V118.279C110.973 118.526 111.08 118.615 111.254 118.615C111.429 118.615 111.535 118.526 111.535 118.279V117.508C111.535 117.261 111.425 117.167 111.254 117.167C111.084 117.167 110.973 117.261 110.973 117.508V117.538H110.462L110.56 115.612H111.987V116.106H111.041L110.999 116.929C111.046 116.848 111.115 116.781 111.198 116.737C111.28 116.693 111.374 116.672 111.467 116.677C111.863 116.677 112.068 116.958 112.068 117.465V118.241C112.076 118.352 112.061 118.463 112.024 118.568C111.987 118.673 111.929 118.769 111.853 118.85C111.778 118.932 111.686 118.997 111.584 119.041C111.482 119.086 111.372 119.109 111.261 119.109C111.149 119.109 111.039 119.086 110.937 119.041C110.835 118.997 110.744 118.932 110.668 118.85C110.592 118.769 110.534 118.673 110.497 118.568C110.46 118.463 110.445 118.352 110.453 118.241H110.462Z" fill="#263238"/>
<path d="M112.413 116.975V116.123C112.407 116.051 112.415 115.978 112.439 115.909C112.462 115.84 112.499 115.777 112.548 115.723C112.597 115.669 112.657 115.626 112.724 115.597C112.79 115.567 112.862 115.552 112.935 115.552C113.008 115.552 113.08 115.567 113.146 115.597C113.213 115.626 113.273 115.669 113.322 115.723C113.371 115.777 113.408 115.84 113.432 115.909C113.455 115.978 113.464 116.051 113.457 116.123V116.975C113.464 117.048 113.455 117.121 113.432 117.19C113.408 117.259 113.371 117.322 113.322 117.376C113.273 117.43 113.213 117.473 113.146 117.502C113.08 117.531 113.008 117.547 112.935 117.547C112.862 117.547 112.79 117.531 112.724 117.502C112.657 117.473 112.597 117.43 112.548 117.376C112.499 117.322 112.462 117.259 112.439 117.19C112.415 117.121 112.407 117.048 112.413 116.975V116.975ZM113.112 117.001V116.089C113.112 115.94 113.044 115.872 112.937 115.872C112.831 115.872 112.758 115.94 112.758 116.089V117.001C112.758 117.154 112.822 117.218 112.937 117.218C113.052 117.218 113.112 117.15 113.112 117.001ZM114.185 115.612H114.53L113.197 119.059H112.852L114.185 115.612ZM113.926 118.556V117.704C113.919 117.631 113.928 117.558 113.951 117.489C113.974 117.42 114.011 117.357 114.061 117.303C114.11 117.25 114.169 117.207 114.236 117.177C114.303 117.148 114.375 117.133 114.447 117.133C114.52 117.133 114.592 117.148 114.659 117.177C114.725 117.207 114.785 117.25 114.834 117.303C114.883 117.357 114.921 117.42 114.944 117.489C114.967 117.558 114.976 117.631 114.969 117.704V118.556C114.976 118.628 114.967 118.701 114.944 118.77C114.921 118.839 114.883 118.903 114.834 118.956C114.785 119.01 114.725 119.053 114.659 119.083C114.592 119.112 114.52 119.127 114.447 119.127C114.375 119.127 114.303 119.112 114.236 119.083C114.169 119.053 114.11 119.01 114.061 118.956C114.011 118.903 113.974 118.839 113.951 118.77C113.928 118.701 113.919 118.628 113.926 118.556ZM114.624 118.581V117.67C114.624 117.516 114.556 117.453 114.445 117.453C114.335 117.453 114.271 117.516 114.271 117.67V118.581C114.271 118.735 114.335 118.799 114.445 118.799C114.556 118.799 114.624 118.735 114.624 118.581V118.581Z" fill="#263238"/>
<path d="M90.4402 124.89H83.0576V115.553H87.9779L90.4402 118.015V124.89Z" fill="white"/>
<path opacity="0.5" d="M90.4402 124.89H83.0576V115.553H87.9779L90.4402 118.015V124.89Z" fill="white" stroke="#263238" stroke-linecap="round" stroke-linejoin="round"/>
<path d="M90.4402 124.89H83.0576V115.553H87.9779L90.4402 118.015V124.89Z" stroke="#263238" stroke-linecap="round" stroke-linejoin="round"/>
<path d="M84.6974 120.507C84.5814 120.496 84.4737 120.442 84.3953 120.356C84.3169 120.269 84.2734 120.157 84.2734 120.04C84.2734 119.924 84.3169 119.812 84.3953 119.725C84.4737 119.639 84.5814 119.585 84.6974 119.574H88.7998C88.9158 119.585 89.0235 119.639 89.1019 119.725C89.1803 119.812 89.2238 119.924 89.2238 120.04C89.2238 120.157 89.1803 120.269 89.1019 120.356C89.0235 120.442 88.9158 120.496 88.7998 120.507H84.6974Z" fill="#858585" stroke="#263238" stroke-width="0.75" stroke-linecap="round" stroke-linejoin="round"/>
<path d="M84.6974 122.471C84.5814 122.46 84.4737 122.406 84.3953 122.32C84.3169 122.233 84.2734 122.121 84.2734 122.004C84.2734 121.888 84.3169 121.775 84.3953 121.689C84.4737 121.603 84.5814 121.549 84.6974 121.538H87.9052C88.0212 121.549 88.1289 121.603 88.2073 121.689C88.2857 121.775 88.3292 121.888 88.3292 122.004C88.3292 122.121 88.2857 122.233 88.2073 122.32C88.1289 122.406 88.0212 122.46 87.9052 122.471H84.6974Z" fill="#858585" stroke="#263238" stroke-width="0.75" stroke-linecap="round" stroke-linejoin="round"/>
<path d="M87.9775 118.015H90.4398L87.9775 115.553V118.015Z" fill="white" stroke="#263238" stroke-linecap="round" stroke-linejoin="round"/>
<path d="M138.915 67.6403H74.981C73.367 67.6403 72.0586 68.9487 72.0586 70.5627V85.4173C72.0586 87.0313 73.367 88.3397 74.981 88.3397H138.915C140.529 88.3397 141.837 87.0313 141.837 85.4173V70.5627C141.837 68.9487 140.529 67.6403 138.915 67.6403Z" fill="#263238" stroke="#263238" stroke-linecap="round" stroke-linejoin="round"/>
<path d="M138.02 66.7457H74.0854C72.4715 66.7457 71.1631 68.0541 71.1631 69.6681V84.5227C71.1631 86.1367 72.4715 87.4451 74.0854 87.4451H138.02C139.634 87.4451 140.942 86.1367 140.942 84.5227V69.6681C140.942 68.0541 139.634 66.7457 138.02 66.7457Z" fill="white" stroke="#263238" stroke-linecap="round" stroke-linejoin="round"/>
<path d="M95.518 85.7411H81.8477V68.4498H90.9598L95.518 73.0037V85.7411Z" fill="white"/>
<path opacity="0.7" d="M95.518 85.7411H81.8477V68.4498H90.9598L95.518 73.0037V85.7411Z" fill="white"/>
<path d="M95.518 85.7411H81.8477V68.4498H90.9598L95.518 73.0037V85.7411Z" stroke="#263238" stroke-linecap="round" stroke-linejoin="round"/>
<path d="M90.96 73.0037H95.5182L90.96 68.4498V73.0037Z" fill="white" stroke="#263238" stroke-linecap="round" stroke-linejoin="round"/>
<path d="M85.8811 75.1337H83.1973V77.8175H85.8811V75.1337Z" stroke="white" stroke-width="0.75" stroke-linecap="round" stroke-linejoin="round"/>
<path d="M88.6418 75.1337H85.958V77.8175H88.6418V75.1337Z" stroke="white" stroke-width="0.75" stroke-linecap="round" stroke-linejoin="round"/>
<path d="M91.4065 75.1337H88.7227V77.8175H91.4065V75.1337Z" stroke="white" stroke-width="0.75" stroke-linecap="round" stroke-linejoin="round"/>
<path d="M94.1672 75.1337H91.4834V77.8175H94.1672V75.1337Z" stroke="white" stroke-width="0.75" stroke-linecap="round" stroke-linejoin="round"/>
<path d="M85.8811 77.8174H83.1973V80.5013H85.8811V77.8174Z" stroke="white" stroke-width="0.75" stroke-linecap="round" stroke-linejoin="round"/>
<path d="M88.6418 77.8174H85.958V80.5012H88.6418V77.8174Z" stroke="white" stroke-width="0.75" stroke-linecap="round" stroke-linejoin="round"/>
<path d="M91.4065 77.8174H88.7227V80.5013H91.4065V77.8174Z" stroke="white" stroke-width="0.75" stroke-linecap="round" stroke-linejoin="round"/>
<path d="M94.1672 77.8174H91.4834V80.5013H94.1672V77.8174Z" stroke="white" stroke-width="0.75" stroke-linecap="round" stroke-linejoin="round"/>
<path d="M85.8811 80.5013H83.1973V83.1851H85.8811V80.5013Z" stroke="white" stroke-width="0.75" stroke-linecap="round" stroke-linejoin="round"/>
<path d="M88.6418 80.5013H85.958V83.1851H88.6418V80.5013Z" stroke="white" stroke-width="0.75" stroke-linecap="round" stroke-linejoin="round"/>
<path d="M91.4065 80.5013H88.7227V83.1851H91.4065V80.5013Z" stroke="white" stroke-width="0.75" stroke-linecap="round" stroke-linejoin="round"/>
<path d="M94.1672 80.5013H91.4834V83.1851H94.1672V80.5013Z" stroke="white" stroke-width="0.75" stroke-linecap="round" stroke-linejoin="round"/>
<path d="M83.249 82.9252L85.9584 80.4374L87.3003 80.5013L88.7657 77.8558L90.065 79.1594L91.5219 77.63L92.8255 75.1337" stroke="white" stroke-width="2" stroke-linecap="round" stroke-linejoin="round"/>
<path d="M91.2871 75.9132L92.825 75.1337L93.1359 76.8121" stroke="white" stroke-width="2" stroke-linecap="round" stroke-linejoin="round"/>
<path d="M100.894 76.5437H100.11V76.024C100.732 76.024 100.962 75.8877 101.124 75.4319H101.618V80.1179H100.881L100.894 76.5437Z" fill="#263238"/>
<path d="M102.49 79.0145V76.5437C102.49 76.2466 102.608 75.9616 102.818 75.7515C103.028 75.5414 103.313 75.4233 103.611 75.4233C103.908 75.4233 104.193 75.5414 104.403 75.7515C104.613 75.9616 104.731 76.2466 104.731 76.5437V79.0145C104.731 79.3117 104.613 79.5966 104.403 79.8067C104.193 80.0169 103.908 80.1349 103.611 80.1349C103.313 80.1349 103.028 80.0169 102.818 79.8067C102.608 79.5966 102.49 79.3117 102.49 79.0145V79.0145ZM103.994 79.0614V76.5054C103.994 76.1731 103.845 76.0453 103.611 76.0453C103.376 76.0453 103.227 76.1731 103.227 76.5054V79.0614C103.227 79.3979 103.376 79.5257 103.611 79.5257C103.845 79.5257 103.994 79.3979 103.994 79.0614Z" fill="#263238"/>
<path d="M105.175 79.0145V76.5437C105.175 76.2466 105.293 75.9616 105.503 75.7515C105.713 75.5414 105.998 75.4233 106.295 75.4233C106.592 75.4233 106.877 75.5414 107.087 75.7515C107.298 75.9616 107.416 76.2466 107.416 76.5437V79.0145C107.416 79.3117 107.298 79.5966 107.087 79.8067C106.877 80.0169 106.592 80.1349 106.295 80.1349C105.998 80.1349 105.713 80.0169 105.503 79.8067C105.293 79.5966 105.175 79.3117 105.175 79.0145V79.0145ZM106.679 79.0614V76.5054C106.679 76.1731 106.529 76.0453 106.295 76.0453C106.061 76.0453 105.912 76.1731 105.912 76.5054V79.0614C105.912 79.3979 106.061 79.5257 106.295 79.5257C106.529 79.5257 106.679 79.3979 106.679 79.0614Z" fill="#263238"/>
<path d="M107.872 77.2892V76.1177C107.872 75.929 107.947 75.7481 108.08 75.6147C108.214 75.4813 108.395 75.4063 108.583 75.4063C108.772 75.4063 108.953 75.4813 109.087 75.6147C109.22 75.7481 109.295 75.929 109.295 76.1177V77.2892C109.295 77.4779 109.22 77.6589 109.087 77.7923C108.953 77.9257 108.772 78.0007 108.583 78.0007C108.395 78.0007 108.214 77.9257 108.08 77.7923C107.947 77.6589 107.872 77.4779 107.872 77.2892V77.2892ZM108.826 77.3233V76.0837C108.826 75.8749 108.733 75.7855 108.583 75.7855C108.434 75.7855 108.341 75.8749 108.341 76.0837V77.3233C108.341 77.532 108.43 77.6173 108.583 77.6173C108.737 77.6173 108.826 77.532 108.826 77.3233V77.3233ZM110.287 75.4319H110.76L108.941 80.1179H108.473L110.287 75.4319ZM109.93 79.4448V78.269C109.93 78.1756 109.948 78.0831 109.984 77.9968C110.02 77.9105 110.072 77.832 110.138 77.766C110.204 77.6999 110.282 77.6475 110.369 77.6118C110.455 77.576 110.548 77.5576 110.641 77.5576C110.734 77.5576 110.827 77.576 110.913 77.6118C111 77.6475 111.078 77.6999 111.144 77.766C111.21 77.832 111.263 77.9105 111.298 77.9968C111.334 78.0831 111.352 78.1756 111.352 78.269V79.4448C111.352 79.5382 111.334 79.6307 111.298 79.717C111.263 79.8033 111.21 79.8818 111.144 79.9478C111.078 80.0139 111 80.0663 110.913 80.1021C110.827 80.1378 110.734 80.1562 110.641 80.1562C110.548 80.1562 110.455 80.1378 110.369 80.1021C110.282 80.0663 110.204 80.0139 110.138 79.9478C110.072 79.8818 110.02 79.8033 109.984 79.717C109.948 79.6307 109.93 79.5382 109.93 79.4448ZM110.884 79.4789V78.2349C110.884 78.0262 110.79 77.941 110.641 77.941C110.492 77.941 110.402 78.0262 110.402 78.2349V79.4789C110.402 79.6834 110.488 79.7728 110.641 79.7728C110.794 79.7728 110.884 79.6834 110.884 79.4789V79.4789Z" fill="#263238"/>
<path d="M112.545 78.6609V76.8078C112.545 76.5965 112.629 76.3939 112.778 76.2445C112.928 76.0951 113.13 76.0112 113.342 76.0112C113.553 76.0112 113.755 76.0951 113.905 76.2445C114.054 76.3939 114.138 76.5965 114.138 76.8078V77.1742H113.627V76.7737C113.627 76.5479 113.516 76.4542 113.354 76.4542C113.192 76.4542 113.086 76.5479 113.086 76.7737V78.6992C113.086 78.925 113.192 79.0145 113.354 79.0145C113.516 79.0145 113.627 78.925 113.627 78.6992V78.171H114.138V78.6609C114.138 78.8722 114.054 79.0748 113.905 79.2242C113.755 79.3736 113.553 79.4575 113.342 79.4575C113.13 79.4575 112.928 79.3736 112.778 79.2242C112.629 79.0748 112.545 78.8722 112.545 78.6609Z" fill="#263238"/>
<path d="M114.432 78.6396V76.8291C114.432 76.6111 114.518 76.402 114.672 76.2478C114.827 76.0936 115.036 76.007 115.254 76.007C115.472 76.007 115.681 76.0936 115.835 76.2478C115.989 76.402 116.076 76.6111 116.076 76.8291V78.6396C116.076 78.8577 115.989 79.0668 115.835 79.221C115.681 79.3752 115.472 79.4618 115.254 79.4618C115.036 79.4618 114.827 79.3752 114.672 79.221C114.518 79.0668 114.432 78.8577 114.432 78.6396V78.6396ZM115.535 78.6737V76.7951C115.535 76.548 115.428 76.4543 115.254 76.4543C115.079 76.4543 114.973 76.548 114.973 76.7951V78.6737C114.973 78.9208 115.083 79.0145 115.254 79.0145C115.424 79.0145 115.535 78.9208 115.535 78.6737Z" fill="#263238"/>
<path d="M116.438 76.0112H117.214L117.559 78.4778L117.904 76.0112H118.675V79.4576H118.164V76.8505L117.768 79.4576H117.316L116.924 76.8505V79.4576H116.451L116.438 76.0112Z" fill="#263238"/>
<path d="M119.089 76.0112H119.885C120.427 76.0112 120.691 76.3137 120.691 76.8632V77.204C120.691 77.7536 120.427 78.056 119.885 78.056H119.63V79.4576H119.089V76.0112ZM119.885 77.5619C120.056 77.5619 120.15 77.4852 120.15 77.2381V76.8121C120.15 76.565 120.056 76.4884 119.885 76.4884H119.63V77.5448L119.885 77.5619Z" fill="#263238"/>
<path d="M120.983 76.0112H121.524V78.9634H122.415V79.4576H120.983V76.0112Z" fill="#263238"/>
<path d="M122.688 76.0112H124.161V76.5054H123.229V77.4128H123.965V77.9069H123.224V78.9634H124.157V79.4576H122.688V76.0112Z" fill="#263238"/>
<path d="M124.886 76.5054H124.323V76.0112H125.993V76.5054H125.427V79.4576H124.886V76.5054Z" fill="#263238"/>
<path d="M126.258 76.0112H127.732V76.5054H126.799V77.4128H127.54V77.9069H126.799V78.9634H127.732V79.4576H126.258V76.0112Z" fill="#263238"/>
<path d="M128.043 76.0112H128.869C129.41 76.0112 129.675 76.3137 129.675 76.8632V78.6056C129.675 79.1551 129.41 79.4576 128.869 79.4576H128.043V76.0112ZM128.857 78.9634C129.031 78.9634 129.134 78.874 129.134 78.6311V76.8377C129.134 76.5949 129.031 76.5054 128.857 76.5054H128.584V78.9634H128.857Z" fill="#263238"/>
<path d="M132.051 131.979H81.8472C80.2332 131.979 78.9248 133.288 78.9248 134.901V145.679C78.9248 147.293 80.2332 148.602 81.8472 148.602H132.051C133.665 148.602 134.974 147.293 134.974 145.679V134.901C134.974 133.288 133.665 131.979 132.051 131.979Z" fill="#263238" stroke="#263238" stroke-linecap="round" stroke-linejoin="round"/>
<path d="M131.157 131.085H80.9526C79.3387 131.085 78.0303 132.393 78.0303 134.007V144.785C78.0303 146.399 79.3387 147.707 80.9526 147.707H131.157C132.771 147.707 134.079 146.399 134.079 144.785V134.007C134.079 132.393 132.771 131.085 131.157 131.085Z" fill="white" stroke="#263238" stroke-linecap="round" stroke-linejoin="round"/>
<path d="M118.206 140.218H95.3641C95.1088 140.218 94.8639 140.319 94.6833 140.5C94.5028 140.68 94.4014 140.925 94.4014 141.181C94.4014 141.436 94.5028 141.681 94.6833 141.861C94.8639 142.042 95.1088 142.143 95.3641 142.143H118.206V140.218Z" fill="white"/>
<path d="M95.3641 142.143C95.1088 142.143 94.8639 142.042 94.6833 141.861C94.5028 141.681 94.4014 141.436 94.4014 141.181C94.4014 140.925 94.5028 140.68 94.6833 140.5C94.8639 140.319 95.1088 140.218 95.3641 140.218H128.081C128.207 140.218 128.333 140.243 128.449 140.291C128.566 140.34 128.672 140.41 128.762 140.5C128.851 140.589 128.922 140.695 128.97 140.812C129.019 140.929 129.044 141.054 129.044 141.181C129.044 141.307 129.019 141.432 128.97 141.549C128.922 141.666 128.851 141.772 128.762 141.861C128.672 141.951 128.566 142.022 128.449 142.07C128.333 142.118 128.207 142.143 128.081 142.143H95.3641Z" stroke="#263238" stroke-linecap="round" stroke-linejoin="round"/>
<path d="M90.4402 144.065H83.0576V134.727H87.9779L90.4402 137.185V144.065Z" fill="white"/>
<path opacity="0.5" d="M90.4402 144.065H83.0576V134.727H87.9779L90.4402 137.185V144.065Z" fill="white"/>
<path d="M90.4402 144.065H83.0576V134.727H87.9779L90.4402 137.185V144.065Z" stroke="#263238" stroke-linecap="round" stroke-linejoin="round"/>
<path d="M84.6974 139.681C84.5814 139.67 84.4737 139.616 84.3953 139.53C84.3169 139.444 84.2734 139.331 84.2734 139.215C84.2734 139.098 84.3169 138.986 84.3953 138.9C84.4737 138.813 84.5814 138.759 84.6974 138.748H88.7998C88.9158 138.759 89.0235 138.813 89.1019 138.9C89.1803 138.986 89.2238 139.098 89.2238 139.215C89.2238 139.331 89.1803 139.444 89.1019 139.53C89.0235 139.616 88.9158 139.67 88.7998 139.681H84.6974Z" fill="#858585" stroke="#263238" stroke-width="0.75" stroke-linecap="round" stroke-linejoin="round"/>
<path d="M84.6968 141.641C84.5736 141.641 84.4555 141.592 84.3684 141.505C84.2813 141.418 84.2324 141.3 84.2324 141.176C84.2324 141.053 84.2813 140.935 84.3684 140.848C84.4555 140.761 84.5736 140.712 84.6968 140.712H87.9046C88.0277 140.712 88.1458 140.761 88.2329 140.848C88.32 140.935 88.3689 141.053 88.3689 141.176C88.3689 141.3 88.32 141.418 88.2329 141.505C88.1458 141.592 88.0277 141.641 87.9046 141.641H84.6968Z" fill="#858585" stroke="#263238" stroke-width="0.75" stroke-linecap="round" stroke-linejoin="round"/>
<path d="M87.9775 137.185H90.4398L87.9775 134.727V137.185Z" fill="white" stroke="#263238" stroke-linecap="round" stroke-linejoin="round"/>
<path d="M109.567 135.276H108.473V134.786H110.096V135.259L109.244 138.241H108.69L109.567 135.276Z" fill="#263238"/>
<path d="M110.436 137.415V135.604C110.436 135.386 110.522 135.177 110.676 135.023C110.831 134.869 111.04 134.782 111.258 134.782C111.476 134.782 111.685 134.869 111.839 135.023C111.993 135.177 112.08 135.386 112.08 135.604V137.415C112.08 137.633 111.993 137.842 111.839 137.996C111.685 138.15 111.476 138.237 111.258 138.237C111.04 138.237 110.831 138.15 110.676 137.996C110.522 137.842 110.436 137.633 110.436 137.415ZM111.539 137.449V135.57C111.539 135.323 111.428 135.229 111.258 135.229C111.087 135.229 110.977 135.323 110.977 135.57V137.449C110.977 137.696 111.087 137.785 111.258 137.785C111.428 137.785 111.539 137.696 111.539 137.449Z" fill="#263238"/>
<path d="M112.413 136.15V135.298C112.407 135.225 112.415 135.152 112.439 135.083C112.462 135.014 112.499 134.951 112.548 134.897C112.597 134.843 112.657 134.8 112.724 134.771C112.79 134.742 112.862 134.726 112.935 134.726C113.008 134.726 113.08 134.742 113.146 134.771C113.213 134.8 113.273 134.843 113.322 134.897C113.371 134.951 113.408 135.014 113.432 135.083C113.455 135.152 113.464 135.225 113.457 135.298V136.15C113.464 136.222 113.455 136.295 113.432 136.364C113.408 136.433 113.371 136.497 113.322 136.55C113.273 136.604 113.213 136.647 113.146 136.676C113.08 136.706 113.008 136.721 112.935 136.721C112.862 136.721 112.79 136.706 112.724 136.676C112.657 136.647 112.597 136.604 112.548 136.55C112.499 136.497 112.462 136.433 112.439 136.364C112.415 136.295 112.407 136.222 112.413 136.15V136.15ZM113.112 136.175V135.264C113.112 135.11 113.044 135.046 112.937 135.046C112.831 135.046 112.758 135.11 112.758 135.264V136.175C112.758 136.324 112.822 136.388 112.937 136.388C113.052 136.388 113.112 136.32 113.112 136.175ZM114.168 134.786H114.513L113.18 138.229H112.835L114.168 134.786ZM113.909 137.73V136.878C113.902 136.806 113.911 136.733 113.934 136.664C113.957 136.595 113.994 136.531 114.044 136.477C114.093 136.424 114.152 136.381 114.219 136.351C114.286 136.322 114.358 136.307 114.43 136.307C114.503 136.307 114.575 136.322 114.642 136.351C114.708 136.381 114.768 136.424 114.817 136.477C114.866 136.531 114.904 136.595 114.927 136.664C114.95 136.733 114.959 136.806 114.952 136.878V137.73C114.959 137.803 114.95 137.876 114.927 137.945C114.904 138.014 114.866 138.077 114.817 138.131C114.768 138.184 114.708 138.227 114.642 138.257C114.575 138.286 114.503 138.301 114.43 138.301C114.358 138.301 114.286 138.286 114.219 138.257C114.152 138.227 114.093 138.184 114.044 138.131C113.994 138.077 113.957 138.014 113.934 137.945C113.911 137.876 113.902 137.803 113.909 137.73V137.73ZM114.607 137.751V136.844C114.607 136.691 114.539 136.627 114.428 136.627C114.317 136.627 114.254 136.691 114.254 136.844V137.751C114.254 137.905 114.317 137.969 114.428 137.969C114.539 137.969 114.624 137.905 114.624 137.751H114.607Z" fill="#263238"/>
<path d="M50.4551 46.9452L61.6972 38.2548L72.9394 46.9452H50.4551Z" fill="#263238" stroke="#263238" stroke-linecap="round" stroke-linejoin="round"/>
<path d="M64.6366 37.5732H58.7578V42.6H64.6366V37.5732Z" fill="#263238" stroke="#263238" stroke-linecap="round" stroke-linejoin="round"/>
<path d="M61.6973 25.0829V42.6" stroke="#263238" stroke-width="0.75" stroke-linecap="round" stroke-linejoin="round"/>
<path d="M140.056 46.9452L151.302 38.2548L162.544 46.9452H140.056Z" fill="#263238" stroke="#263238" stroke-linecap="round" stroke-linejoin="round"/>
<path d="M154.241 37.5732H148.362V42.6H154.241V37.5732Z" fill="#263238" stroke="#263238" stroke-linecap="round" stroke-linejoin="round"/>
<path d="M151.302 24.2309V42.6" stroke="#263238" stroke-width="0.75" stroke-linecap="round" stroke-linejoin="round"/>
<path d="M155.691 182.579L155.452 189.608L159.09 189.783L160.415 182.579H155.691Z" fill="white" stroke="#263238" stroke-linecap="round" stroke-linejoin="round"/>
<path d="M148.572 191.764C149.799 191.338 151.921 190.614 152.717 190.115C153.356 189.715 154.247 188.411 154.907 188.045C155.045 187.985 155.195 187.954 155.346 187.954C155.497 187.954 155.646 187.985 155.784 188.045C155.892 188.164 155.961 188.312 155.985 188.471C156.003 188.54 156.041 188.602 156.094 188.649C156.147 188.696 156.213 188.727 156.284 188.737C156.354 188.747 156.426 188.736 156.49 188.705C156.554 188.674 156.608 188.626 156.645 188.565C156.747 188.365 156.892 188.19 157.071 188.053C157.633 187.738 159.154 187.649 159.652 188.053C160.479 188.731 160.777 191.065 160.93 192.118C160.969 192.348 160.93 193.626 160.93 193.626H147.656V193.042C147.654 192.759 147.742 192.484 147.907 192.254C148.071 192.025 148.304 191.853 148.572 191.764V191.764Z" fill="white" stroke="#263238" stroke-linecap="round" stroke-linejoin="round"/>
<path d="M160.939 193.617H147.656V193.033C147.656 192.888 147.681 192.744 147.729 192.607H160.956C160.956 193.055 160.939 193.617 160.939 193.617Z" fill="#858585" stroke="#263238" stroke-linecap="round" stroke-linejoin="round"/>
<path d="M157.986 128.085L155.195 185.255L160.307 186.107C160.307 186.107 163.528 169.561 163.92 164.142C164.014 162.864 163.92 159.009 163.92 159.009L167.537 141.206C167.537 141.206 169.918 139.008 170.195 128.541L157.986 128.085Z" fill="#263238" stroke="#263238" stroke-linecap="round" stroke-linejoin="round"/>
<path opacity="0.7" d="M165.553 150.212C165.749 149.385 165.979 148.572 166.256 147.762C166.298 147.647 166.349 147.541 166.4 147.434C166.527 146.224 166.722 145.023 166.984 143.835C167.074 143.391 167.313 142.991 167.661 142.701C167.761 142.477 167.909 142.277 168.096 142.117C168.282 141.957 168.502 141.841 168.739 141.777C168.583 140.677 168.343 139.591 168.023 138.527C167.7 137.411 167.171 136.341 167.014 135.187C166.971 134.889 166.801 134.578 166.856 134.544C166.49 134.401 166.132 134.239 165.783 134.058L165.719 134.007C165.392 139.402 165.337 144.811 165.553 150.212V150.212Z" fill="black"/>
<path d="M157.743 160.785C158.648 160.576 159.479 160.123 160.146 159.477" stroke="#7F7F7F" stroke-width="0.75" stroke-linecap="round" stroke-linejoin="round"/>
<path d="M154.523 186.341L160.705 186.848L161.165 184.846L154.523 184.326V186.341Z" fill="white" stroke="#263238" stroke-linecap="round" stroke-linejoin="round"/>
<path d="M172.373 181.715L173.689 189.932L177.055 189.668L176.944 181.255L172.373 181.715Z" fill="white" stroke="#263238" stroke-linecap="round" stroke-linejoin="round"/>
<path d="M166.736 191.764C167.967 191.338 170.088 190.614 170.881 190.115C171.52 189.715 172.414 188.411 173.07 188.045C173.21 187.985 173.36 187.954 173.511 187.954C173.663 187.954 173.813 187.985 173.952 188.045C174.029 188.124 174.084 188.223 174.11 188.33C174.133 188.412 174.179 188.485 174.244 188.54C174.308 188.594 174.388 188.629 174.472 188.639C174.556 188.648 174.641 188.632 174.716 188.593C174.791 188.555 174.853 188.494 174.894 188.42C174.981 188.273 175.097 188.145 175.235 188.045C175.797 187.73 177.318 187.64 177.816 188.045C178.643 188.722 178.941 191.057 179.094 192.109C179.128 192.339 179.094 193.617 179.094 193.617H165.824V193.033C165.824 192.753 165.912 192.479 166.075 192.252C166.239 192.024 166.47 191.853 166.736 191.764V191.764Z" fill="white" stroke="#263238" stroke-linecap="round" stroke-linejoin="round"/>
<path d="M179.107 193.617H165.824V193.033C165.823 192.889 165.846 192.745 165.892 192.607H179.12C179.12 193.055 179.107 193.617 179.107 193.617Z" fill="#858585" stroke="#263238" stroke-linecap="round" stroke-linejoin="round"/>
<path d="M165.101 129.811C165.101 129.811 166.379 137.21 167.554 143.417C168.355 147.626 168.406 160.061 168.406 160.061L172.487 185.736L177.518 185.059C177.518 185.059 177.578 169.254 177.012 164.185C176.884 163.056 176.675 159.703 176.675 159.703C176.675 159.703 176.867 146.293 177.902 141.811C178.643 138.616 180.117 135.259 178.328 128.712L165.101 129.811Z" fill="#263238" stroke="#263238" stroke-linecap="round" stroke-linejoin="round"/>
<path d="M169.511 160.785C170.023 161.493 170.784 161.982 171.641 162.153" stroke="#7F7F7F" stroke-width="0.75" stroke-linecap="round" stroke-linejoin="round"/>
<path d="M171.644 184.582L171.933 186.464L178.17 185.796L178.127 183.768L171.644 184.582Z" fill="white" stroke="#263238" stroke-linecap="round" stroke-linejoin="round"/>
<path d="M141.36 95.5816L139.984 93.2684C139.984 93.2684 139.651 89.4898 138.885 88.7528C138.118 88.0158 136.414 85.8475 136.171 86.2735C135.788 86.9551 137.206 88.1692 137.206 88.1692L137.466 89.575C137.466 89.575 135.17 87.9221 134.522 87.9221C134.522 87.9221 132.691 85.7538 132.043 85.7495C131.396 85.7453 132.307 87.249 132.307 87.249C132.307 87.249 131.69 86.7762 131.57 87.0701C131.451 87.3641 132.367 88.3694 132.367 88.3694C132.367 88.3694 132.013 88.7528 132.546 89.575C132.472 89.8406 132.473 90.1214 132.548 90.3866C132.623 90.6518 132.77 90.8912 132.972 91.0788C133.679 91.6411 137.479 93.7924 137.479 93.7924L138.757 96.8L141.36 95.5816Z" fill="#858585" stroke="#263238" stroke-linecap="round" stroke-linejoin="round"/>
<path d="M132.87 88.4291C132.87 88.4291 133.373 88.6336 133.164 89.3705C133.365 89.6556 133.477 89.9933 133.488 90.3418C133.539 90.9893 136.819 90.6698 137.705 92.0458" stroke="#263238" stroke-width="0.75" stroke-linecap="round" stroke-linejoin="round"/>
<path d="M132.87 87.6324L134.208 89.0468" stroke="#263238" stroke-width="0.75" stroke-linecap="round" stroke-linejoin="round"/>
<path d="M155.563 94.998L146.783 101.84L140.768 93.6433L137.705 95.1769C137.705 95.1769 142.519 108.477 146.161 108.477C150.034 108.477 157.395 102.257 157.395 102.257C157.395 102.257 157.859 101.068 155.563 94.998Z" fill="white" stroke="#263238" stroke-linecap="round" stroke-linejoin="round"/>
<path d="M147.114 102.491C147.32 102.928 147.473 103.387 147.57 103.859" stroke="#263238" stroke-width="0.75" stroke-linecap="round" stroke-linejoin="round"/>
<path d="M155.562 94.998L157.433 119.753V130.036C157.433 130.036 168.206 131.314 178.835 129.764L178.469 119.178L179.546 95.5816C179.546 95.5816 174.613 92.016 167.039 92.016C159.465 92.016 155.562 94.998 155.562 94.998Z" fill="white" stroke="#263238" stroke-linecap="round" stroke-linejoin="round"/>
<path opacity="0.2" d="M178.836 129.764L178.495 120.277C178.312 124.848 173.268 123.131 172.126 122.918C170.904 122.688 169.498 126.718 169.498 126.718C169.498 126.718 164.812 127.523 161.144 127.238C157.476 126.952 157.421 123.604 157.421 123.604V130.036C157.421 130.036 168.207 131.332 178.836 129.764Z" fill="black"/>
<path d="M162.48 119.514C166.998 119.028 171.334 117.467 175.124 114.96Z" fill="white"/>
<path d="M162.48 119.514C166.998 119.028 171.334 117.467 175.124 114.96" stroke="#263238" stroke-width="0.75" stroke-linecap="round" stroke-linejoin="round"/>
<path d="M160.602 119.642C160.602 119.642 160.964 119.642 161.603 119.595Z" fill="white"/>
<path d="M160.602 119.642C160.602 119.642 160.964 119.642 161.603 119.595" stroke="#263238" stroke-width="0.75" stroke-linecap="round" stroke-linejoin="round"/>
<path d="M164.248 96.1908L162.382 95.5134L160.602 97.2345L161.905 91.9095L163.477 90.6741L164.278 91.181L167.856 91.0447L170.638 91.2705L171.963 90.8615L173.377 92.2758L170.229 98.2952L168.909 96.0161L165.995 96.3782L164.248 96.1908Z" fill="white"/>
<path opacity="0.5" d="M164.248 96.1908L162.382 95.5134L160.602 97.2345L161.905 91.9095L163.477 90.6741L164.278 91.181L167.856 91.0447L170.638 91.2705L171.963 90.8615L173.377 92.2758L170.229 98.2952L168.909 96.0161L165.995 96.3782L164.248 96.1908Z" fill="white"/>
<path d="M164.248 96.1908L162.382 95.5134L160.602 97.2345L161.905 91.9095L163.477 90.6741L164.278 91.181L167.856 91.0447L170.638 91.2705L171.963 90.8615L173.377 92.2758L170.229 98.2952L168.909 96.0161L165.995 96.3782L164.248 96.1908Z" stroke="#263238" stroke-linecap="round" stroke-linejoin="round"/>
<path d="M170.447 92.2588L170.021 85.7495L165.906 86.478L165.054 89.5367L164.202 92.1864L163.797 92.229L164.917 98.3123L170.856 92.3483L170.447 92.2588Z" fill="#858585"/>
<path d="M160.33 86.2011C160.33 87.854 160.586 91.5517 162.856 91.9819C165.208 92.4292 167.904 89.7539 168.871 88.6847C169.114 88.419 169.303 88.1096 169.429 87.773L169.945 86.4056C170.282 86.4313 170.619 86.3604 170.916 86.2011H160.33Z" fill="#263238" stroke="#263238" stroke-width="0.5" stroke-linecap="round" stroke-linejoin="round"/>
<path d="M170.447 92.2588L170.021 85.7495L165.906 86.478L165.054 89.5367L164.202 92.1864L163.797 92.229L164.917 98.3123L170.856 92.3483L170.447 92.2588Z" stroke="#263238" stroke-linecap="round" stroke-linejoin="round"/>
<path d="M163.073 77.843C163.073 77.843 161.126 76.3605 162.081 75.1933C162.579 74.5883 163.227 75.385 163.227 75.385C163.227 75.385 162.882 73.5276 164.266 73.255C165.544 73.0164 165.493 74.4818 165.493 74.4818C165.493 74.4818 166.153 73.2251 167.308 73.5063C168.228 73.7278 167.874 75.0314 167.874 75.0314C167.874 75.0314 169.101 73.5063 170.371 74.1794C171.465 74.7545 170.562 76.1347 170.562 76.1347C170.562 76.1347 171.866 75.6746 172.594 76.4074C173.323 77.1401 172.594 78.1114 172.594 78.1114C172.594 78.1114 174.03 78.1114 174.094 79.1849C174.158 80.2584 172.982 80.4629 172.982 80.4629C172.982 80.4629 174.643 80.9996 174.656 82.3032C174.669 83.6068 173.557 83.1893 173.557 83.1893C173.557 83.1893 174.247 84.4162 173.672 85.0679C173.608 85.1552 173.523 85.226 173.426 85.2749C173.33 85.3237 173.223 85.3491 173.114 85.3491C173.006 85.3491 172.899 85.3237 172.802 85.2749C172.705 85.226 172.621 85.1552 172.556 85.0679C172.556 85.0679 173.276 86.6143 172.364 87.0659C171.712 87.3854 171.329 86.6015 171.329 86.6015C171.329 86.6015 170.78 87.9392 170.115 87.1213C169.45 86.3033 166.153 80.0028 166.153 80.0028L163.073 77.843Z" fill="#263238" stroke="#263238" stroke-width="0.75" stroke-linecap="round" stroke-linejoin="round"/>
<path d="M162.511 77.9027L161.284 80.4587C161.158 80.7251 161.093 81.016 161.093 81.3107V82.1116L160.415 83.8156C160.38 83.9043 160.352 83.9954 160.33 84.0882C160.113 84.9956 159.078 89.869 161.608 90.8616C163.84 91.7392 166.984 89.6219 168.139 88.7529C168.426 88.5362 168.67 88.2657 168.854 87.9563L169.621 86.7124C169.947 86.8096 170.295 86.8014 170.615 86.689C170.936 86.5765 171.213 86.3655 171.406 86.0861C172.092 85.1021 172.884 84.5696 171.943 83.6835C171.001 82.7974 170.132 84.216 170.132 84.216L170.26 81.7154L169.169 79.7984L169.114 78.5928C169.114 78.5928 165.544 78.1966 163.15 76.8888L162.511 77.9027Z" fill="white" stroke="#263238" stroke-width="0.75" stroke-linecap="round" stroke-linejoin="round"/>
<path d="M162.511 77.9027L161.284 80.4587C161.158 80.7251 161.093 81.016 161.093 81.3107V82.1116L160.415 83.8156C160.38 83.9043 160.352 83.9954 160.33 84.0882C160.113 84.9956 159.078 89.869 161.608 90.8616C163.84 91.7392 166.984 89.6219 168.139 88.7529C168.426 88.5362 168.67 88.2657 168.854 87.9563L169.621 86.7124C169.947 86.8096 170.295 86.8014 170.615 86.689C170.936 86.5765 171.213 86.3655 171.406 86.0861C172.092 85.1021 172.884 84.5696 171.943 83.6835C171.001 82.7974 170.132 84.216 170.132 84.216L170.26 81.7154L169.169 79.7984L169.114 78.5928C169.114 78.5928 165.544 78.1966 163.15 76.8888L162.511 77.9027Z" fill="#858585" stroke="#263238" stroke-linecap="round" stroke-linejoin="round"/>
<path d="M164.683 86.6313C163.993 87.9647 163.056 87.7432 162.468 87.4109" stroke="#263238" stroke-width="0.75" stroke-linecap="round" stroke-linejoin="round"/>
<path d="M164.695 83.6025C164.602 83.9049 164.41 84.1137 164.269 84.0711C164.129 84.0285 164.082 83.743 164.176 83.4406C164.269 83.1381 164.461 82.9251 164.602 82.972C164.742 83.0188 164.789 83.3 164.695 83.6025Z" fill="#263238"/>
<path d="M161.851 82.7207C161.757 83.0274 161.565 83.2361 161.425 83.1893C161.284 83.1424 161.237 82.8613 161.331 82.5588C161.425 82.2563 161.621 82.0476 161.757 82.0945C161.893 82.1413 161.944 82.4182 161.851 82.7207Z" fill="#263238"/>
<path d="M161.646 80.7526C161.758 80.721 161.876 80.713 161.993 80.7291C162.109 80.7452 162.22 80.7851 162.32 80.8463C162.42 80.9075 162.506 80.9886 162.573 81.0846C162.641 81.1807 162.687 81.2895 162.711 81.4044" stroke="#263238" stroke-width="0.75" stroke-linecap="round" stroke-linejoin="round"/>
<path d="M164.096 81.9155C164.096 81.9155 165.088 80.8718 165.757 81.9794" stroke="#263238" stroke-width="0.75" stroke-linecap="round" stroke-linejoin="round"/>
<path d="M162.732 82.9891C162.643 83.3961 162.452 83.7736 162.176 84.086C161.9 84.3983 161.549 84.6351 161.156 84.774L161.932 86.0052" stroke="#263238" stroke-width="0.75" stroke-linecap="round" stroke-linejoin="round"/>
<path d="M167.678 131.83L167.461 133.146C167.43 133.364 167.483 133.585 167.611 133.763C167.739 133.942 167.931 134.064 168.147 134.105L181.808 136.346C182.026 136.377 182.247 136.323 182.425 136.195C182.604 136.067 182.726 135.876 182.767 135.66L182.98 134.343L167.678 131.83Z" fill="white" stroke="#263238" stroke-width="0.75" stroke-linecap="round" stroke-linejoin="round"/>
<path d="M183.592 126.049L169.774 123.781C169.363 123.713 168.976 123.992 168.908 124.403L167.539 132.747C167.471 133.158 167.75 133.546 168.161 133.614L181.978 135.881C182.389 135.949 182.777 135.67 182.845 135.259L184.214 126.915C184.282 126.504 184.003 126.116 183.592 126.049Z" fill="white"/>
<path opacity="0.5" d="M183.591 126.049L169.773 123.781C169.362 123.713 168.975 123.992 168.907 124.403L167.538 132.747C167.47 133.158 167.749 133.546 168.16 133.614L181.977 135.881C182.388 135.949 182.776 135.67 182.844 135.259L184.213 126.915C184.281 126.504 184.002 126.116 183.591 126.049Z" fill="white"/>
<path d="M183.592 126.049L169.774 123.781C169.363 123.713 168.976 123.992 168.908 124.403L167.539 132.747C167.471 133.158 167.75 133.546 168.161 133.614L181.978 135.881C182.389 135.949 182.777 135.67 182.845 135.259L184.214 126.915C184.282 126.504 184.003 126.116 183.592 126.049Z" stroke="#263238" stroke-linecap="round" stroke-linejoin="round"/>
<path d="M178.26 127.604L177.506 130.16L174.95 131.988C174.588 133.106 174.162 134.203 173.672 135.272C173.64 135.332 173.623 135.398 173.623 135.466C173.623 135.534 173.641 135.601 173.674 135.66C173.707 135.719 173.755 135.769 173.813 135.805C173.871 135.84 173.937 135.861 174.004 135.864C174.358 135.864 174.771 135.698 174.997 135.012C174.997 135.012 175.095 136.358 175.926 135.536C175.926 135.536 176.433 136.84 177.225 135.813C177.225 135.813 179.061 136.086 179.355 134.761C179.649 133.436 180.083 131.101 180.083 131.101L181.251 128.362L178.26 127.604Z" fill="#858585" stroke="#263238" stroke-linecap="round" stroke-linejoin="round"/>
<path d="M174.979 134.488L175.269 132.516" stroke="#263238" stroke-width="0.75" stroke-linecap="round" stroke-linejoin="round"/>
<path d="M175.436 134.616C175.436 134.616 175.636 135.268 176.087 135.161C176.539 135.055 177.182 135.557 178.588 134.965" stroke="#263238" stroke-width="0.75" stroke-linecap="round" stroke-linejoin="round"/>
<path d="M179.547 95.5816C179.547 95.5816 185.937 113.337 185.818 115.932C185.698 118.526 181.153 129.811 181.153 129.811L177.643 128.695L179.986 115.459L177.885 106.261C177.885 106.261 177.408 99.5178 179.547 95.5816Z" fill="white" stroke="#263238" stroke-linecap="round" stroke-linejoin="round"/>
<path d="M180.772 115.165C181.008 114.984 181.281 114.859 181.572 114.798C181.862 114.737 182.162 114.741 182.451 114.811" stroke="#263238" stroke-width="0.75" stroke-linecap="round" stroke-linejoin="round"/>
<path d="M176.62 128.976C176.493 128.807 176.397 128.616 176.339 128.413C176.093 128.409 175.855 128.497 175.672 128.661C175.489 128.825 175.375 129.052 175.353 129.297C175.33 129.542 175.402 129.786 175.552 129.98C175.703 130.174 175.921 130.304 176.164 130.343C176.419 130.385 176.68 130.324 176.89 130.174C177.1 130.024 177.242 129.797 177.284 129.542C177.01 129.426 176.778 129.228 176.62 128.976V128.976Z" fill="white"/>
<path d="M51.9458 91.5005L52.7211 95.3218L44.1074 95.6839L45.6027 85.0935L51.4048 85.7666L51.9458 91.5005Z" fill="white"/>
<path d="M55.8062 85.7026L48.6025 87.8326C48.6924 88.6583 48.8637 89.4731 49.1137 90.2651C49.5397 91.492 52.1341 93.6731 53.7997 93.6475C55.4654 93.622 55.6528 88.314 55.6528 88.314L56.6582 87.756C56.7158 87.7232 56.7657 87.6786 56.8048 87.6251C56.8438 87.5716 56.8711 87.5104 56.8848 87.4456C56.8985 87.3808 56.8983 87.3138 56.8842 87.2491C56.8701 87.1844 56.8424 87.1234 56.803 87.0701L55.8062 85.7026Z" fill="#263238" stroke="#263238" stroke-width="0.75" stroke-linecap="round" stroke-linejoin="round"/>
<path d="M51.9458 91.5005L52.7211 95.3218L44.1074 95.6839L45.6027 85.0935L51.4048 85.7666L51.9458 91.5005Z" stroke="#263238" stroke-linecap="round" stroke-linejoin="round"/>
<path d="M52.3421 78.0389C52.3421 78.0389 54.4337 78.4649 54.2207 76.1944C54.0077 73.9238 50.1098 75.3125 48.0778 75.5681C46.0458 75.8237 39.4854 78.2732 41.8071 82.1413C41.8071 82.1413 40.4396 84.3224 45.3642 87.9818C45.3642 87.9818 47.7029 86.8827 48.9852 88.4887L49.9863 86.5376L52.5423 82.0476L52.3421 78.0389Z" fill="#263238" stroke="#263238" stroke-linecap="round" stroke-linejoin="round"/>
<path d="M52.1885 77.6982C52.1885 77.6982 54.1907 78.8143 55.3409 77.417C55.3409 77.417 55.4687 80.399 52.1885 77.6982Z" fill="#263238" stroke="#263238" stroke-linecap="round" stroke-linejoin="round"/>
<path d="M52.3978 77.3871C52.3978 77.3871 55.3798 80.5268 55.2776 82.6781V84.6419L56.8538 86.4141C56.8979 86.4595 56.9313 86.5141 56.9516 86.574C56.9719 86.6338 56.9786 86.6975 56.9713 86.7603C56.964 86.8231 56.9427 86.8835 56.9091 86.9371C56.8756 86.9907 56.8305 87.0361 56.7771 87.0701L55.8612 87.7049C55.8612 87.7049 56.1296 92.7317 54.5534 92.9106C52.9772 93.0895 50.353 91.2066 49.8291 90.099C49.4344 89.0827 49.1488 88.0274 48.9771 86.9509C48.5183 86.8266 48.1072 86.5679 47.7967 86.208C47.4862 85.8482 47.2905 85.4036 47.2347 84.9316C47.0515 83.2787 48.7172 83.3256 49.1475 84.4076L49.4968 85.2895L50.5788 85.2511C50.5788 85.2511 49.9611 83.692 50.3275 83.2319C50.6938 82.7718 52.1337 81.6514 51.4734 80.5821C50.8131 79.5129 51.0346 77.6939 52.3978 77.3871Z" fill="white" stroke="#263238" stroke-linecap="round" stroke-linejoin="round"/>
<path d="M54.1016 88.6889C54.2256 88.9091 54.4158 89.0848 54.6451 89.191C54.8744 89.2973 55.1314 89.3288 55.3796 89.281" stroke="#263238" stroke-width="0.75" stroke-linecap="round" stroke-linejoin="round"/>
<path d="M53.3184 82.6909C53.3184 82.6909 53.9957 81.7494 54.639 82.6099" stroke="#263238" stroke-linecap="round" stroke-linejoin="round"/>
<path d="M54.387 84.6547C54.387 84.9487 54.272 85.1915 54.1144 85.1957C53.9568 85.2 53.8205 84.9657 53.8119 84.6718C53.8034 84.3778 53.927 84.135 54.0846 84.1307C54.2422 84.1265 54.3785 84.348 54.387 84.6547Z" fill="#263238"/>
<path d="M40.7254 179.022L39.4814 189.728L43.1834 190.298L45.2239 179.717L40.7254 179.022Z" fill="white" stroke="#263238" stroke-linecap="round" stroke-linejoin="round"/>
<path d="M38.9834 131.719C38.9834 131.719 39.1325 137.922 41.3221 142.284L41.8206 158.745L39.2944 185.267L44.9133 185.804L50.0253 158.063L51.7293 132.929L38.9834 131.719Z" fill="white" stroke="#263238" stroke-linecap="round" stroke-linejoin="round"/>
<path opacity="0.2" d="M50.9365 145.015L50.4679 142.063L48.3379 132.771L47.946 132.571L39 131.719C39 131.719 39 132.737 39.2002 134.241L43.6178 136.746C43.722 138.319 44.0773 139.865 44.6701 141.326C44.7231 141.453 44.7425 141.592 44.7264 141.729C44.7102 141.866 44.659 141.997 44.5777 142.109C44.4964 142.221 44.3877 142.309 44.2622 142.367C44.1366 142.424 43.9983 142.449 43.8607 142.437C43.4048 142.403 43.0087 142.437 43.0087 142.736C43.0087 143.426 46.34 145.654 46.34 145.654C46.34 145.654 49.7011 156.517 49.5818 160.53L50.0377 158.059L50.9365 145.015Z" fill="black"/>
<path d="M52.0234 179.725L52.4281 190.494H56.1727L56.5731 179.725H52.0234Z" fill="white" stroke="#263238" stroke-linecap="round" stroke-linejoin="round"/>
<path d="M62.136 192.011C60.8999 191.634 59.6973 191.156 58.5406 190.58C57.9868 190.235 57.2114 189.106 56.6406 188.786C56.5209 188.735 56.3918 188.708 56.2615 188.708C56.1311 188.708 56.0021 188.735 55.8823 188.786C55.6097 189.008 55.5969 190.162 55.5969 190.162C55.5969 190.162 55.1155 188.986 54.7662 188.786C54.2806 188.514 52.96 188.433 52.5297 188.786C51.814 189.37 51.5542 191.398 51.4136 192.309C51.3795 192.509 51.4136 193.617 51.4136 193.617H62.9156V193.11C62.9164 192.868 62.8417 192.633 62.702 192.436C62.5622 192.239 62.3643 192.09 62.136 192.011V192.011Z" fill="#263238" stroke="#263238" stroke-linecap="round" stroke-linejoin="round"/>
<path d="M59.8573 132.23L58.9371 157.113L57.3993 185.523H51.546C51.546 185.523 50.3192 163.716 50.6259 157.407L47.5544 142.816C47.5544 142.816 44.3296 138.514 45.0964 133.295L59.8573 132.23Z" fill="white" stroke="#263238" stroke-linecap="round" stroke-linejoin="round"/>
<path d="M51.0264 183.41L51.2181 186.827H57.6294L58.1278 183.41H51.0264Z" fill="white" stroke="#263238" stroke-linecap="round" stroke-linejoin="round"/>
<path d="M38.8254 183.116L38.6934 186.533L45.0748 187.142L45.897 183.789L38.8254 183.116Z" fill="white" stroke="#263238" stroke-linecap="round" stroke-linejoin="round"/>
<path d="M69.5616 115.851L60.7051 110.219L70.0387 100.885L78.8995 106.517L69.5616 115.851Z" fill="white" stroke="#263238" stroke-linecap="round" stroke-linejoin="round"/>
<path d="M70.068 113.925L62.9453 109.397L70.4514 101.891L77.5742 106.419L70.068 113.925Z" fill="white" stroke="#263238" stroke-width="0.75" stroke-linecap="round" stroke-linejoin="round"/>
<path d="M70.5877 106.151L71.8317 104.907L70.2342 103.893L68.9902 105.133L70.5877 106.151Z" stroke="#263238" stroke-width="0.75" stroke-linecap="round" stroke-linejoin="round"/>
<path d="M68.659 108.085L69.9029 106.841L68.3012 105.823L67.0615 107.067L68.659 108.085Z" stroke="#263238" stroke-width="0.75" stroke-linecap="round" stroke-linejoin="round"/>
<path d="M66.6604 110.083L67.9 108.839L66.3025 107.821L65.0586 109.065L66.6604 110.083Z" stroke="#263238" stroke-width="0.75" stroke-linecap="round" stroke-linejoin="round"/>
<path d="M73.6335 102.338L72.4577 103.518C72.4021 103.573 72.3596 103.641 72.3335 103.715C72.3074 103.789 72.2983 103.868 72.3068 103.946C72.3154 104.024 72.3415 104.1 72.3831 104.166C72.4247 104.233 72.4808 104.29 72.5472 104.332L74.2512 105.426C74.439 105.546 74.6621 105.598 74.8836 105.574C75.1051 105.55 75.3117 105.452 75.4696 105.294L76.5559 104.204L73.6335 102.338Z" fill="#858585" stroke="#263238" stroke-linecap="round" stroke-linejoin="round"/>
<path d="M42.1182 95.0661L43.656 91.688C43.656 91.688 52.5637 90.6911 54.9408 98.1376L42.1182 95.0661Z" fill="#858585" stroke="#263238" stroke-linecap="round" stroke-linejoin="round"/>
<path d="M37.0618 97.9459C37.0618 97.9459 34.8636 114.786 35.4472 120.754C35.9073 125.474 39.0171 129.47 39.0171 129.47L43.6264 127.664L41.2834 120.754C41.2834 120.754 42.0119 108.315 42.702 105.418L37.0618 97.9459Z" fill="#858585" stroke="#263238" stroke-linecap="round" stroke-linejoin="round"/>
<path d="M37.6836 128.643L38.9829 130.198L44.3079 128.124L43.6178 126.049L37.6836 128.643Z" fill="#858585" stroke="#263238" stroke-linecap="round" stroke-linejoin="round"/>
<path d="M37.0609 97.9458C37.0609 97.9458 36.3665 107.62 38.3389 114.419C40.3113 121.218 38.3389 132.384 38.3389 132.384C38.3389 132.384 47.417 138.258 61.3429 133.764C61.3429 133.764 59.6176 100.706 57.313 98.866C55.0083 97.0257 42.0025 90.0009 37.0609 97.9458Z" fill="#858585" stroke="#263238" stroke-linecap="round" stroke-linejoin="round"/>
<path opacity="0.2" d="M61.3435 133.764C61.3435 133.764 60.7513 122.432 59.8014 112.668C57.7864 107.778 54.4934 101.264 54.3187 110.411C54.0631 123.638 62.204 122.858 55.7544 125.163C54.3122 125.709 52.7673 125.931 51.2298 125.811C49.6923 125.692 48.2001 125.235 46.8595 124.473C46.7523 124.418 46.6295 124.401 46.5116 124.426C46.3936 124.45 46.2876 124.514 46.211 124.607C46.1344 124.7 46.0919 124.817 46.0905 124.937C46.0892 125.058 46.129 125.175 46.2034 125.27C47.8222 127.327 50.2803 128.609 52.1674 129.346C52.3378 129.412 52.4819 129.531 52.5772 129.687C52.6725 129.842 52.7136 130.025 52.6941 130.206C52.6747 130.388 52.5958 130.558 52.4697 130.69C52.3436 130.821 52.1774 130.908 51.997 130.935C45.9223 131.834 41.1596 128.605 38.9742 126.726C38.7186 129.981 38.2969 132.384 38.2969 132.384C38.2969 132.384 47.4175 138.258 61.3435 133.764Z" fill="black"/>
<path d="M57.3228 98.8703C58.1532 99.2514 58.8738 99.8364 59.4175 100.571C59.9612 101.305 60.3104 102.165 60.4326 103.071C60.8926 106.24 63.8406 115.974 63.8406 115.974L64.8204 115.339C65.6384 115.707 66.3122 116.334 66.7374 117.123C67.1626 117.913 67.3153 118.821 67.1719 119.706C67.1719 119.706 64.7778 124.392 62.1621 123.51C59.4741 122.598 57.9703 120.4 56.6241 116.805C55.9127 114.888 53.8594 109.111 53.8594 109.111" fill="#858585"/>
<path d="M57.3228 98.8703C58.1532 99.2514 58.8738 99.8364 59.4175 100.571C59.9612 101.305 60.3104 102.165 60.4326 103.071C60.8926 106.24 63.8406 115.974 63.8406 115.974L64.8204 115.339C65.6384 115.707 66.3122 116.334 66.7374 117.123C67.1626 117.913 67.3153 118.821 67.1719 119.706C67.1719 119.706 64.7778 124.392 62.1621 123.51C59.4741 122.598 57.9703 120.4 56.6241 116.805C55.9127 114.888 53.8594 109.111 53.8594 109.111" stroke="#263238" stroke-linecap="round" stroke-linejoin="round"/>
<path d="M65.0165 118.794C65.0319 119.045 65.0205 119.296 64.9824 119.544" stroke="#263238" stroke-width="0.75" stroke-linecap="round" stroke-linejoin="round"/>
<path d="M63.2568 120.754C63.2568 120.754 64.062 119.476 63.947 116.72C64.334 117.013 64.6296 117.41 64.7989 117.866" stroke="#263238" stroke-width="0.75" stroke-linecap="round" stroke-linejoin="round"/>
<path d="M65.4629 115.071L68.5344 112.881C68.6879 112.201 69.0221 111.574 69.502 111.067C69.9818 110.56 70.5894 110.192 71.2608 110.002C71.2608 110.002 72.6793 107.659 73.4845 107.931C74.2896 108.204 72.526 109.158 72.3726 110.385L73.0244 111.258C73.0244 111.258 75.1544 110.884 75.6741 110.193C75.6741 110.193 75.5591 111.655 74.7156 111.897C74.7156 111.897 74.7156 113.009 74.1405 112.971L69.9146 114.164L67.4566 118.752L65.4629 115.071Z" fill="white" stroke="#263238" stroke-linecap="round" stroke-linejoin="round"/>
<path d="M52.8877 125.721C53.3734 125.676 53.8548 125.594 54.3276 125.474" stroke="#263238" stroke-width="0.75" stroke-linecap="round" stroke-linejoin="round"/>
<path d="M40.8154 118.739C40.8154 118.739 45.3438 125.666 51.8914 125.759" stroke="#263238" stroke-width="0.75" stroke-linecap="round" stroke-linejoin="round"/>
<path d="M64.1387 115.148C64.1387 115.148 67.3422 117.567 67.0355 120.486L68.1899 118.275C68.1899 118.275 68.1516 116.413 65.5019 114.441L64.1387 115.148Z" fill="#858585" stroke="#263238" stroke-linecap="round" stroke-linejoin="round"/>
<path d="M51.4145 193.617H62.9165V193.11C62.9164 192.986 62.8963 192.862 62.8569 192.744H51.3975C51.3975 193.131 51.4145 193.617 51.4145 193.617Z" fill="white" stroke="#263238" stroke-width="0.75" stroke-linecap="round" stroke-linejoin="round"/>
<path d="M48.9895 192.011C47.7534 191.634 46.5508 191.156 45.3941 190.58C44.8403 190.235 44.065 189.106 43.4984 188.786C43.3779 188.735 43.2482 188.708 43.1171 188.708C42.986 188.708 42.8563 188.735 42.7358 188.786C42.4632 189.008 42.4504 190.162 42.4504 190.162C42.4504 190.162 41.9733 188.986 41.6197 188.786C41.1341 188.514 39.8135 188.433 39.3832 188.786C38.6675 189.37 38.4077 191.398 38.2671 192.309C38.233 192.509 38.2671 193.617 38.2671 193.617H49.7691V193.11C49.77 192.868 49.6953 192.633 49.5555 192.436C49.4157 192.239 49.2178 192.09 48.9895 192.011V192.011Z" fill="#263238" stroke="#263238" stroke-linecap="round" stroke-linejoin="round"/>
<path d="M38.2592 193.617H49.7612V193.11C49.7612 192.986 49.741 192.862 49.7016 192.744H38.2422C38.2422 193.131 38.2592 193.617 38.2592 193.617Z" fill="white" stroke="#263238" stroke-width="0.75" stroke-linecap="round" stroke-linejoin="round"/>
<path d="M55.227 157.573C55.227 157.573 54.0043 159.682 52.0234 158.877" stroke="#263238" stroke-width="0.75" stroke-linecap="round" stroke-linejoin="round"/>
<path d="M46.702 158.314C46.702 158.314 44.5081 160.189 42.6934 158.877" stroke="#263238" stroke-width="0.75" stroke-linecap="round" stroke-linejoin="round"/>
<path d="M69.5947 103.744L69.9014 105.269H72.6193L70.4084 104.753L70.5149 103.714L69.5947 103.744Z" fill="white"/>
</svg>
