<svg width="236" height="157" viewBox="0 0 236 157" fill="none" xmlns="http://www.w3.org/2000/svg">
<path d="M189.939 96.2851C189.939 96.2851 186.071 94.1405 185.785 98.998C185.499 103.856 184.781 135.453 184.781 135.453" stroke="#263238" stroke-width="2" stroke-linecap="round" stroke-linejoin="round"/>
<path d="M183.766 99.4282C183.766 99.4282 186.912 106.434 185.487 135.023" stroke="#263238" stroke-width="2" stroke-linecap="round" stroke-linejoin="round"/>
<path d="M186.877 97.2615C186.877 97.2615 185.395 98.2035 184.555 97.1265C183.715 96.0495 185.125 94.0587 183.882 93.2109C182.639 92.3631 180.49 93.6568 180.49 93.6568C180.49 93.6568 182.142 94.1403 182.088 95.0415C182.035 95.9427 181.239 96.2975 181.144 95.8893C181.05 95.4811 180.247 93.5123 178.904 94.3381C178.517 94.5667 178.181 94.8709 177.916 95.2324C177.65 95.594 177.461 96.0054 177.359 96.442C177.359 96.442 180.483 96.1091 180.672 97.2835C180.861 98.4578 179.392 97.0794 178.101 97.004C176.811 96.9286 175.634 97.117 175.719 97.8958C175.748 98.5847 175.707 99.2748 175.597 99.9556C176.302 99.3687 177.196 99.0545 178.114 99.0701C179.533 99.1518 179.48 100.053 178.19 99.9776C176.899 99.9022 175.792 101.127 175.792 101.127C175.792 101.127 176.969 103.133 178.463 104.126C179.958 105.118 180.496 104.754 180.666 103.997C180.836 103.24 180.439 101.271 181.342 101.325C182.246 101.378 179.848 104.725 181 104.923C182.151 105.121 183.079 104.785 183.382 104.028L183.696 103.271C183.696 103.271 183.293 101.312 183.47 100.546C183.646 99.7798 183.857 100.568 184.061 101.488C184.266 102.408 184.395 104.609 184.788 104.502C185.181 104.396 186.443 102.791 186.739 102.163C187.035 101.535 185.078 99.6102 185.1 99.224C185.122 98.8378 186.632 99.5725 186.868 99.9745C187.039 100.28 187.193 100.594 187.331 100.916C187.331 100.916 188.275 100.326 188.249 98.5175C188.224 96.7088 186.877 97.2615 186.877 97.2615Z" fill="white"/>
<path opacity="0.3" d="M186.877 97.2615C186.877 97.2615 185.395 98.2035 184.555 97.1265C183.715 96.0495 185.125 94.0587 183.882 93.2109C182.639 92.3631 180.49 93.6568 180.49 93.6568C180.49 93.6568 182.142 94.1403 182.088 95.0415C182.035 95.9427 181.239 96.2975 181.144 95.8893C181.05 95.4811 180.247 93.5123 178.904 94.3381C178.517 94.5667 178.181 94.8709 177.916 95.2324C177.65 95.594 177.461 96.0054 177.359 96.442C177.359 96.442 180.483 96.1091 180.672 97.2835C180.861 98.4578 179.392 97.0794 178.101 97.004C176.811 96.9286 175.634 97.117 175.719 97.8958C175.748 98.5847 175.707 99.2748 175.597 99.9556C176.302 99.3687 177.196 99.0545 178.114 99.0701C179.533 99.1518 179.48 100.053 178.19 99.9776C176.899 99.9022 175.792 101.127 175.792 101.127C175.792 101.127 176.969 103.133 178.463 104.126C179.958 105.118 180.496 104.754 180.666 103.997C180.836 103.24 180.439 101.271 181.342 101.325C182.246 101.378 179.848 104.725 181 104.923C182.151 105.121 183.079 104.785 183.382 104.028L183.696 103.271C183.696 103.271 183.293 101.312 183.47 100.546C183.646 99.7798 183.857 100.568 184.061 101.488C184.266 102.408 184.395 104.609 184.788 104.502C185.181 104.396 186.443 102.791 186.739 102.163C187.035 101.535 185.078 99.6102 185.1 99.224C185.122 98.8378 186.632 99.5725 186.868 99.9745C187.039 100.28 187.193 100.594 187.331 100.916C187.331 100.916 188.275 100.326 188.249 98.5175C188.224 96.7088 186.877 97.2615 186.877 97.2615Z" fill="#263238"/>
<path d="M179.376 101.504C180.342 100.314 181.761 98.7029 182.954 97.9336" stroke="#263238" stroke-linecap="round" stroke-linejoin="round"/>
<path d="M178.256 102.955C178.256 102.955 178.504 102.609 178.907 102.094" stroke="#263238" stroke-linecap="round" stroke-linejoin="round"/>
<path d="M183.583 98.2285C183.583 98.2285 185.018 100.251 185.282 102.333" stroke="#263238" stroke-linecap="round" stroke-linejoin="round"/>
<path d="M181.959 99.4251C181.959 99.4251 182.362 99.1928 182.211 101.764" stroke="#263238" stroke-linecap="round" stroke-linejoin="round"/>
<path d="M183.007 97.0259C183.007 97.0259 183.825 96.2974 183.394 94.853" stroke="#263238" stroke-linecap="round" stroke-linejoin="round"/>
<path d="M181.9 98.26L181.314 97.1924" stroke="#263238" stroke-linecap="round" stroke-linejoin="round"/>
<path d="M180.669 99.3496C180.669 99.3496 178.812 97.9492 177.651 97.8801" stroke="#263238" stroke-linecap="round" stroke-linejoin="round"/>
<path d="M192.15 93.4465C192.15 93.4465 192.09 95.5691 190.429 95.6727C188.768 95.7763 187.742 93.0163 186.043 93.6788C184.343 94.3414 184.18 97.3715 184.18 97.3715C184.18 97.3715 185.791 96.0495 186.659 96.7183C187.528 97.3872 187.326 98.4139 186.858 98.2507C186.389 98.0874 183.862 97.5253 183.777 99.4282C183.742 99.9702 183.817 100.514 183.998 101.026C184.179 101.538 184.463 102.008 184.831 102.408C184.831 102.408 186.628 99.0608 187.937 99.6699C189.246 100.279 186.858 100.81 185.901 102.047C184.944 103.284 184.328 104.587 185.174 105.036C185.885 105.477 186.549 105.988 187.157 106.562C187.157 106.562 186.93 104.81 187.981 103.45C189.032 102.091 189.897 102.757 188.944 103.994C187.99 105.231 188.462 107.171 188.462 107.171C188.462 107.171 191.276 107.366 193.289 106.543C195.303 105.721 195.316 104.945 194.668 104.248C194.019 103.551 191.779 102.618 192.446 101.752C193.113 100.885 194.838 105.564 195.822 104.546C196.807 103.529 197.1 102.377 196.549 101.557L195.996 100.738C195.996 100.738 193.755 99.7955 193.107 99.1079C192.459 98.4202 193.393 98.7342 194.454 99.155C195.514 99.5757 197.808 100.948 197.972 100.483C198.135 100.018 197.383 97.6572 196.955 96.9413C196.527 96.2254 193.261 96.8596 192.89 96.5739C192.518 96.2882 194.284 95.2802 194.847 95.3179C195.41 95.3556 196.106 95.4906 196.106 95.4906C196.106 95.4906 196.156 94.1498 194.325 92.9378C192.493 91.7257 192.15 93.4465 192.15 93.4465Z" fill="white"/>
<path opacity="0.2" d="M192.15 93.4465C192.15 93.4465 192.09 95.5691 190.429 95.6727C188.768 95.7763 187.742 93.0163 186.043 93.6788C184.343 94.3414 184.18 97.3715 184.18 97.3715C184.18 97.3715 185.791 96.0495 186.659 96.7183C187.528 97.3872 187.326 98.4139 186.858 98.2507C186.389 98.0874 183.862 97.5253 183.777 99.4282C183.742 99.9702 183.817 100.514 183.998 101.026C184.179 101.538 184.463 102.008 184.831 102.408C184.831 102.408 186.628 99.0608 187.937 99.6699C189.246 100.279 186.858 100.81 185.901 102.047C184.944 103.284 184.328 104.587 185.174 105.036C185.885 105.477 186.549 105.988 187.157 106.562C187.157 106.562 186.93 104.81 187.981 103.45C189.032 102.091 189.897 102.757 188.944 103.994C187.99 105.231 188.462 107.171 188.462 107.171C188.462 107.171 191.276 107.366 193.289 106.543C195.303 105.721 195.316 104.945 194.668 104.248C194.019 103.551 191.779 102.618 192.446 101.752C193.113 100.885 194.838 105.564 195.822 104.546C196.807 103.529 197.1 102.377 196.549 101.557L195.996 100.738C195.996 100.738 193.755 99.7955 193.107 99.1079C192.459 98.4202 193.393 98.7342 194.454 99.155C195.514 99.5757 197.808 100.948 197.972 100.483C198.135 100.018 197.383 97.6572 196.955 96.9413C196.527 96.2254 193.261 96.8596 192.89 96.5739C192.518 96.2882 194.284 95.2802 194.847 95.3179C195.41 95.3556 196.106 95.4906 196.106 95.4906C196.106 95.4906 196.156 94.1498 194.325 92.9378C192.493 91.7257 192.15 93.4465 192.15 93.4465Z" fill="#263238"/>
<path d="M191.293 103.834C190.758 102.056 190.109 99.5382 190.153 97.8237" stroke="#263238" stroke-linecap="round" stroke-linejoin="round"/>
<path d="M191.984 105.937C191.984 105.937 191.808 105.457 191.565 104.703" stroke="#263238" stroke-linecap="round" stroke-linejoin="round"/>
<path d="M190.876 97.3966C190.876 97.3966 193.881 97.3432 196.15 98.4956" stroke="#263238" stroke-linecap="round" stroke-linejoin="round"/>
<path d="M190.972 99.8332C190.972 99.8332 191.009 99.2743 193.489 101.18" stroke="#263238" stroke-linecap="round" stroke-linejoin="round"/>
<path d="M189.285 97.1579C189.285 97.1579 189.115 95.8422 187.368 95.2896" stroke="#263238" stroke-linecap="round" stroke-linejoin="round"/>
<path d="M189.76 99.1017L188.29 98.9573" stroke="#263238" stroke-linecap="round" stroke-linejoin="round"/>
<path d="M190.014 101.07C190.014 101.07 187.342 101.975 186.483 103.086" stroke="#263238" stroke-linecap="round" stroke-linejoin="round"/>
<path d="M174.325 107.576C174.325 107.576 182.777 113.153 182.632 134.737" stroke="#263238" stroke-width="2" stroke-linecap="round" stroke-linejoin="round"/>
<path d="M184.747 106.104C184.747 106.104 184.476 108.547 182.544 108.512C180.612 108.478 179.693 105.19 177.673 105.796C175.653 106.402 175.171 109.878 175.171 109.878C175.171 109.878 177.157 108.506 178.098 109.357C179.039 110.208 178.705 111.376 178.179 111.143C177.654 110.911 174.794 110.026 174.514 112.214C174.423 112.837 174.459 113.472 174.622 114.08C174.784 114.689 175.068 115.258 175.458 115.753C175.458 115.753 177.849 112.057 179.3 112.883C180.75 113.709 177.947 114.098 176.726 115.436C175.505 116.773 174.677 118.221 175.602 118.818C176.382 119.392 177.101 120.044 177.748 120.764C177.748 120.764 177.651 118.72 179.007 117.251C180.363 115.781 181.285 116.623 180.067 117.967C178.85 119.311 179.212 121.59 179.212 121.59C179.212 121.59 182.443 122.08 184.844 121.326C187.245 120.573 187.33 119.675 186.647 118.814C185.964 117.954 183.469 116.66 184.322 115.725C185.175 114.789 186.72 120.347 187.953 119.267C189.187 118.186 189.633 116.883 189.073 115.885L188.485 114.886C188.485 114.886 185.99 113.596 185.307 112.732C184.624 111.869 185.672 112.33 186.855 112.914C188.038 113.498 190.558 115.301 190.788 114.776C191.018 114.252 190.373 111.47 189.961 110.594C189.548 109.718 185.706 110.154 185.304 109.79C184.901 109.426 187.037 108.427 187.682 108.534C188.163 108.614 188.639 108.719 189.108 108.848C189.108 108.848 189.29 107.303 187.292 105.733C185.294 104.163 184.747 106.104 184.747 106.104Z" fill="white"/>
<path opacity="0.3" d="M184.747 106.104C184.747 106.104 184.476 108.547 182.544 108.512C180.612 108.478 179.693 105.19 177.673 105.796C175.653 106.402 175.171 109.878 175.171 109.878C175.171 109.878 177.157 108.506 178.098 109.357C179.039 110.208 178.705 111.376 178.179 111.143C177.654 110.911 174.794 110.026 174.514 112.214C174.423 112.837 174.459 113.472 174.622 114.08C174.784 114.689 175.068 115.258 175.458 115.753C175.458 115.753 177.849 112.057 179.3 112.883C180.75 113.709 177.947 114.098 176.726 115.436C175.505 116.773 174.677 118.221 175.602 118.818C176.382 119.392 177.101 120.044 177.748 120.764C177.748 120.764 177.651 118.72 179.007 117.251C180.363 115.781 181.285 116.623 180.067 117.967C178.85 119.311 179.212 121.59 179.212 121.59C179.212 121.59 182.443 122.08 184.844 121.326C187.245 120.573 187.33 119.675 186.647 118.814C185.964 117.954 183.469 116.66 184.322 115.725C185.175 114.789 186.72 120.347 187.953 119.267C189.187 118.186 189.633 116.883 189.073 115.885L188.485 114.886C188.485 114.886 185.99 113.596 185.307 112.732C184.624 111.869 185.672 112.33 186.855 112.914C188.038 113.498 190.558 115.301 190.788 114.776C191.018 114.252 190.373 111.47 189.961 110.594C189.548 109.718 185.706 110.154 185.304 109.79C184.901 109.426 187.037 108.427 187.682 108.534C188.163 108.614 188.639 108.719 189.108 108.848C189.108 108.848 189.29 107.303 187.292 105.733C185.294 104.163 184.747 106.104 184.747 106.104Z" fill="#263238"/>
<path d="M182.778 118.008C182.324 115.91 181.818 112.943 182.026 110.968" stroke="#263238" stroke-linecap="round" stroke-linejoin="round"/>
<path d="M183.375 120.501C183.375 120.501 183.218 119.929 183.007 119.038" stroke="#263238" stroke-linecap="round" stroke-linejoin="round"/>
<path d="M182.903 110.528C182.903 110.528 186.365 110.751 188.882 112.296" stroke="#263238" stroke-linecap="round" stroke-linejoin="round"/>
<path d="M182.779 113.354C182.779 113.354 182.877 112.726 185.558 115.144" stroke="#263238" stroke-linecap="round" stroke-linejoin="round"/>
<path d="M181.086 110.117C181.086 110.117 181.014 108.585 179.054 107.781" stroke="#263238" stroke-linecap="round" stroke-linejoin="round"/>
<path d="M181.452 112.403L179.771 112.098" stroke="#263238" stroke-linecap="round" stroke-linejoin="round"/>
<path d="M181.563 114.701C181.563 114.701 178.394 115.489 177.296 116.692" stroke="#263238" stroke-linecap="round" stroke-linejoin="round"/>
<path d="M177.619 124.589C177.619 124.589 183.063 128.734 183.636 134.882L182.506 114.296" stroke="#263238" stroke-width="2" stroke-linecap="round" stroke-linejoin="round"/>
<path d="M190.798 121.587C183.637 120.3 183.637 134.882 183.637 134.882" stroke="#263238" stroke-width="2" stroke-linecap="round" stroke-linejoin="round"/>
<path d="M184.495 134.737C184.495 134.737 180.342 104.574 192.362 104.574" stroke="#263238" stroke-width="2" stroke-linecap="round" stroke-linejoin="round"/>
<path d="M188.071 120.717C187.092 119.622 185.012 119.622 183.791 122.429C182.57 125.236 183.668 124.746 183.668 124.746C183.668 124.746 185.991 124.014 187.444 123.525C188.898 123.035 190.868 121.816 190.991 122.551C191.114 123.286 190.012 124.014 188.665 124.259C187.319 124.504 183.775 125.478 184.14 126.212C184.506 126.947 185.365 129.139 185.365 129.139C186.41 128.254 187.513 127.439 188.665 126.699C190.258 125.723 191.236 126.09 190.38 127.186C189.524 128.282 187.076 129.506 187.567 130.97C188.058 132.433 191.003 134.267 191.003 134.267C191.003 134.267 191.368 131.214 192.227 130.238C193.086 129.261 193.083 130.36 192.838 132.069C192.715 132.796 192.633 133.53 192.592 134.267L196.016 135.485C196.576 134.634 197.189 133.819 197.851 133.045L198.48 132.436C198.48 132.436 195.789 130.115 195.667 128.668C195.544 127.22 197.501 128.668 198.112 128.913C198.722 129.158 199.701 130.863 199.701 130.863C199.701 130.863 200.314 128.059 200.437 127.095L200.56 126.118C200.56 126.118 197.989 125.142 197.01 125.142C196.032 125.142 195.544 125.873 195.544 124.897C195.544 123.92 196.523 123.311 197.624 123.434C198.621 123.598 199.602 123.843 200.56 124.165C200.56 124.165 201.293 123.553 201.048 121.722C200.802 119.892 200.192 119.892 198.725 120.381C197.259 120.871 196.277 121.951 195.176 121.951C194.075 121.951 194.688 120.611 195.421 120.243C196.154 119.876 197.989 119.144 198.357 119.022C198.725 118.899 196.4 117.191 195.176 116.949C193.952 116.708 192.369 117.577 192.485 118.78C192.718 121.33 189.049 121.832 188.071 120.717Z" fill="white"/>
<path d="M195.943 133.284C195.981 133.651 196.006 134.022 196.019 134.389" stroke="#263238" stroke-linecap="round" stroke-linejoin="round"/>
<path d="M193.484 124.523C194.559 126.941 195.333 129.481 195.788 132.087" stroke="#263238" stroke-linecap="round" stroke-linejoin="round"/>
<path d="M193.045 123.543C192.441 122.243 191.984 121.452 191.984 121.452C192.646 121.134 193.194 120.622 193.558 119.986C193.844 119.408 194.264 118.907 194.782 118.522" stroke="#263238" stroke-linecap="round" stroke-linejoin="round"/>
<path d="M187.701 125.6C187.701 125.6 192.107 123.769 192.107 124.137" stroke="#263238" stroke-linecap="round" stroke-linejoin="round"/>
<path d="M194.552 123.283C194.552 123.283 196.509 122.306 198.221 122.306" stroke="#263238" stroke-linecap="round" stroke-linejoin="round"/>
<path d="M193.834 126.228C192.986 126.924 192.207 127.7 191.509 128.545C190.795 129.386 190.217 130.333 189.797 131.352" stroke="#263238" stroke-linecap="round" stroke-linejoin="round"/>
<path d="M195.162 126.699C195.162 126.699 197.733 125.967 199.077 127.186" stroke="#263238" stroke-linecap="round" stroke-linejoin="round"/>
<path d="M199.812 110.214C198.481 109.429 197.008 109.41 196.284 108.581C195.561 107.752 196.98 107.325 197.738 107.639C198.497 107.953 200.256 108.855 200.586 109.052C200.916 109.25 200.69 106.377 200.073 105.284C199.456 104.192 197.767 103.573 196.926 104.455C195.148 106.321 192.373 103.875 192.562 102.418C192.751 100.961 191.388 99.3937 188.471 100.314C185.554 101.234 186.637 101.739 186.637 101.739C186.637 101.739 188.714 103.011 190.048 103.799C191.382 104.587 193.585 105.259 193.109 105.831C192.634 106.402 191.36 106.054 190.293 105.203C189.226 104.352 186.165 102.317 185.85 103.074C185.535 103.831 184.434 105.9 184.434 105.9C185.79 106.107 187.13 106.404 188.446 106.788C190.227 107.344 190.592 108.321 189.201 108.396C187.811 108.471 185.281 107.429 184.481 108.757C183.682 110.085 184.233 113.499 184.233 113.499C184.233 113.499 186.782 111.775 188.081 111.781C189.381 111.787 188.55 112.506 187.096 113.442C186.466 113.827 185.858 114.247 185.274 114.698L186.596 118.08C187.607 117.943 188.625 117.871 189.645 117.863L190.507 117.923C190.507 117.923 190.507 114.375 191.527 113.323C192.546 112.271 192.729 114.704 192.946 115.326C193.163 115.948 192.512 117.804 192.512 117.804C192.512 117.804 195.029 116.425 195.853 115.879L196.675 115.329C196.675 115.329 195.731 112.754 195.101 112.017C194.472 111.279 193.588 111.389 194.324 110.761C195.06 110.133 196.168 110.447 196.797 111.367C197.324 112.226 197.782 113.126 198.166 114.058C198.166 114.058 199.11 114.211 200.334 112.827C201.558 111.442 201.146 110.996 199.812 110.214ZM188.238 114.12C187.26 113.634 189.582 112.657 189.582 112.657C190.441 112.528 189.217 114.61 188.242 114.114L188.238 114.12ZM189.884 109.564C189.469 109.357 190.718 108.936 190.718 108.936C192.53 109.272 190.306 109.768 189.887 109.558L189.884 109.564Z" fill="white"/>
<path d="M188.214 116.601C187.96 116.871 187.699 117.131 187.431 117.383" stroke="#263238" stroke-linecap="round" stroke-linejoin="round"/>
<path d="M193.234 109.005C192.11 111.401 190.695 113.649 189.021 115.7" stroke="#263238" stroke-linecap="round" stroke-linejoin="round"/>
<path d="M193.688 108.032C194.276 106.722 194.575 105.859 194.575 105.859C195.251 106.157 196.002 106.24 196.727 106.098C197.352 105.935 198.006 105.922 198.637 106.06" stroke="#263238" stroke-linecap="round" stroke-linejoin="round"/>
<path d="M192.623 107.702C192.9 107.464 188.63 105.344 188.63 105.344" stroke="#263238" stroke-linecap="round" stroke-linejoin="round"/>
<path d="M194.873 108.996C194.873 108.996 196.896 109.831 198.02 111.122" stroke="#263238" stroke-linecap="round" stroke-linejoin="round"/>
<path d="M192.176 110.362C191.093 110.18 189.995 110.104 188.898 110.132C187.794 110.145 186.699 110.33 185.653 110.682" stroke="#263238" stroke-linecap="round" stroke-linejoin="round"/>
<path d="M192.689 111.696C192.689 111.696 194.927 113.153 194.892 114.965" stroke="#263238" stroke-linecap="round" stroke-linejoin="round"/>
<path d="M180.81 127.12C179.74 126.492 178.554 126.473 177.978 125.804C177.402 125.136 178.535 124.8 179.145 125.054C179.756 125.308 181.169 126.03 181.439 126.187C181.71 126.344 181.521 124.037 181.024 123.167C180.527 122.297 179.168 121.788 178.507 122.501C177.075 123.999 174.841 122.033 174.995 120.859C175.149 119.684 174.051 118.425 171.694 119.166C169.337 119.907 170.218 120.316 170.218 120.316C170.218 120.316 171.889 121.339 172.962 121.97C174.035 122.602 175.794 123.145 175.426 123.606C175.058 124.068 174.02 123.785 173.161 123.098C172.301 122.41 169.838 120.774 169.583 121.383C169.328 121.992 168.447 123.672 168.447 123.672C169.538 123.838 170.616 124.076 171.675 124.385C173.107 124.834 173.4 125.622 172.279 125.682C171.159 125.742 169.133 124.903 168.503 125.971C167.874 127.038 168.305 129.786 168.305 129.786C168.305 129.786 170.357 128.401 171.402 128.404C172.446 128.407 171.779 128.988 170.612 129.742C170.104 130.051 169.613 130.387 169.142 130.75L170.206 133.472C171.019 133.362 171.839 133.303 172.66 133.296L173.356 133.347C173.356 133.347 173.356 130.489 174.177 129.645C174.998 128.8 175.143 130.756 175.316 131.255C175.489 131.755 174.967 133.249 174.967 133.249C174.967 133.249 176.999 132.141 177.657 131.698L178.318 131.259C178.318 131.259 177.556 129.186 177.04 128.593C176.524 127.999 175.819 128.087 176.411 127.572C177.003 127.057 177.893 127.33 178.4 128.062C178.825 128.754 179.194 129.478 179.504 130.229C179.504 130.229 180.263 130.351 181.247 129.236C182.232 128.122 181.877 127.751 180.81 127.12ZM171.496 130.26C170.709 129.868 172.578 129.083 172.578 129.083C173.267 128.985 172.283 130.656 171.493 130.263L171.496 130.26ZM172.824 126.592C172.487 126.426 173.494 126.09 173.494 126.09C174.954 126.373 173.157 126.765 172.824 126.596V126.592Z" fill="white"/>
<path d="M171.494 132.263C171.289 132.48 171.078 132.69 170.864 132.891" stroke="#263238" stroke-linecap="round" stroke-linejoin="round"/>
<path d="M175.514 126.153C174.608 128.079 173.469 129.888 172.122 131.538" stroke="#263238" stroke-linecap="round" stroke-linejoin="round"/>
<path d="M175.88 125.368C176.352 124.316 176.594 123.619 176.594 123.619C177.138 123.858 177.742 123.925 178.325 123.81C178.827 123.679 179.353 123.669 179.86 123.779" stroke="#263238" stroke-linecap="round" stroke-linejoin="round"/>
<path d="M171.807 123.214C171.807 123.214 175.246 124.919 175.023 125.098" stroke="#263238" stroke-linecap="round" stroke-linejoin="round"/>
<path d="M176.842 126.143C176.842 126.143 178.469 126.815 179.359 127.851" stroke="#263238" stroke-linecap="round" stroke-linejoin="round"/>
<path d="M174.662 127.242C173.791 127.095 172.908 127.033 172.025 127.057C171.136 127.067 170.255 127.217 169.413 127.5" stroke="#263238" stroke-linecap="round" stroke-linejoin="round"/>
<path d="M175.074 128.316C175.074 128.316 176.877 129.487 176.843 130.948" stroke="#263238" stroke-linecap="round" stroke-linejoin="round"/>
<path d="M176.443 106.967C176.443 106.967 175.096 107.944 174.24 106.967C173.384 105.991 174.608 104.038 173.381 103.306C172.154 102.574 170.203 103.915 170.203 103.915C170.203 103.915 171.792 104.283 171.792 105.137C171.792 105.991 171.059 106.355 170.936 105.991C170.814 105.627 169.958 103.793 168.734 104.647C168.381 104.884 168.08 105.19 167.849 105.547C167.618 105.904 167.462 106.304 167.39 106.722C167.39 106.722 170.323 106.233 170.568 107.332C170.814 108.431 169.344 107.209 168.123 107.209C166.902 107.209 165.798 107.454 165.92 108.186C165.987 108.835 165.987 109.489 165.92 110.139C166.554 109.547 167.379 109.2 168.246 109.162C169.589 109.162 169.589 110.016 168.369 110.016C167.148 110.016 166.166 111.238 166.166 111.238C166.166 111.238 167.39 113.068 168.856 113.922C170.323 114.776 170.814 114.412 170.936 113.677C171.059 112.943 170.568 111.115 171.424 111.115C172.28 111.115 170.203 114.412 171.301 114.532C172.399 114.651 173.259 114.29 173.504 113.555L173.749 112.823C173.749 112.823 173.259 110.993 173.381 110.261C173.504 109.53 173.749 110.261 173.992 111.115C174.234 111.969 174.483 114.045 174.848 113.922C175.213 113.8 176.317 112.214 176.562 111.605C176.808 110.996 174.848 109.285 174.848 108.92C174.848 108.556 176.317 109.162 176.562 109.53C176.74 109.806 176.902 110.091 177.05 110.384C177.05 110.384 177.906 109.774 177.783 108.063C177.661 106.352 176.443 106.967 176.443 106.967Z" fill="white"/>
<path d="M169.604 111.392C170.451 110.214 171.703 108.613 172.789 107.822" stroke="#263238" stroke-linecap="round" stroke-linejoin="round"/>
<path d="M168.614 112.823C168.614 112.823 168.831 112.484 169.181 111.976" stroke="#263238" stroke-linecap="round" stroke-linejoin="round"/>
<path d="M173.382 108.063C173.382 108.063 174.848 109.894 175.216 111.847" stroke="#263238" stroke-linecap="round" stroke-linejoin="round"/>
<path d="M171.918 109.272C171.918 109.272 172.283 109.027 172.283 111.47" stroke="#263238" stroke-linecap="round" stroke-linejoin="round"/>
<path d="M172.774 106.967C172.774 106.967 173.507 106.233 173.017 104.892" stroke="#263238" stroke-linecap="round" stroke-linejoin="round"/>
<path d="M171.795 108.186L171.182 107.209" stroke="#263238" stroke-linecap="round" stroke-linejoin="round"/>
<path d="M170.695 109.272C170.695 109.272 168.86 108.051 167.759 108.051" stroke="#263238" stroke-linecap="round" stroke-linejoin="round"/>
<path d="M188.794 134.307H179.338V147.888H188.794V134.307Z" fill="#263238" stroke="#263238" stroke-width="2" stroke-linecap="round" stroke-linejoin="round"/>
<path d="M103.625 29.9492C103.625 29.9492 103.739 25.9363 103.597 22.4854C103.455 19.0346 103.742 11.6367 103.742 11.6367" stroke="#263238" stroke-miterlimit="10"/>
<path d="M103.677 15.9889L102.106 14.7549" stroke="#263238" stroke-miterlimit="10"/>
<path d="M103.656 16.8367L104.216 15.9355" stroke="#263238" stroke-miterlimit="10"/>
<path d="M103.532 20.4068L104.926 19.2544" stroke="#263238" stroke-miterlimit="10"/>
<path d="M103.741 13.1534L103.005 12.4846" stroke="#263238" stroke-miterlimit="10"/>
<path d="M103.519 21.0316L102.597 20.0457" stroke="#263238" stroke-miterlimit="10"/>
<path d="M103.598 24.9065L101.682 23.1606" stroke="#263238" stroke-miterlimit="10"/>
<path d="M103.647 27.0573C104.136 26.8683 104.611 26.647 105.07 26.3948" stroke="#263238" stroke-miterlimit="10"/>
<path d="M102.581 16.6074C101.81 16.0139 99.2232 16.1175 98.726 17.3516C98.2288 18.5856 99.8116 20.5983 101.322 20.457C101.917 20.4005 102.175 20.3597 102.408 20.0268L100.284 17.9544L102.584 19.8008C102.648 19.6806 102.701 19.5544 102.741 19.424C102.766 19.3329 102.792 19.2324 102.81 19.1288C102.971 18.3909 103.308 17.1632 102.581 16.6074Z" fill="white"/>
<path d="M107.588 15.1755V15.2195C107.38 16.1395 106.329 16.6608 105.439 16.5823C105.315 16.5718 105.193 16.5497 105.074 16.5163C104.866 16.8451 104.737 17.2175 104.697 17.6044C104.658 17.9913 104.709 18.382 104.847 18.7457C104.884 18.8497 104.934 18.9488 104.995 19.0409C105.256 18.8274 108.05 16.4472 108.05 16.4472L105.149 19.2356C106.024 20.1776 108.076 20.0425 108.79 18.3124C109.504 16.5823 108.595 15.4236 107.588 15.1755Z" fill="white"/>
<path d="M106.165 11.957C104.661 11.643 103.314 12.3087 103.333 13.8756C103.342 14.221 103.421 14.5611 103.566 14.8748C103.711 15.1886 103.919 15.4694 104.177 15.6999L105.728 13.5898L104.425 15.8915C104.717 16.0901 105.055 16.2112 105.407 16.2431C106.294 16.3185 107.348 15.7973 107.556 14.8772C107.773 13.8505 107.669 12.2867 106.165 11.957Z" fill="white"/>
<path d="M104.408 6.50916C104.408 6.50916 104.254 6.55626 103.291 7.02412C102.727 7.33429 102.309 7.85457 102.129 8.47121C101.948 9.08785 102.02 9.75069 102.328 10.3148C102.595 10.8419 103.056 11.245 103.615 11.439L104.002 7.7055L103.838 11.4892C103.912 11.4967 103.985 11.4967 104.059 11.4892C104.688 11.4264 105.673 10.6791 105.767 9.1499C105.862 7.62072 104.408 6.50916 104.408 6.50916Z" fill="white"/>
<path d="M100.014 9.90345L102.918 12.2208C102.947 12.1187 102.956 12.0123 102.946 11.9068C102.811 10.5817 101.486 9.81239 100.611 9.53607C99.7367 9.25975 99.1294 9.75273 99.6926 11.0213C100.256 12.2898 101.732 12.9053 102.389 12.7138C102.546 12.6753 102.686 12.5898 102.792 12.4688L100.014 9.90345Z" fill="white"/>
<path d="M102.012 12.8739C101.566 12.8418 101.134 12.7093 100.748 12.4863C100.361 12.2633 100.031 11.9556 99.7806 11.5865C99.4721 11.5573 99.1644 11.6497 98.9233 11.8439C98.6822 12.0381 98.5269 12.3188 98.4904 12.6258C98.1946 14.0074 99.1953 15.4518 100.64 15.276C101.093 15.2524 101.524 15.0688 101.854 14.7579L99.274 12.406L102.037 14.5067C102.091 14.4097 102.125 14.303 102.137 14.1927C102.227 13.7503 102.183 13.2915 102.012 12.8739Z" fill="white"/>
<path d="M101.996 20.5576C101.761 20.6579 101.511 20.7173 101.256 20.7334C100.312 20.8213 99.3492 20.0834 98.8709 19.2168C98.59 19.2358 98.3236 19.3481 98.1142 19.536C97.9049 19.7238 97.7647 19.9763 97.716 20.253C97.4297 21.8701 98.9307 24.0022 100.447 23.663C100.842 23.5864 101.207 23.4016 101.501 23.1292L98.1912 19.9516L101.693 22.922C101.894 22.6657 102.023 22.3614 102.068 22.0397C102.234 21.5545 102.208 21.0244 101.996 20.5576Z" fill="white"/>
<path d="M108.657 23.864C107.543 22.5766 106.218 23.729 106.218 23.729C106.218 23.729 105.406 23.9959 105.098 25.1452C105.003 25.4938 105.018 25.863 105.139 26.2033L108.487 24.2565L105.221 26.3855C105.535 26.9632 106.19 27.3275 107.109 27.0606C108.575 26.6586 109.767 25.1609 108.657 23.864Z" fill="white"/>
<path d="M105.881 28.7373H101.246V35.5856H105.881V28.7373Z" fill="#263238"/>
<path d="M157.041 35.5291H95.9072V148.327H157.041V35.5291Z" fill="white" stroke="#263238" stroke-miterlimit="10"/>
<path d="M148.419 36.9575H97.1787V146.609H148.419V36.9575Z" fill="#263238" stroke="#263238" stroke-linecap="round" stroke-linejoin="round"/>
<path d="M148.419 53.9639H97.1787V55.581H148.419V53.9639Z" fill="white" stroke="#263238" stroke-miterlimit="10"/>
<path d="M148.419 72.6594H97.1787V74.2765H148.419V72.6594Z" fill="white" stroke="#263238" stroke-miterlimit="10"/>
<path d="M131.905 36.9766H130.816V53.9608H131.905V36.9766Z" fill="white" stroke="#263238" stroke-miterlimit="10"/>
<path d="M114.485 36.9766H113.396V53.9608H114.485V36.9766Z" fill="white" stroke="#263238" stroke-miterlimit="10"/>
<path d="M131.905 74.2954H130.816V91.2797H131.905V74.2954Z" fill="white" stroke="#263238" stroke-miterlimit="10"/>
<path d="M114.485 74.2954H113.396V91.2797H114.485V74.2954Z" fill="white" stroke="#263238" stroke-miterlimit="10"/>
<path d="M123.11 55.6721H122.021V72.6564H123.11V55.6721Z" fill="white" stroke="#263238" stroke-miterlimit="10"/>
<path d="M148.419 91.2827H97.1787V92.8998H148.419V91.2827Z" fill="white" stroke="#263238" stroke-miterlimit="10"/>
<path d="M148.419 109.916H97.1787V147.181H148.419V109.916Z" fill="white" stroke="#263238" stroke-miterlimit="10"/>
<path d="M123.11 92.9282H122.021V109.912H123.11V92.9282Z" fill="white" stroke="#263238" stroke-miterlimit="10"/>
<path d="M149.675 35.5195V148.302L157.044 148.327V35.5195H149.675Z" fill="#263238" stroke="#263238" stroke-linecap="round" stroke-linejoin="round"/>
<path d="M135.291 38.2952H132.66V53.9229H135.291V38.2952Z" fill="white" stroke="#263238" stroke-miterlimit="10"/>
<path d="M135.291 50.5664H132.66V51.8475H135.291V50.5664Z" fill="white" stroke="#263238" stroke-miterlimit="10"/>
<path d="M135.291 39.8811H132.66V41.1622H135.291V39.8811Z" fill="white" stroke="#263238" stroke-miterlimit="10"/>
<path d="M137.98 38.2952H135.35V53.9229H137.98V38.2952Z" fill="white" stroke="#263238" stroke-miterlimit="10"/>
<path d="M137.98 50.5664H135.35V51.8475H137.98V50.5664Z" fill="white" stroke="#263238" stroke-miterlimit="10"/>
<path d="M137.98 39.8811H135.35V41.1622H137.98V39.8811Z" fill="white" stroke="#263238" stroke-miterlimit="10"/>
<path d="M140.676 38.2952H138.045V53.9229H140.676V38.2952Z" fill="white" stroke="#263238" stroke-miterlimit="10"/>
<path d="M140.676 50.5664H138.045V51.8475H140.676V50.5664Z" fill="white" stroke="#263238" stroke-miterlimit="10"/>
<path d="M140.676 39.8809H138.045V41.162H140.676V39.8809Z" fill="white" stroke="#263238" stroke-miterlimit="10"/>
<path d="M143.365 38.2952H140.734V53.9229H143.365V38.2952Z" fill="white" stroke="#263238" stroke-miterlimit="10"/>
<path d="M147.748 38.2952H143.343V53.9229H147.748V38.2952Z" fill="white" stroke="#263238" stroke-miterlimit="10"/>
<path d="M143.365 50.5664H140.734V51.8475H143.365V50.5664Z" fill="white" stroke="#263238" stroke-miterlimit="10"/>
<path d="M143.365 39.8809H140.734V41.162H143.365V39.8809Z" fill="white" stroke="#263238" stroke-miterlimit="10"/>
<path d="M117.691 38.2952H115.061V53.9229H117.691V38.2952Z" fill="white" stroke="#263238" stroke-miterlimit="10"/>
<path d="M117.691 50.5664H115.061V51.8475H117.691V50.5664Z" fill="white" stroke="#263238" stroke-miterlimit="10"/>
<path d="M117.691 39.8809H115.061V41.162H117.691V39.8809Z" fill="white" stroke="#263238" stroke-miterlimit="10"/>
<path d="M120.383 38.2952H117.752V53.9229H120.383V38.2952Z" fill="white" stroke="#263238" stroke-miterlimit="10"/>
<path d="M120.383 50.5664H117.752V51.8475H120.383V50.5664Z" fill="white" stroke="#263238" stroke-miterlimit="10"/>
<path d="M120.383 39.8809H117.752V41.162H120.383V39.8809Z" fill="white" stroke="#263238" stroke-miterlimit="10"/>
<path d="M123.076 38.2952H120.445V53.9229H123.076V38.2952Z" fill="white" stroke="#263238" stroke-miterlimit="10"/>
<path d="M123.076 50.5664H120.445V51.8475H123.076V50.5664Z" fill="white" stroke="#263238" stroke-miterlimit="10"/>
<path d="M123.076 39.8811H120.445V41.1622H123.076V39.8811Z" fill="white" stroke="#263238" stroke-miterlimit="10"/>
<path d="M125.765 38.2952H123.135V53.9229H125.765V38.2952Z" fill="white" stroke="#263238" stroke-miterlimit="10"/>
<path d="M130.15 38.2952H125.745V53.9229H130.15V38.2952Z" fill="white" stroke="#263238" stroke-miterlimit="10"/>
<path d="M125.765 50.5664H123.135V51.8475H125.765V50.5664Z" fill="white" stroke="#263238" stroke-miterlimit="10"/>
<path d="M125.765 39.8811H123.135V41.1622H125.765V39.8811Z" fill="white" stroke="#263238" stroke-miterlimit="10"/>
<path d="M117.691 75.6707H115.061V91.2984H117.691V75.6707Z" fill="white" stroke="#263238" stroke-miterlimit="10"/>
<path d="M117.691 87.9419H115.061V89.223H117.691V87.9419Z" fill="white" stroke="#263238" stroke-miterlimit="10"/>
<path d="M117.691 77.2595H115.061V78.5407H117.691V77.2595Z" fill="white" stroke="#263238" stroke-miterlimit="10"/>
<path d="M120.383 75.6707H117.752V91.2984H120.383V75.6707Z" fill="white" stroke="#263238" stroke-miterlimit="10"/>
<path d="M120.383 87.9419H117.752V89.223H120.383V87.9419Z" fill="white" stroke="#263238" stroke-miterlimit="10"/>
<path d="M120.383 77.2595H117.752V78.5407H120.383V77.2595Z" fill="white" stroke="#263238" stroke-miterlimit="10"/>
<path d="M123.076 75.6707H120.445V91.2984H123.076V75.6707Z" fill="white" stroke="#263238" stroke-miterlimit="10"/>
<path d="M123.076 87.9419H120.445V89.223H123.076V87.9419Z" fill="white" stroke="#263238" stroke-miterlimit="10"/>
<path d="M123.076 77.2595H120.445V78.5407H123.076V77.2595Z" fill="white" stroke="#263238" stroke-miterlimit="10"/>
<path d="M125.765 75.6707H123.135V91.2984H125.765V75.6707Z" fill="white" stroke="#263238" stroke-miterlimit="10"/>
<path d="M130.15 75.6707H125.745V91.2984H130.15V75.6707Z" fill="white" stroke="#263238" stroke-miterlimit="10"/>
<path d="M125.765 87.9419H123.135V89.223H125.765V87.9419Z" fill="white" stroke="#263238" stroke-miterlimit="10"/>
<path d="M125.765 77.2595H123.135V78.5407H125.765V77.2595Z" fill="white" stroke="#263238" stroke-miterlimit="10"/>
<path d="M135.065 75.6707H132.435V91.2984H135.065V75.6707Z" fill="white" stroke="#263238" stroke-miterlimit="10"/>
<path d="M135.065 87.9419H132.435V89.223H135.065V87.9419Z" fill="white" stroke="#263238" stroke-miterlimit="10"/>
<path d="M135.065 77.2595H132.435V78.5407H135.065V77.2595Z" fill="white" stroke="#263238" stroke-miterlimit="10"/>
<path d="M137.759 75.6707H135.128V91.2984H137.759V75.6707Z" fill="white" stroke="#263238" stroke-miterlimit="10"/>
<path d="M137.759 87.9419H135.128V89.223H137.759V87.9419Z" fill="white" stroke="#263238" stroke-miterlimit="10"/>
<path d="M137.759 77.2595H135.128V78.5407H137.759V77.2595Z" fill="white" stroke="#263238" stroke-miterlimit="10"/>
<path d="M140.448 75.6707H137.817V91.2984H140.448V75.6707Z" fill="white" stroke="#263238" stroke-miterlimit="10"/>
<path d="M140.448 87.9419H137.817V89.223H140.448V87.9419Z" fill="white" stroke="#263238" stroke-miterlimit="10"/>
<path d="M140.448 77.2595H137.817V78.5407H140.448V77.2595Z" fill="white" stroke="#263238" stroke-miterlimit="10"/>
<path d="M143.141 75.6707H140.511V91.2984H143.141V75.6707Z" fill="white" stroke="#263238" stroke-miterlimit="10"/>
<path d="M147.522 75.6707H143.116V91.2984H147.522V75.6707Z" fill="white" stroke="#263238" stroke-miterlimit="10"/>
<path d="M143.141 87.9419H140.511V89.223H143.141V87.9419Z" fill="white" stroke="#263238" stroke-miterlimit="10"/>
<path d="M143.141 77.2595H140.511V78.5407H143.141V77.2595Z" fill="white" stroke="#263238" stroke-miterlimit="10"/>
<path d="M100.428 75.6707H97.7979V91.2984H100.428V75.6707Z" fill="white" stroke="#263238" stroke-miterlimit="10"/>
<path d="M100.428 87.9419H97.7979V89.223H100.428V87.9419Z" fill="white" stroke="#263238" stroke-miterlimit="10"/>
<path d="M100.428 77.2595H97.7979V78.5407H100.428V77.2595Z" fill="white" stroke="#263238" stroke-miterlimit="10"/>
<path d="M103.123 75.6707H100.492V91.2984H103.123V75.6707Z" fill="white" stroke="#263238" stroke-miterlimit="10"/>
<path d="M103.123 87.9419H100.492V89.223H103.123V87.9419Z" fill="white" stroke="#263238" stroke-miterlimit="10"/>
<path d="M103.123 77.2595H100.492V78.5406H103.123V77.2595Z" fill="white" stroke="#263238" stroke-miterlimit="10"/>
<path d="M105.814 75.6707H103.184V91.2984H105.814V75.6707Z" fill="white" stroke="#263238" stroke-miterlimit="10"/>
<path d="M105.814 87.9419H103.184V89.223H105.814V87.9419Z" fill="white" stroke="#263238" stroke-miterlimit="10"/>
<path d="M105.814 77.2595H103.184V78.5407H105.814V77.2595Z" fill="white" stroke="#263238" stroke-miterlimit="10"/>
<path d="M108.507 75.6707H105.876V91.2984H108.507V75.6707Z" fill="white" stroke="#263238" stroke-miterlimit="10"/>
<path d="M112.887 75.6707H108.481V91.2984H112.887V75.6707Z" fill="white" stroke="#263238" stroke-miterlimit="10"/>
<path d="M108.507 87.9419H105.876V89.223H108.507V87.9419Z" fill="white" stroke="#263238" stroke-miterlimit="10"/>
<path d="M108.507 77.2595H105.876V78.5407H108.507V77.2595Z" fill="white" stroke="#263238" stroke-miterlimit="10"/>
<path d="M100.093 38.2952H97.4619V53.9229H100.093V38.2952Z" fill="white" stroke="#263238" stroke-miterlimit="10"/>
<path d="M100.093 50.5664H97.4619V51.8475H100.093V50.5664Z" fill="white" stroke="#263238" stroke-miterlimit="10"/>
<path d="M100.093 39.8811H97.4619V41.1622H100.093V39.8811Z" fill="white" stroke="#263238" stroke-miterlimit="10"/>
<path d="M102.783 38.2952H100.152V53.9229H102.783V38.2952Z" fill="white" stroke="#263238" stroke-miterlimit="10"/>
<path d="M102.783 50.5664H100.152V51.8475H102.783V50.5664Z" fill="white" stroke="#263238" stroke-miterlimit="10"/>
<path d="M102.783 39.8811H100.152V41.1622H102.783V39.8811Z" fill="white" stroke="#263238" stroke-miterlimit="10"/>
<path d="M105.476 38.2952H102.846V53.9229H105.476V38.2952Z" fill="white" stroke="#263238" stroke-miterlimit="10"/>
<path d="M105.476 50.5664H102.846V51.8475H105.476V50.5664Z" fill="white" stroke="#263238" stroke-miterlimit="10"/>
<path d="M105.476 39.8809H102.846V41.162H105.476V39.8809Z" fill="white" stroke="#263238" stroke-miterlimit="10"/>
<path d="M108.167 38.2952H105.536V53.9229H108.167V38.2952Z" fill="white" stroke="#263238" stroke-miterlimit="10"/>
<path d="M112.55 38.2952H108.145V53.9229H112.55V38.2952Z" fill="white" stroke="#263238" stroke-miterlimit="10"/>
<path d="M108.167 50.5664H105.536V51.8475H108.167V50.5664Z" fill="white" stroke="#263238" stroke-miterlimit="10"/>
<path d="M108.167 39.8811H105.536V41.1622H108.167V39.8811Z" fill="white" stroke="#263238" stroke-miterlimit="10"/>
<path d="M107.877 56.9187H105.246V72.5465H107.877V56.9187Z" fill="white" stroke="#263238" stroke-miterlimit="10"/>
<path d="M107.877 69.1897H105.246V70.4708H107.877V69.1897Z" fill="white" stroke="#263238" stroke-miterlimit="10"/>
<path d="M107.877 58.5073H105.246V59.7884H107.877V58.5073Z" fill="white" stroke="#263238" stroke-miterlimit="10"/>
<path d="M105.281 56.9187H102.65V72.5465H105.281V56.9187Z" fill="white" stroke="#263238" stroke-miterlimit="10"/>
<path d="M105.281 69.1897H102.65V70.4708H105.281V69.1897Z" fill="white" stroke="#263238" stroke-miterlimit="10"/>
<path d="M105.281 58.5073H102.65V59.7885H105.281V58.5073Z" fill="white" stroke="#263238" stroke-miterlimit="10"/>
<path d="M102.685 56.9187H100.055V72.5465H102.685V56.9187Z" fill="white" stroke="#263238" stroke-miterlimit="10"/>
<path d="M102.685 69.1897H100.055V70.4708H102.685V69.1897Z" fill="white" stroke="#263238" stroke-miterlimit="10"/>
<path d="M102.685 58.5076H100.055V59.7887H102.685V58.5076Z" fill="white" stroke="#263238" stroke-miterlimit="10"/>
<path d="M100.093 56.9187H97.4619V72.5465H100.093V56.9187Z" fill="white" stroke="#263238" stroke-miterlimit="10"/>
<path d="M100.093 69.1897H97.4619V70.4708H100.093V69.1897Z" fill="white" stroke="#263238" stroke-miterlimit="10"/>
<path d="M100.093 58.5073H97.4619V59.7885H100.093V58.5073Z" fill="white" stroke="#263238" stroke-miterlimit="10"/>
<path d="M110.567 56.9187H107.937V72.5465H110.567V56.9187Z" fill="white" stroke="#263238" stroke-miterlimit="10"/>
<path d="M110.567 69.1897H107.937V70.4708H110.567V69.1897Z" fill="white" stroke="#263238" stroke-miterlimit="10"/>
<path d="M110.567 58.5073H107.937V59.7884H110.567V58.5073Z" fill="white" stroke="#263238" stroke-miterlimit="10"/>
<path d="M113.258 56.9187H110.627V72.5465H113.258V56.9187Z" fill="white" stroke="#263238" stroke-miterlimit="10"/>
<path d="M113.258 69.1897H110.627V70.4708H113.258V69.1897Z" fill="white" stroke="#263238" stroke-miterlimit="10"/>
<path d="M113.258 58.5073H110.627V59.7884H113.258V58.5073Z" fill="white" stroke="#263238" stroke-miterlimit="10"/>
<path d="M115.951 56.9187H113.32V72.5465H115.951V56.9187Z" fill="white" stroke="#263238" stroke-miterlimit="10"/>
<path d="M120.334 56.9187H115.929V72.5465H120.334V56.9187Z" fill="white" stroke="#263238" stroke-miterlimit="10"/>
<path d="M115.951 69.1897H113.32V70.4708H115.951V69.1897Z" fill="white" stroke="#263238" stroke-miterlimit="10"/>
<path d="M115.951 58.5076H113.32V59.7887H115.951V58.5076Z" fill="white" stroke="#263238" stroke-miterlimit="10"/>
<path d="M126.582 56.9187H123.951V72.5465H126.582V56.9187Z" fill="white" stroke="#263238" stroke-miterlimit="10"/>
<path d="M126.582 69.1897H123.951V70.4708H126.582V69.1897Z" fill="white" stroke="#263238" stroke-miterlimit="10"/>
<path d="M126.582 58.5073H123.951V59.7884H126.582V58.5073Z" fill="white" stroke="#263238" stroke-miterlimit="10"/>
<path d="M129.274 56.9187H126.644V72.5465H129.274V56.9187Z" fill="white" stroke="#263238" stroke-miterlimit="10"/>
<path d="M129.274 69.1897H126.644V70.4708H129.274V69.1897Z" fill="white" stroke="#263238" stroke-miterlimit="10"/>
<path d="M129.274 58.5073H126.644V59.7884H129.274V58.5073Z" fill="white" stroke="#263238" stroke-miterlimit="10"/>
<path d="M134.659 56.9147L132.207 57.948L138.374 72.5245L140.827 71.4912L134.659 56.9147Z" fill="white" stroke="#263238" stroke-miterlimit="10"/>
<path d="M139.504 68.3591L137.052 69.3923L137.557 70.587L140.01 69.5538L139.504 68.3591Z" fill="white" stroke="#263238" stroke-miterlimit="10"/>
<path d="M135.288 58.3962L132.836 59.4294L133.341 60.6241L135.794 59.5909L135.288 58.3962Z" fill="white" stroke="#263238" stroke-miterlimit="10"/>
<path d="M138.378 72.5182H143.869L146.339 71.4914L140.829 71.4851L138.378 72.5182Z" fill="white" stroke="#263238" stroke-miterlimit="10"/>
<path d="M134.662 56.9092H139.819L146.339 71.4913L140.83 71.4851L134.662 56.9092Z" fill="white" stroke="#263238" stroke-miterlimit="10"/>
<path d="M131.871 56.9187H129.24V72.5465H131.871V56.9187Z" fill="white" stroke="#263238" stroke-miterlimit="10"/>
<path d="M131.871 69.1897H129.24V70.4708H131.871V69.1897Z" fill="white" stroke="#263238" stroke-miterlimit="10"/>
<path d="M131.871 58.5073H129.24V59.7885H131.871V58.5073Z" fill="white" stroke="#263238" stroke-miterlimit="10"/>
<path d="M131.871 56.9187H134.662L132.208 57.9423L138.378 72.5182H131.871V56.9187Z" fill="white" stroke="#263238" stroke-miterlimit="10"/>
<path d="M107.877 94.228H105.246V109.856H107.877V94.228Z" fill="white" stroke="#263238" stroke-miterlimit="10"/>
<path d="M107.877 106.499H105.246V107.78H107.877V106.499Z" fill="white" stroke="#263238" stroke-miterlimit="10"/>
<path d="M107.877 95.8137H105.246V97.0948H107.877V95.8137Z" fill="white" stroke="#263238" stroke-miterlimit="10"/>
<path d="M105.281 94.228H102.65V109.856H105.281V94.228Z" fill="white" stroke="#263238" stroke-miterlimit="10"/>
<path d="M105.281 106.499H102.65V107.78H105.281V106.499Z" fill="white" stroke="#263238" stroke-miterlimit="10"/>
<path d="M105.281 95.8137H102.65V97.0949H105.281V95.8137Z" fill="white" stroke="#263238" stroke-miterlimit="10"/>
<path d="M102.685 94.2283H100.055V109.856H102.685V94.2283Z" fill="white" stroke="#263238" stroke-miterlimit="10"/>
<path d="M102.685 106.499H100.055V107.78H102.685V106.499Z" fill="white" stroke="#263238" stroke-miterlimit="10"/>
<path d="M102.685 95.8137H100.055V97.0948H102.685V95.8137Z" fill="white" stroke="#263238" stroke-miterlimit="10"/>
<path d="M100.093 94.228H97.4619V109.856H100.093V94.228Z" fill="white" stroke="#263238" stroke-miterlimit="10"/>
<path d="M100.093 106.499H97.4619V107.78H100.093V106.499Z" fill="white" stroke="#263238" stroke-miterlimit="10"/>
<path d="M100.093 95.8137H97.4619V97.0949H100.093V95.8137Z" fill="white" stroke="#263238" stroke-miterlimit="10"/>
<path d="M110.567 94.228H107.937V109.856H110.567V94.228Z" fill="white" stroke="#263238" stroke-miterlimit="10"/>
<path d="M110.567 106.499H107.937V107.78H110.567V106.499Z" fill="white" stroke="#263238" stroke-miterlimit="10"/>
<path d="M110.567 95.8137H107.937V97.0948H110.567V95.8137Z" fill="white" stroke="#263238" stroke-miterlimit="10"/>
<path d="M113.258 94.228H110.627V109.856H113.258V94.228Z" fill="white" stroke="#263238" stroke-miterlimit="10"/>
<path d="M113.258 106.499H110.627V107.78H113.258V106.499Z" fill="white" stroke="#263238" stroke-miterlimit="10"/>
<path d="M113.258 95.8137H110.627V97.0948H113.258V95.8137Z" fill="white" stroke="#263238" stroke-miterlimit="10"/>
<path d="M115.951 94.228H113.32V109.856H115.951V94.228Z" fill="white" stroke="#263238" stroke-miterlimit="10"/>
<path d="M120.334 94.228H115.929V109.856H120.334V94.228Z" fill="white" stroke="#263238" stroke-miterlimit="10"/>
<path d="M115.951 106.499H113.32V107.78H115.951V106.499Z" fill="white" stroke="#263238" stroke-miterlimit="10"/>
<path d="M115.951 95.8137H113.32V97.0948H115.951V95.8137Z" fill="white" stroke="#263238" stroke-miterlimit="10"/>
<path d="M126.582 94.228H123.951V109.856H126.582V94.228Z" fill="white" stroke="#263238" stroke-miterlimit="10"/>
<path d="M126.582 106.499H123.951V107.78H126.582V106.499Z" fill="white" stroke="#263238" stroke-miterlimit="10"/>
<path d="M126.582 95.8137H123.951V97.0948H126.582V95.8137Z" fill="white" stroke="#263238" stroke-miterlimit="10"/>
<path d="M129.274 94.228H126.644V109.856H129.274V94.228Z" fill="white" stroke="#263238" stroke-miterlimit="10"/>
<path d="M129.274 106.499H126.644V107.78H129.274V106.499Z" fill="white" stroke="#263238" stroke-miterlimit="10"/>
<path d="M129.274 95.8137H126.644V97.0948H129.274V95.8137Z" fill="white" stroke="#263238" stroke-miterlimit="10"/>
<path d="M134.659 94.2224L132.206 95.2556L138.374 109.832L140.826 108.799L134.659 94.2224Z" fill="white" stroke="#263238" stroke-miterlimit="10"/>
<path d="M139.439 105.389L136.99 106.425L137.497 107.618L139.946 106.582L139.439 105.389Z" fill="white" stroke="#263238" stroke-width="0.99925" stroke-miterlimit="10"/>
<path d="M135.285 95.7038L132.833 96.7371L133.338 97.9318L135.791 96.8985L135.285 95.7038Z" fill="white" stroke="#263238" stroke-miterlimit="10"/>
<path d="M138.378 109.828H143.869L146.339 108.801L140.829 108.792L138.378 109.828Z" fill="white" stroke="#263238" stroke-miterlimit="10"/>
<path d="M134.662 94.2156H139.819L146.339 108.801L140.83 108.791L134.662 94.2156Z" fill="white" stroke="#263238" stroke-miterlimit="10"/>
<path d="M131.871 94.228H129.24V109.856H131.871V94.228Z" fill="white" stroke="#263238" stroke-miterlimit="10"/>
<path d="M131.871 106.499H129.24V107.78H131.871V106.499Z" fill="white" stroke="#263238" stroke-miterlimit="10"/>
<path d="M131.871 95.8137H129.24V97.0949H131.871V95.8137Z" fill="white" stroke="#263238" stroke-miterlimit="10"/>
<path d="M131.871 94.228H134.662L132.208 95.2485L138.378 109.828H131.871V94.228Z" fill="white" stroke="#263238" stroke-miterlimit="10"/>
<path d="M122.021 109.912V146.556" stroke="#263238" stroke-miterlimit="10"/>
<path d="M97.5928 114.45H148.405" stroke="#263238" stroke-miterlimit="10"/>
<path d="M108.021 117.549V124.193" stroke="#263238" stroke-width="2" stroke-miterlimit="10"/>
<path d="M110.24 117.549V124.193" stroke="#263238" stroke-width="2" stroke-miterlimit="10"/>
<path d="M133.541 117.549V124.193" stroke="#263238" stroke-width="2" stroke-miterlimit="10"/>
<path d="M135.76 117.549V124.193" stroke="#263238" stroke-width="2" stroke-miterlimit="10"/>
<path d="M162.57 36.1132V24.8469H178.99" stroke="#263238" stroke-miterlimit="10"/>
<path d="M180.198 24.8469H187.114V52.7929H162.57V37.8214" stroke="#263238" stroke-miterlimit="10"/>
<path d="M178.185 49.025H165.878V28.615H183.805V49.025H179.594" stroke="#263238" stroke-miterlimit="10"/>
<path d="M178.288 34.895H171.394V42.745H178.288V34.895Z" stroke="#263238" stroke-miterlimit="10"/>
<path d="M189.295 49.1379V42.1106H199.537" stroke="#263238" stroke-miterlimit="10"/>
<path d="M200.289 42.1106H204.603V59.5407H189.295V50.2024" stroke="#263238" stroke-miterlimit="10"/>
<path d="M199.034 57.1922H191.359V44.4595H202.539V57.1922H199.912" stroke="#263238" stroke-miterlimit="10"/>
<path d="M199.1 48.3782H194.799V53.2734H199.1V48.3782Z" stroke="#263238" stroke-miterlimit="10"/>
<path d="M26.999 148.327H204.471" stroke="#263238" stroke-linecap="round" stroke-linejoin="round"/>
<path d="M39.5862 104.367C39.5862 104.367 37.6982 79.2473 38.6422 76.4213C39.5862 73.5953 45.4076 73.7523 46.5089 73.7523C47.6103 73.7523 70.5809 73.7523 73.8849 75.3223C77.1889 76.8923 77.6609 115.514 77.6609 115.514H41.1596L39.5862 104.367Z" fill="#263238" stroke="#263238" stroke-miterlimit="10"/>
<path d="M78.9154 102.326C78.9154 102.326 75.1395 102.326 74.3843 106.094C73.6291 109.862 76.6027 125.405 76.8229 129.801C77.0432 134.197 77.8173 140.32 77.8173 140.32H91.1906L94.1799 102.326H78.9154Z" fill="#263238" stroke="#263238" stroke-miterlimit="10"/>
<path d="M94.1808 102.326C94.1808 102.326 90.4048 102.326 89.4608 106.094C88.5168 109.862 90.7194 125.405 90.7194 129.801C90.7194 134.197 91.1914 140.32 91.1914 140.32H95.9114C95.9114 140.32 96.3834 129.016 96.3834 127.446C96.3834 125.876 98.2714 109.548 97.3274 106.251C96.3834 102.954 95.5968 102.64 94.1808 102.326Z" fill="#636363" stroke="#263238" stroke-miterlimit="10"/>
<path d="M54.2971 75.4006C54.2971 75.4006 41.7891 80.5031 41.7891 81.0526C41.7891 81.6021 46.0371 96.3601 47.6104 98.6366C49.1837 100.913 50.2851 103.425 50.7571 104.367C51.2291 105.309 53.2744 107.664 54.9264 107.664C56.5784 107.664 58.5451 105.702 63.8157 104.917C69.0864 104.132 73.8064 104.21 74.7504 103.504C75.6944 102.797 74.5144 100.913 74.3571 100.521C74.1997 100.128 73.5704 98.7151 73.5704 98.7151C73.5704 98.7151 78.6837 102.954 80.7291 103.111C82.7744 103.268 84.2691 102.248 84.5837 100.913C84.8984 99.5786 83.7184 96.3601 82.9317 94.6331C82.1451 92.9061 78.4477 90.1586 76.7957 88.0391C75.1437 85.9196 73.0197 83.4076 71.5251 81.6806C70.2226 80.1603 68.6145 78.9301 66.8051 78.0696C65.3891 77.4416 61.7704 75.8716 59.4891 75.6361C57.2077 75.4006 54.2971 75.4006 54.2971 75.4006Z" fill="white" stroke="#263238" stroke-miterlimit="10"/>
<path d="M78.8127 93.7947C78.8127 93.7947 77.0317 98.7151 77.661 99.9711C78.2903 101.227 79.9675 101.645 79.9675 101.645" stroke="#263238" stroke-miterlimit="10"/>
<path d="M52.4082 77.0493L62.7922 87.0973L64.3656 79.5613" stroke="#263238" stroke-miterlimit="10"/>
<path d="M79.313 94.3976C79.313 94.3976 81.8304 96.2031 82.6957 95.5751C83.561 94.9471 83.325 93.7696 82.7744 92.5136C82.2237 91.2576 80.4144 90.5511 79.7064 91.1006C78.9984 91.6501 78.7624 93.8481 79.313 94.3976Z" fill="white" stroke="#263238" stroke-miterlimit="10"/>
<path d="M53.5098 72.1038L53.9031 76.8138L62.2418 84.9778L63.5004 79.1688L64.0511 76.7353C64.0511 76.7353 58.6231 75.7933 56.8924 74.6158C55.1618 73.4383 53.5098 72.1038 53.5098 72.1038Z" fill="white" stroke="#263238" stroke-miterlimit="10"/>
<path d="M64.0511 76.7353C64.0511 76.7353 58.6231 75.7933 56.8924 74.6158C55.1618 73.4383 53.5098 72.1038 53.5098 72.1038L53.9031 76.8138L56.0114 78.8767C57.6508 79.3383 59.2839 79.5613 60.3947 79.1342C61.6272 78.687 62.8052 78.1024 63.9064 77.3915L64.0511 76.7353Z" fill="#263238" stroke="#263238" stroke-miterlimit="10"/>
<path d="M51.0183 68.4676C51.0183 68.4676 49.5488 61.7668 49.5488 60.6176C49.5488 59.4683 53.5357 53.6028 58.9888 54.5448C64.442 55.4868 67.4848 58.6268 67.6957 59.5688C67.9065 60.5108 67.0663 62.3948 67.0663 62.3948C67.2323 62.9406 67.3379 63.5029 67.381 64.0716C67.381 64.6996 66.437 67.4188 66.437 67.4188L66.1223 64.5928C66.1223 64.5928 63.5012 65.3276 62.0317 65.3276C60.5622 65.3276 58.0448 64.3856 58.0448 64.3856C58.0448 64.3856 58.5703 66.0592 58.0448 66.8976C57.5193 67.736 55.9491 68.4676 55.9491 68.4676C55.9491 68.4676 55.7383 70.1412 55.109 70.1412C54.3326 70.1019 53.561 69.9969 52.8025 69.8272C52.3808 69.7236 51.0183 68.4676 51.0183 68.4676Z" fill="#263238" stroke="#263238" stroke-miterlimit="10"/>
<path d="M53.4315 69.1991C53.4315 69.1991 53.2207 66.6871 51.1218 67.3151C49.023 67.9431 50.3887 70.2447 51.5435 71.3971C52.6983 72.5495 53.0098 71.7111 53.0098 71.7111C53.0098 71.7111 53.3245 74.1195 54.8978 75.4791C56.4712 76.8387 58.8847 79.3507 61.402 79.0367C63.9193 78.7227 65.7035 75.5827 66.0182 73.2811C66.3328 70.9795 66.5405 65.5347 66.5405 64.9067C66.4647 64.1985 66.3246 63.4985 66.122 62.8155C66.122 62.8155 63.9193 64.3855 61.9275 63.9647C59.9357 63.544 57.8368 62.7087 56.8928 62.7087C55.9488 62.7087 56.1565 64.0715 56.4712 64.4891C56.7858 64.9067 57.626 65.7451 56.682 66.2695C55.738 66.7939 54.4793 67.3151 54.4793 67.3151V69.5131L53.4315 69.1991Z" fill="white" stroke="#263238" stroke-miterlimit="10"/>
<path d="M63.4657 68.0564L62.9496 73.7304L60.3662 72.9831" stroke="#263238" stroke-miterlimit="10"/>
<path d="M61.2842 73.4414C61.2842 73.4414 60.0255 73.4414 59.3333 73.5011C58.9175 73.5697 58.4949 73.5887 58.0746 73.5576C57.7883 73.5011 57.4453 73.2718 58.018 73.8433C58.5907 74.4148 60.315 75.0993 61.2339 75.2187C62.1527 75.338 62.7852 75.046 63.4711 74.5907C64.1571 74.1353 64.7298 73.6738 64.39 73.5607C63.9165 73.4766 63.436 73.4377 62.9551 73.4445V73.7334L61.2842 73.4414Z" fill="#263238" stroke="#263238" stroke-miterlimit="10"/>
<path d="M59.477 70.0031C59.6838 70.0031 59.8514 69.6573 59.8514 69.2307C59.8514 68.8041 59.6838 68.4583 59.477 68.4583C59.2702 68.4583 59.1025 68.8041 59.1025 69.2307C59.1025 69.6573 59.2702 70.0031 59.477 70.0031Z" fill="#263238"/>
<path d="M65.0729 69.1176C65.0729 69.5447 64.9061 69.8901 64.7016 69.8901C64.4971 69.8901 64.3271 69.5447 64.3271 69.1176C64.3271 68.6906 64.4939 68.342 64.7016 68.342C64.9093 68.342 65.0729 68.6906 65.0729 69.1176Z" fill="#263238"/>
<path d="M58.0693 68.0562C58.0693 68.0562 59.6206 66.9666 60.8825 67.4282" stroke="#263238" stroke-miterlimit="10"/>
<path d="M63.7549 67.4848C63.7549 67.4848 65.3628 66.7375 66.0519 67.4252" stroke="#263238" stroke-miterlimit="10"/>
<path d="M60.4829 70.6499C60.4829 70.6499 60.1368 71.0518 58.9883 71.3941" stroke="#263238" stroke-miterlimit="10"/>
<path d="M63.6396 70.405C63.9795 70.6392 64.346 70.8321 64.7315 70.9796" stroke="#263238" stroke-miterlimit="10"/>
<path d="M68.5352 85.2916L69.0858 83.8786C69.0858 83.8786 69.7938 84.5851 71.6818 84.5851C73.5698 84.5851 76.6378 85.9196 76.6378 85.9196L76.8738 86.3121C76.8738 86.3121 77.4245 84.6636 78.4472 84.3496C79.4698 84.0356 81.1218 82.9366 81.3578 82.6226L81.5938 82.3086L82.6951 83.2506L77.8178 89.6876L68.6925 86.1551L68.5352 85.2916Z" fill="white" stroke="#263238" stroke-miterlimit="10"/>
<path d="M68.6139 84.7422L66.2539 97.2237L74.4352 99.1077L77.4246 87.0187L68.6139 84.7422Z" fill="white" stroke="#263238" stroke-miterlimit="10"/>
<path d="M77.4249 87.0187L82.6955 83.2507L79.5489 95.3397L74.4355 99.1077L77.4249 87.0187Z" fill="white" stroke="#263238" stroke-miterlimit="10"/>
<path d="M58.4658 94.9473L62.031 93.4809C62.031 93.4809 65.1777 90.1337 65.4923 89.8197C65.807 89.5057 68.9536 89.1917 68.9536 89.1917L72.415 91.4933C72.415 91.4933 73.0443 92.0177 72.415 92.2249C71.7856 92.4321 70.4231 91.8073 70.4231 91.8073L69.0575 90.9689L68.2205 91.3897L70.0015 92.8529C70.0015 92.8529 70.527 94.2157 70.527 94.9473C70.5173 95.4173 70.4102 95.8802 70.2123 96.3069L69.1645 97.7733L66.0178 96.2033C66.0178 96.2033 64.1298 97.5629 63.7082 97.7733C63.2865 97.9837 59.3028 97.6697 59.3028 97.6697L58.4658 94.9473Z" fill="white" stroke="#263238" stroke-miterlimit="10"/>
<path d="M65.9902 91.2797L67.1042 91.0693L68.0607 91.3331" stroke="#263238" stroke-miterlimit="10"/>
<path d="M64.9297 93.3458C64.9297 93.3458 67.4219 92.655 67.5823 92.655C67.7428 92.655 69.5994 94.561 69.5994 94.561L69.8102 96.6272" stroke="#263238" stroke-miterlimit="10"/>
<path d="M65.0361 94.6677L67.05 94.7211L68.9065 95.9394C69.0949 96.5319 69.1821 97.1518 69.1646 97.7732" stroke="#263238" stroke-miterlimit="10"/>
<path d="M43.9913 79.5613C43.9913 79.5613 41.6816 79.8753 41.3669 81.8629C41.0523 83.8505 38.9566 100.599 39.5859 102.483C40.2153 104.367 51.8579 101.124 52.2764 100.913C52.695 100.703 59.303 98.7153 59.4099 98.2977C59.5169 97.88 59.7246 94.4229 58.7806 94.2157C57.8366 94.0084 48.8151 94.3193 48.8151 94.3193L47.5564 83.4329" fill="white"/>
<path d="M43.9913 79.5613C43.9913 79.5613 41.6816 79.8753 41.3669 81.8629C41.0523 83.8505 38.9566 100.599 39.5859 102.483C40.2153 104.367 51.8579 101.124 52.2764 100.913C52.695 100.703 59.303 98.7153 59.4099 98.2977C59.5169 97.88 59.7246 94.4229 58.7806 94.2157C57.8366 94.0084 48.8151 94.3193 48.8151 94.3193L47.5564 83.4329" stroke="#263238" stroke-miterlimit="10"/>
<path d="M48.815 94.3193L43.2549 95.2613" stroke="#263238" stroke-miterlimit="10"/>
<path d="M42.207 94.0051L47.0309 94.6331" stroke="#263238" stroke-miterlimit="10"/>
<path d="M81.2789 88.4317C81.2789 88.4317 79.1549 90.6297 79.2336 91.1792C79.3122 91.7287 80.4136 90.8652 80.6496 90.6297C80.8856 90.3942 81.9869 89.7662 81.9869 89.1382C81.9869 88.5102 81.7509 87.8037 81.2789 88.4317Z" fill="white" stroke="#263238" stroke-miterlimit="10"/>
<path d="M81.5157 89.7661C81.5157 89.7661 82.145 90.3941 82.145 90.9436C82.145 91.4931 80.8077 93.2986 80.1784 93.2986C79.549 93.2986 80.021 92.0426 80.3357 91.4931C80.6504 90.9436 81.5157 89.7661 81.5157 89.7661Z" fill="white" stroke="#263238" stroke-miterlimit="10"/>
<path d="M82.145 90.9436C82.145 90.9436 82.9316 91.1791 82.9316 91.8856C82.9316 92.5921 81.437 93.7696 81.0437 93.8481C80.6503 93.9266 80.729 93.2201 81.0437 92.6706C81.3583 92.1211 82.145 90.9436 82.145 90.9436Z" fill="white" stroke="#263238" stroke-miterlimit="10"/>
<path d="M82.932 91.8857C83.0931 92.2836 83.1473 92.7166 83.0893 93.1418C83.0106 93.9268 81.8306 94.3978 81.4373 94.3978C81.0439 94.3978 81.0439 93.8483 81.0439 93.8483C81.7097 93.23 82.34 92.5748 82.932 91.8857Z" fill="white" stroke="#263238" stroke-miterlimit="10"/>
<path d="M58.1896 148.327H56.695L55.9492 138.436H58.9386L58.1896 148.327Z" fill="white" stroke="#263238" stroke-miterlimit="10"/>
<path d="M44.5012 148.327H43.0065L42.2607 138.436H45.2501L44.5012 148.327Z" fill="white" stroke="#263238" stroke-miterlimit="10"/>
<path d="M93.9045 148.327H92.4098L91.6641 138.436H94.6534L93.9045 148.327Z" fill="white" stroke="#263238" stroke-miterlimit="10"/>
<path d="M80.216 148.327H78.7213L77.9756 138.436H80.9649L80.216 148.327Z" fill="white" stroke="#263238" stroke-miterlimit="10"/>
<path d="M91.8211 119.511H56.1064V140.235H91.8211V119.511Z" fill="#263238" stroke="#263238" stroke-miterlimit="10"/>
<path d="M117.726 116.196C117.726 116.196 121.502 114.626 122.342 113.998C123.183 113.37 124.334 114.729 123.809 116.196C123.283 117.662 121.921 120.278 119.825 121.534C117.729 122.79 116.049 123.835 115.628 124.253C115.206 124.67 115.313 126.244 113.532 126.872C111.751 127.5 109.545 126.244 108.286 124.253C107.028 122.262 106.188 120.906 106.188 120.906C106.188 120.906 106.294 119.439 108.39 118.708C110.486 117.976 114.054 117.659 114.054 117.659L117.726 116.196Z" fill="white" stroke="#263238" stroke-miterlimit="10"/>
<path d="M74.7497 103.504C74.7497 103.504 77.2387 102.901 77.868 103.215C78.4973 103.529 80.5962 105.52 80.5962 105.52C80.5962 105.52 93.2867 105.727 94.2307 106.148C95.1747 106.568 104.929 113.998 107.028 115.043C109.127 116.089 110.908 117.031 110.908 117.031L109.335 123.939V124.567L109.442 125.616C109.442 125.616 103.985 123.939 102.623 123.625C101.26 123.311 95.5963 120.381 95.0708 120.381C94.5453 120.381 90.247 119.125 90.247 119.125C90.247 119.125 89.6177 118.708 82.7988 118.08C75.98 117.452 68.3242 116.717 65.596 116.613C62.8678 116.51 59.3027 116.299 57.9402 115.775C56.5777 115.251 54.1642 111.589 53.7457 109.391C53.3271 107.193 57.7293 105.309 59.6173 104.471C61.5053 103.633 68.535 102.587 69.7937 102.587C71.0523 102.587 74.7497 103.504 74.7497 103.504Z" fill="white" stroke="#263238" stroke-miterlimit="10"/>
<path d="M77.135 106.565L75.0361 109.602L77.8681 107.718" fill="white"/>
<path d="M77.135 106.565L75.0361 109.602L77.8681 107.718" stroke="#263238" stroke-miterlimit="10"/>
<path d="M109.334 115.671C109.334 115.671 112.377 113.263 113.006 112.531C113.635 111.8 115.734 107.821 116.153 106.565C116.571 105.309 117.622 104.681 118.355 105.623C119.088 106.565 119.614 108.449 120.032 109.288C120.451 110.126 119.825 114.205 118.566 115.568C117.307 116.93 115.567 120.23 115.209 120.906C114.265 122.683 112.795 122.893 111.851 122.997C110.907 123.1 108.601 120.592 108.601 120.592L109.334 115.671Z" fill="white" stroke="#263238" stroke-miterlimit="10"/>
<path d="M62.6604 108.659C62.6604 108.659 65.807 108.031 68.639 108.345C71.471 108.659 77.2389 110.437 79.6524 111.065C82.0659 111.693 86.3642 112.007 88.3592 112.741C90.3542 113.476 95.5965 114.415 99.5802 114.415C103.564 114.415 109.65 114.939 109.65 114.939C109.65 114.939 108.813 121.009 109.02 122.161C109.227 123.089 109.508 123.998 109.86 124.881C109.86 124.881 101.783 125.509 99.4764 125.823C97.1699 126.137 87.8337 124.673 86.2604 124.253C84.687 123.832 82.3805 123.207 80.911 123.207C79.4415 123.207 76.6095 123.835 72.5189 124.253C68.4282 124.67 62.6604 122.893 61.9272 122.789C61.194 122.686 58.5697 121.741 57.9404 121.323C57.311 120.905 53.6389 114.415 54.8975 111.693C56.1562 108.97 57.7295 108.553 57.7295 108.553" fill="white"/>
<path d="M62.6604 108.659C62.6604 108.659 65.807 108.031 68.639 108.345C71.471 108.659 77.2389 110.437 79.6524 111.065C82.0659 111.693 86.3642 112.007 88.3592 112.741C90.3542 113.476 95.5965 114.415 99.5802 114.415C103.564 114.415 109.65 114.939 109.65 114.939C109.65 114.939 108.813 121.009 109.02 122.161C109.227 123.089 109.508 123.998 109.86 124.881C109.86 124.881 101.783 125.509 99.4764 125.823C97.1699 126.137 87.8337 124.673 86.2604 124.253C84.687 123.832 82.3805 123.207 80.911 123.207C79.4415 123.207 76.6095 123.835 72.5189 124.253C68.4282 124.67 62.6604 122.893 61.9272 122.789C61.194 122.686 58.5697 121.741 57.9404 121.323C57.311 120.905 53.6389 114.415 54.8975 111.693C56.1562 108.97 57.7295 108.553 57.7295 108.553" stroke="#263238" stroke-miterlimit="10"/>
<path d="M81.9561 119.219C83.9794 119.621 86.1222 120.846 89.0203 121.98C92.8876 123.49 100.628 123.352 101.626 123.49C102.623 123.628 105.156 123.49 105.156 123.49" fill="white"/>
<path d="M81.9561 119.219C83.9794 119.621 86.1222 120.846 89.0203 121.98C92.8876 123.49 100.628 123.352 101.626 123.49C102.623 123.628 105.156 123.49 105.156 123.49" stroke="#263238" stroke-miterlimit="10"/>
<path d="M66.3555 120.639L67.5103 120.805C70.8709 121.308 77.265 119.464 79.9459 119.128" fill="white"/>
<path d="M66.3555 120.639L67.5103 120.805C70.8709 121.308 77.265 119.464 79.9459 119.128" stroke="#263238" stroke-miterlimit="10"/>
<path d="M62.9717 120.303C62.9717 120.303 63.5758 120.303 65.1523 120.488L62.9717 120.303Z" fill="white"/>
<path d="M62.9717 120.303C62.9717 120.303 63.5758 120.303 65.1523 120.488" stroke="#263238" stroke-miterlimit="10"/>
<path d="M42.5722 102.326C42.5722 102.326 38.7962 102.326 38.041 106.094C37.2858 109.862 40.2437 125.405 40.4797 129.801C40.7157 134.197 41.474 140.32 41.474 140.32H54.8474L57.8367 102.326H42.5722Z" fill="#263238" stroke="#263238" stroke-miterlimit="10"/>
<path d="M57.836 102.326C57.836 102.326 54.06 102.326 53.116 106.094C52.172 109.862 54.3747 125.405 54.3747 129.801C54.3747 134.197 54.8467 140.32 54.8467 140.32H59.5667C59.5667 140.32 60.0387 129.016 60.0387 127.446C60.0387 125.876 61.9267 109.548 60.9827 106.251C60.0387 102.954 59.252 102.64 57.836 102.326Z" fill="#636363" stroke="#263238" stroke-miterlimit="10"/>
<path d="M88.5549 148.327H87.0602L86.3145 138.436H89.3038L88.5549 148.327Z" fill="white" stroke="#263238" stroke-miterlimit="10"/>
<path d="M101.298 148.327H99.8034L99.0576 138.436H102.047L101.298 148.327Z" fill="white" stroke="#263238" stroke-miterlimit="10"/>
<path d="M107.278 148.327H105.783L105.037 138.436H108.026L107.278 148.327Z" fill="white" stroke="#263238" stroke-miterlimit="10"/>
<path d="M119.863 148.327H118.369L117.623 138.436H120.612L119.863 148.327Z" fill="white" stroke="#263238" stroke-miterlimit="10"/>
<path d="M86.7072 125.562H119.574C120.179 125.562 120.759 125.802 121.187 126.229C121.615 126.656 121.855 127.235 121.855 127.839V143.931H84.4102V127.839C84.4101 127.538 84.4697 127.241 84.5853 126.964C84.7009 126.687 84.8704 126.435 85.0839 126.223C85.2974 126.012 85.5508 125.844 85.8294 125.731C86.108 125.617 86.4063 125.56 86.7072 125.562Z" fill="#263238" stroke="#263238" stroke-miterlimit="10"/>
<path d="M119.589 125.562H107.632C107.027 125.562 106.447 125.802 106.019 126.229C105.591 126.656 105.351 127.235 105.351 127.839V143.931H121.871V127.839C121.87 127.235 121.629 126.657 121.201 126.23C120.774 125.803 120.194 125.563 119.589 125.562Z" fill="#636363" stroke="#263238" stroke-miterlimit="10"/>
</svg>
