<svg width="232" height="154" viewBox="0 0 232 154" fill="none" xmlns="http://www.w3.org/2000/svg">
<path d="M124.353 66.5527C121.518 64.6589 118.121 63.7807 114.719 64.0623C111.317 64.3439 108.113 65.7685 105.631 68.1024C103.149 70.4362 101.538 73.5407 101.061 76.9064C100.585 80.2721 101.272 83.6991 103.009 86.6251" stroke="#263238" stroke-width="0.969642" stroke-linecap="round" stroke-linejoin="round"/>
<path d="M129.703 72.9096C129.41 72.2533 129.071 71.6183 128.688 71.0093" stroke="#263238" stroke-width="0.969642" stroke-linecap="round" stroke-linejoin="round"/>
<path d="M128.42 87.3547C129.542 85.6924 130.319 83.8237 130.706 81.8583C131.092 79.8929 131.081 77.8703 130.672 75.9094" stroke="#263238" stroke-width="0.969642" stroke-linecap="round" stroke-linejoin="round"/>
<path d="M101 64.1008C99.9769 65.1233 99.0597 66.246 98.2627 67.4519" stroke="#263238" stroke-width="0.969642" stroke-linecap="round" stroke-linejoin="round"/>
<path d="M132.648 91.8547C135.677 87.9568 137.235 83.1239 137.051 78.1991C136.867 73.2743 134.953 68.57 131.642 64.9067C128.331 61.2434 123.834 58.8537 118.934 58.1542C114.035 57.4547 109.044 58.49 104.833 61.0793" stroke="#263238" stroke-width="0.969642" stroke-linecap="round" stroke-linejoin="round"/>
<path d="M99.1956 91.8549C97.1063 89.1623 95.7023 86.0065 95.1033 82.6566C94.5044 79.3067 94.7282 75.8623 95.7558 72.6172" stroke="#263238" stroke-width="0.969642" stroke-linecap="round" stroke-linejoin="round"/>
<path d="M92.5742 97.1741C93.8888 98.8458 95.3801 100.372 97.0224 101.726" stroke="#263238" stroke-width="0.969642" stroke-linecap="round" stroke-linejoin="round"/>
<path d="M132.723 54.6174C127.427 51.0066 121.099 49.2027 114.686 49.4763C108.274 49.7499 102.123 52.0862 97.1572 56.1348C92.1912 60.1835 88.6774 65.7261 87.1429 71.9314C85.6083 78.1368 86.1358 84.6702 88.6461 90.5518" stroke="#263238" stroke-width="0.969642" stroke-linecap="round" stroke-linejoin="round"/>
<path d="M143.612 68.3081C142.815 66.2617 141.79 64.3103 140.559 62.49" stroke="#263238" stroke-width="0.969642" stroke-linecap="round" stroke-linejoin="round"/>
<path d="M136.446 100.319C139.345 97.5647 141.652 94.253 143.227 90.5844C144.801 86.9158 145.611 82.9668 145.606 78.9773" stroke="#263238" stroke-width="0.969642" stroke-linecap="round" stroke-linejoin="round"/>
<path d="M74.4873 78.9773C74.4874 88.7784 77.9728 98.2629 84.3259 105.749C90.6789 113.236 99.4891 118.241 109.195 119.877" stroke="#263238" stroke-width="0.969642" stroke-linecap="round" stroke-linejoin="round"/>
<path d="M149.408 103.657C154.482 96.8204 157.325 88.5963 157.551 80.0979C157.778 71.5995 155.377 63.2369 150.673 56.1417C145.97 49.0465 139.191 43.5612 131.254 40.4279C123.317 37.2946 114.604 36.6646 106.296 38.6232" stroke="#263238" stroke-width="0.969642" stroke-linecap="round" stroke-linejoin="round"/>
<path d="M74.4873 78.9773C74.4877 69.6796 77.6247 60.6515 83.3952 53.3415C89.1656 46.0315 97.2349 40.8633 106.308 38.6663" stroke="#263238" stroke-width="0.969642" stroke-linecap="round" stroke-linejoin="round"/>
<path d="M140.559 112.42C141.617 111.646 142.634 110.825 143.612 109.956" stroke="#263238" stroke-width="0.969642" stroke-linecap="round" stroke-linejoin="round"/>
<path d="M122.869 119.877C127.606 119.087 132.169 117.482 136.353 115.134" stroke="#263238" stroke-width="0.969642" stroke-linecap="round" stroke-linejoin="round"/>
<path d="M115.941 116.162C111.723 116.157 107.678 114.487 104.695 111.516C101.712 108.546 100.034 104.519 100.029 100.319V94.9842C100.029 94.7555 100.121 94.5361 100.283 94.3744C100.445 94.2127 100.666 94.1218 100.895 94.1218H103.061C103.29 94.1218 103.511 94.2127 103.673 94.3744C103.836 94.5361 103.927 94.7555 103.927 94.9842C103.927 95.213 103.836 95.4323 103.673 95.594C103.511 95.7558 103.29 95.8466 103.061 95.8466H101.771V100.319C101.771 104.063 103.265 107.654 105.924 110.302C108.583 112.95 112.19 114.437 115.951 114.437C119.711 114.437 123.318 112.95 125.977 110.302C128.637 107.654 130.131 104.063 130.131 100.319V95.8466H128.831C128.602 95.8466 128.381 95.7558 128.219 95.594C128.056 95.4323 127.965 95.213 127.965 94.9842C127.965 94.7555 128.056 94.5361 128.219 94.3744C128.381 94.2127 128.602 94.1218 128.831 94.1218H130.997C131.226 94.1218 131.447 94.2127 131.609 94.3744C131.772 94.5361 131.863 94.7555 131.863 94.9842V100.319C131.858 104.521 130.179 108.549 127.194 111.52C124.208 114.49 120.162 116.16 115.941 116.162Z" fill="#263238"/>
<path d="M132.721 129.418V127.694C132.721 127.467 132.676 127.242 132.59 127.033C132.503 126.824 132.375 126.633 132.214 126.473C132.053 126.313 131.862 126.186 131.652 126.099C131.441 126.013 131.216 125.968 130.988 125.969H100.896C100.669 125.968 100.443 126.013 100.233 126.099C100.023 126.186 99.8315 126.313 99.6705 126.473C99.5096 126.633 99.382 126.824 99.2951 127.033C99.2082 127.242 99.1637 127.467 99.1641 127.694V129.418H132.721Z" fill="#263238"/>
<path d="M117.629 128.069C117.658 127.946 117.672 127.82 117.673 127.693V115.3H114.208V127.693C114.208 127.82 114.223 127.946 114.251 128.069H117.629Z" fill="#263238"/>
<path d="M126.657 78.9773C126.681 77.5607 126.422 76.1536 125.894 74.8379C125.366 73.5222 124.581 72.3242 123.583 71.314C122.586 70.3037 121.396 69.5013 120.084 68.9536C118.772 68.4059 117.363 68.1238 115.94 68.1238C114.517 68.1238 113.109 68.4059 111.796 68.9536C110.484 69.5013 109.294 70.3037 108.297 71.314C107.299 72.3242 106.514 73.5222 105.986 74.8379C105.458 76.1536 105.199 77.5607 105.223 78.9773V100.319C105.271 103.117 106.421 105.785 108.426 107.748C110.43 109.71 113.129 110.81 115.94 110.81C118.751 110.81 121.45 109.71 123.454 107.748C125.459 105.785 126.609 103.117 126.657 100.319V78.9773Z" stroke="#263238" stroke-width="0.969642" stroke-linecap="round" stroke-linejoin="round"/>
<path d="M126.657 78.9773C126.681 77.5607 126.422 76.1536 125.894 74.8379C125.366 73.5222 124.581 72.3242 123.583 71.314C122.586 70.3037 121.396 69.5013 120.084 68.9536C118.772 68.4059 117.363 68.1238 115.94 68.1238C114.517 68.1238 113.109 68.4059 111.796 68.9536C110.484 69.5013 109.294 70.3037 108.297 71.314C107.299 72.3242 106.514 73.5222 105.986 74.8379C105.458 76.1536 105.199 77.5607 105.223 78.9773V100.319C105.271 103.117 106.421 105.785 108.426 107.748C110.43 109.71 113.129 110.81 115.94 110.81C118.751 110.81 121.45 109.71 123.454 107.748C125.459 105.785 126.609 103.117 126.657 100.319V78.9773Z" fill="#E8E8E8"/>
<path d="M111.503 80.1016H105.224V82.6888H111.503C111.848 82.6888 112.178 82.5525 112.422 82.3099C112.665 82.0673 112.802 81.7382 112.802 81.3952C112.802 81.0521 112.665 80.723 112.422 80.4804C112.178 80.2378 111.848 80.1016 111.503 80.1016Z" fill="white"/>
<path d="M126.658 80.1016H120.381C120.037 80.1016 119.706 80.2378 119.463 80.4804C119.219 80.723 119.082 81.0521 119.082 81.3952C119.082 81.7382 119.219 82.0673 119.463 82.3099C119.706 82.5525 120.037 82.6888 120.381 82.6888H126.658V80.1016Z" fill="white"/>
<path d="M115.942 80.1016C115.685 80.1016 115.434 80.1774 115.22 80.3196C115.006 80.4617 114.84 80.6637 114.741 80.9001C114.643 81.1365 114.617 81.3966 114.668 81.6475C114.718 81.8985 114.841 82.1289 115.023 82.3099C115.205 82.4908 115.436 82.614 115.688 82.6639C115.94 82.7138 116.202 82.6882 116.439 82.5903C116.676 82.4924 116.879 82.3266 117.022 82.1138C117.165 81.9011 117.241 81.651 117.241 81.3952C117.241 81.0521 117.104 80.723 116.86 80.4804C116.617 80.2378 116.286 80.1016 115.942 80.1016Z" fill="white"/>
<path d="M115.942 85.3313C115.685 85.3313 115.434 85.4072 115.22 85.5493C115.006 85.6915 114.84 85.8935 114.741 86.1299C114.643 86.3662 114.617 86.6263 114.668 86.8773C114.718 87.1282 114.841 87.3587 115.023 87.5396C115.205 87.7205 115.436 87.8437 115.688 87.8936C115.94 87.9436 116.202 87.9179 116.439 87.82C116.676 87.7221 116.879 87.5563 117.022 87.3436C117.165 87.1309 117.241 86.8807 117.241 86.6249C117.241 86.2818 117.104 85.9528 116.86 85.7102C116.617 85.4676 116.286 85.3313 115.942 85.3313Z" fill="white"/>
<path d="M115.942 90.552C115.685 90.552 115.434 90.6279 115.22 90.77C115.006 90.9122 114.84 91.1142 114.741 91.3506C114.643 91.5869 114.617 91.847 114.668 92.098C114.718 92.3489 114.841 92.5794 115.023 92.7603C115.205 92.9412 115.436 93.0644 115.688 93.1143C115.94 93.1643 116.202 93.1386 116.439 93.0407C116.676 92.9428 116.879 92.777 117.022 92.5643C117.165 92.3515 117.241 92.1015 117.241 91.8456C117.241 91.5025 117.104 91.1735 116.86 90.9309C116.617 90.6883 116.286 90.552 115.942 90.552Z" fill="white"/>
<path d="M111.503 85.3313H105.224V87.9185H111.503C111.848 87.9185 112.178 87.7822 112.422 87.5396C112.665 87.297 112.802 86.968 112.802 86.6249C112.802 86.2818 112.665 85.9528 112.422 85.7102C112.178 85.4676 111.848 85.3313 111.503 85.3313Z" fill="white"/>
<path d="M126.658 85.3315H120.381C120.037 85.3315 119.706 85.4678 119.463 85.7104C119.219 85.953 119.082 86.2821 119.082 86.6251C119.082 86.9682 119.219 87.2972 119.463 87.5398C119.706 87.7824 120.037 87.9187 120.381 87.9187H126.658V85.3315Z" fill="white"/>
<path d="M111.503 90.552H105.224V93.1392H111.503C111.848 93.1392 112.178 93.0029 112.422 92.7603C112.665 92.5177 112.802 92.1887 112.802 91.8456C112.802 91.5025 112.665 91.1735 112.422 90.9309C112.178 90.6883 111.848 90.552 111.503 90.552Z" fill="white"/>
<path d="M126.658 90.552H120.381C120.037 90.552 119.706 90.6883 119.463 90.9309C119.219 91.1735 119.082 91.5025 119.082 91.8456C119.082 92.1887 119.219 92.5177 119.463 92.7603C119.706 93.0029 120.037 93.1392 120.381 93.1392H126.658V90.552Z" fill="white"/>
<path d="M126.657 78.9773C126.681 77.5607 126.422 76.1536 125.894 74.8379C125.366 73.5222 124.581 72.3242 123.583 71.314C122.586 70.3037 121.396 69.5013 120.084 68.9536C118.772 68.4059 117.363 68.1238 115.94 68.1238C114.517 68.1238 113.109 68.4059 111.796 68.9536C110.484 69.5013 109.294 70.3037 108.297 71.314C107.299 72.3242 106.514 73.5222 105.986 74.8379C105.458 76.1536 105.199 77.5607 105.223 78.9773V100.319C105.271 103.117 106.421 105.785 108.426 107.748C110.43 109.71 113.129 110.81 115.94 110.81C118.751 110.81 121.45 109.71 123.454 107.748C125.459 105.785 126.609 103.117 126.657 100.319V78.9773Z" stroke="#263238" stroke-width="0.969642" stroke-miterlimit="10"/>
<path d="M105.224 100.319C105.271 103.117 106.421 105.785 108.426 107.748C110.431 109.71 113.129 110.81 115.94 110.81C118.752 110.81 121.45 109.71 123.455 107.748C125.459 105.785 126.61 103.117 126.657 100.319H105.224Z" fill="#263238" stroke="#263238" stroke-width="0.969642" stroke-miterlimit="10"/>
<path d="M206.845 94.9435C220.227 81.6188 220.227 60.015 206.845 46.6902C193.462 33.3655 171.765 33.3655 158.382 46.6903C145 60.015 145 81.6188 158.382 94.9435C171.765 108.268 193.462 108.268 206.845 94.9435Z" fill="#E8E8E8"/>
<path d="M177.7 56.6997H153.761C152.555 56.6997 151.577 57.6733 151.577 58.8742V82.7103C151.577 83.9112 152.555 84.8848 153.761 84.8848H177.7C178.906 84.8848 179.884 83.9112 179.884 82.7103V58.8742C179.884 57.6733 178.906 56.6997 177.7 56.6997Z" fill="white"/>
<g opacity="0.1">
<path opacity="0.1" d="M154.246 84.8879H163.693L169.713 56.6997H159.882L153.872 84.8571C153.996 84.8766 154.121 84.8869 154.246 84.8879Z" fill="black"/>
<path opacity="0.1" d="M173.716 56.6997H171.352L165.336 84.8879H167.699L173.716 56.6997Z" fill="black"/>
</g>
<path d="M177.214 85.5902H154.246C153.352 85.5886 152.496 85.2349 151.864 84.6064C151.231 83.9779 150.874 83.1257 150.871 82.2361V59.3578C150.873 58.4671 151.229 57.6134 151.861 56.9836C152.494 56.3537 153.351 55.9992 154.246 55.9976H177.214C178.109 55.9984 178.967 56.3526 179.601 56.9825C180.234 57.6124 180.59 58.4666 180.592 59.3578V82.2361C180.589 83.1263 180.231 83.9789 179.598 84.6075C178.965 85.2361 178.108 85.5894 177.214 85.5902ZM154.246 57.4051C153.726 57.4051 153.226 57.6108 152.858 57.9769C152.49 58.343 152.282 58.8397 152.282 59.3578V82.2361C152.282 82.7551 152.489 83.2529 152.857 83.6201C153.225 83.9874 153.725 84.1942 154.246 84.195H177.214C177.472 84.195 177.728 84.1443 177.966 84.0458C178.205 83.9473 178.422 83.803 178.604 83.621C178.786 83.4391 178.931 83.2231 179.03 82.9855C179.128 82.7478 179.179 82.4932 179.178 82.2361V59.3578C179.178 59.1011 179.127 58.847 179.029 58.6099C178.93 58.3727 178.785 58.1573 178.603 57.976C178.42 57.7946 178.204 57.6508 177.965 57.5529C177.727 57.4549 177.472 57.4047 177.214 57.4051H154.246Z" fill="white" stroke="#263238" stroke-width="0.932567" stroke-miterlimit="10"/>
<path d="M210.992 56.6997H187.053C185.847 56.6997 184.869 57.6733 184.869 58.8742V82.7103C184.869 83.9113 185.847 84.8848 187.053 84.8848H210.992C212.198 84.8848 213.176 83.9113 213.176 82.7103V58.8742C213.176 57.6733 212.198 56.6997 210.992 56.6997Z" fill="white"/>
<g opacity="0.1">
<path opacity="0.1" d="M190.011 84.8879H199.458L205.474 56.6997H195.647L189.621 84.8571C189.75 84.8772 189.88 84.8875 190.011 84.8879Z" fill="black"/>
<path opacity="0.1" d="M209.481 56.6997H207.117L201.098 84.8879H203.464L209.481 56.6997Z" fill="black"/>
</g>
<path d="M210.507 85.5902H187.539C186.645 85.5886 185.789 85.2349 185.157 84.6064C184.524 83.9779 184.167 83.1257 184.164 82.2361V59.3578C184.166 58.4671 184.522 57.6134 185.154 56.9836C185.787 56.3537 186.644 55.9992 187.539 55.9976H210.507C211.402 55.9984 212.26 56.3526 212.893 56.9825C213.527 57.6124 213.883 58.4666 213.885 59.3578V82.2361C213.882 83.1263 213.524 83.9789 212.891 84.6075C212.258 85.2361 211.401 85.5894 210.507 85.5902ZM187.539 57.4051C187.018 57.4051 186.519 57.6108 186.151 57.9769C185.783 58.343 185.575 58.8397 185.575 59.3578V82.2361C185.575 82.7551 185.781 83.2529 186.15 83.6201C186.518 83.9874 187.018 84.1942 187.539 84.195H210.507C210.765 84.195 211.021 84.1443 211.259 84.0458C211.498 83.9473 211.714 83.803 211.897 83.621C212.079 83.4391 212.224 83.2231 212.323 82.9855C212.421 82.7478 212.472 82.4932 212.471 82.2361V59.3578C212.471 59.1011 212.42 58.847 212.322 58.6099C212.223 58.3727 212.078 58.1573 211.896 57.976C211.713 57.7946 211.497 57.6508 211.258 57.5529C211.02 57.4549 210.765 57.4047 210.507 57.4051H187.539Z" fill="white" stroke="#263238" stroke-width="0.932567" stroke-miterlimit="10"/>
<path d="M183.54 136.589C192.053 136.589 198.954 135.578 198.954 134.331C198.954 133.085 192.053 132.074 183.54 132.074C175.027 132.074 168.126 133.085 168.126 134.331C168.126 135.578 175.027 136.589 183.54 136.589Z" fill="#E8E8E8"/>
<path d="M190.352 121.18C190.352 121.18 190.312 127.503 189.64 128.544C188.839 129.776 188.27 131.498 190.392 131.966C192.514 132.434 193.776 134.766 196.303 134.92C198.831 135.074 199.087 133.996 197.986 133.13C196.885 132.265 194.089 129.865 193.72 128.698C193.352 127.531 194.067 121.18 194.067 121.18H190.352Z" fill="white"/>
<path opacity="0.1" d="M193.728 124.851C193.864 122.988 194.065 121.18 194.065 121.18H190.353C190.353 121.18 190.353 122.797 190.245 124.531C191.395 124.733 192.56 124.841 193.728 124.851Z" fill="black"/>
<path d="M190.352 121.18C190.352 121.18 190.312 127.503 189.64 128.544C188.839 129.776 188.27 131.498 190.392 131.966C192.514 132.434 193.776 134.766 196.303 134.92C198.831 135.074 199.087 133.996 197.986 133.13C196.885 132.265 194.089 129.865 193.72 128.698C193.352 127.531 194.067 121.18 194.067 121.18H190.352Z" stroke="#263238" stroke-width="0.932567" stroke-linecap="round" stroke-linejoin="round"/>
<path d="M197.974 133.13C196.943 132.316 195.963 131.439 195.042 130.503C194.16 131.168 191.577 130.54 190.816 129.942C189.888 129.215 190.083 128.843 189.644 128.516L189.629 128.544C188.827 129.776 188.258 131.498 190.38 131.966C192.502 132.434 193.764 134.765 196.292 134.919C198.819 135.073 199.082 133.98 197.974 133.13Z" fill="#BFBFBF" stroke="#263238" stroke-width="0.932567" stroke-miterlimit="10"/>
<path d="M176.082 118.888C176.082 118.888 173.298 124.672 172.247 125.378C170.975 126.222 169.713 127.58 171.455 128.79C173.196 130.001 173.351 132.606 175.6 133.681C177.849 134.756 178.551 133.848 177.917 132.662C177.283 131.476 175.751 128.23 175.922 127.022C176.092 125.815 179.516 120.12 179.516 120.12L176.082 118.888Z" fill="white"/>
<path opacity="0.1" d="M176.082 118.888C176.082 118.888 175.086 120.964 174.062 122.778C174.889 123.594 175.841 124.273 176.884 124.789C177.951 122.732 179.516 120.129 179.516 120.129L176.082 118.888Z" fill="black"/>
<path d="M176.082 118.888C176.082 118.888 173.298 124.672 172.247 125.378C170.975 126.222 169.713 127.58 171.455 128.79C173.196 130.001 173.351 132.606 175.6 133.681C177.849 134.756 178.551 133.848 177.917 132.662C177.283 131.476 175.751 128.23 175.922 127.022C176.092 125.815 179.516 120.12 179.516 120.12L176.082 118.888Z" stroke="#263238" stroke-width="0.932567" stroke-linecap="round" stroke-linejoin="round"/>
<path d="M177.917 132.646C177.325 131.518 176.808 130.351 176.371 129.154C175.273 129.44 172.99 127.977 172.739 127.084C172.253 125.362 172.541 125.806 172.278 125.344L172.253 125.362C170.982 126.206 169.72 127.564 171.462 128.775C173.203 129.985 173.358 132.591 175.607 133.666C177.856 134.741 178.551 133.832 177.917 132.646Z" fill="#BFBFBF" stroke="#263238" stroke-width="0.932567" stroke-miterlimit="10"/>
<path d="M190.8 77.9578C190.8 77.9578 195.059 98.2858 195.344 104.917C195.628 111.548 194.521 123.375 194.521 123.375L189.791 123.067C189.791 123.067 189.76 119.572 189.287 114.705C189.006 111.813 188.121 108.437 188.22 105.025C188.22 105.025 183.725 91.7531 183.889 85.9288C184.053 80.1045 183.889 78.429 183.889 78.429L190.8 77.9578Z" fill="#263238" stroke="#263238" stroke-width="0.932567" stroke-linecap="round" stroke-linejoin="round"/>
<path d="M179.414 77.958C179.414 77.958 174.997 81.5924 177.558 88.9197C178.566 91.8273 182.458 105.127 182.458 105.127C181.389 106.344 180.484 107.695 179.766 109.146C177.991 112.639 176.698 118.078 174.508 121.198L177.75 123.376C177.75 123.376 188.217 110.31 188.886 106.162C189.554 102.013 186.411 85.4239 186.411 85.4239L185.406 78.6818L179.414 77.958Z" fill="#263238" stroke="#263238" stroke-width="0.932567" stroke-linecap="round" stroke-linejoin="round"/>
<path d="M199.003 64.1811C198.945 63.4926 198.712 62.8302 198.326 62.2561C198.65 61.8312 198.931 61.3751 199.164 60.8947C199.399 60.3311 199.087 59.5334 198.434 60.4882C197.781 61.443 197.064 62.1391 197.324 63.331C197.46 64.1005 197.32 64.8934 196.928 65.5702L198.434 66.7437L201.438 64.3721L199.003 64.1811Z" fill="white" stroke="#263238" stroke-width="0.932567" stroke-linecap="round" stroke-linejoin="round"/>
<path d="M200.419 58.0884L197.894 58.7721C197.661 58.835 197.524 59.0736 197.587 59.305L199.026 64.5746C199.089 64.806 199.329 64.9427 199.561 64.8797L202.087 64.1961C202.319 64.1332 202.456 63.8946 202.393 63.6631L200.954 58.3936C200.891 58.1621 200.651 58.0255 200.419 58.0884Z" fill="#263238" stroke="#263238" stroke-width="0.932567" stroke-linecap="round" stroke-linejoin="round"/>
<path d="M200.972 58.4591L197.604 59.3706L199.008 64.5124L202.376 63.6009L200.972 58.4591Z" fill="#E8E8E8" stroke="#263238" stroke-width="0.932567" stroke-linecap="round" stroke-linejoin="round"/>
<path d="M200.296 60.2387C200.255 60.0802 200.152 59.9445 200.011 59.8613C199.869 59.7781 199.7 59.7543 199.541 59.7952C199.382 59.836 199.246 59.9381 199.162 60.0791C199.079 60.22 199.055 60.3882 199.096 60.5467C199.136 60.7007 199.337 61.4245 199.405 61.6801L200.605 61.3567C200.537 61.1196 200.333 60.368 200.296 60.2387Z" fill="#263238"/>
<path d="M200.186 62.1914C200.335 62.1514 200.463 62.0576 200.546 61.9282C200.629 61.7989 200.66 61.6434 200.634 61.4922L199.443 61.8002C199.495 61.9464 199.6 62.0679 199.738 62.1404C199.875 62.213 200.035 62.2311 200.186 62.1914Z" fill="#263238"/>
<path d="M201.305 62.8321L200.525 63.0446L200.364 62.4594C200.586 62.3734 200.768 62.2089 200.876 61.9974C200.983 61.7859 201.008 61.5424 200.946 61.3136L200.859 61.0056C200.858 60.999 200.855 60.9928 200.851 60.9874C200.847 60.9819 200.842 60.9773 200.837 60.9738C200.831 60.9704 200.824 60.9681 200.818 60.9672C200.811 60.9663 200.804 60.9668 200.798 60.9687L200.668 61.0025C200.661 61.0043 200.655 61.0074 200.649 61.0117C200.644 61.0159 200.639 61.0213 200.636 61.0274C200.633 61.0335 200.631 61.0402 200.631 61.047C200.63 61.0539 200.631 61.0608 200.634 61.0672C200.635 61.0738 200.638 61.08 200.642 61.0855C200.646 61.091 200.651 61.0956 200.657 61.099C200.662 61.1025 200.669 61.1047 200.675 61.1056C200.682 61.1065 200.689 61.106 200.695 61.1042L200.773 61.0826L200.844 61.3444C200.874 61.453 200.881 61.5664 200.867 61.678C200.853 61.7896 200.817 61.8974 200.76 61.995C200.704 62.0927 200.629 62.1784 200.54 62.2472C200.45 62.3161 200.348 62.3667 200.239 62.3962C200.13 62.4258 200.016 62.4336 199.904 62.4193C199.792 62.4051 199.684 62.3689 199.586 62.313C199.488 62.2571 199.402 62.1825 199.332 62.0935C199.263 62.0044 199.212 61.9027 199.183 61.7941L199.109 61.5323L199.186 61.5138C199.199 61.5096 199.21 61.5006 199.217 61.4886C199.224 61.4767 199.226 61.4626 199.223 61.4491C199.221 61.4424 199.218 61.4362 199.214 61.4307C199.21 61.4252 199.204 61.4206 199.198 61.4172C199.192 61.4137 199.186 61.4115 199.179 61.4107C199.172 61.4098 199.165 61.4103 199.158 61.4122L199.031 61.4461C199.025 61.4478 199.018 61.4509 199.013 61.4552C199.007 61.4594 199.003 61.4647 198.999 61.4707C198.996 61.4767 198.993 61.4833 198.993 61.4902C198.992 61.4971 198.992 61.5041 198.994 61.5107L199.081 61.8187C199.143 62.0472 199.288 62.2446 199.488 62.3731C199.688 62.5015 199.929 62.552 200.163 62.5148L200.321 63.1L199.542 63.3095C199.528 63.313 199.516 63.3192 199.505 63.3277C199.494 63.3361 199.484 63.3467 199.477 63.3587C199.47 63.3707 199.466 63.384 199.464 63.3978C199.463 63.4115 199.464 63.4255 199.467 63.4388L199.495 63.5405L201.463 63.0076L201.435 62.906C201.431 62.8926 201.425 62.88 201.417 62.8691C201.408 62.8581 201.397 62.8489 201.385 62.842C201.373 62.8351 201.36 62.8307 201.346 62.829C201.332 62.8273 201.318 62.8283 201.305 62.8321Z" fill="#263238"/>
<path d="M201.624 59.6597C201.315 59.6935 201.058 60.1771 201.154 60.8578C201.25 61.5385 201.878 60.7993 201.915 60.5837C201.952 60.3681 202.215 59.6012 201.624 59.6597Z" fill="white" stroke="#263238" stroke-width="0.932567" stroke-linecap="round" stroke-linejoin="round"/>
<path d="M202.303 60.676C202.221 60.6747 202.139 60.6919 202.064 60.7263C201.989 60.7607 201.923 60.8114 201.87 60.8747C201.818 60.938 201.78 61.0122 201.76 61.0919C201.741 61.1716 201.739 61.2547 201.756 61.3351C201.814 61.9973 201.944 61.8433 201.944 61.8433C201.947 62.1162 202.003 62.3859 202.108 62.6379C202.263 62.9305 202.671 62.487 202.671 62.2221C202.671 61.9572 202.628 60.5651 202.303 60.676Z" fill="white" stroke="#263238" stroke-width="0.932567" stroke-linecap="round" stroke-linejoin="round"/>
<path d="M201.948 61.831C201.948 61.831 202.483 61.674 202.61 61.2859L201.948 61.831Z" fill="white"/>
<path d="M201.948 61.831C201.948 61.831 202.483 61.674 202.61 61.2859" stroke="#263238" stroke-width="0.932567" stroke-linecap="round" stroke-linejoin="round"/>
<path d="M197.298 64.6309C197.401 64.2047 197.41 63.7609 197.322 63.3311C197.062 62.1392 197.777 61.44 198.433 60.4883C199.089 59.5366 199.398 60.3312 199.163 60.8948C198.93 61.3752 198.649 61.8313 198.325 62.2562C198.743 62.8138 198.979 63.4857 199.002 64.1812C199.002 64.406 199.002 65.0775 199.002 65.0775" fill="white"/>
<path d="M197.298 64.6309C197.401 64.2047 197.41 63.7609 197.322 63.3311C197.062 62.1392 197.777 61.44 198.433 60.4883C199.089 59.5366 199.398 60.3312 199.163 60.8948C198.93 61.3752 198.649 61.8313 198.325 62.2562C198.743 62.8138 198.979 63.4857 199.002 64.1812C199.002 64.406 199.002 65.0775 199.002 65.0775" stroke="#263238" stroke-width="0.932567" stroke-linecap="round" stroke-linejoin="round"/>
<path d="M189.003 57.1862C190.079 56.9614 190.41 56.6873 190.41 56.6873C189.603 53.4502 192.498 42.5624 183.373 42.0603C174.248 41.5583 179.352 56.986 179.352 56.986L180.345 57.1123L179.834 54.0107L181.022 57.1893C184.536 57.5681 186.788 57.4973 188.205 57.3187C188.012 55.9198 187.993 54.5027 188.146 53.0991C188.324 54.4815 188.611 55.8481 189.003 57.1862Z" fill="#263238"/>
<path d="M183.369 42.2544C183.015 41.904 182.552 41.6829 182.056 41.627C181.559 41.5711 181.059 41.6837 180.635 41.9464" stroke="#263238" stroke-width="0.932567" stroke-linecap="round" stroke-linejoin="round"/>
<path d="M190.319 59.1603V59.0623C190.301 59.1052 190.282 59.1358 190.319 59.1603Z" fill="white" stroke="#263238" stroke-width="0.932567" stroke-linecap="round" stroke-linejoin="round"/>
<path d="M196.928 65.5702L192.597 69.5742L192.678 63.5743C192.692 62.6682 192.476 61.7732 192.05 60.9725C191.624 60.1717 191.001 59.4913 190.24 58.9944L190.404 74.7855C194.658 75.0535 198.447 66.7437 198.447 66.7437C198.292 66.4515 198.077 66.1956 197.815 65.9932C197.553 65.7907 197.251 65.6465 196.928 65.5702Z" fill="white"/>
<path opacity="0.1" d="M191.932 72.8481C191.288 72.9066 191.143 71.6808 191.152 70.4888C190.972 70.9373 190.853 71.4075 190.796 71.8872C190.741 73.2454 190.741 74.5914 190.762 75.7433C195.607 73.5565 195.665 71.6069 196.909 69.6172C196.117 70.6182 193.172 72.7342 191.932 72.8481Z" fill="black"/>
<path d="M196.928 65.5702L192.597 69.5742L192.678 63.5743C192.692 62.6682 192.476 61.7732 192.05 60.9725C191.624 60.1717 191.001 59.4913 190.24 58.9944L190.404 74.7855C194.658 75.0535 198.447 66.7437 198.447 66.7437C198.292 66.4515 198.077 66.1956 197.815 65.9932C197.553 65.7907 197.251 65.6465 196.928 65.5702V65.5702Z" stroke="#263238" stroke-width="0.932567" stroke-linecap="round" stroke-linejoin="round"/>
<path d="M196.01 66.0874L196.959 65.1912L199.041 66.6141L198.435 67.6182L196.01 66.0874Z" fill="#E8E8E8" stroke="#263238" stroke-width="0.932567" stroke-linecap="round" stroke-linejoin="round"/>
<path d="M191.95 66.528C190.205 74.228 191.072 79.2884 191.072 79.2884C191.072 79.2884 186.861 82.2606 178.011 79.7412C178.011 79.7412 179.62 75.7587 179.187 72.7218C178.924 70.8523 177.161 64.1317 177.161 64.1317C177.161 64.1317 176.326 61.1934 176.709 58.8218C177.448 58.3444 179.032 57.7684 181.832 57.5652C181.878 57.4093 181.91 57.2495 181.928 57.0878C182.017 56.3046 182.036 55.5151 181.986 54.7285C181.946 53.8045 181.869 53.0684 181.869 53.0684H185.247C185.247 53.0684 185.29 53.9184 185.398 54.9164C185.457 55.5046 185.541 56.1484 185.646 56.7028C185.698 56.9803 185.765 57.2548 185.847 57.5251C189.219 58.0302 190.487 58.905 190.731 59.6657C191.879 63.0968 192.321 64.8832 191.95 66.528Z" fill="white" stroke="#263238" stroke-width="0.932567" stroke-linecap="round" stroke-linejoin="round"/>
<path d="M185.407 55.4584C185.132 56.0744 184.789 56.5611 183.598 56.5549C182.713 56.5549 181.915 55.7757 181.825 55.4769C181.921 54.8024 181.825 54.5529 181.785 53.7891C182.923 53.7571 184.061 53.8231 185.188 53.9862C185.236 54.4803 185.309 54.9717 185.407 55.4584Z" fill="#263238"/>
<path d="M187.655 48.8643C187.655 48.4084 187.655 48.1282 187.655 48.1282C187.404 46.9331 185.919 46.8715 185.236 46.8746C184.515 46.8978 183.796 46.773 183.126 46.5081C183.346 47.031 183.709 47.4816 184.175 47.8078C181.632 47.2442 181.434 45.9075 181.53 45.1868C180.627 48.3314 179.454 48.4639 179.454 48.4639C179.454 48.4639 179.454 48.7442 179.507 49.1969C179.203 49.2663 178.935 49.4426 178.751 49.6933C178.568 49.944 178.481 50.2522 178.508 50.5614C178.504 50.8943 178.632 51.2154 178.863 51.456C179.094 51.6966 179.411 51.8376 179.745 51.8488C179.812 51.8458 179.878 51.8366 179.943 51.8211C180.481 53.9032 181.585 56.167 183.847 56.0776C186.108 55.9883 187.03 53.6414 187.395 51.5223C187.462 51.5284 187.529 51.5284 187.596 51.5223C187.931 51.4888 188.239 51.3245 188.453 51.0654C188.667 50.8063 188.769 50.4733 188.737 50.1394C188.738 49.8334 188.63 49.5371 188.432 49.3034C188.233 49.0697 187.958 48.9141 187.655 48.8643Z" fill="white" stroke="#263238" stroke-width="0.932567" stroke-linecap="round" stroke-linejoin="round"/>
<path d="M183.126 52.3909L183.516 52.6711C183.565 52.7076 183.625 52.7274 183.686 52.7274C183.747 52.7274 183.807 52.7076 183.856 52.6711L184.215 52.397" stroke="#263238" stroke-width="0.932567" stroke-linecap="round" stroke-linejoin="round"/>
<path d="M184.611 50.6384C184.611 50.6384 185.094 50.0039 186.056 50.4505" stroke="#263238" stroke-width="0.932567" stroke-linecap="round" stroke-linejoin="round"/>
<path d="M182.506 50.6384C182.506 50.6384 182.027 50.0039 181.062 50.4505" stroke="#263238" stroke-width="0.932567" stroke-linecap="round" stroke-linejoin="round"/>
<path d="M184.628 53.5088C184.36 53.7202 184.031 53.8416 183.689 53.8554C183.348 53.8693 183.01 53.7749 182.726 53.5858" stroke="#263238" stroke-width="0.932567" stroke-linecap="round" stroke-linejoin="round"/>
<path d="M188.717 106.836C188.606 107.174 188.478 107.506 188.333 107.831" stroke="white" stroke-width="0.932567" stroke-linecap="round" stroke-linejoin="round"/>
<path d="M184.198 84.3921L185.207 85.2915C186.107 86.0936 186.698 87.1825 186.88 88.3715C187.743 93.8385 189.129 99.4595 188.959 105.398" stroke="white" stroke-width="0.932567" stroke-linecap="round" stroke-linejoin="round"/>
<path d="M188.016 84.552L186.417 86.8281L186.618 86.5479" stroke="white" stroke-width="0.932567" stroke-linecap="round" stroke-linejoin="round"/>
<path d="M181.696 75.4199L182.154 75.8881" stroke="#263238" stroke-width="0.932567" stroke-linecap="round" stroke-linejoin="round"/>
<path d="M178.384 68.9675C178.865 70.9323 179.722 72.7863 180.908 74.4284" stroke="#263238" stroke-width="0.932567" stroke-linecap="round" stroke-linejoin="round"/>
<path d="M178.472 48.1394L178.129 48.1531L178.178 49.3687L178.521 49.355L178.472 48.1394Z" fill="white" stroke="#263238" stroke-width="0.932567" stroke-linecap="round" stroke-linejoin="round"/>
<path d="M188.943 47.7006L188.6 47.7144L188.649 48.93L188.992 48.9162L188.943 47.7006Z" fill="white" stroke="#263238" stroke-width="0.932567" stroke-linecap="round" stroke-linejoin="round"/>
<path d="M183.32 42.621C181.863 42.68 180.486 43.2989 179.478 44.3476C178.47 45.3963 177.909 46.7933 177.913 48.2451C177.913 48.2724 177.919 48.2992 177.93 48.3242C177.941 48.3491 177.957 48.3716 177.977 48.3902C177.997 48.4089 178.021 48.4234 178.046 48.4329C178.072 48.4423 178.099 48.4466 178.127 48.4453H178.488C178.542 48.4429 178.592 48.42 178.628 48.3815C178.664 48.343 178.684 48.2919 178.683 48.239C178.692 46.9935 179.182 45.7991 180.052 44.9039C180.921 44.0087 182.104 43.4813 183.354 43.4314C184.604 43.3814 185.825 43.8127 186.764 44.6357C187.703 45.4587 188.288 46.6101 188.396 47.8509C188.4 47.9035 188.423 47.9527 188.463 47.9878C188.502 48.023 188.554 48.0413 188.607 48.0388H188.969C188.996 48.038 189.023 48.0318 189.047 48.0204C189.072 48.009 189.094 47.9927 189.113 47.9726C189.131 47.9524 189.145 47.9288 189.153 47.9031C189.162 47.8774 189.166 47.8502 189.164 47.8232C189.059 46.37 188.391 45.0143 187.301 44.0433C186.21 43.0722 184.782 42.5621 183.32 42.621Z" fill="#E8E8E8" stroke="#263238" stroke-width="0.932567" stroke-linecap="round" stroke-linejoin="round"/>
<path d="M179.104 48.8826H179.024C178.791 48.8921 178.562 48.9472 178.35 49.0448C178.138 49.1425 177.948 49.2807 177.789 49.4516C177.47 49.7967 177.302 50.254 177.321 50.7229C177.34 51.1917 177.546 51.6338 177.892 51.9518C178.239 52.2697 178.698 52.4376 179.169 52.4184H179.246L179.104 48.8826Z" fill="#E8E8E8" stroke="#263238" stroke-width="0.932567" stroke-linecap="round" stroke-linejoin="round"/>
<path d="M179.584 50.6289C179.637 51.9409 179.73 52.7849 179.275 52.8126C178.82 52.8403 178.629 51.9841 178.576 50.6566C178.523 49.3291 178.644 48.5006 179.099 48.4698C179.553 48.439 179.532 49.3168 179.584 50.6289Z" fill="white" stroke="#263238" stroke-width="0.932567" stroke-linecap="round" stroke-linejoin="round"/>
<path d="M188.045 48.5253H188.125C188.359 48.516 188.591 48.5526 188.81 48.6328C189.029 48.7131 189.23 48.8355 189.402 48.9931C189.573 49.1507 189.712 49.3403 189.81 49.5513C189.908 49.7622 189.963 49.9903 189.972 50.2224C189.981 50.4546 189.945 50.6863 189.864 50.9044C189.784 51.1224 189.661 51.3225 189.502 51.4933C189.344 51.664 189.154 51.8021 188.942 51.8995C188.73 51.997 188.501 52.0519 188.268 52.0612H188.187L188.045 48.5253Z" fill="#E8E8E8" stroke="#263238" stroke-width="0.932567" stroke-linecap="round" stroke-linejoin="round"/>
<path d="M187.692 50.3055C187.744 51.6176 187.723 52.4616 188.177 52.4616C188.632 52.4616 188.753 51.5838 188.7 50.2717C188.648 48.9596 188.456 48.1157 188.004 48.1311C187.553 48.1465 187.639 48.9935 187.692 50.3055Z" fill="white" stroke="#263238" stroke-width="0.932567" stroke-linecap="round" stroke-linejoin="round"/>
<path d="M180.394 49.4741C180.394 49.4741 181.572 48.5039 182.689 49.3817" stroke="#263238" stroke-width="0.932567" stroke-linecap="round" stroke-linejoin="round"/>
<path d="M186.863 49.2801C186.863 49.2801 185.625 48.4085 184.567 49.3725" stroke="#263238" stroke-width="0.932567" stroke-linecap="round" stroke-linejoin="round"/>
<path d="M181.387 57.1372C181.387 57.1372 182.093 58.899 184.709 59.2932C184.709 59.2932 183.664 61.4492 182.235 60.6022C180.524 59.592 180.196 57.4945 180.196 57.4945L181.387 57.1372Z" fill="#E8E8E8" stroke="#263238" stroke-width="0.932567" stroke-linecap="round" stroke-linejoin="round"/>
<path d="M186.182 57.3557C186.192 57.8247 186.035 58.2821 185.74 58.6477C185.445 59.0132 185.03 59.2635 184.567 59.3546C184.567 59.3546 185.839 61.4306 186.881 60.2786C187.924 59.1267 187.113 57.559 187.113 57.559L186.182 57.3557Z" fill="#E8E8E8" stroke="#263238" stroke-width="0.932567" stroke-linecap="round" stroke-linejoin="round"/>
<path d="M185.6 63.4696C185.6 63.5305 185.582 63.5901 185.548 63.6407C185.514 63.6914 185.466 63.7309 185.409 63.7542C185.353 63.7775 185.29 63.7836 185.23 63.7717C185.17 63.7598 185.115 63.7305 185.072 63.6874C185.029 63.6443 184.999 63.5894 184.987 63.5297C184.975 63.47 184.982 63.408 185.005 63.3517C185.028 63.2955 185.068 63.2474 185.119 63.2135C185.17 63.1797 185.23 63.1616 185.291 63.1616C185.373 63.1616 185.451 63.1941 185.51 63.2518C185.568 63.3096 185.6 63.3879 185.6 63.4696Z" fill="#E8E8E8" stroke="#263238" stroke-width="0.932567" stroke-linecap="round" stroke-linejoin="round"/>
<path d="M186.02 69.5341C186.02 69.595 186.002 69.6545 185.968 69.7052C185.934 69.7558 185.886 69.7953 185.829 69.8186C185.773 69.8419 185.71 69.848 185.65 69.8361C185.59 69.8243 185.535 69.7949 185.492 69.7519C185.449 69.7088 185.419 69.6539 185.407 69.5942C185.395 69.5344 185.401 69.4725 185.425 69.4162C185.448 69.3599 185.488 69.3118 185.539 69.278C185.59 69.2441 185.65 69.2261 185.711 69.2261C185.793 69.2261 185.871 69.2585 185.929 69.3163C185.987 69.374 186.02 69.4524 186.02 69.5341Z" fill="#E8E8E8" stroke="#263238" stroke-width="0.932567" stroke-linecap="round" stroke-linejoin="round"/>
<path d="M186.416 75.7433C186.416 75.8042 186.398 75.8638 186.364 75.9144C186.33 75.9651 186.282 76.0046 186.226 76.0279C186.169 76.0512 186.107 76.0573 186.047 76.0454C185.987 76.0335 185.932 76.0042 185.888 75.9611C185.845 75.918 185.816 75.8632 185.804 75.8034C185.792 75.7437 185.798 75.6817 185.821 75.6254C185.845 75.5692 185.884 75.5211 185.935 75.4872C185.986 75.4534 186.046 75.4353 186.107 75.4353C186.189 75.4353 186.268 75.4678 186.326 75.5255C186.384 75.5833 186.416 75.6616 186.416 75.7433Z" fill="#E8E8E8" stroke="#263238" stroke-width="0.932567" stroke-linecap="round" stroke-linejoin="round"/>
<path d="M213.675 34.4497H150.998C150.707 34.4497 150.472 34.6841 150.472 34.9733V36.0975C150.472 36.3867 150.707 36.6211 150.998 36.6211H213.675C213.965 36.6211 214.201 36.3867 214.201 36.0975V34.9733C214.201 34.6841 213.965 34.4497 213.675 34.4497Z" fill="white"/>
<path d="M213.569 36.6211H151.103" stroke="#263238" stroke-width="0.932567" stroke-linecap="round" stroke-linejoin="round"/>
<path d="M151.103 34.4497H213.569" stroke="#263238" stroke-width="0.932567" stroke-linecap="round" stroke-linejoin="round"/>
<path d="M170.548 49.0614C170.548 49.0614 167.965 48.7011 167.825 49.391C167.686 50.0809 167.764 51.1866 168.209 51.547C169.05 52.2308 168.896 53.509 168.896 53.509L171.061 53.2995L171.117 52.2215C171.228 51.8698 171.427 51.552 171.695 51.2975C172.475 50.5676 172.165 49.7575 172.032 48.7812C171.899 47.8048 171.253 48.2391 171.2 48.7442C171.185 49.1946 171.222 49.6453 171.312 50.0871L170.548 49.0614Z" fill="white" stroke="#263238" stroke-width="0.932567" stroke-linecap="round" stroke-linejoin="round"/>
<path d="M171.153 50.01C171.153 50.01 170.535 50.1363 170.046 51.0079L171.153 50.01Z" fill="white"/>
<path d="M171.153 50.01C171.153 50.01 170.535 50.1363 170.046 51.0079" stroke="#263238" stroke-width="0.932567" stroke-linecap="round" stroke-linejoin="round"/>
<path d="M171.154 50.2381H168.024C167.807 50.2446 167.591 50.1994 167.395 50.1062C167.199 50.0129 167.029 49.8744 166.898 49.7021C166.786 49.5456 166.726 49.3583 166.726 49.1662C166.726 48.9741 166.786 48.7868 166.898 48.6303L168.463 46.3419C168.598 46.1719 168.77 46.0346 168.966 45.9403C169.162 45.8459 169.377 45.7969 169.595 45.7969C169.813 45.7969 170.028 45.8459 170.224 45.9403C170.42 46.0346 170.592 46.1719 170.727 46.3419L172.295 48.6303C172.407 48.7868 172.468 48.9741 172.468 49.1662C172.468 49.3583 172.407 49.5456 172.295 49.7021C172.163 49.877 171.99 50.0171 171.791 50.1105C171.592 50.2039 171.374 50.2476 171.154 50.2381ZM167.442 48.8829C167.383 48.9645 167.351 49.0626 167.351 49.1631C167.351 49.2637 167.383 49.3617 167.442 49.4434C167.51 49.5326 167.599 49.6042 167.701 49.6524C167.802 49.7006 167.914 49.724 168.027 49.7206H171.154C171.267 49.7243 171.378 49.701 171.48 49.6528C171.582 49.6045 171.671 49.5328 171.739 49.4434C171.798 49.3619 171.83 49.2638 171.83 49.1631C171.83 49.0625 171.798 48.9644 171.739 48.8829L170.173 46.5975C170.105 46.5062 170.016 46.4326 169.913 46.3833C169.81 46.3339 169.697 46.3102 169.583 46.3141C169.469 46.3099 169.356 46.3335 169.253 46.3829C169.151 46.4323 169.062 46.506 168.995 46.5975L167.427 48.8859L167.442 48.8829Z" fill="#263238"/>
<path d="M168.651 49.092C168.812 49.9051 168.713 50.1947 168.342 50.1515C167.97 50.1084 167.596 49.1105 168.11 48.8826C168.623 48.6547 169.037 48.4791 169.037 48.4791C169.202 48.3906 169.385 48.3414 169.572 48.3356C169.759 48.3297 169.944 48.3672 170.114 48.4452C170.85 48.1896 170.98 48.7224 170.98 48.7224C170.98 48.7224 171.512 50.2624 171.07 50.3148C170.627 50.3671 170.262 49.0304 170.262 49.0304C170.262 49.0304 170.816 50.4965 170.309 50.5211C169.802 50.5458 169.508 49.0982 169.508 49.0982C169.508 49.0982 169.839 50.3702 169.359 50.4133C168.88 50.4565 168.651 49.092 168.651 49.092Z" fill="white" stroke="#263238" stroke-width="0.932567" stroke-linecap="round" stroke-linejoin="round"/>
<path d="M169.821 36.0391H169.313V46.1507H169.821V36.0391Z" fill="white" stroke="#263238" stroke-width="0.932567" stroke-linecap="round" stroke-linejoin="round"/>
<path d="M170.102 45.9934L169.771 46.477C169.749 46.5045 169.721 46.5268 169.69 46.5421C169.658 46.5574 169.623 46.5654 169.588 46.5654C169.553 46.5654 169.518 46.5574 169.487 46.5421C169.455 46.5268 169.428 46.5045 169.406 46.477L169.078 45.9934C168.998 45.8795 169.1 45.7378 169.257 45.7378H169.919C170.08 45.7378 170.179 45.8918 170.102 45.9934Z" fill="white" stroke="#263238" stroke-width="0.932567" stroke-linecap="round" stroke-linejoin="round"/>
<path d="M169.861 42.5994H169.32C169.171 42.5994 169.051 42.7193 169.051 42.8673V45.1096C169.051 45.2575 169.171 45.3775 169.32 45.3775H169.861C170.01 45.3775 170.13 45.2575 170.13 45.1096V42.8673C170.13 42.7193 170.01 42.5994 169.861 42.5994Z" fill="white" stroke="#263238" stroke-width="0.932567" stroke-linecap="round" stroke-linejoin="round"/>
<path d="M169.861 34.1018H169.32C169.171 34.1018 169.051 34.2218 169.051 34.3698V36.612C169.051 36.76 169.171 36.88 169.32 36.88H169.861C170.01 36.88 170.13 36.76 170.13 36.612V34.3698C170.13 34.2218 170.01 34.1018 169.861 34.1018Z" fill="white" stroke="#263238" stroke-width="0.932567" stroke-linecap="round" stroke-linejoin="round"/>
<path d="M163.796 50.2379H160.665C160.448 50.2444 160.233 50.1992 160.037 50.106C159.841 50.0128 159.67 49.8742 159.539 49.702C159.427 49.5455 159.367 49.3581 159.367 49.166C159.367 48.9739 159.427 48.7866 159.539 48.6301L161.104 46.3417C161.24 46.1717 161.412 46.0344 161.609 45.94C161.805 45.8457 162.02 45.7966 162.238 45.7966C162.456 45.7966 162.671 45.8457 162.868 45.94C163.064 46.0344 163.236 46.1717 163.372 46.3417L164.937 48.6301C165.049 48.7866 165.109 48.9739 165.109 49.166C165.109 49.3581 165.049 49.5455 164.937 49.702C164.805 49.8768 164.632 50.0169 164.433 50.1103C164.234 50.2037 164.015 50.2475 163.796 50.2379ZM160.084 48.8827C160.025 48.9644 159.993 49.0624 159.993 49.163C159.993 49.2635 160.025 49.3616 160.084 49.4432C160.152 49.5324 160.241 49.604 160.342 49.6522C160.444 49.7005 160.556 49.7238 160.668 49.7204H163.799C163.912 49.7238 164.024 49.7005 164.126 49.6523C164.228 49.6041 164.318 49.5324 164.386 49.4432C164.445 49.3616 164.477 49.2635 164.477 49.163C164.477 49.0624 164.445 48.9644 164.386 48.8827L162.821 46.5973C162.753 46.506 162.664 46.4325 162.561 46.3831C162.458 46.3337 162.345 46.31 162.23 46.314C162.117 46.3097 162.004 46.3333 161.901 46.3827C161.799 46.4322 161.71 46.5058 161.643 46.5973L160.074 48.8858L160.084 48.8827Z" fill="#263238"/>
<path d="M162.462 36.0391H161.955V46.1507H162.462V36.0391Z" fill="white" stroke="#263238" stroke-width="0.932567" stroke-linecap="round" stroke-linejoin="round"/>
<path d="M162.743 45.9937L162.4 46.4772C162.378 46.5048 162.35 46.527 162.319 46.5424C162.287 46.5577 162.252 46.5656 162.217 46.5656C162.182 46.5656 162.147 46.5577 162.116 46.5424C162.084 46.527 162.056 46.5048 162.035 46.4772L161.707 45.9937C161.626 45.8797 161.728 45.738 161.886 45.738H162.548C162.709 45.738 162.82 45.892 162.743 45.9937Z" fill="white" stroke="#263238" stroke-width="0.932567" stroke-linecap="round" stroke-linejoin="round"/>
<path d="M162.503 42.5994H161.961C161.813 42.5994 161.692 42.7193 161.692 42.8673V45.1096C161.692 45.2575 161.813 45.3775 161.961 45.3775H162.503C162.651 45.3775 162.772 45.2575 162.772 45.1096V42.8673C162.772 42.7193 162.651 42.5994 162.503 42.5994Z" fill="white" stroke="#263238" stroke-width="0.932567" stroke-linecap="round" stroke-linejoin="round"/>
<path d="M162.503 34.1018H161.961C161.813 34.1018 161.692 34.2218 161.692 34.3698V36.612C161.692 36.76 161.813 36.88 161.961 36.88H162.503C162.651 36.88 162.772 36.76 162.772 36.612V34.3698C162.772 34.2218 162.651 34.1018 162.503 34.1018Z" fill="white" stroke="#263238" stroke-width="0.932567" stroke-linecap="round" stroke-linejoin="round"/>
<path d="M195.687 50.2381H192.557C192.34 50.2451 192.124 50.2001 191.928 50.1069C191.732 50.0136 191.562 49.8748 191.431 49.7021C191.319 49.5456 191.259 49.3583 191.259 49.1662C191.259 48.9741 191.319 48.7868 191.431 48.6303L192.996 46.3419C193.131 46.1719 193.303 46.0346 193.499 45.9403C193.696 45.8459 193.91 45.7969 194.128 45.7969C194.346 45.7969 194.561 45.8459 194.757 45.9403C194.953 46.0346 195.125 46.1719 195.26 46.3419L196.826 48.6303C196.938 48.7868 196.998 48.9741 196.998 49.1662C196.998 49.3583 196.938 49.5456 196.826 49.7021C196.694 49.8765 196.521 50.0164 196.323 50.1098C196.124 50.2031 195.906 50.2471 195.687 50.2381ZM191.975 48.8829C191.916 48.9644 191.884 49.0625 191.884 49.1631C191.884 49.2638 191.916 49.3619 191.975 49.4434C192.043 49.5328 192.132 49.6045 192.234 49.6528C192.335 49.701 192.447 49.7243 192.56 49.7206H195.69C195.803 49.7243 195.915 49.701 196.017 49.6528C196.118 49.6045 196.207 49.5328 196.275 49.4434C196.334 49.3619 196.366 49.2638 196.366 49.1631C196.366 49.0625 196.334 48.9644 196.275 48.8829L194.71 46.5975C194.639 46.509 194.549 46.4375 194.447 46.3883C194.345 46.3392 194.233 46.3136 194.119 46.3136C194.005 46.3136 193.893 46.3392 193.791 46.3883C193.689 46.4375 193.599 46.509 193.528 46.5975L191.963 48.8859L191.975 48.8829Z" fill="#263238"/>
<path d="M194.351 36.0391H193.844V46.1507H194.351V36.0391Z" fill="white" stroke="#263238" stroke-width="0.932567" stroke-linecap="round" stroke-linejoin="round"/>
<path d="M194.632 45.9934L194.304 46.477C194.282 46.5045 194.255 46.5268 194.223 46.5421C194.191 46.5574 194.157 46.5654 194.122 46.5654C194.086 46.5654 194.052 46.5574 194.02 46.5421C193.988 46.5268 193.961 46.5045 193.939 46.477L193.611 45.9934C193.531 45.8795 193.633 45.7378 193.791 45.7378H194.452C194.61 45.7378 194.712 45.8918 194.632 45.9934Z" fill="white" stroke="#263238" stroke-width="0.932567" stroke-linecap="round" stroke-linejoin="round"/>
<path d="M194.393 42.5994H193.852C193.703 42.5994 193.583 42.7193 193.583 42.8673V45.1096C193.583 45.2575 193.703 45.3775 193.852 45.3775H194.393C194.542 45.3775 194.663 45.2575 194.663 45.1096V42.8673C194.663 42.7193 194.542 42.5994 194.393 42.5994Z" fill="white" stroke="#263238" stroke-width="0.932567" stroke-linecap="round" stroke-linejoin="round"/>
<path d="M194.393 34.1018H193.852C193.703 34.1018 193.583 34.2218 193.583 34.3698V36.612C193.583 36.76 193.703 36.88 193.852 36.88H194.393C194.542 36.88 194.663 36.76 194.663 36.612V34.3698C194.663 34.2218 194.542 34.1018 194.393 34.1018Z" fill="white" stroke="#263238" stroke-width="0.932567" stroke-linecap="round" stroke-linejoin="round"/>
<path d="M202.699 50.2379H199.569C199.352 50.2444 199.136 50.1992 198.94 50.106C198.744 50.0128 198.574 49.8742 198.443 49.702C198.331 49.5455 198.271 49.3581 198.271 49.166C198.271 48.9739 198.331 48.7866 198.443 48.6301L200.008 46.3417C200.143 46.1717 200.316 46.0344 200.512 45.94C200.708 45.8457 200.923 45.7966 201.141 45.7966C201.359 45.7966 201.575 45.8457 201.771 45.94C201.967 46.0344 202.14 46.1717 202.275 46.3417L203.84 48.6301C203.952 48.7866 204.012 48.9739 204.012 49.166C204.012 49.3581 203.952 49.5455 203.84 49.702C203.708 49.8768 203.535 50.0169 203.336 50.1103C203.137 50.2037 202.919 50.2475 202.699 50.2379ZM198.987 48.8827C198.928 48.9644 198.896 49.0624 198.896 49.163C198.896 49.2635 198.928 49.3616 198.987 49.4432C199.055 49.5324 199.144 49.604 199.246 49.6522C199.347 49.7005 199.459 49.7238 199.572 49.7204H202.702C202.815 49.7238 202.927 49.7005 203.029 49.6523C203.132 49.6041 203.221 49.5324 203.29 49.4432C203.349 49.3616 203.38 49.2635 203.38 49.163C203.38 49.0624 203.349 48.9644 203.29 48.8827L201.725 46.5973C201.657 46.506 201.567 46.4325 201.464 46.3831C201.361 46.3337 201.248 46.31 201.134 46.314C201.02 46.3097 200.907 46.3333 200.804 46.3827C200.702 46.4322 200.613 46.5058 200.546 46.5973L198.978 48.8858L198.987 48.8827Z" fill="#263238"/>
<path d="M201.367 36.0391H200.859V46.1507H201.367V36.0391Z" fill="white" stroke="#263238" stroke-width="0.932567" stroke-linecap="round" stroke-linejoin="round"/>
<path d="M201.649 45.9934L201.318 46.477C201.296 46.5045 201.268 46.5268 201.237 46.5421C201.205 46.5574 201.17 46.5654 201.135 46.5654C201.1 46.5654 201.065 46.5574 201.034 46.5421C201.002 46.5268 200.974 46.5045 200.953 46.477L200.625 45.9934C200.544 45.8795 200.646 45.7378 200.804 45.7378H201.466C201.627 45.7378 201.726 45.8918 201.649 45.9934Z" fill="white" stroke="#263238" stroke-width="0.932567" stroke-linecap="round" stroke-linejoin="round"/>
<path d="M201.407 42.5994H200.866C200.717 42.5994 200.597 42.7193 200.597 42.8673V45.1096C200.597 45.2575 200.717 45.3775 200.866 45.3775H201.407C201.556 45.3775 201.676 45.2575 201.676 45.1096V42.8673C201.676 42.7193 201.556 42.5994 201.407 42.5994Z" fill="white" stroke="#263238" stroke-width="0.932567" stroke-linecap="round" stroke-linejoin="round"/>
<path d="M201.407 34.1018H200.866C200.717 34.1018 200.597 34.2218 200.597 34.3698V36.612C200.597 36.76 200.717 36.88 200.866 36.88H201.407C201.556 36.88 201.676 36.76 201.676 36.612V34.3698C201.676 34.2218 201.556 34.1018 201.407 34.1018Z" fill="white" stroke="#263238" stroke-width="0.932567" stroke-linecap="round" stroke-linejoin="round"/>
<path d="M171.396 52.8127L171.56 54.1279L168.194 54.285L168.476 52.9667L171.396 52.8127Z" fill="#E8E8E8" stroke="#263238" stroke-width="0.932567" stroke-linecap="round" stroke-linejoin="round"/>
<path d="M177.104 63.8671C177.104 63.8671 171.26 69.217 169.912 69.3002C169.581 69.3217 169.293 69.5281 169.015 69.3402C168.396 68.9213 167.502 68.0343 167.632 64.4307C167.7 62.4595 168.897 54.2451 168.897 54.2451L171.062 54.1497L171.588 63.3897C173.444 61.4739 176.671 58.8189 176.674 58.8189C177.682 62.0283 177.104 63.8671 177.104 63.8671Z" fill="white" stroke="#263238" stroke-width="0.932567" stroke-linecap="round" stroke-linejoin="round"/>
<path d="M191.839 71.305C191.985 70.6661 192.262 70.0642 192.652 69.5371L191.839 71.305Z" fill="white"/>
<path d="M191.839 71.305C191.985 70.6661 192.262 70.0642 192.652 69.5371" stroke="#263238" stroke-width="0.932567" stroke-linecap="round" stroke-linejoin="round"/>
<path d="M170.925 65.5637C171.151 65.4621 171.689 64.4611 171.577 62.7517" stroke="#263238" stroke-width="0.932567" stroke-linecap="round" stroke-linejoin="round"/>
<path d="M173 43.6221V39.9415C173.001 39.7636 173.072 39.5933 173.198 39.4676C173.325 39.3418 173.496 39.2708 173.674 39.27H179.477C179.656 39.2708 179.827 39.3418 179.953 39.4676C180.08 39.5933 180.151 39.7636 180.152 39.9415V43.6221C180.152 43.8001 180.081 43.9709 179.954 44.0968C179.828 44.2228 179.656 44.2935 179.477 44.2935H177.457L177.618 45.6949H176.576V47.0193L175.339 44.8633H176.35L176.245 44.2966H173.671C173.583 44.2962 173.495 44.2784 173.413 44.2443C173.332 44.2102 173.258 44.1604 173.195 44.0977C173.133 44.0351 173.084 43.9609 173.05 43.8792C173.017 43.7976 173 43.7102 173 43.6221Z" fill="white" stroke="#263238" stroke-width="0.932567" stroke-linecap="round" stroke-linejoin="round"/>
<path d="M178.03 40.5298H174.107" stroke="#263238" stroke-width="0.932567" stroke-linecap="round" stroke-linejoin="round"/>
<path d="M179.044 41.574H174.107" stroke="#263238" stroke-width="0.932567" stroke-linecap="round" stroke-linejoin="round"/>
<path d="M178.283 42.615H174.107" stroke="#263238" stroke-width="0.932567" stroke-linecap="round" stroke-linejoin="round"/>
<path d="M43.9379 134.719C51.9144 134.719 58.3807 133.772 58.3807 132.603C58.3807 131.435 51.9144 130.488 43.9379 130.488C35.9614 130.488 29.4951 131.435 29.4951 132.603C29.4951 133.772 35.9614 134.719 43.9379 134.719Z" fill="#E8E8E8"/>
<path d="M42.6734 98.8834C56.5644 98.8834 67.8253 87.671 67.8253 73.8399C67.8253 60.0087 56.5644 48.7964 42.6734 48.7964C28.7824 48.7964 17.5215 60.0087 17.5215 73.8399C17.5215 87.671 28.7824 98.8834 42.6734 98.8834Z" fill="#E8E8E8"/>
<path d="M31.0727 90.2166C31.0727 90.2166 31.713 93.9125 29.5508 98.0675H56.5896C56.5896 98.0675 55.3523 96.1301 54.0562 90.2166H31.0727Z" fill="white" stroke="#263238" stroke-width="0.87381" stroke-linecap="round" stroke-linejoin="round"/>
<path d="M37.2373 91.0697C35.7572 91.1877 34.3387 91.7103 33.1379 92.5798C31.9371 93.4494 31.0007 94.6321 30.4319 95.9977C30.1412 96.6999 29.838 97.4114 29.5503 98.0767C27.9047 101.868 29.4606 107.384 33.6676 107.384H52.9576C56.7717 107.384 57.8141 102.577 56.9016 98.9545C56.3138 96.626 55.1291 94.2883 53.1061 92.6497C50.4025 90.4475 42.5021 90.6508 37.2373 91.0697Z" fill="#263238" stroke="#263238" stroke-width="0.87381" stroke-linecap="round" stroke-linejoin="round"/>
<path d="M18.8208 87.001C18.8208 87.001 15.3625 89.0831 15.248 90.2165H19.489L21.1749 89.0123L20.6057 90.2227H21.8956C21.8956 90.2227 23.266 89.1632 23.3402 87.9897L23.201 87.001L20.7263 85.9045L18.8208 87.001Z" fill="white" stroke="#263238" stroke-width="0.87381" stroke-linecap="round" stroke-linejoin="round"/>
<path d="M59.3306 79.3533C59.3306 79.3533 58.7769 75.7282 57.5612 70.5076C56.3456 65.287 53.9699 64.8773 53.9699 64.8773H53.9482C50.8549 63.5529 42.8122 62.8384 42.8122 62.8384H42.441C42.441 62.8384 34.3798 63.5529 31.305 64.8773H31.2834C31.2834 64.8773 28.886 65.2962 27.6704 70.5076C26.4547 75.7189 25.8979 79.3533 25.8979 79.3533C25.8979 79.3533 23.7016 79.9447 19.7483 84.8973C19.1277 85.6827 18.5994 86.5363 18.1738 87.4414C18.1738 87.4414 21.2115 86.4466 23.3397 87.9712C23.3397 87.9712 30.3121 85.0267 30.6616 81.9221C30.6616 81.8112 30.6895 81.688 30.7049 81.5555C30.9029 86.2679 31.073 90.2042 31.073 90.2042H54.1555C54.1555 90.2042 54.3287 86.2679 54.5267 81.5555C54.5267 81.688 54.5545 81.8112 54.5669 81.9221C54.9195 85.0267 62.6374 88.5071 62.6374 88.5071C64.7532 85.2669 67.8249 87.0564 67.8249 87.0564L59.3306 79.3533Z" fill="white"/>
<path opacity="0.3" d="M30.6627 81.9281C30.6627 81.8357 30.6875 81.731 30.6999 81.6201L30.1957 70.7139C30.1957 70.7139 28.8037 70.9972 29.2027 74.3452C29.6017 77.6931 30.44 77.1172 29.9729 78.4077C29.5058 79.6982 27.6931 78.2198 27.093 79.3317C26.4929 80.4436 30.4462 80.2064 28.8129 83.0708C27.1796 85.9352 23.3408 87.9988 23.3408 87.9988C23.3408 87.9988 30.3163 85.0389 30.6627 81.9281Z" fill="black"/>
<g opacity="0.3">
<path opacity="0.3" d="M54.6758 81.9282C54.6758 81.8358 55.5852 81.996 54.6758 81.9282L54.9511 72.5928C54.9511 72.5928 54.883 77.1081 55.3687 78.4078C55.8543 79.7076 57.6485 78.2199 58.2455 79.3318C58.8425 80.4437 54.8923 80.2065 56.5287 83.0709C58.1651 85.9353 61.9977 87.9989 61.9977 87.9989C61.9977 87.9989 55.0284 85.039 54.6758 81.9282Z" fill="black"/>
</g>
<path opacity="0.3" d="M54.3229 84.0532C54.1713 87.586 54.0569 90.2132 54.0569 90.2132H33.3037C47.2237 90.2132 54.3384 84.0532 54.3384 84.0532H54.3229Z" fill="black"/>
<path d="M59.3306 79.3533C59.3306 79.3533 58.7769 75.7282 57.5612 70.5076C56.3456 65.287 53.9699 64.8773 53.9699 64.8773H53.9482C50.8549 63.5529 42.8122 62.8384 42.8122 62.8384H42.441C42.441 62.8384 34.3798 63.5529 31.305 64.8773H31.2834C31.2834 64.8773 28.886 65.2962 27.6704 70.5076C26.4547 75.7189 25.8979 79.3533 25.8979 79.3533C25.8979 79.3533 23.7016 79.9447 19.7483 84.8973C19.1277 85.6827 18.5994 86.5363 18.1738 87.4414V87.4414C18.1738 87.4414 21.2115 86.4466 23.3397 87.9712C23.3397 87.9712 30.3121 85.0267 30.6616 81.9221C30.6616 81.8112 30.6895 81.688 30.7049 81.5555C30.9029 86.2679 31.073 90.2042 31.073 90.2042H54.1555C54.1555 90.2042 54.3287 86.2679 54.5267 81.5555C54.5267 81.688 54.5545 81.8112 54.5669 81.9221C54.9195 85.0267 62.6374 88.5071 62.6374 88.5071C64.7532 85.2669 67.8249 87.0564 67.8249 87.0564L59.3306 79.3533Z" stroke="#263238" stroke-width="0.87381" stroke-linecap="round" stroke-linejoin="round"/>
<path d="M26.6367 79.3318C27.7498 79.2761 28.8408 79.6552 29.6775 80.3882" stroke="#263238" stroke-width="0.87381" stroke-linecap="round" stroke-linejoin="round"/>
<path d="M28.8105 71.0404C28.8105 71.0404 30.2397 71.3484 30.5676 78.2661L30.1376 69.1863" stroke="#263238" stroke-width="0.87381" stroke-linecap="round" stroke-linejoin="round"/>
<path d="M30.5869 79.2271L30.6523 80.6284" stroke="#263238" stroke-width="0.87381" stroke-linecap="round" stroke-linejoin="round"/>
<path d="M58.5935 79.3317C57.4825 79.2718 56.3918 79.6452 55.5527 80.3727" stroke="#263238" stroke-width="0.87381" stroke-linecap="round" stroke-linejoin="round"/>
<path d="M55.0059 71.0404C55.0329 70.4244 55.0619 69.8084 55.0931 69.1924" stroke="#263238" stroke-width="0.87381" stroke-linecap="round" stroke-linejoin="round"/>
<path d="M46.9478 63.3374C46.5735 65.2039 44.7608 65.8784 42.5769 65.8784C40.393 65.8784 38.5865 65.2069 38.2061 63.3466H38.2927C38.5189 63.3159 38.7305 63.2177 38.8994 63.0648C39.0684 62.9119 39.1869 62.7116 39.2392 62.4904C39.2695 62.4021 39.2852 62.3095 39.2856 62.2163V60.0264H45.9672V62.2163C45.9664 62.3532 45.9916 62.489 46.0415 62.6167C46.1135 62.8068 46.2357 62.9741 46.3952 63.101C46.5547 63.2278 46.7456 63.3095 46.9478 63.3374Z" fill="white"/>
<path d="M45.9119 61.6649C44.8045 62.749 43.5703 63.4235 42.3793 63.4759C41.142 63.5313 39.7067 62.5211 39.1221 61.5293C39.1462 61.4432 39.1577 61.3539 39.1561 61.2645V60.593L45.8377 60.6639V61.2645C45.8377 61.4061 46.0078 61.5725 45.9119 61.6649Z" fill="#263238"/>
<path d="M46.9478 63.3374C46.5735 65.2039 44.7608 65.8784 42.5769 65.8784C40.393 65.8784 38.5865 65.2069 38.2061 63.3466H38.2927C38.5189 63.3159 38.7305 63.2177 38.8994 63.0648C39.0684 62.9119 39.1869 62.7116 39.2392 62.4904C39.2695 62.4021 39.2852 62.3095 39.2856 62.2163V60.0264H45.9672V62.2163C45.9664 62.3532 45.9916 62.489 46.0415 62.6167C46.1135 62.8068 46.2357 62.9741 46.3952 63.101C46.5547 63.2278 46.7456 63.3095 46.9478 63.3374V63.3374Z" stroke="#263238" stroke-width="0.87381" stroke-linecap="round" stroke-linejoin="round"/>
<path d="M37.6964 55.3232C37.6964 55.3232 35.3795 52.7144 35.6826 49.1201C35.9858 45.5257 38.9492 45.5257 38.9492 45.5257C38.9492 45.5257 42.522 42.3872 46.5093 44.3522C50.4966 46.3173 50.2213 53.1302 47.2702 54.8242L37.6964 55.3232Z" fill="#263238"/>
<path d="M47.9092 53.5675C47.9401 52.9699 47.937 52.6003 47.937 52.6003C47.671 51.0111 45.7191 50.8509 44.822 50.8232C41.0636 50.6969 40.0738 48.4023 40.0738 48.4023C37.794 47.7216 37.1475 52.6003 37.1475 52.6003C37.1475 52.6003 37.1475 52.9699 37.1784 53.5675C36.7757 53.644 36.4141 53.8622 36.1597 54.1823C35.9052 54.5024 35.7749 54.9029 35.7926 55.3107C35.7926 56.284 36.4979 57.0694 37.3702 57.0694C37.4584 57.069 37.5464 57.0608 37.6331 57.0448L38.0415 59.3363C38.1188 59.8507 38.6044 61.0673 39.0406 61.3568C39.9686 61.9728 41.4379 62.8506 42.5423 62.8506C43.495 62.8506 44.8313 62.0683 45.8181 61.5354C46.3687 61.2274 46.975 60.0478 47.0276 59.4287L47.2843 57.1125C47.4294 57.1056 47.5739 57.0913 47.7174 57.0694C48.5866 57.0694 49.295 56.284 49.295 55.3107C49.3127 54.9029 49.1824 54.5024 48.9279 54.1823C48.6735 53.8622 48.3119 53.644 47.9092 53.5675Z" fill="white" stroke="#263238" stroke-width="0.87381" stroke-linecap="round" stroke-linejoin="round"/>
<path d="M36.3986 52.0891H35.9902V53.5367H36.3986V52.0891Z" fill="white" stroke="#263238" stroke-width="0.87381" stroke-linecap="round" stroke-linejoin="round"/>
<path d="M48.8751 52.0891H48.4668V53.5367H48.8751V52.0891Z" fill="white" stroke="#263238" stroke-width="0.87381" stroke-linecap="round" stroke-linejoin="round"/>
<path d="M42.431 45.7659C40.6944 45.7655 39.0254 46.4359 37.7752 47.6359C36.525 48.8359 35.791 50.4721 35.7277 52.2C35.7265 52.2322 35.7318 52.2643 35.7434 52.2943C35.755 52.3244 35.7726 52.3518 35.7952 52.3748C35.8178 52.3979 35.8448 52.4161 35.8747 52.4284C35.9046 52.4407 35.9367 52.4468 35.969 52.4464H36.4021C36.465 52.4464 36.5255 52.4219 36.5705 52.3782C36.6156 52.3345 36.6417 52.2749 36.6433 52.2123C36.7122 50.73 37.352 49.3312 38.4299 48.3065C39.5077 47.2818 40.9407 46.71 42.431 46.71C43.9213 46.71 45.3542 47.2818 46.4321 48.3065C47.5099 49.3312 48.1498 50.73 48.2186 52.2123C48.221 52.2752 48.2478 52.3348 48.2934 52.3784C48.339 52.4221 48.3997 52.4464 48.463 52.4464H48.893C48.9254 52.4468 48.9577 52.4407 48.9877 52.4284C49.0177 52.4162 49.045 52.398 49.0678 52.375C49.0906 52.352 49.1086 52.3246 49.1205 52.2945C49.1324 52.2645 49.1382 52.2323 49.1373 52.2C49.0733 50.4718 48.3386 48.8357 47.0879 47.6357C45.8372 46.4358 44.1678 45.7655 42.431 45.7659Z" fill="white" stroke="#263238" stroke-width="0.87381" stroke-linecap="round" stroke-linejoin="round"/>
<path d="M37.0966 53.0164H37.0038C36.4563 53.0372 35.9381 53.2684 35.5581 53.6615C35.1781 54.0546 34.9658 54.579 34.9658 55.1246C34.9658 55.6702 35.1781 56.1946 35.5581 56.5877C35.9381 56.9808 36.4563 57.212 37.0038 57.2329H37.0966V53.0164Z" fill="#263238" stroke="#263238" stroke-width="0.87381" stroke-miterlimit="10"/>
<path d="M37.5996 55.1323C37.5996 56.6939 37.6677 57.7103 37.1264 57.7103C36.585 57.7103 36.3994 56.6939 36.3994 55.1323C36.3994 53.5708 36.585 52.5513 37.1264 52.5513C37.6677 52.5513 37.5996 53.5554 37.5996 55.1323Z" fill="white" stroke="#263238" stroke-width="0.87381" stroke-linecap="round" stroke-linejoin="round"/>
<path d="M47.7705 53.0164H47.8633C48.4109 53.0372 48.929 53.2684 49.309 53.6615C49.689 54.0546 49.9013 54.579 49.9013 55.1246C49.9013 55.6702 49.689 56.1946 49.309 56.5877C48.929 56.9808 48.4109 57.212 47.8633 57.2329H47.7705V53.0164Z" fill="#263238" stroke="#263238" stroke-width="0.87381" stroke-miterlimit="10"/>
<path d="M47.2642 55.1323C47.2642 56.6939 47.1992 57.7103 47.7405 57.7103C48.2819 57.7103 48.4675 56.6939 48.4675 55.1323C48.4675 53.5708 48.2819 52.5513 47.7405 52.5513C47.1992 52.5513 47.2642 53.5554 47.2642 55.1323Z" fill="white" stroke="#263238" stroke-width="0.87381" stroke-linecap="round" stroke-linejoin="round"/>
<path d="M38.8125 55.511C38.8125 55.511 39.6941 56.5921 41.3459 55.7389" stroke="#263238" stroke-width="0.87381" stroke-linecap="round" stroke-linejoin="round"/>
<path d="M41.3447 59.7151C41.7093 59.9788 42.1484 60.1208 42.5991 60.1208C43.0497 60.1208 43.4888 59.9788 43.8534 59.7151" stroke="#263238" stroke-width="0.75" stroke-linecap="round" stroke-linejoin="round"/>
<path d="M38.5674 54.0603C38.5674 54.0603 40.1666 52.8468 41.5896 54.0603" stroke="#263238" stroke-width="0.87381" stroke-linecap="round" stroke-linejoin="round"/>
<path d="M46.4226 54.1005C46.4226 54.1005 44.8233 52.8685 43.4004 54.1005" stroke="#263238" stroke-width="0.87381" stroke-linecap="round" stroke-linejoin="round"/>
<path d="M43.7611 58.0151C43.7611 58.0151 43.9034 58.8036 42.4526 58.7851C42.0969 58.7851 41.4504 58.5326 41.4287 58.0151" stroke="#263238" stroke-width="0.75" stroke-linecap="round" stroke-linejoin="round"/>
<path d="M39.1592 55.7976C39.2922 56.0594 39.5922 56.3612 40.2635 56.3766C40.9347 56.392 41.0523 56.1272 41.0647 55.8684C40.7655 56.013 40.4353 56.0821 40.103 56.0698C39.7708 56.0574 39.4467 55.9639 39.1592 55.7976Z" fill="#263238"/>
<path d="M46.1897 55.5112C46.1897 55.5112 45.3081 56.5923 43.6562 55.7392" stroke="#263238" stroke-width="0.87381" stroke-linecap="round" stroke-linejoin="round"/>
<path d="M45.843 55.7976C45.71 56.0594 45.4099 56.3612 44.7387 56.3766C44.0674 56.392 43.9499 56.1272 43.9375 55.8684C44.2366 56.0132 44.5668 56.0825 44.8991 56.0702C45.2315 56.0578 45.5556 55.9642 45.843 55.7976Z" fill="#263238"/>
<path d="M39.7083 44.0256C39.7083 44.0256 38.8947 44.4784 38.9844 45.7658C38.9844 45.7658 38.6998 44.8973 37.6543 45.2761" stroke="#263238" stroke-width="0.87381" stroke-linecap="round" stroke-linejoin="round"/>
<path d="M42.6139 66.8362C43.68 66.836 44.7201 66.5077 45.5917 65.8963C46.4633 65.2848 47.1238 64.4201 47.4828 63.4205C47.2013 63.3774 46.9229 63.3404 46.6538 63.3035C46.2298 63.9908 45.636 64.5585 44.9291 64.9523C44.2221 65.3461 43.4255 65.5529 42.6154 65.5529C41.8053 65.5529 41.0087 65.3461 40.3018 64.9523C39.5948 64.5585 39.001 63.9908 38.5771 63.3035C38.3079 63.3404 38.0295 63.3774 37.748 63.4205C38.1069 64.4196 38.7669 65.284 39.6379 65.8954C40.5088 66.5068 41.5482 66.8354 42.6139 66.8362Z" fill="#263238" stroke="#263238" stroke-width="0.87381" stroke-linecap="round" stroke-linejoin="round"/>
<path d="M54.5254 81.5679C54.6615 78.5659 54.7986 75.5629 54.9368 72.5588" stroke="#263238" stroke-width="0.87381" stroke-linecap="round" stroke-linejoin="round"/>
<path d="M54.6285 50.8848V47.5677C54.6285 47.4043 54.5633 47.2476 54.4473 47.1321C54.3313 47.0166 54.1739 46.9517 54.0098 46.9517H48.7944C48.6304 46.9517 48.473 47.0166 48.357 47.1321C48.241 47.2476 48.1758 47.4043 48.1758 47.5677V50.8848C48.1758 51.0482 48.241 51.2049 48.357 51.3204C48.473 51.4359 48.6304 51.5008 48.7944 51.5008H50.6133L50.4679 52.7636H51.3959V53.9556L52.5065 52.0121H51.5939L51.6898 51.5008H54.0067C54.0882 51.5012 54.169 51.4856 54.2444 51.4548C54.3198 51.424 54.3884 51.3787 54.4462 51.3215C54.504 51.2642 54.5498 51.1962 54.5811 51.1213C54.6124 51.0463 54.6285 50.966 54.6285 50.8848Z" fill="white" stroke="#263238" stroke-width="0.87381" stroke-linecap="round" stroke-linejoin="round"/>
<path d="M49.1836 48.1006H52.7193" stroke="#263238" stroke-width="0.87381" stroke-linecap="round" stroke-linejoin="round"/>
<path d="M49.1836 49.04H53.6287" stroke="#263238" stroke-width="0.87381" stroke-linecap="round" stroke-linejoin="round"/>
<path d="M49.1836 49.9792H52.9451" stroke="#263238" stroke-width="0.87381" stroke-linecap="round" stroke-linejoin="round"/>
<path d="M70.6517 88.6119C70.6517 89.5913 69.105 90.2042 67.2057 90.2042C65.3064 90.2042 63.7598 89.5882 63.7598 88.6119C63.7598 87.6355 65.3064 86.8347 67.2057 86.8347C69.105 86.8347 70.6517 87.6294 70.6517 88.6119Z" fill="white" stroke="#263238" stroke-width="0.87381" stroke-linecap="round" stroke-linejoin="round"/>
<path d="M64.9759 89.8499C65.0687 89.8284 65.1429 89.3109 64.3046 88.9259C63.7231 88.6611 63.7076 88.3808 64.0417 88.0358C64.3758 87.6909 64.9449 87.4013 65.3842 87.5276C66.0987 87.7309 66.572 89.2124 66.8906 88.8921C67.3701 88.7689 66.7917 87.4106 65.9348 86.964C67.4815 87.3459 67.5557 89.12 68.2672 88.9783C68.8116 88.8736 67.8712 87.1118 67.0577 86.5913C67.5791 86.8332 68.0351 87.1954 68.3878 87.6477C68.9044 88.3962 68.9632 88.6487 69.3158 88.5409C69.7736 88.3962 68.6817 86.7515 68.5456 86.5728C69.2323 86.8439 69.3622 87.4167 69.5726 87.6477C69.7829 87.8787 69.8819 88.2637 70.1727 88.1128C70.4634 87.9619 70.1943 87.426 69.9994 87.1118C69.0714 85.618 67.5248 85.3686 66.0523 85.5534C64.8893 85.7012 63.5529 86.1878 62.8446 87.1118C62.6643 87.3421 62.5584 87.6213 62.5407 87.9127C62.5231 88.2041 62.5945 88.494 62.7456 88.7442C62.993 89.2647 63.8777 90.0963 64.9759 89.8499Z" fill="white" stroke="#263238" stroke-width="0.87381" stroke-linecap="round" stroke-linejoin="round"/>
<path d="M71.5551 90.2166H14.6285C14.4594 90.2166 14.3223 90.3531 14.3223 90.5215V91.0112C14.3223 91.1796 14.4594 91.3161 14.6285 91.3161H71.5551C71.7243 91.3161 71.8614 91.1796 71.8614 91.0112V90.5215C71.8614 90.3531 71.7243 90.2166 71.5551 90.2166Z" fill="#BFBFBF" stroke="#263238" stroke-width="0.87381" stroke-miterlimit="10"/>
<path d="M16.299 90.2165L12.1106 77.5423C12.0948 77.493 12.0907 77.4406 12.0986 77.3894C12.1066 77.3382 12.1263 77.2895 12.1562 77.2472C12.1862 77.2048 12.2256 77.17 12.2713 77.1453C12.3171 77.1206 12.368 77.1068 12.42 77.105H25.6501L30.3613 90.2165H16.299Z" fill="#263238"/>
<path d="M26.0121 77.105L30.3428 89.4804H41.9428V89.9147C41.9428 89.9964 41.9102 90.0747 41.8522 90.1325C41.7942 90.1903 41.7155 90.2227 41.6334 90.2227H29.6004L25.4337 77.6163C25.4152 77.5596 25.4104 77.4995 25.4196 77.4407C25.4288 77.3819 25.4519 77.326 25.4868 77.2778C25.5218 77.2295 25.5677 77.19 25.6208 77.1627C25.6739 77.1354 25.7327 77.1209 25.7925 77.1204L26.0121 77.105Z" fill="white" stroke="#263238" stroke-width="0.87381" stroke-linecap="round" stroke-linejoin="round"/>
<path d="M19.8689 83.6622C19.828 83.4469 19.7273 83.2473 19.5781 83.0862C19.6429 83.01 19.7241 82.9494 19.8157 82.9089C19.9073 82.8683 20.0069 82.849 20.1071 82.8521C20.3409 82.862 20.565 82.9477 20.7454 83.0962C20.9258 83.2446 21.0525 83.4477 21.1062 83.6745C21.1348 83.7727 21.1395 83.8763 21.1199 83.9767C21.1003 84.0771 21.057 84.1713 20.9935 84.2517C20.93 84.3321 20.8482 84.3962 20.7548 84.4389C20.6614 84.4815 20.5592 84.5014 20.4566 84.4968C20.2194 84.4914 19.9917 84.4031 19.8132 84.2474C19.9024 84.0655 19.9222 83.8575 19.8689 83.6622Z" fill="white"/>
<path d="M46.6725 90.2164H50.9011C51.4644 89.8057 51.9209 89.2669 52.2325 88.6448C52.5441 88.0228 52.7017 87.3355 52.6922 86.6405V84.66C52.6922 84.5848 52.6773 84.5103 52.6484 84.4408C52.6195 84.3713 52.5771 84.3081 52.5237 84.2549C52.4702 84.2018 52.4068 84.1596 52.337 84.1308C52.2672 84.102 52.1924 84.0872 52.1168 84.0872H45.4723C45.3969 84.0872 45.3222 84.102 45.2526 84.1308C45.183 84.1596 45.1198 84.2019 45.0666 84.2551C45.0134 84.3084 44.9713 84.3715 44.9427 84.441C44.9141 84.5105 44.8996 84.5849 44.9001 84.66V86.6405C44.8882 87.334 45.0428 88.0203 45.3511 88.6423C45.6594 89.2643 46.1125 89.8039 46.6725 90.2164Z" fill="white" stroke="#263238" stroke-width="0.87381" stroke-linecap="round" stroke-linejoin="round"/>
<path d="M53.8914 84.9311C53.7132 84.8195 53.5089 84.7556 53.2986 84.7459C53.0883 84.7362 52.879 84.7809 52.6911 84.8757V85.5903C52.8744 85.5597 53.0625 85.597 53.2201 85.695C53.8171 86.0399 53.6903 86.7453 53.2727 87.4629C53.0817 87.8697 52.7532 88.1967 52.3447 88.3869C52.2226 88.6832 52.0681 88.9652 51.8838 89.2277C52.6788 89.4002 53.4057 88.7288 53.9749 87.7493C54.643 86.5974 54.8441 85.4794 53.8914 84.9311Z" fill="white" stroke="#263238" stroke-width="0.87381" stroke-linecap="round" stroke-linejoin="round"/>
<path d="M48.8749 80.9672C49.0286 80.4683 49.1048 79.949 49.1007 79.4272C49.1007 76.532 46.3662 76.1901 46.3662 72.9006" stroke="#263238" stroke-width="0.87381" stroke-linecap="round" stroke-linejoin="round"/>
<path d="M46.9346 83.5208C47.4299 83.2136 47.858 82.8103 48.1936 82.335" stroke="#263238" stroke-width="0.87381" stroke-linecap="round" stroke-linejoin="round"/>
<path d="M48.639 75.6603C48.4851 75.3776 48.4211 75.0556 48.4552 74.7363" stroke="#263238" stroke-width="0.87381" stroke-linecap="round" stroke-linejoin="round"/>
<path d="M50.7674 79.7259C50.6282 78.8204 50.1055 77.9703 49.5889 77.1973" stroke="#263238" stroke-width="0.87381" stroke-linecap="round" stroke-linejoin="round"/>
<path d="M49.1836 83.5545C49.1836 83.5545 50.0869 83.1757 50.5818 81.4663" stroke="#263238" stroke-width="0.87381" stroke-linecap="round" stroke-linejoin="round"/>
<path d="M54.7087 107.375H31.5458C29.8545 107.375 28.4834 108.74 28.4834 110.424V125.67C28.4834 127.354 29.8545 128.72 31.5458 128.72H54.7087C56.4 128.72 57.7711 127.354 57.7711 125.67V110.424C57.7711 108.74 56.4 107.375 54.7087 107.375Z" fill="white" stroke="#263238" stroke-width="0.87381" stroke-miterlimit="10"/>
<path d="M35.8057 122.061L36.1552 128.15L36.1954 128.202C36.4722 128.572 36.8329 128.872 37.2481 129.076C37.6633 129.281 38.1212 129.385 38.5845 129.38C39.0478 129.375 39.5032 129.261 39.9138 129.047C40.3243 128.833 40.6783 128.526 40.9468 128.15L41.0767 122.061H35.8057Z" fill="white" stroke="#263238" stroke-width="0.87381" stroke-linecap="round" stroke-linejoin="round"/>
<path d="M42.2331 134.1C39.8866 134.51 37.4865 134.51 35.1401 134.1C34.921 133.885 34.7326 133.64 34.5802 133.373C34.343 132.953 34.209 132.483 34.1891 132.001C34.1692 131.519 34.264 131.04 34.4657 130.601L35.8794 128.091L41.4814 128.153L42.7435 130.444C43.0463 130.988 43.1768 131.611 43.1177 132.23C43.0587 132.849 42.8128 133.435 42.4125 133.912C42.356 133.978 42.2961 134.041 42.2331 134.1Z" fill="#BFBFBF" stroke="#263238" stroke-width="0.87381" stroke-miterlimit="10"/>
<path d="M40.8574 130.94C41.204 131.092 41.5345 131.278 41.8442 131.495L40.8574 130.94Z" fill="#BFBFBF"/>
<path d="M40.8574 130.94C41.204 131.092 41.5345 131.278 41.8442 131.495" stroke="#263238" stroke-width="0.87381" stroke-miterlimit="10"/>
<path d="M35.5732 131.495C36.1881 131.076 36.8804 130.782 37.61 130.631C38.3396 130.481 39.092 130.476 39.8235 130.617" fill="#BFBFBF"/>
<path d="M35.5732 131.495C36.1881 131.076 36.8804 130.782 37.61 130.631C38.3396 130.481 39.092 130.476 39.8235 130.617" stroke="#263238" stroke-width="0.87381" stroke-miterlimit="10"/>
<path d="M32.7891 96.9309L35.2637 125.168H41.6639C41.6639 125.168 42.298 107.92 42.7001 96.7214C42.7264 96.0571 42.6174 95.3943 42.3797 94.773C42.142 94.1517 41.7805 93.5848 41.317 93.1062C40.8534 92.6277 40.2974 92.2475 39.6824 91.9886C39.0674 91.7296 38.4061 91.5972 37.7384 91.5994C37.0529 91.5971 36.3744 91.7366 35.7459 92.0091C35.1174 92.2816 34.5526 92.6811 34.0873 93.1824C33.622 93.6836 33.2663 94.2756 33.0428 94.9209C32.8194 95.5661 32.733 96.2506 32.7891 96.9309Z" fill="#263238"/>
<path d="M39.1582 91.7997C38.6922 91.6635 38.2086 91.596 37.7229 91.5995V91.5995C37.0387 91.5993 36.3619 91.7404 35.7353 92.0139C35.1086 92.2873 34.5457 92.6872 34.082 93.1882C33.6184 93.6892 33.2641 94.2804 33.0416 94.9246C32.819 95.5688 32.7331 96.252 32.7891 96.931L33.6676 107.375" stroke="white" stroke-width="0.87381" stroke-linecap="round" stroke-linejoin="round"/>
<path d="M41.8305 93.7245C41.577 93.3659 41.2787 93.0409 40.9427 92.7574C40.9427 92.7574 40.556 92.4494 40.3828 92.3508" stroke="white" stroke-width="0.87381" stroke-linecap="round" stroke-linejoin="round"/>
<path d="M42.2773 107.375C42.4042 103.88 42.6021 99.7893 42.7104 96.7216C42.74 95.96 42.5917 95.202 42.2773 94.5071" stroke="white" stroke-width="0.87381" stroke-linecap="round" stroke-linejoin="round"/>
<path d="M46.2168 122.061L46.5663 128.15L46.6066 128.202C46.8833 128.572 47.2441 128.872 47.6592 129.076C48.0744 129.281 48.5324 129.385 48.9956 129.38C49.4589 129.375 49.9144 129.261 50.3249 129.047C50.7354 128.833 51.0894 128.526 51.3579 128.15L51.4878 122.061H46.2168Z" fill="white" stroke="#263238" stroke-width="0.87381" stroke-linecap="round" stroke-linejoin="round"/>
<path d="M52.6459 134.1C50.2995 134.51 47.8993 134.51 45.5529 134.1C45.3343 133.885 45.1469 133.64 44.9961 133.373C44.7577 132.954 44.6228 132.483 44.6023 132.002C44.5819 131.52 44.6766 131.04 44.8785 130.601L46.2953 128.091L51.8942 128.153L53.1563 130.444C53.4592 130.988 53.5897 131.611 53.5306 132.23C53.4715 132.849 53.2256 133.435 52.8253 133.912C52.7688 133.978 52.709 134.041 52.6459 134.1Z" fill="#BFBFBF" stroke="#263238" stroke-width="0.87381" stroke-miterlimit="10"/>
<path d="M51.2695 130.94C51.6164 131.092 51.947 131.277 52.2563 131.495L51.2695 130.94Z" fill="#BFBFBF"/>
<path d="M51.2695 130.94C51.6164 131.092 51.947 131.277 52.2563 131.495" stroke="#263238" stroke-width="0.87381" stroke-miterlimit="10"/>
<path d="M45.9922 131.495C46.6071 131.076 47.2994 130.782 48.029 130.632C48.7585 130.481 49.5109 130.476 50.2424 130.617" fill="#BFBFBF"/>
<path d="M45.9922 131.495C46.6071 131.076 47.2994 130.782 48.029 130.632C48.7585 130.481 49.5109 130.476 50.2424 130.617" stroke="#263238" stroke-width="0.87381" stroke-miterlimit="10"/>
<path d="M43.211 96.9309L45.6856 125.168H52.0857C52.0857 125.168 52.7199 107.92 53.1251 96.7215C53.1493 96.0556 53.038 95.3917 52.798 94.7698C52.558 94.1478 52.1942 93.5805 51.7284 93.1021C51.2626 92.6237 50.7046 92.2439 50.0877 91.9857C49.4708 91.7275 48.8078 91.5961 48.1386 91.5994C47.4549 91.6001 46.7788 91.7418 46.1529 92.0157C45.5269 92.2895 44.9648 92.6894 44.5018 93.1903C44.0388 93.6912 43.6851 94.2822 43.4629 94.926C43.2408 95.5698 43.155 96.2525 43.211 96.9309Z" fill="#263238"/>
<path d="M50.1802 92.0245C49.5378 91.74 48.8418 91.5951 48.1386 91.5995C47.455 91.6002 46.7788 91.7419 46.1529 92.0157C45.527 92.2895 44.9648 92.6895 44.5018 93.1904C44.0388 93.6913 43.6851 94.2823 43.4629 94.926C43.2408 95.5698 43.155 96.2525 43.211 96.9309L44.139 107.375" stroke="white" stroke-width="0.87381" stroke-linecap="round" stroke-linejoin="round"/>
<path d="M52.2442 93.7247C51.9924 93.3648 51.6939 93.0396 51.3564 92.7576" stroke="white" stroke-width="0.87381" stroke-linecap="round" stroke-linejoin="round"/>
<path d="M52.9571 107.375C53.0839 103.879 53.0128 99.789 53.1241 96.7214C53.1492 96.0475 53.0355 95.3756 52.79 94.7471" stroke="white" stroke-width="0.87381" stroke-linecap="round" stroke-linejoin="round"/>
<path d="M128.761 48.8704V35.728C128.761 35.0925 128.508 34.483 128.056 34.0336C127.605 33.5842 126.993 33.3318 126.355 33.3318H105.648C105.01 33.3318 104.397 33.5842 103.946 34.0336C103.495 34.483 103.241 35.0925 103.241 35.728V48.8704C103.241 49.5059 103.495 50.1154 103.946 50.5648C104.397 51.0142 105.01 51.2666 105.648 51.2666H112.858L112.289 56.2685H116.001V60.984L120.406 53.284H116.793L117.174 51.2635H126.355C126.992 51.2635 127.604 51.0115 128.055 50.5628C128.507 50.1141 128.76 49.5054 128.761 48.8704Z" fill="white" stroke="#263238" stroke-width="1.02547" stroke-linecap="round" stroke-linejoin="round"/>
<path d="M107.193 37.8286H121.194" stroke="#263238" stroke-width="1.02547" stroke-linecap="round" stroke-linejoin="round"/>
<path d="M107.193 41.5522H124.807" stroke="#263238" stroke-width="1.02547" stroke-linecap="round" stroke-linejoin="round"/>
<path d="M107.193 45.2761H122.097" stroke="#263238" stroke-width="1.02547" stroke-linecap="round" stroke-linejoin="round"/>
<path d="M144.576 105.145L157.086 109.297L153.983 112.389L159.774 118.155L147.264 114.003L150.367 110.911L144.576 105.145Z" fill="#E8E8E8" stroke="#263238" stroke-width="1.02547" stroke-linecap="round" stroke-linejoin="round"/>
<path d="M87.4241 105.145L74.9147 109.297L78.0173 112.389L72.2266 118.155L84.736 114.003L81.6334 110.911L87.4241 105.145Z" fill="#E8E8E8" stroke="#263238" stroke-width="1.02547" stroke-linecap="round" stroke-linejoin="round"/>
<path d="M115.651 9.89917L109.752 21.6463H114.144V29.8021L120.04 18.055H115.651V9.89917Z" fill="#E8E8E8" stroke="#263238" stroke-width="1.02547" stroke-linecap="round" stroke-linejoin="round"/>
</svg>
